<svg xmlns="http://www.w3.org/2000/svg" width="21.95" height="21.89" data-name="Ebene 1" viewBox="0 0 21.95 21.89"><defs><style>.cls-1{fill:#052e37}</style></defs><path d="M18.51 8.85c-.62-.71-.87-1.45-.76-2.19.18-1.14 1.16-2.07 1.75-2.54q.03-.03 0-.06c-.14-.17-.28-.33-.42-.49q-.03-.03-.06 0c-.69.55-1.79 1.61-2 2.99q-.225 1.455.93 2.79c1.08 1.25 2.39 2.04 3.91 2.39.03 0 .05-.01.06-.04 0-.13.02-.46.03-.66 0-.02-.01-.04-.03-.04-1.33-.32-2.45-1.01-3.4-2.12z" class="cls-1"/><path d="M14.39 14.1c-2.29 1.23-3.37 1.11-3.88.79-.58-.37-.62-1.14-.6-1.46.05-1.18.67-2.23 1.38-3.43.89-1.5 1.9-3.21 2.08-5.66.08-1.01-.31-2.55-2.39-4.33h-.02c-.34 0-.67 0-1.01.04-.03 0-.04.05-.02.06 2.36 1.79 2.78 3.25 2.71 4.17-.17 2.28-1.13 3.91-1.98 5.34-.73 1.24-1.42 2.41-1.48 3.77-.04.94.3 1.71.95 2.12.34.22.76.32 1.24.32.89 0 2.02-.36 3.37-1.09 1.77-.95 3.86-.71 6.21.7.02.01.04 0 .05-.02.09-.21.18-.41.26-.62 0-.02 0-.04-.02-.04-2.55-1.51-4.86-1.74-6.86-.67z" style="fill:#bfce40" transform="translate(0 -.01)"/><path d="M7.28 18.72c-.87-3.1.23-5.78 1.65-8.7.14-.28.27-.56.41-.82.93-1.86 1.72-3.46 1.32-5.47C10.32 2.02 8.9 1.02 7.77.48h-.02c-.32.1-.64.21-.95.34-.02.01-.03.04 0 .05.99.36 2.78 1.24 3.14 3 .35 1.77-.36 3.2-1.26 5-.13.27-.27.54-.41.83-1.49 3.07-2.64 5.88-1.69 9.23.33 1.16.77 1.99 1.21 2.57l.02.01c.4.12.8.22 1.22.29.03 0 .05-.03.02-.05-.53-.43-1.28-1.3-1.76-3.02z" class="cls-1"/><path d="M7.95 6.16c.36-2.75-1.6-3.89-3.03-4.35h-.03c-.24.16-.47.33-.69.5-.02.02-.01.05.01.06 2.93.65 3.15 2.57 3 3.69-.82 6.37-4.54 8.44-6.38 9.08-.02 0-.03.03-.02.04.09.21.18.42.28.62 0 .01.02.02.04.02a9.2 9.2 0 0 0 3.09-1.84c2.04-1.82 3.29-4.45 3.73-7.82" class="cls-1"/><path d="M1.63 11.95c.19.06.39.09.59.09.71 0 1.45-.38 2.11-1.11 1.1-1.2 1.92-3.37 1.34-4.8C5.01 4.5 3.48 4.16 2.4 4.12h-.02q-.27.33-.51.69c-.01.02 0 .04.02.04 1.2-.03 2.53.17 3.09 1.55.41 1.02-.14 2.87-1.2 4.03-.37.41-1.13 1.06-1.94.81-.67-.2-1.25-1.26-1.63-2.31 0-.02-.05-.02-.05 0-.08.45-.13.89-.16 1.35v.01c.39.74.92 1.45 1.62 1.66z" class="cls-1"/><path d="M2.3 9.26c.06.01.13.02.19.02.34 0 .65-.14.9-.42.62-.68.71-1.43.23-2.01-.56-.67-1.76-.93-2.42-.51-.25.16-.77.63-.29 1.7.3.66.83 1.13 1.38 1.22zm-.7-2.3c.1-.06.24-.09.39-.09.37 0 .83.16 1.07.45.09.11.36.43-.2 1.04-.13.14-.28.2-.44.17-.3-.05-.64-.37-.83-.8-.12-.27-.22-.63 0-.77zM19.57 6.47c-.25.69-.11 1.45.38 2.09.44.57 1.05.95 1.86 1.16.03 0 .06-.02.06-.05-.03-.24-.06-.47-.11-.7 0-.02-.02-.03-.03-.04-.51-.17-.9-.44-1.2-.82-.34-.44-.44-.93-.27-1.39.09-.26.27-.49.49-.65.02-.01.02-.04.01-.06-.1-.19-.2-.38-.31-.57-.01-.02-.05-.03-.07-.02-.37.25-.67.61-.82 1.04zM16.21 11.67c-.38.03-.69.05-1.02 0-.5-.09-.88-.37-1.06-.79-.32-.73-.02-1.85.84-3.15.99-1.5 1.54-4.1.19-6.89 0 0-.01-.02-.02-.02-.31-.13-.62-.24-.94-.34-.03 0-.06.02-.04.05.91 1.61 1.76 4.44.2 6.79-1.28 1.93-1.2 3.16-.9 3.85.28.65.87 1.1 1.62 1.23.42.07.8.04 1.2.01.97-.08 2.29-.18 5.32 1.24.02 0 .05 0 .05-.02.05-.22.1-.44.14-.67 0-.02 0-.03-.02-.04-3.11-1.43-4.51-1.32-5.54-1.24zM16.27 15.36c-1.36.19-2.58.85-3.43 1.84-.86 1.01-1.23 2.24-1.06 3.48.06.41.18.81.35 1.18 0 .02.03.03.06.03.22-.02.44-.06.66-.1.04 0 .05-.05.04-.08a3.5 3.5 0 0 1-.38-1.15c-.15-1.03.17-2.06.89-2.9.73-.86 1.78-1.42 2.97-1.59 1.35-.19 2.71.18 3.67.98.02.02.06.02.08-.01q.18-.27.33-.54c.01-.02 0-.05-.01-.07-1.11-.89-2.64-1.31-4.17-1.09z" class="cls-1"/><path d="M17.51 17.4c-1.26.18-2.15 1.29-1.98 2.48.05.32.16.62.34.88.01.02.04.03.06.02.19-.1.38-.2.57-.31.02-.01.03-.05.01-.07-.14-.18-.22-.39-.26-.62-.11-.79.5-1.53 1.36-1.65.48-.07.96.08 1.3.37.02.02.05.02.07 0 .15-.16.29-.32.43-.48.02-.02.01-.05 0-.07-.5-.43-1.19-.65-1.89-.55z" class="cls-1"/></svg>