<svg xmlns="http://www.w3.org/2000/svg" width="121" height="16">
  <path fill="#1AABFF" fill-rule="evenodd" d="M8.03 10.62V13H.33V1.67h2.89v8.95h4.8zm5.24.57c.88 0 1.56-.58 1.56-1.33v-.57l-1.47.09c-.82.06-1.26.39-1.26.91 0 .56.47.9 1.17.9zm-1.02 1.94c-1.68 0-2.82-1.04-2.82-2.64s1.24-2.52 3.5-2.66l1.9-.1v-.69c0-.59-.44-.94-1.21-.94-.73 0-1.2.24-1.38.7h-2.5c.13-1.7 1.67-2.74 4.04-2.74 2.4 0 3.78 1.1 3.78 2.98V13h-2.7v-1.08h-.15c-.4.74-1.35 1.21-2.46 1.21zm19.91-8.87L29.9 13h-2.99l-1.36-5.76h-.15L24.05 13H21.1l-2.27-8.74h2.8l1.1 6h.15l1.32-6h2.64l1.34 6h.15l1.09-6h2.74zM33.7 13V4.26h2.78V13H33.7zm1.4-9.75c-.98 0-1.57-.5-1.57-1.23 0-.75.59-1.24 1.56-1.24.99 0 1.57.49 1.57 1.24 0 .73-.58 1.23-1.57 1.23zM38.65 13V4.26h2.7v1.42h.15c.38-.99 1.3-1.62 2.56-1.62 1.95 0 2.96 1.2 2.96 3.3V13h-2.78V7.97c0-1.05-.43-1.64-1.38-1.64-.9 0-1.44.67-1.44 1.68V13h-2.77zm14.39-6.97c-.91 0-1.55.63-1.62 1.62h3.17c-.04-1.02-.62-1.62-1.55-1.62zm1.66 4.4h2.53c-.3 1.7-1.9 2.77-4.17 2.77-2.78 0-4.39-1.64-4.39-4.51 0-2.88 1.65-4.63 4.35-4.63 2.7 0 4.27 1.63 4.27 4.42v.77h-5.88v.14c.02 1.14.67 1.84 1.73 1.84.81 0 1.37-.3 1.56-.8zM59.03 13V4.26h2.7v1.42h.15c.38-.99 1.3-1.62 2.55-1.62 1.95 0 2.96 1.2 2.96 3.3V13h-2.77V7.97c0-1.05-.44-1.64-1.38-1.64-.9 0-1.44.67-1.44 1.68V13h-2.77zm12.38.26c-1 0-1.58-.61-1.58-1.5 0-.88.59-1.5 1.58-1.5 1 0 1.58.62 1.58 1.5 0 .89-.59 1.5-1.58 1.5zm4.28-.26V4.54H77v1.25h.12c.25-.82 1.22-1.4 2.34-1.4.22 0 .5.01.68.04v1.35a5.6 5.6 0 0 0-.86-.08c-1.3 0-2.23.86-2.23 2.06V13H75.7zm9.27-7.42c-1.35 0-2.3.99-2.4 2.49h4.67c-.03-1.5-.93-2.49-2.27-2.49zm2.23 5.23h1.35c-.4 1.45-1.71 2.34-3.57 2.34-2.34 0-3.81-1.7-3.81-4.37s1.5-4.4 3.81-4.4c2.29 0 3.68 1.63 3.68 4.26v.52h-6.09v.06c.07 1.68 1 2.74 2.45 2.74 1.09 0 1.83-.4 2.18-1.15zm7.7-6.42c2.16 0 3.56 1.72 3.56 4.38 0 2.64-1.4 4.38-3.56 4.38-1.2 0-2.18-.53-2.64-1.42h-.13v4.1h-1.35V4.53h1.29v1.42h.12a3.05 3.05 0 0 1 2.71-1.56zm-.32 7.54c1.55 0 2.48-1.18 2.48-3.16 0-1.98-.93-3.17-2.47-3.17-1.53 0-2.5 1.22-2.5 3.17 0 1.94.97 3.16 2.49 3.16zm9.48 1.22c-2.41 0-3.9-1.67-3.9-4.38 0-2.73 1.49-4.38 3.9-4.38 2.4 0 3.9 1.65 3.9 4.38 0 2.71-1.5 4.38-3.9 4.38zm0-1.22c1.6 0 2.5-1.16 2.5-3.16 0-2.01-.9-3.17-2.5-3.17s-2.5 1.16-2.5 3.17c0 2 .9 3.16 2.5 3.16zm6.02 1.07V4.54h1.29v1.25h.12c.25-.82 1.23-1.4 2.35-1.4.22 0 .5.01.67.04v1.35c-.1-.03-.6-.08-.86-.08-1.29 0-2.22.86-2.22 2.06V13h-1.35zm7.16-10.65h1.35v2.19h1.88v1.13h-1.88v4.79c0 1 .38 1.42 1.26 1.42.24 0 .37-.01.62-.03v1.13c-.26.05-.52.08-.79.08-1.74 0-2.44-.64-2.44-2.26V5.67h-1.37V4.54h1.37v-2.2z"/>
</svg>
