<?xml version="1.0" encoding="utf-8"?>
<!-- Generator: Adobe Illustrator 16.0.0, SVG Export Plug-In . SVG Version: 6.00 Build 0)  -->
<!DOCTYPE svg PUBLIC "-//W3C//DTD SVG 1.1//EN" "http://www.w3.org/Graphics/SVG/1.1/DTD/svg11.dtd">
<svg version="1.1" id="symbol" xmlns="http://www.w3.org/2000/svg" xmlns:xlink="http://www.w3.org/1999/xlink" x="0px" y="0px"
	 width="814.333px" height="595.28px" viewBox="0 0 814.333 595.28" enable-background="new 0 0 814.333 595.28"
	 xml:space="preserve">
<g id="_x31_">
	<g id="Layer_12_copy_14">
		<path fill="#FFFFFF" stroke="#000000" stroke-width="9" stroke-miterlimit="10" d="M556.451,293.269c0,0,2.362,3.874,0,6.306
			S310.028,546.066,310.028,546.066s-3.942,3.384-7.326,0S56.474,299.825,56.474,299.825s-3.408-3.919,0-7.327
			s245.981-245.98,245.981-245.98s3.999-3.329,7.328,0L467.251,204"/>
	</g>
	<path id="color_4_" fill="#CBD859" d="M556.053,300.086l-245.98,245.98c-2.024,2.023-5.303,2.023-7.326,0L56.765,300.086
		c-0.023-0.023-0.038-0.051-0.061-0.074l-0.186-0.188c0,0-1.369-1.64-1.308-3.533s502.312,0,502.312,0
		S557.536,298.603,556.053,300.086z"/>
	<text transform="matrix(1 0 0 1 242.541 466.002)" display="none" font-family="'MyriadPro-Bold'" font-size="230">1</text>
	<path d="M296.82,347.555h-0.46l-28.52,13.569l-5.75-26.22l39.56-18.399h28.979v149.497H296.82V347.555z"/>
	<path fill="none" stroke="#000000" stroke-width="9" stroke-miterlimit="10" d="M523.962,260.696l31.801,31.802
		c0.024,0.023,0.04,0.053,0.063,0.076l0.184,0.185c2.023,2.023,2.023,5.304-0.001,7.327l-245.98,245.98
		c-2.024,2.023-5.303,2.023-7.326,0L56.721,300.086c-0.023-0.023-0.038-0.051-0.061-0.074l-0.186-0.187
		c-2.023-2.024-2.022-5.304,0-7.327l245.981-245.98c2.024-2.023,5.304-2.024,7.328,0l114.778,114.793L523.962,260.696z"/>
	<path stroke="#000000" stroke-width="6" stroke-miterlimit="10" d="M522.522,261.947c-4.986,2.951-10.975,4.462-17.171,4.462
		c-9.656,0-18.356-4.114-24.495-10.693L360.567,134.582l-77.171,48.086l-44.222-27l-101.402,57.236l-79.856,80.907h496.611
		L522.522,261.947z"/>
</g>
<g id="_x31_-2" display="none">
	<g id="Layer_12_copy_20" display="inline">
		<path fill="#FFFFFF" stroke="#000000" stroke-width="9" stroke-miterlimit="10" d="M556.451,293.269c0,0,2.362,3.874,0,6.306
			S310.028,546.066,310.028,546.066s-3.942,3.384-7.326,0S56.474,299.825,56.474,299.825s-3.408-3.919,0-7.327
			s245.981-245.98,245.981-245.98s3.999-3.329,7.328,0L467.251,204"/>
	</g>
	<path id="outline_1_" display="inline" fill="#FFFFFF" stroke="#000000" stroke-width="6" stroke-miterlimit="10" d="
		M556.01,292.759l-31.801-31.802c10.075-5.901,17.647-16.029,17.647-28.548c0-17.9-13.836-32.558-31.395-33.891
		c3.102-4.429,4.927-9.817,4.927-15.634c0-15.076-12.221-27.296-27.295-27.296c-7.759,0-14.756,3.242-19.726,8.438
		c-3.838-8.331-12.258-14.118-22.031-14.118c-8.988,0-16.829,4.895-21.018,12.159L310.03,46.779c-2.024-2.024-5.304-2.023-7.328,0
		L56.721,292.76c-2.022,2.023-2.023,5.303,0,7.327l245.981,245.979c2.023,2.024,5.302,2.024,7.326,0l245.98-245.98
		C558.033,298.063,558.033,294.783,556.01,292.759z"/>
	<path display="inline" fill="#F3E600" d="M306.078,292.516v251.985c1.388,0.05,2.79-0.44,3.851-1.5l245.98-245.98
		c1.483-1.483,1.47-3.794,1.47-3.794S431.704,292.752,306.078,292.516z"/>
	<path display="inline" fill="#CBD859" d="M306.078,294.516c-125.515-0.236-250.98-0.236-251.011,0.71
		c-0.061,1.893,1.308,3.533,1.308,3.533l0.186,0.188c0.023,0.023,0.038,0.051,0.061,0.074l245.981,245.98
		c0.964,0.964,2.214,1.454,3.476,1.5V294.516z"/>
	<text transform="matrix(1 0 0 1 331.8984 416.9365)" font-family="'MyriadPro-Bold'" font-size="150">2</text>
	<text transform="matrix(1 0 0 1 195.8984 416.9365)" font-family="'MyriadPro-Bold'" font-size="150">1</text>
	<g display="inline">
		<path d="M338.198,416.937v-13.8l12.6-11.399c21.3-19.049,31.649-29.998,31.949-41.398c0-7.949-4.8-14.249-16.05-14.249
			c-8.399,0-15.749,4.2-20.849,8.1l-6.45-16.35c7.351-5.55,18.749-10.049,31.949-10.049c22.049,0,34.198,12.899,34.198,30.599
			c0,16.349-11.85,29.398-25.949,41.998l-8.999,7.5v0.3h36.748v18.749H338.198z"/>
	</g>
	<g display="inline">
		<path d="M231.298,339.689h-0.301l-18.6,8.85l-3.75-17.099l25.799-12h18.9v97.496h-22.049V339.689z"/>
	</g>
	<g display="inline">
		<path d="M485.417,200c0,0,0.183-0.001,0.531,0.026c0.345,0.036,0.854,0.091,1.494,0.229c0.635,0.147,1.411,0.346,2.267,0.692
			c0.852,0.349,1.815,0.788,2.764,1.452c0.482,0.32,0.978,0.671,1.443,1.098c0.499,0.393,0.936,0.88,1.378,1.392
			c0.899,1.011,1.678,2.236,2.282,3.594c0.324,0.67,0.508,1.4,0.77,2.12c0.234,0.726,0.333,1.486,0.479,2.246
			c0.149,0.761,0.126,1.531,0.194,2.304l0.034,0.581l0.008,0.146l0.003,0.036l-0.004,0.116l-0.003,0.068l-0.013,0.272l-0.052,1.09
			c-0.024,0.366-0.039,0.72-0.077,1.096l-0.206,1.195l-0.222,1.187l-0.352,1.119c-0.122,0.37-0.233,0.741-0.363,1.103
			c-0.168,0.35-0.336,0.698-0.502,1.043c-0.303,0.704-0.728,1.336-1.139,1.957c-0.377,0.642-0.896,1.172-1.356,1.713
			c-0.48,0.525-1.029,0.961-1.521,1.418c-0.553,0.386-1.055,0.805-1.599,1.118c-0.555,0.294-1.06,0.625-1.598,0.837
			c-1.041,0.491-2.038,0.819-2.936,1.023c-0.887,0.237-1.684,0.334-2.334,0.39c-0.646,0.076-1.165,0.046-1.51,0.043
			c-0.346-0.024-0.53-0.037-0.53-0.037s0.178-0.047,0.512-0.134c0.329-0.092,0.81-0.234,1.401-0.455
			c0.298-0.103,0.623-0.226,0.968-0.385c0.347-0.148,0.722-0.301,1.106-0.503c0.393-0.179,0.794-0.4,1.205-0.65
			c0.423-0.226,0.841-0.504,1.272-0.794c0.866-0.578,1.7-1.321,2.54-2.117c0.779-0.861,1.536-1.806,2.149-2.887
			c0.302-0.543,0.62-1.085,0.825-1.697c0.118-0.296,0.237-0.594,0.356-0.893l0.266-0.942l0.266-0.947l0.15-0.951l0.168-0.951
			c0.033-0.347,0.04-0.722,0.065-1.082l0.077-1.088l0.02-0.272l0.005-0.068l0.001-0.017c0.001-0.023-0.005,0.143-0.003,0.065
			l-0.001-0.032l-0.005-0.127l-0.021-0.506c-0.047-0.67-0.001-1.358-0.118-2.006c-0.126-0.645-0.159-1.311-0.309-1.935
			c-0.182-0.611-0.283-1.252-0.517-1.828c-0.447-1.157-0.941-2.268-1.604-3.213c-0.165-0.238-0.327-0.473-0.487-0.704
			c-0.168-0.226-0.366-0.421-0.536-0.637c-0.337-0.438-0.717-0.813-1.095-1.166c-0.747-0.713-1.518-1.293-2.227-1.784
			c-0.72-0.47-1.378-0.854-1.938-1.146c-0.565-0.274-1.018-0.495-1.336-0.622C485.588,200.067,485.417,200,485.417,200z"/>
	</g>
	
		<line display="inline" fill="none" stroke="#000000" stroke-width="6" stroke-miterlimit="10" x1="306.358" y1="292.622" x2="306.373" y2="546.395"/>
	<path display="inline" fill="none" stroke="#000000" stroke-width="9" stroke-miterlimit="10" d="M523.962,260.696l31.801,31.802
		c0.024,0.024,0.04,0.053,0.063,0.077l0.184,0.184c2.023,2.023,2.023,5.303-0.001,7.327l-245.98,245.98
		c-2.024,2.023-5.303,2.023-7.326,0L56.721,300.086c-0.023-0.023-0.038-0.051-0.061-0.074l-0.186-0.187
		c-2.023-2.024-2.022-5.304,0-7.327l245.981-245.98c2.024-2.023,5.304-2.024,7.328,0l114.778,114.793c0,0,0.683-2.311,1.767-3.311"
		/>
	<path display="inline" stroke="#000000" stroke-width="6" stroke-miterlimit="10" d="M522.522,261.947
		c-4.986,2.951-10.975,4.462-17.171,4.462c-9.656,0-18.356-4.114-24.495-10.693L360.567,134.582l-77.171,48.086l-44.222-27
		l-101.402,57.236l-79.856,80.907h496.611L522.522,261.947z"/>
</g>
<g id="_x31_-3" display="none">
	<g id="Layer_12_copy_19" display="inline">
		<path fill="#FFFFFF" stroke="#000000" stroke-width="9" stroke-miterlimit="10" d="M556.451,293.269c0,0,2.362,3.874,0,6.306
			S310.028,546.066,310.028,546.066s-3.942,3.384-7.326,0S56.474,299.825,56.474,299.825s-3.408-3.919,0-7.327
			s245.981-245.98,245.981-245.98s3.999-3.329,7.328,0L467.251,204"/>
	</g>
	<path display="inline" fill="#F49819" d="M306.222,292.516v251.985c1.388,0.05,2.79-0.44,3.851-1.5l245.98-245.98
		c1.483-1.483,1.47-3.794,1.47-3.794S431.848,292.752,306.222,292.516z"/>
	<path display="inline" fill="#CBD859" d="M306.222,294.516c-125.515-0.236-250.98-0.236-251.011,0.71
		c-0.061,1.893,1.308,3.533,1.308,3.533l0.186,0.188c0.023,0.023,0.038,0.051,0.061,0.074l245.981,245.98
		c0.964,0.964,2.214,1.454,3.476,1.5V294.516z"/>
	<text transform="matrix(1 0 0 1 332.043 416.9365)" font-family="'MyriadPro-Bold'" font-size="150">3</text>
	<text transform="matrix(1 0 0 1 196.042 416.9365)" font-family="'MyriadPro-Bold'" font-size="150">1</text>
	<g display="inline">
		<path d="M342.393,394.588c4.049,2.1,13.35,5.999,22.648,5.999c11.85,0,17.85-5.699,17.85-13.049c0-9.6-9.6-13.95-19.649-13.95
			h-9.3v-16.349h8.85c7.649-0.15,17.399-3,17.399-11.25c0-5.85-4.8-10.199-14.399-10.199c-7.949,0-16.35,3.449-20.398,5.85
			l-4.65-16.499c5.85-3.75,17.549-7.35,30.148-7.35c20.85,0,32.399,10.949,32.399,24.299c0,10.35-5.851,18.449-17.85,22.648v0.301
			c11.699,2.1,21.149,10.949,21.149,23.698c0,17.25-15.149,29.85-39.898,29.85c-12.6,0-23.25-3.301-28.949-6.9L342.393,394.588z"/>
	</g>
	<g display="inline">
		<path d="M231.441,339.689h-0.301l-18.6,8.85l-3.75-17.099l25.799-12h18.9v97.496h-22.049V339.689z"/>
	</g>
	<path display="inline" fill="#FFFFFF" stroke="#000000" stroke-width="6" stroke-miterlimit="10" d="M54.707,293.25h567.035
		c0,0,37.999,0.999,41.666-40.667c3.667-37.333-43-46.667-51.666-40.667c0,0-9.334-34.667-42.667-34c0,0-26.969-5.364-44,31
		c0,0-26.667-16.333-45.2,8.2"/>
	
		<line display="inline" fill="none" stroke="#000000" stroke-width="6" stroke-miterlimit="10" x1="306.358" y1="292.622" x2="306.373" y2="546.395"/>
	<g display="inline">
		<path d="M520.283,240.425c0,0,0.134-0.262,0.431-0.739c0.307-0.466,0.763-1.153,1.435-1.962c0.349-0.39,0.728-0.836,1.163-1.303
			c0.452-0.447,0.943-0.938,1.508-1.418c1.131-0.955,2.475-2.002,4.123-2.874c0.414-0.217,0.837-0.439,1.268-0.666
			c0.439-0.212,0.91-0.373,1.38-0.567c0.475-0.181,0.953-0.39,1.458-0.539c0.511-0.132,1.03-0.266,1.557-0.401
			c2.116-0.534,4.447-0.696,6.839-0.571c1.201,0.027,2.381,0.319,3.602,0.492c1.209,0.218,2.364,0.65,3.563,0.999
			c0.608,0.159,1.167,0.422,1.733,0.673l1.703,0.765l0.852,0.391l0.213,0.098l0.053,0.025l0.144,0.08l0.023,0.014l0.094,0.056
			l0.376,0.224l1.507,0.896c0.502,0.31,0.994,0.594,1.499,0.93l1.551,1.191l1.527,1.206l1.331,1.342
			c0.436,0.45,0.881,0.887,1.3,1.344c0.375,0.501,0.747,0.999,1.118,1.494c0.353,0.507,0.767,0.962,1.056,1.503
			c0.297,0.533,0.592,1.063,0.885,1.588l0.429,0.785c0.131,0.266,0.229,0.547,0.344,0.818c0.215,0.546,0.429,1.088,0.64,1.624
			c0.39,1.079,0.613,2.186,0.887,3.232c0.131,1.079,0.336,2.111,0.377,3.12c0.004,1.012,0.105,1.979-0.001,2.905
			c-0.069,0.925-0.115,1.805-0.285,2.629c-0.072,0.411-0.143,0.812-0.211,1.201c-0.094,0.383-0.186,0.755-0.273,1.115
			c-0.169,0.719-0.354,1.383-0.582,1.981c-0.196,0.604-0.414,1.146-0.625,1.628c-0.194,0.487-0.389,0.913-0.589,1.271
			c-0.192,0.36-0.336,0.669-0.491,0.906c-0.296,0.472-0.454,0.724-0.454,0.724s0.065-0.289,0.187-0.829
			c0.113-0.539,0.265-1.329,0.389-2.336c0.073-0.5,0.139-1.055,0.167-1.664c0.02-0.303,0.043-0.616,0.075-0.938
			c0.01-0.325,0.019-0.662,0.029-1.01c0.007-0.345,0.015-0.702,0.022-1.069c-0.018-0.366-0.036-0.742-0.055-1.129
			c-0.009-0.769-0.104-1.57-0.2-2.397c-0.051-0.832-0.279-1.674-0.425-2.545c-0.173-0.868-0.471-1.733-0.702-2.629
			c-0.37-0.855-0.635-1.768-1.071-2.627c-0.489-0.834-0.81-1.767-1.428-2.56c-0.275-0.413-0.553-0.828-0.831-1.247
			c-0.258-0.431-0.643-0.784-0.958-1.184c-0.329-0.39-0.66-0.781-0.992-1.175c-0.368-0.366-0.76-0.715-1.138-1.077l-1.146-1.08
			c-0.418-0.299-0.826-0.608-1.234-0.921l-1.221-0.944c-0.468-0.306-0.996-0.598-1.489-0.9l-1.495-0.916l-0.373-0.229l-0.094-0.057
			l-0.022-0.014c-0.034-0.02,0.207,0.118,0.094,0.055l-0.046-0.021l-0.184-0.086l-0.734-0.344l-1.459-0.702
			c-0.482-0.239-0.96-0.494-1.467-0.638c-0.498-0.175-0.995-0.349-1.488-0.521c-0.495-0.164-0.977-0.405-1.481-0.484
			c-0.501-0.114-0.999-0.227-1.493-0.339c-0.495-0.104-0.983-0.274-1.479-0.292c-1.971-0.259-3.911-0.358-5.743-0.134
			c-0.461,0.052-0.915,0.103-1.362,0.153c-0.446,0.066-0.872,0.196-1.305,0.279c-0.428,0.101-0.86,0.169-1.27,0.292
			c-0.407,0.133-0.808,0.264-1.199,0.392c-1.576,0.508-2.979,1.166-4.207,1.801c-0.616,0.317-1.147,0.686-1.686,0.973
			c-0.514,0.319-0.974,0.635-1.4,0.912c-0.411,0.299-0.778,0.566-1.098,0.799c-0.313,0.247-0.578,0.456-0.794,0.626
			C520.51,240.227,520.283,240.425,520.283,240.425z"/>
	</g>
	<g id="Layer_8_copy_4" display="inline">
		<path stroke="#000000" stroke-miterlimit="10" d="M487.497,262.829"/>
		<path stroke="#000000" stroke-miterlimit="10" d="M360.313,130.031l-6.844,4.563L485,265.563c0,0,2.438,1.813,5.063-0.5
			s0-5.625,0-5.625L360.313,130.031z"/>
	</g>
	<g id="Layer_7_copy_2" display="inline">
		<path stroke="#000000" stroke-width="5" stroke-miterlimit="10" d="M57,293l85-83.5l97-54.5l44,27l54.5-34.5l118,118
			c0,0,21.5,27.5,48,27.5S57,293,57,293z"/>
	</g>
	<polyline display="inline" fill="none" stroke="#000000" stroke-width="9" stroke-miterlimit="10" points="480.423,214.043 
		479.031,215.726 475.563,212.257 	"/>
	<path display="inline" fill="none" stroke="#000000" stroke-width="9" stroke-miterlimit="10" d="M557.416,295.354
		c0.52,2.792-1.407,4.731-1.407,4.731s-242.774,242.773-245.98,245.98s-7.326,0-7.326,0S59.776,303.141,56.474,299.825
		s0-7.327,0-7.327S299.018,49.955,302.455,46.518s7.328,0,7.328,0l167.085,167.091l2.496,2.496l0.169,0.168l0.559,0.56"/>
</g>
<g id="_x32_" display="none">
	<g id="Layer_12_copy_18" display="inline">
		<path fill="#FFFFFF" stroke="#000000" stroke-width="9" stroke-miterlimit="10" d="M556.451,293.269c0,0,2.362,3.874,0,6.306
			S310.028,546.066,310.028,546.066s-3.942,3.384-7.326,0S56.474,299.825,56.474,299.825s-3.408-3.919,0-7.327
			s245.981-245.98,245.981-245.98s3.999-3.329,7.328,0L467.251,204"/>
	</g>
	<path id="outline_2_" display="inline" fill="#FFFFFF" stroke="#000000" stroke-width="6" stroke-miterlimit="10" d="
		M556.01,292.759l-31.801-31.802c10.075-5.901,17.647-16.029,17.647-28.548c0-17.9-13.836-32.558-31.395-33.891
		c3.102-4.429,4.927-9.817,4.927-15.634c0-15.076-12.221-27.296-27.295-27.296c-7.759,0-14.756,3.242-19.726,8.438
		c-3.838-8.331-12.258-14.118-22.031-14.118c-8.988,0-16.829,4.895-21.018,12.159L310.03,46.779c-2.024-2.024-5.304-2.023-7.328,0
		L56.721,292.76c-2.022,2.023-2.023,5.303,0,7.327l245.981,245.979c2.023,2.024,5.302,2.024,7.326,0l245.98-245.98
		C558.033,298.063,558.033,294.783,556.01,292.759z"/>
	<g display="inline">
		<path d="M485.417,200c0,0,0.183-0.001,0.531,0.026c0.345,0.036,0.854,0.091,1.494,0.229c0.635,0.147,1.411,0.346,2.267,0.692
			c0.852,0.349,1.815,0.788,2.764,1.452c0.482,0.32,0.978,0.671,1.443,1.098c0.499,0.393,0.936,0.88,1.378,1.392
			c0.899,1.011,1.678,2.236,2.282,3.594c0.324,0.67,0.508,1.4,0.77,2.12c0.234,0.726,0.333,1.486,0.479,2.246
			c0.149,0.761,0.126,1.531,0.194,2.304l0.034,0.581l0.008,0.146l0.003,0.036l-0.004,0.116l-0.003,0.068l-0.013,0.272l-0.052,1.09
			c-0.024,0.366-0.039,0.72-0.077,1.096l-0.206,1.195l-0.222,1.187l-0.352,1.119c-0.122,0.37-0.233,0.741-0.363,1.103
			c-0.168,0.35-0.336,0.698-0.502,1.043c-0.303,0.704-0.728,1.336-1.139,1.957c-0.377,0.642-0.896,1.172-1.356,1.713
			c-0.48,0.525-1.029,0.961-1.521,1.418c-0.553,0.386-1.055,0.805-1.599,1.118c-0.555,0.294-1.06,0.625-1.598,0.837
			c-1.041,0.491-2.038,0.819-2.936,1.023c-0.887,0.237-1.684,0.334-2.334,0.39c-0.646,0.076-1.165,0.046-1.51,0.043
			c-0.346-0.024-0.53-0.037-0.53-0.037s0.178-0.047,0.512-0.134c0.329-0.092,0.81-0.234,1.401-0.455
			c0.298-0.103,0.623-0.226,0.968-0.385c0.347-0.148,0.722-0.301,1.106-0.503c0.393-0.179,0.794-0.4,1.205-0.65
			c0.423-0.226,0.841-0.504,1.272-0.794c0.866-0.578,1.7-1.321,2.54-2.117c0.779-0.861,1.536-1.806,2.149-2.887
			c0.302-0.543,0.62-1.085,0.825-1.697c0.118-0.296,0.237-0.594,0.356-0.893l0.266-0.942l0.266-0.947l0.15-0.951l0.168-0.951
			c0.033-0.347,0.04-0.722,0.065-1.082l0.077-1.088l0.02-0.272l0.005-0.068l0.001-0.017c0.001-0.023-0.005,0.143-0.003,0.065
			l-0.001-0.032l-0.005-0.127l-0.021-0.506c-0.047-0.67-0.001-1.358-0.118-2.006c-0.126-0.645-0.159-1.311-0.309-1.935
			c-0.182-0.611-0.283-1.252-0.517-1.828c-0.447-1.157-0.941-2.268-1.604-3.213c-0.165-0.238-0.327-0.473-0.487-0.704
			c-0.168-0.226-0.366-0.421-0.536-0.637c-0.337-0.438-0.717-0.813-1.095-1.166c-0.747-0.713-1.518-1.293-2.227-1.784
			c-0.72-0.47-1.378-0.854-1.938-1.146c-0.565-0.274-1.018-0.495-1.336-0.622C485.588,200.067,485.417,200,485.417,200z"/>
	</g>
	<path id="color_3_" display="inline" fill="#F3E600" d="M556.053,300.086l-245.98,245.98c-2.024,2.023-5.303,2.023-7.326,0
		L56.765,300.086c-0.023-0.023-0.038-0.051-0.061-0.074l-0.186-0.187c0,0-1.369-1.64-1.308-3.533s502.312,0,502.312,0
		S557.536,298.604,556.053,300.086z"/>
	<text transform="matrix(1 0 0 1 242.541 466.002)" font-family="'MyriadPro-Bold'" font-size="230">2</text>
	<g display="inline">
		<path d="M252.201,466.002v-21.159l19.32-17.48c32.659-29.209,48.529-45.999,48.989-63.479c0-12.19-7.36-21.85-24.61-21.85
			c-12.879,0-24.149,6.44-31.969,12.42l-9.89-25.069c11.27-8.51,28.749-15.41,48.989-15.41c33.809,0,52.438,19.779,52.438,46.92
			c0,25.069-18.17,45.078-39.789,64.398l-13.8,11.5v0.46h56.349v28.749H252.201z"/>
	</g>
	<path display="inline" fill="none" stroke="#000000" stroke-width="9" stroke-miterlimit="10" d="M523.962,260.696l31.801,31.802
		c0.024,0.024,0.04,0.053,0.063,0.077l0.184,0.184c2.023,2.023,2.023,5.303-0.001,7.327l-245.98,245.98
		c-2.024,2.023-5.303,2.023-7.326,0L56.721,300.086c-0.023-0.023-0.038-0.051-0.061-0.074l-0.186-0.187
		c-2.023-2.024-2.022-5.304,0-7.327l245.981-245.98c2.024-2.023,5.304-2.024,7.328,0l114.778,114.793c0,0,0.683-2.311,1.767-3.311"
		/>
	<path display="inline" stroke="#000000" stroke-width="6" stroke-miterlimit="10" d="M522.522,261.947
		c-4.986,2.951-10.975,4.462-17.171,4.462c-9.656,0-18.356-4.114-24.495-10.693L360.567,134.582l-77.171,48.086l-44.222-27
		l-101.402,57.236l-79.856,80.907h496.611L522.522,261.947z"/>
</g>
<g id="_x32_-1" display="none">
	<g id="Layer_12_copy_17" display="inline">
		<path fill="#FFFFFF" stroke="#000000" stroke-width="9" stroke-miterlimit="10" d="M556.451,293.269c0,0,2.362,3.874,0,6.306
			S310.028,546.066,310.028,546.066s-3.942,3.384-7.326,0S56.474,299.825,56.474,299.825s-3.408-3.919,0-7.327
			s245.981-245.98,245.981-245.98s3.999-3.329,7.328,0L467.251,204"/>
	</g>
	<path id="outline_3_" display="inline" fill="#FFFFFF" stroke="#000000" stroke-width="6" stroke-miterlimit="10" d="
		M556.01,292.759l-31.801-31.802c10.075-5.901,17.647-16.029,17.647-28.548c0-17.9-13.836-32.558-31.395-33.891
		c3.102-4.429,4.927-9.817,4.927-15.634c0-15.076-12.221-27.296-27.295-27.296c-7.759,0-14.756,3.242-19.726,8.438
		c-3.838-8.331-12.258-14.118-22.031-14.118c-8.988,0-16.829,4.895-21.018,12.159L310.03,46.779c-2.024-2.024-5.304-2.023-7.328,0
		L56.721,292.76c-2.022,2.023-2.023,5.303,0,7.327l245.981,245.979c2.023,2.024,5.302,2.024,7.326,0l245.98-245.98
		C558.033,298.063,558.033,294.783,556.01,292.759z"/>
	<path display="inline" fill="#CBD859" d="M306.229,292.516v251.985c1.388,0.05,2.79-0.44,3.851-1.5l245.98-245.98
		c1.483-1.483,1.47-3.794,1.47-3.794S431.855,292.752,306.229,292.516z"/>
	<path display="inline" fill="#F3E600" d="M306.229,294.516c-125.515-0.236-250.98-0.236-251.011,0.71
		c-0.061,1.893,1.308,3.533,1.308,3.533l0.186,0.188c0.023,0.023,0.038,0.051,0.061,0.074l245.981,245.98
		c0.964,0.964,2.214,1.454,3.476,1.5V294.516z"/>
	<text transform="matrix(1 0 0 1 332.0508 416.9365)" font-family="'MyriadPro-Bold'" font-size="150">1</text>
	<text transform="matrix(1 0 0 1 196.0498 416.9365)" font-family="'MyriadPro-Bold'" font-size="150">2</text>
	<g display="inline">
		<path d="M367.449,339.689h-0.301l-18.599,8.85l-3.75-17.099l25.799-12h18.899v97.496h-22.049V339.689z"/>
	</g>
	<g display="inline">
		<path d="M202.35,416.937v-13.8l12.6-11.399c21.299-19.049,31.648-29.998,31.949-41.398c0-7.949-4.801-14.249-16.051-14.249
			c-8.398,0-15.748,4.2-20.849,8.1l-6.45-16.35c7.351-5.55,18.75-10.049,31.949-10.049c22.049,0,34.199,12.899,34.199,30.599
			c0,16.349-11.85,29.398-25.949,41.998l-9,7.5v0.3h36.748v18.749H202.35z"/>
	</g>
	<g display="inline">
		<path d="M485.417,200c0,0,0.183-0.001,0.531,0.026c0.345,0.036,0.854,0.091,1.494,0.229c0.635,0.147,1.411,0.346,2.267,0.692
			c0.852,0.349,1.815,0.788,2.764,1.452c0.482,0.32,0.978,0.671,1.443,1.098c0.499,0.393,0.936,0.88,1.378,1.392
			c0.899,1.011,1.678,2.236,2.282,3.594c0.324,0.67,0.508,1.4,0.77,2.12c0.234,0.726,0.333,1.486,0.479,2.246
			c0.149,0.761,0.126,1.531,0.194,2.304l0.034,0.581l0.008,0.146l0.003,0.036l-0.004,0.116l-0.003,0.068l-0.013,0.272l-0.052,1.09
			c-0.024,0.366-0.039,0.72-0.077,1.096l-0.206,1.195l-0.222,1.187l-0.352,1.119c-0.122,0.37-0.233,0.741-0.363,1.103
			c-0.168,0.35-0.336,0.698-0.502,1.043c-0.303,0.704-0.728,1.336-1.139,1.957c-0.377,0.642-0.896,1.172-1.356,1.713
			c-0.48,0.525-1.029,0.961-1.521,1.418c-0.553,0.386-1.055,0.805-1.599,1.118c-0.555,0.294-1.06,0.625-1.598,0.837
			c-1.041,0.491-2.038,0.819-2.936,1.023c-0.887,0.237-1.684,0.334-2.334,0.39c-0.646,0.076-1.165,0.046-1.51,0.043
			c-0.346-0.024-0.53-0.037-0.53-0.037s0.178-0.047,0.512-0.134c0.329-0.092,0.81-0.234,1.401-0.455
			c0.298-0.103,0.623-0.226,0.968-0.385c0.347-0.148,0.722-0.301,1.106-0.503c0.393-0.179,0.794-0.4,1.205-0.65
			c0.423-0.226,0.841-0.504,1.272-0.794c0.866-0.578,1.7-1.321,2.54-2.117c0.779-0.861,1.536-1.806,2.149-2.887
			c0.302-0.543,0.62-1.085,0.825-1.697c0.118-0.296,0.237-0.594,0.356-0.893l0.266-0.942l0.266-0.947l0.15-0.951l0.168-0.951
			c0.033-0.347,0.04-0.722,0.065-1.082l0.077-1.088l0.02-0.272l0.005-0.068l0.001-0.017c0.001-0.023-0.005,0.143-0.003,0.065
			l-0.001-0.032l-0.005-0.127l-0.021-0.506c-0.047-0.67-0.001-1.358-0.118-2.006c-0.126-0.645-0.159-1.311-0.309-1.935
			c-0.182-0.611-0.283-1.252-0.517-1.828c-0.447-1.157-0.941-2.268-1.604-3.213c-0.165-0.238-0.327-0.473-0.487-0.704
			c-0.168-0.226-0.366-0.421-0.536-0.637c-0.337-0.438-0.717-0.813-1.095-1.166c-0.747-0.713-1.518-1.293-2.227-1.784
			c-0.72-0.47-1.378-0.854-1.938-1.146c-0.565-0.274-1.018-0.495-1.336-0.622C485.588,200.067,485.417,200,485.417,200z"/>
	</g>
	
		<line display="inline" fill="none" stroke="#000000" stroke-width="6" stroke-miterlimit="10" x1="306.358" y1="292.622" x2="306.373" y2="546.395"/>
	<path display="inline" fill="none" stroke="#000000" stroke-width="9" stroke-miterlimit="10" d="M523.962,260.696l31.801,31.802
		c0.024,0.024,0.04,0.053,0.063,0.077l0.184,0.184c2.023,2.023,2.023,5.303-0.001,7.327l-245.98,245.98
		c-2.024,2.023-5.303,2.023-7.326,0L56.721,300.086c-0.023-0.023-0.038-0.051-0.061-0.074l-0.186-0.187
		c-2.023-2.024-2.022-5.304,0-7.327l245.981-245.98c2.024-2.023,5.304-2.024,7.328,0l114.778,114.793c0,0,0.683-2.311,1.767-3.311"
		/>
	<path display="inline" stroke="#000000" stroke-width="6" stroke-miterlimit="10" d="M522.522,261.947
		c-4.986,2.951-10.975,4.462-17.171,4.462c-9.656,0-18.356-4.114-24.495-10.693L360.567,134.582l-77.171,48.086l-44.222-27
		l-101.402,57.236l-79.856,80.907h496.611L522.522,261.947z"/>
</g>
<g id="_x32_-3" display="none">
	<g id="Layer_12_copy_16" display="inline">
		<path fill="#FFFFFF" stroke="#000000" stroke-width="9" stroke-miterlimit="10" d="M556.451,293.269c0,0,2.362,3.874,0,6.306
			S310.028,546.066,310.028,546.066s-3.942,3.384-7.326,0S56.474,299.825,56.474,299.825s-3.408-3.919,0-7.327
			s245.981-245.98,245.981-245.98s3.999-3.329,7.328,0L467.251,204"/>
	</g>
	<path display="inline" fill="#F49819" d="M306.229,292.516v251.985c1.388,0.05,2.79-0.44,3.851-1.5l245.98-245.98
		c1.483-1.483,1.47-3.794,1.47-3.794S431.855,292.752,306.229,292.516z"/>
	<path display="inline" fill="#F3E600" d="M306.229,294.516c-125.515-0.236-250.98-0.236-251.011,0.71
		c-0.061,1.893,1.308,3.533,1.308,3.533l0.186,0.188c0.023,0.023,0.038,0.051,0.061,0.074l245.981,245.98
		c0.964,0.964,2.214,1.454,3.476,1.5V294.516z"/>
	<text transform="matrix(1 0 0 1 332.0508 416.9365)" font-family="'MyriadPro-Bold'" font-size="150">3</text>
	<text transform="matrix(1 0 0 1 196.0498 416.9365)" font-family="'MyriadPro-Bold'" font-size="150">2</text>
	<g display="inline">
		<path d="M342.4,394.588c4.049,2.1,13.35,5.999,22.648,5.999c11.85,0,17.85-5.699,17.85-13.049c0-9.6-9.6-13.95-19.649-13.95h-9.3
			v-16.349h8.85c7.649-0.15,17.399-3,17.399-11.25c0-5.85-4.8-10.199-14.399-10.199c-7.949,0-16.35,3.449-20.398,5.85l-4.65-16.499
			c5.85-3.75,17.549-7.35,30.148-7.35c20.85,0,32.399,10.949,32.399,24.299c0,10.35-5.851,18.449-17.85,22.648v0.301
			c11.699,2.1,21.149,10.949,21.149,23.698c0,17.25-15.149,29.85-39.898,29.85c-12.6,0-23.25-3.301-28.949-6.9L342.4,394.588z"/>
	</g>
	<g display="inline">
		<path d="M202.35,416.937v-13.8l12.6-11.399c21.299-19.049,31.648-29.998,31.949-41.398c0-7.949-4.801-14.249-16.051-14.249
			c-8.398,0-15.748,4.2-20.849,8.1l-6.45-16.35c7.351-5.55,18.75-10.049,31.949-10.049c22.049,0,34.199,12.899,34.199,30.599
			c0,16.349-11.85,29.398-25.949,41.998l-9,7.5v0.3h36.748v18.749H202.35z"/>
	</g>
	<path display="inline" fill="#FFFFFF" stroke="#000000" stroke-width="6" stroke-miterlimit="10" d="M54.707,293.25h567.035
		c0,0,37.999,0.999,41.666-40.667c3.667-37.333-43-46.667-51.666-40.667c0,0-9.334-34.667-42.667-34c0,0-26.969-5.364-44,31
		c0,0-26.667-16.333-45.2,8.2"/>
	
		<line display="inline" fill="none" stroke="#000000" stroke-width="6" stroke-miterlimit="10" x1="306.358" y1="292.622" x2="306.373" y2="546.395"/>
	<g display="inline">
		<path d="M520.283,240.425c0,0,0.134-0.262,0.431-0.739c0.307-0.466,0.763-1.153,1.435-1.962c0.349-0.39,0.728-0.836,1.163-1.303
			c0.452-0.447,0.943-0.938,1.508-1.418c1.131-0.955,2.475-2.002,4.123-2.874c0.414-0.217,0.837-0.439,1.268-0.666
			c0.439-0.212,0.91-0.373,1.38-0.567c0.475-0.181,0.953-0.39,1.458-0.539c0.511-0.132,1.03-0.266,1.557-0.401
			c2.116-0.534,4.447-0.696,6.839-0.571c1.201,0.027,2.381,0.319,3.602,0.492c1.209,0.218,2.364,0.65,3.563,0.999
			c0.608,0.159,1.167,0.422,1.733,0.673l1.703,0.765l0.852,0.391l0.213,0.098l0.053,0.025l0.144,0.08l0.023,0.014l0.094,0.056
			l0.376,0.224l1.507,0.896c0.502,0.31,0.994,0.594,1.499,0.93l1.551,1.191l1.527,1.206l1.331,1.342
			c0.436,0.45,0.881,0.887,1.3,1.344c0.375,0.501,0.747,0.999,1.118,1.494c0.353,0.507,0.767,0.962,1.056,1.503
			c0.297,0.533,0.592,1.063,0.885,1.588l0.429,0.785c0.131,0.266,0.229,0.547,0.344,0.818c0.215,0.546,0.429,1.088,0.64,1.624
			c0.39,1.079,0.613,2.186,0.887,3.232c0.131,1.079,0.336,2.111,0.377,3.12c0.004,1.012,0.105,1.979-0.001,2.905
			c-0.069,0.925-0.115,1.805-0.285,2.629c-0.072,0.411-0.143,0.812-0.211,1.201c-0.094,0.383-0.186,0.755-0.273,1.115
			c-0.169,0.719-0.354,1.383-0.582,1.981c-0.196,0.604-0.414,1.146-0.625,1.628c-0.194,0.487-0.389,0.913-0.589,1.271
			c-0.192,0.36-0.336,0.669-0.491,0.906c-0.296,0.472-0.454,0.724-0.454,0.724s0.065-0.289,0.187-0.829
			c0.113-0.539,0.265-1.329,0.389-2.336c0.073-0.5,0.139-1.055,0.167-1.664c0.02-0.303,0.043-0.616,0.075-0.938
			c0.01-0.325,0.019-0.662,0.029-1.01c0.007-0.345,0.015-0.702,0.022-1.069c-0.018-0.366-0.036-0.742-0.055-1.129
			c-0.009-0.769-0.104-1.57-0.2-2.397c-0.051-0.832-0.279-1.674-0.425-2.545c-0.173-0.868-0.471-1.733-0.702-2.629
			c-0.37-0.855-0.635-1.768-1.071-2.627c-0.489-0.834-0.81-1.767-1.428-2.56c-0.275-0.413-0.553-0.828-0.831-1.247
			c-0.258-0.431-0.643-0.784-0.958-1.184c-0.329-0.39-0.66-0.781-0.992-1.175c-0.368-0.366-0.76-0.715-1.138-1.077l-1.146-1.08
			c-0.418-0.299-0.826-0.608-1.234-0.921l-1.221-0.944c-0.468-0.306-0.996-0.598-1.489-0.9l-1.495-0.916l-0.373-0.229l-0.094-0.057
			l-0.022-0.014c-0.034-0.02,0.207,0.118,0.094,0.055l-0.046-0.021l-0.184-0.086l-0.734-0.344l-1.459-0.702
			c-0.482-0.239-0.96-0.494-1.467-0.638c-0.498-0.175-0.995-0.349-1.488-0.521c-0.495-0.164-0.977-0.405-1.481-0.484
			c-0.501-0.114-0.999-0.227-1.493-0.339c-0.495-0.104-0.983-0.274-1.479-0.292c-1.971-0.259-3.911-0.358-5.743-0.134
			c-0.461,0.052-0.915,0.103-1.362,0.153c-0.446,0.066-0.872,0.196-1.305,0.279c-0.428,0.101-0.86,0.169-1.27,0.292
			c-0.407,0.133-0.808,0.264-1.199,0.392c-1.576,0.508-2.979,1.166-4.207,1.801c-0.616,0.317-1.147,0.686-1.686,0.973
			c-0.514,0.319-0.974,0.635-1.4,0.912c-0.411,0.299-0.778,0.566-1.098,0.799c-0.313,0.247-0.578,0.456-0.794,0.626
			C520.51,240.227,520.283,240.425,520.283,240.425z"/>
	</g>
	<g id="Layer_8_copy_3" display="inline">
		<path stroke="#000000" stroke-miterlimit="10" d="M487.497,262.829"/>
		<path stroke="#000000" stroke-miterlimit="10" d="M360.313,130.031l-6.844,4.563L485,265.563c0,0,2.438,1.813,5.063-0.5
			s0-5.625,0-5.625L360.313,130.031z"/>
	</g>
	<g id="Layer_7_copy" display="inline">
		<path stroke="#000000" stroke-width="5" stroke-miterlimit="10" d="M57,293l85-83.5l97-54.5l44,27l54.5-34.5l118,118
			c0,0,21.5,27.5,48,27.5S57,293,57,293z"/>
	</g>
	<polyline display="inline" fill="none" stroke="#000000" stroke-width="9" stroke-miterlimit="10" points="480.423,214.043 
		479.031,215.726 475.563,212.257 	"/>
	<path display="inline" fill="none" stroke="#000000" stroke-width="9" stroke-miterlimit="10" d="M557.416,295.354
		c0.52,2.792-1.407,4.731-1.407,4.731s-242.774,242.773-245.98,245.98s-7.326,0-7.326,0S59.776,303.141,56.474,299.825
		s0-7.327,0-7.327S299.018,49.955,302.455,46.518s7.328,0,7.328,0l167.085,167.091l2.496,2.496l0.169,0.168l0.559,0.56"/>
</g>
<g id="_x32_-4" display="none">
	<g id="Layer_12_copy_13" display="inline">
		<path fill="#FFFFFF" stroke="#000000" stroke-width="9" stroke-miterlimit="10" d="M556.451,293.269c0,0,2.362,3.874,0,6.306
			S310.028,546.066,310.028,546.066s-3.942,3.384-7.326,0S56.474,299.825,56.474,299.825s-3.408-3.919,0-7.327
			s245.981-245.98,245.981-245.98s3.999-3.329,7.328,0L467.251,204"/>
	</g>
	<path display="inline" fill="#E52420" d="M306.229,292.516v251.985c1.388,0.05,2.79-0.44,3.851-1.5l245.98-245.98
		c1.483-1.483,1.47-3.794,1.47-3.794S431.855,292.752,306.229,292.516z"/>
	<path display="inline" fill="#F3E600" d="M306.229,294.516c-125.515-0.236-250.98-0.236-251.011,0.71
		c-0.061,1.893,1.308,3.533,1.308,3.533l0.186,0.188c0.023,0.023,0.038,0.051,0.061,0.074l245.981,245.98
		c0.964,0.964,2.214,1.454,3.476,1.5V294.516z"/>
	<text transform="matrix(1 0 0 1 332.0508 416.9365)" font-family="'MyriadPro-Bold'" font-size="150">4</text>
	<text transform="matrix(1 0 0 1 196.0498 416.9365)" font-family="'MyriadPro-Bold'" font-size="150">2</text>
	<g display="inline">
		<path d="M378.698,416.937v-23.249H335.5v-14.85l36.898-59.397h27.899v57.147h11.699v17.1h-11.699v23.249H378.698z
			 M378.698,376.588v-21.599c0-5.85,0.3-11.85,0.75-18.149h-0.6c-3.15,6.3-5.7,11.999-9,18.149l-13.05,21.299v0.3H378.698z"/>
	</g>
	<g display="inline">
		<path d="M202.35,416.937v-13.8l12.6-11.399c21.299-19.049,31.648-29.998,31.949-41.398c0-7.949-4.801-14.249-16.051-14.249
			c-8.398,0-15.748,4.2-20.849,8.1l-6.45-16.35c7.351-5.55,18.75-10.049,31.949-10.049c22.049,0,34.199,12.899,34.199,30.599
			c0,16.349-11.85,29.398-25.949,41.998l-9,7.5v0.3h36.748v18.749H202.35z"/>
	</g>
	<g id="Layer_11_copy_8" display="inline">
		<path fill="#FFFFFF" stroke="#000000" stroke-width="7" stroke-miterlimit="10" d="M468.142,204.964
			c7.5-12.627,24.833-14.794,24.833-14.794c18.167-1.5,26.333,7.965,26.333,7.965c5.834-28.631,31.834-36.298,31.834-36.298
			c23.666-9.833,44.691,4.5,44.691,4.5c14.667-37.667,46.834-33.332,46.834-33.332c37.5,1.167,44.666,38.831,44.666,38.831
			c15-6.5,24.667,1,24.667,1c13.667,5.833,12.167,26.263,12.167,26.263c7-0.568,34.666,10.901,34.5,45.401
			c-2.166,46.333-44.917,48.5-44.917,48.5l-658.793,1.125"/>
	</g>
	
		<line display="inline" fill="none" stroke="#000000" stroke-width="6" stroke-miterlimit="10" x1="306.358" y1="292.622" x2="306.373" y2="546.395"/>
	<g display="inline">
		<path d="M513.283,240.425c0,0,0.134-0.262,0.431-0.739c0.307-0.466,0.763-1.153,1.435-1.962c0.349-0.39,0.728-0.836,1.163-1.303
			c0.452-0.447,0.943-0.938,1.508-1.418c1.131-0.955,2.475-2.002,4.123-2.874c0.414-0.217,0.837-0.439,1.268-0.666
			c0.439-0.212,0.91-0.373,1.38-0.567c0.475-0.181,0.953-0.39,1.458-0.539c0.511-0.132,1.03-0.266,1.557-0.401
			c2.116-0.534,4.447-0.696,6.839-0.571c1.201,0.027,2.381,0.319,3.602,0.492c1.209,0.218,2.364,0.65,3.563,0.999
			c0.608,0.159,1.167,0.422,1.733,0.673l1.703,0.765l0.852,0.391l0.213,0.098l0.053,0.025l0.144,0.08l0.023,0.014l0.094,0.056
			l0.376,0.224l1.507,0.896c0.502,0.31,0.994,0.594,1.499,0.93l1.551,1.191l1.527,1.206l1.331,1.342
			c0.436,0.45,0.881,0.887,1.3,1.344c0.375,0.501,0.747,0.999,1.118,1.494c0.353,0.507,0.767,0.962,1.056,1.503
			c0.297,0.533,0.592,1.063,0.885,1.588l0.429,0.785c0.131,0.266,0.229,0.547,0.344,0.818c0.215,0.546,0.429,1.088,0.64,1.624
			c0.39,1.079,0.613,2.186,0.887,3.232c0.131,1.079,0.336,2.111,0.377,3.12c0.004,1.012,0.105,1.979-0.001,2.905
			c-0.069,0.925-0.115,1.805-0.285,2.629c-0.072,0.411-0.143,0.812-0.211,1.201c-0.094,0.383-0.186,0.755-0.273,1.115
			c-0.169,0.719-0.354,1.383-0.582,1.981c-0.196,0.604-0.414,1.146-0.625,1.628c-0.194,0.487-0.389,0.913-0.589,1.271
			c-0.192,0.36-0.336,0.669-0.491,0.906c-0.296,0.472-0.454,0.724-0.454,0.724s0.065-0.289,0.187-0.829
			c0.113-0.539,0.265-1.329,0.389-2.336c0.073-0.5,0.139-1.055,0.167-1.664c0.02-0.303,0.043-0.616,0.075-0.938
			c0.01-0.325,0.019-0.662,0.029-1.01c0.007-0.345,0.015-0.702,0.022-1.069c-0.018-0.366-0.036-0.742-0.055-1.129
			c-0.009-0.769-0.104-1.57-0.2-2.397c-0.051-0.832-0.279-1.674-0.425-2.545c-0.173-0.868-0.471-1.733-0.702-2.629
			c-0.37-0.855-0.635-1.768-1.071-2.627c-0.489-0.834-0.81-1.767-1.428-2.56c-0.275-0.413-0.553-0.828-0.831-1.247
			c-0.258-0.431-0.643-0.784-0.958-1.184c-0.329-0.39-0.66-0.781-0.992-1.175c-0.368-0.366-0.76-0.715-1.138-1.077l-1.146-1.08
			c-0.418-0.299-0.826-0.608-1.234-0.921l-1.221-0.944c-0.468-0.306-0.996-0.598-1.489-0.9l-1.495-0.916l-0.373-0.229l-0.094-0.057
			l-0.022-0.014c-0.034-0.02,0.207,0.118,0.094,0.055l-0.046-0.021l-0.184-0.086l-0.734-0.344l-1.459-0.702
			c-0.482-0.239-0.96-0.494-1.467-0.638c-0.498-0.175-0.995-0.349-1.488-0.521c-0.495-0.164-0.977-0.405-1.481-0.484
			c-0.501-0.114-0.999-0.227-1.493-0.339c-0.495-0.104-0.983-0.274-1.479-0.292c-1.971-0.259-3.911-0.358-5.743-0.134
			c-0.461,0.052-0.915,0.103-1.362,0.153c-0.446,0.066-0.872,0.196-1.305,0.279c-0.428,0.101-0.86,0.169-1.27,0.292
			c-0.407,0.133-0.808,0.264-1.199,0.392c-1.576,0.508-2.979,1.166-4.207,1.801c-0.616,0.317-1.147,0.686-1.686,0.973
			c-0.514,0.319-0.974,0.635-1.4,0.912c-0.411,0.299-0.778,0.566-1.098,0.799c-0.313,0.247-0.578,0.456-0.794,0.626
			C513.51,240.227,513.283,240.425,513.283,240.425z"/>
	</g>
	<g display="inline">
		<path d="M554.958,210.82c0,0,0.309-0.396,0.957-1.083c0.652-0.679,1.622-1.676,2.982-2.809c1.355-1.137,3.067-2.46,5.196-3.748
			c2.119-1.298,4.633-2.61,7.552-3.659c2.906-1.063,6.212-1.926,9.804-2.212c3.582-0.316,7.437-0.169,11.303,0.636
			c3.869,0.783,7.739,2.171,11.397,4.048c0.934,0.44,1.819,0.964,2.712,1.484l1.344,0.779l1.289,0.861l1.29,0.865l0.323,0.216
			l0.209,0.151l0.149,0.112l0.597,0.449c0.801,0.62,1.585,1.152,2.4,1.846c3.301,2.703,6.215,5.639,8.7,8.986
			c2.485,3.312,4.446,6.955,5.802,10.666c1.367,3.71,2.105,7.488,2.337,11.064c0.253,3.58-0.009,6.96-0.52,10.003
			c-0.49,3.049-1.271,5.764-2.116,8.097c-0.827,2.341-1.754,4.293-2.572,5.86c-0.81,1.573-1.583,2.733-2.105,3.516
			c-0.261,0.393-0.481,0.68-0.629,0.874c-0.146,0.194-0.222,0.294-0.222,0.294s0.228-0.448,0.599-1.307
			c0.381-0.854,0.883-2.129,1.443-3.769c0.555-1.642,1.125-3.665,1.648-5.998c0.509-2.336,0.906-5.001,1.103-7.899
			c0.175-2.9,0.094-6.039-0.342-9.286c-0.45-3.248-1.39-6.574-2.751-9.829c-1.372-3.255-3.243-6.41-5.528-9.342
			c-2.276-2.907-5.04-5.661-7.926-7.993c-0.696-0.611-1.559-1.213-2.329-1.819l-0.594-0.454l-0.148-0.113l-0.074-0.057
			c0.097,0.071,0.005,0.005,0.018,0.015l-0.037-0.025l-0.297-0.201l-1.183-0.805l-1.179-0.805l-1.213-0.737
			c-0.806-0.494-1.605-0.995-2.442-1.409c-3.292-1.778-6.709-3.153-10.137-4.029c-3.427-0.868-6.85-1.285-10.114-1.233
			c-3.264,0.054-6.359,0.523-9.164,1.229c-5.617,1.44-10.053,3.703-13.016,5.479C556.507,209.527,554.958,210.82,554.958,210.82z"/>
	</g>
	<g id="Layer_8_copy_10" display="inline">
		<path stroke="#000000" stroke-miterlimit="10" d="M487.497,262.829"/>
		<path stroke="#000000" stroke-miterlimit="10" d="M360.313,130.031l-6.844,4.563L485,265.563c0,0,2.438,1.813,5.063-0.5
			s0-5.625,0-5.625L360.313,130.031z"/>
		<path stroke="#000000" stroke-miterlimit="10" d="M338.358,144.237l-6.092,4.068l117.075,116.783c0,0,2.17,1.616,4.506-0.446
			c2.337-2.062,0-5.016,0-5.016L338.358,144.237z"/>
	</g>
	<g id="Layer_12_copy_5" display="inline">
		<path fill="none" stroke="#000000" stroke-width="9" stroke-miterlimit="10" d="M556.451,293.269c0,0,2.362,3.874,0,6.306
			S310.028,546.066,310.028,546.066s-3.942,3.384-7.326,0S56.474,299.825,56.474,299.825s-3.408-3.919,0-7.327
			s245.981-245.98,245.981-245.98s3.999-3.329,7.328,0L467.251,204"/>
	</g>
	<g id="Layer_13_copy_5" display="inline">
		<polyline fill="none" stroke="#000000" stroke-width="7" stroke-miterlimit="10" points="468.708,202.875 467.792,205.958 
			465.125,203.208 		"/>
	</g>
	<path display="inline" stroke="#000000" stroke-width="3" stroke-miterlimit="10" d="M55.208,294.917l82.403-83.556L239.5,153.5
		l44.25,26.75l32.75-20l108,108.386c0,0,22,22.864,50,22.864S55.208,294.917,55.208,294.917z"/>
</g>
<g id="_x33_">
	<g id="Layer_12_copy_12">
		<path fill="#FFFFFF" stroke="#000000" stroke-width="9" stroke-miterlimit="10" d="M556.451,293.269c0,0,2.362,3.874,0,6.306
			S310.028,546.066,310.028,546.066s-3.942,3.384-7.326,0S56.474,299.825,56.474,299.825s-3.408-3.919,0-7.327
			s245.981-245.98,245.981-245.98s3.999-3.329,7.328,0L467.251,204"/>
	</g>
	<path id="color_2_" fill="#9D9D9D" d="M558.024,296.855L311.075,546.047c-2.032,2.05-5.323,2.05-7.354,0L56.771,296.855
		c-0.024-0.024-0.039-0.051-0.062-0.075l-0.187-0.19c0,0-1.374-1.661-1.313-3.579c0.062-1.917,504.29,0,504.29,0
		S559.514,295.353,558.024,296.855z"/>
	<text transform="matrix(1 0 0 1 242.3975 463.335)" display="none" font-family="'MyriadPro-Bold'" font-size="230">3</text>
	<g>
		<path d="M258.267,429.065c6.21,3.22,20.47,9.2,34.729,9.2c18.169,0,27.37-8.74,27.37-20.01c0-14.72-14.72-21.39-30.13-21.39
			h-14.259v-25.069h13.569c11.73-0.23,26.68-4.601,26.68-17.25c0-8.97-7.36-15.64-22.08-15.64c-12.19,0-25.069,5.29-31.279,8.97
			l-7.13-25.299c8.97-5.75,26.909-11.271,46.229-11.271c31.969,0,49.679,16.79,49.679,37.259c0,15.87-8.97,28.29-27.369,34.73v0.46
			c17.939,3.22,32.429,16.789,32.429,36.339c0,26.449-23.229,45.77-61.179,45.77c-19.319,0-35.649-5.061-44.389-10.58
			L258.267,429.065z"/>
	</g>
	<path fill="#FFFFFF" stroke="#000000" stroke-width="6" stroke-miterlimit="10" d="M54.707,293.25h567.035
		c0,0,37.999,0.999,41.666-40.667c3.667-37.333-43-46.667-51.666-40.667c0,0-9.334-34.667-42.667-34c0,0-26.969-5.364-44,31
		c0,0-26.667-16.333-45.2,8.2"/>
	<g>
		<path d="M520.283,240.425c0,0,0.134-0.262,0.431-0.739c0.307-0.466,0.763-1.153,1.435-1.962c0.349-0.39,0.728-0.836,1.163-1.303
			c0.452-0.447,0.943-0.938,1.508-1.418c1.131-0.955,2.475-2.002,4.123-2.874c0.414-0.217,0.837-0.439,1.268-0.666
			c0.439-0.212,0.91-0.373,1.38-0.567c0.475-0.181,0.953-0.39,1.458-0.539c0.511-0.132,1.03-0.266,1.557-0.401
			c2.116-0.534,4.447-0.696,6.839-0.571c1.201,0.027,2.381,0.319,3.602,0.492c1.209,0.218,2.364,0.65,3.563,0.999
			c0.608,0.159,1.167,0.422,1.733,0.673l1.703,0.765l0.852,0.391l0.213,0.098l0.053,0.025l0.144,0.08l0.023,0.014l0.094,0.056
			l0.376,0.224l1.507,0.896c0.502,0.31,0.994,0.594,1.499,0.93l1.551,1.191l1.527,1.206l1.331,1.342
			c0.436,0.45,0.881,0.887,1.3,1.344c0.375,0.501,0.747,0.999,1.118,1.494c0.353,0.507,0.767,0.962,1.056,1.503
			c0.297,0.533,0.592,1.063,0.885,1.588l0.429,0.785c0.131,0.266,0.229,0.547,0.344,0.818c0.215,0.546,0.429,1.088,0.64,1.624
			c0.39,1.079,0.613,2.186,0.887,3.232c0.131,1.079,0.336,2.111,0.377,3.12c0.004,1.012,0.105,1.979-0.001,2.905
			c-0.069,0.925-0.115,1.805-0.285,2.629c-0.072,0.411-0.143,0.812-0.211,1.201c-0.094,0.383-0.186,0.755-0.273,1.115
			c-0.169,0.719-0.354,1.383-0.582,1.981c-0.196,0.604-0.414,1.146-0.625,1.628c-0.194,0.487-0.389,0.913-0.589,1.271
			c-0.192,0.36-0.336,0.669-0.491,0.906c-0.296,0.472-0.454,0.724-0.454,0.724s0.065-0.289,0.187-0.829
			c0.113-0.539,0.265-1.329,0.389-2.336c0.073-0.5,0.139-1.055,0.167-1.664c0.02-0.303,0.043-0.616,0.075-0.938
			c0.01-0.325,0.019-0.662,0.029-1.01c0.007-0.345,0.015-0.702,0.022-1.069c-0.018-0.366-0.036-0.742-0.055-1.129
			c-0.009-0.769-0.104-1.57-0.2-2.397c-0.051-0.832-0.279-1.674-0.425-2.545c-0.173-0.868-0.471-1.733-0.702-2.629
			c-0.37-0.855-0.635-1.768-1.071-2.627c-0.489-0.834-0.81-1.767-1.428-2.56c-0.275-0.413-0.553-0.828-0.831-1.247
			c-0.258-0.431-0.643-0.784-0.958-1.184c-0.329-0.39-0.66-0.781-0.992-1.175c-0.368-0.366-0.76-0.715-1.138-1.077l-1.146-1.08
			c-0.418-0.299-0.826-0.608-1.234-0.921l-1.221-0.944c-0.468-0.306-0.996-0.598-1.489-0.9l-1.495-0.916l-0.373-0.229l-0.094-0.057
			l-0.022-0.014c-0.034-0.02,0.207,0.118,0.094,0.055l-0.046-0.021l-0.184-0.086l-0.734-0.344l-1.459-0.702
			c-0.482-0.239-0.96-0.494-1.467-0.638c-0.498-0.175-0.995-0.349-1.488-0.521c-0.495-0.164-0.977-0.405-1.481-0.484
			c-0.501-0.114-0.999-0.227-1.493-0.339c-0.495-0.104-0.983-0.274-1.479-0.292c-1.971-0.259-3.911-0.358-5.743-0.134
			c-0.461,0.052-0.915,0.103-1.362,0.153c-0.446,0.066-0.872,0.196-1.305,0.279c-0.428,0.101-0.86,0.169-1.27,0.292
			c-0.407,0.133-0.808,0.264-1.199,0.392c-1.576,0.508-2.979,1.166-4.207,1.801c-0.616,0.317-1.147,0.686-1.686,0.973
			c-0.514,0.319-0.974,0.635-1.4,0.912c-0.411,0.299-0.778,0.566-1.098,0.799c-0.313,0.247-0.578,0.456-0.794,0.626
			C520.51,240.227,520.283,240.425,520.283,240.425z"/>
	</g>
	<g id="Layer_8">
		<path stroke="#000000" stroke-miterlimit="10" d="M487.497,262.829"/>
		<path stroke="#000000" stroke-miterlimit="10" d="M360.313,130.031l-6.844,4.563L485,265.563c0,0,2.438,1.813,5.063-0.5
			s0-5.625,0-5.625L360.313,130.031z"/>
	</g>
	<g id="Layer_7">
		<path stroke="#000000" stroke-width="5" stroke-miterlimit="10" d="M57,293l85-83.5l97-54.5l44,27l54.5-34.5l118,118
			c0,0,21.5,27.5,48,27.5S57,293,57,293z"/>
	</g>
	<polyline fill="none" stroke="#000000" stroke-width="9" stroke-miterlimit="10" points="480.423,214.043 479.031,215.726 
		475.563,212.257 	"/>
	<path fill="none" stroke="#000000" stroke-width="9" stroke-miterlimit="10" d="M557.416,295.354
		c0.52,2.792-1.407,4.731-1.407,4.731s-242.774,242.773-245.98,245.98s-7.326,0-7.326,0S59.776,303.141,56.474,299.825
		s0-7.327,0-7.327S299.018,49.955,302.455,46.518s7.328,0,7.328,0l167.085,167.091l2.496,2.496l0.169,0.168l0.559,0.56"/>
</g>
<g id="_x33_-1" display="none">
	<g id="Layer_12_copy_11" display="inline">
		<path fill="#FFFFFF" stroke="#000000" stroke-width="9" stroke-miterlimit="10" d="M556.451,293.269c0,0,2.362,3.874,0,6.306
			S310.028,546.066,310.028,546.066s-3.942,3.384-7.326,0S56.474,299.825,56.474,299.825s-3.408-3.919,0-7.327
			s245.981-245.98,245.981-245.98s3.999-3.329,7.328,0L467.251,204"/>
	</g>
	<path display="inline" fill="#CBD859" d="M306.229,292.516v251.985c1.388,0.05,2.79-0.44,3.851-1.5l245.98-245.98
		c1.483-1.483,1.47-3.794,1.47-3.794S431.855,292.752,306.229,292.516z"/>
	<path display="inline" fill="#F49819" d="M306.229,294.516c-125.515-0.236-250.98-0.236-251.011,0.71
		c-0.061,1.893,1.308,3.533,1.308,3.533l0.186,0.188c0.023,0.023,0.038,0.051,0.061,0.074l245.981,245.98
		c0.964,0.964,2.214,1.454,3.476,1.5V294.516z"/>
	<text transform="matrix(1 0 0 1 332.0508 416.9365)" font-family="'MyriadPro-Bold'" font-size="150">1</text>
	<text transform="matrix(1 0 0 1 196.0498 416.9365)" font-family="'MyriadPro-Bold'" font-size="150">3</text>
	<g display="inline">
		<path d="M367.449,339.689h-0.301l-18.599,8.85l-3.75-17.099l25.799-12h18.899v97.496h-22.049V339.689z"/>
	</g>
	<g display="inline">
		<path d="M206.399,394.588c4.05,2.1,13.35,5.999,22.649,5.999c11.85,0,17.85-5.699,17.85-13.049c0-9.6-9.6-13.95-19.65-13.95
			h-9.299v-16.349h8.85c7.648-0.15,17.398-3,17.398-11.25c0-5.85-4.799-10.199-14.398-10.199c-7.95,0-16.35,3.449-20.399,5.85
			l-4.649-16.499c5.85-3.75,17.549-7.35,30.148-7.35c20.85,0,32.398,10.949,32.398,24.299c0,10.35-5.85,18.449-17.85,22.648v0.301
			c11.699,2.1,21.15,10.949,21.15,23.698c0,17.25-15.15,29.85-39.898,29.85c-12.6,0-23.25-3.301-28.949-6.9L206.399,394.588z"/>
	</g>
	<path display="inline" fill="#FFFFFF" stroke="#000000" stroke-width="6" stroke-miterlimit="10" d="M54.707,293.25h567.035
		c0,0,37.999,0.999,41.666-40.667c3.667-37.333-43-46.667-51.666-40.667c0,0-9.334-34.667-42.667-34c0,0-26.969-5.364-44,31
		c0,0-26.667-16.333-45.2,8.2"/>
	
		<line display="inline" fill="none" stroke="#000000" stroke-width="6" stroke-miterlimit="10" x1="306.358" y1="292.622" x2="306.373" y2="546.395"/>
	<g display="inline">
		<path d="M520.283,240.425c0,0,0.134-0.262,0.431-0.739c0.307-0.466,0.763-1.153,1.435-1.962c0.349-0.39,0.728-0.836,1.163-1.303
			c0.452-0.447,0.943-0.938,1.508-1.418c1.131-0.955,2.475-2.002,4.123-2.874c0.414-0.217,0.837-0.439,1.268-0.666
			c0.439-0.212,0.91-0.373,1.38-0.567c0.475-0.181,0.953-0.39,1.458-0.539c0.511-0.132,1.03-0.266,1.557-0.401
			c2.116-0.534,4.447-0.696,6.839-0.571c1.201,0.027,2.381,0.319,3.602,0.492c1.209,0.218,2.364,0.65,3.563,0.999
			c0.608,0.159,1.167,0.422,1.733,0.673l1.703,0.765l0.852,0.391l0.213,0.098l0.053,0.025l0.144,0.08l0.023,0.014l0.094,0.056
			l0.376,0.224l1.507,0.896c0.502,0.31,0.994,0.594,1.499,0.93l1.551,1.191l1.527,1.206l1.331,1.342
			c0.436,0.45,0.881,0.887,1.3,1.344c0.375,0.501,0.747,0.999,1.118,1.494c0.353,0.507,0.767,0.962,1.056,1.503
			c0.297,0.533,0.592,1.063,0.885,1.588l0.429,0.785c0.131,0.266,0.229,0.547,0.344,0.818c0.215,0.546,0.429,1.088,0.64,1.624
			c0.39,1.079,0.613,2.186,0.887,3.232c0.131,1.079,0.336,2.111,0.377,3.12c0.004,1.012,0.105,1.979-0.001,2.905
			c-0.069,0.925-0.115,1.805-0.285,2.629c-0.072,0.411-0.143,0.812-0.211,1.201c-0.094,0.383-0.186,0.755-0.273,1.115
			c-0.169,0.719-0.354,1.383-0.582,1.981c-0.196,0.604-0.414,1.146-0.625,1.628c-0.194,0.487-0.389,0.913-0.589,1.271
			c-0.192,0.36-0.336,0.669-0.491,0.906c-0.296,0.472-0.454,0.724-0.454,0.724s0.065-0.289,0.187-0.829
			c0.113-0.539,0.265-1.329,0.389-2.336c0.073-0.5,0.139-1.055,0.167-1.664c0.02-0.303,0.043-0.616,0.075-0.938
			c0.01-0.325,0.019-0.662,0.029-1.01c0.007-0.345,0.015-0.702,0.022-1.069c-0.018-0.366-0.036-0.742-0.055-1.129
			c-0.009-0.769-0.104-1.57-0.2-2.397c-0.051-0.832-0.279-1.674-0.425-2.545c-0.173-0.868-0.471-1.733-0.702-2.629
			c-0.37-0.855-0.635-1.768-1.071-2.627c-0.489-0.834-0.81-1.767-1.428-2.56c-0.275-0.413-0.553-0.828-0.831-1.247
			c-0.258-0.431-0.643-0.784-0.958-1.184c-0.329-0.39-0.66-0.781-0.992-1.175c-0.368-0.366-0.76-0.715-1.138-1.077l-1.146-1.08
			c-0.418-0.299-0.826-0.608-1.234-0.921l-1.221-0.944c-0.468-0.306-0.996-0.598-1.489-0.9l-1.495-0.916l-0.373-0.229l-0.094-0.057
			l-0.022-0.014c-0.034-0.02,0.207,0.118,0.094,0.055l-0.046-0.021l-0.184-0.086l-0.734-0.344l-1.459-0.702
			c-0.482-0.239-0.96-0.494-1.467-0.638c-0.498-0.175-0.995-0.349-1.488-0.521c-0.495-0.164-0.977-0.405-1.481-0.484
			c-0.501-0.114-0.999-0.227-1.493-0.339c-0.495-0.104-0.983-0.274-1.479-0.292c-1.971-0.259-3.911-0.358-5.743-0.134
			c-0.461,0.052-0.915,0.103-1.362,0.153c-0.446,0.066-0.872,0.196-1.305,0.279c-0.428,0.101-0.86,0.169-1.27,0.292
			c-0.407,0.133-0.808,0.264-1.199,0.392c-1.576,0.508-2.979,1.166-4.207,1.801c-0.616,0.317-1.147,0.686-1.686,0.973
			c-0.514,0.319-0.974,0.635-1.4,0.912c-0.411,0.299-0.778,0.566-1.098,0.799c-0.313,0.247-0.578,0.456-0.794,0.626
			C520.51,240.227,520.283,240.425,520.283,240.425z"/>
	</g>
	<g id="Layer_8_copy_5" display="inline">
		<path stroke="#000000" stroke-miterlimit="10" d="M487.497,262.829"/>
		<path stroke="#000000" stroke-miterlimit="10" d="M360.313,130.031l-6.844,4.563L485,265.563c0,0,2.438,1.813,5.063-0.5
			s0-5.625,0-5.625L360.313,130.031z"/>
	</g>
	<g id="Layer_7_copy_3" display="inline">
		<path stroke="#000000" stroke-width="5" stroke-miterlimit="10" d="M57,293l85-83.5l97-54.5l44,27l54.5-34.5l118,118
			c0,0,21.5,27.5,48,27.5S57,293,57,293z"/>
	</g>
	<polyline display="inline" fill="none" stroke="#000000" stroke-width="9" stroke-miterlimit="10" points="480.423,214.043 
		479.031,215.726 475.563,212.257 	"/>
	<path display="inline" fill="none" stroke="#000000" stroke-width="9" stroke-miterlimit="10" d="M557.416,295.354
		c0.52,2.792-1.407,4.731-1.407,4.731s-242.774,242.773-245.98,245.98s-7.326,0-7.326,0S59.776,303.141,56.474,299.825
		s0-7.327,0-7.327S299.018,49.955,302.455,46.518s7.328,0,7.328,0l167.085,167.091l2.496,2.496l0.169,0.168l0.559,0.56"/>
</g>
<g id="_x33_-2" display="none">
	<g id="Layer_12_copy_10" display="inline">
		<path fill="#FFFFFF" stroke="#000000" stroke-width="9" stroke-miterlimit="10" d="M556.451,293.269c0,0,2.362,3.874,0,6.306
			S310.028,546.066,310.028,546.066s-3.942,3.384-7.326,0S56.474,299.825,56.474,299.825s-3.408-3.919,0-7.327
			s245.981-245.98,245.981-245.98s3.999-3.329,7.328,0L467.251,204"/>
	</g>
	<path display="inline" fill="#F3E600" d="M306.229,292.516v251.985c1.388,0.05,2.79-0.44,3.851-1.5l245.98-245.98
		c1.483-1.483,1.47-3.794,1.47-3.794S431.855,292.752,306.229,292.516z"/>
	<path display="inline" fill="#F49819" d="M306.229,294.516c-125.515-0.236-250.98-0.236-251.011,0.71
		c-0.061,1.893,1.308,3.533,1.308,3.533l0.186,0.188c0.023,0.023,0.038,0.051,0.061,0.074l245.981,245.98
		c0.964,0.964,2.214,1.454,3.476,1.5V294.516z"/>
	<text transform="matrix(1 0 0 1 332.0508 416.9365)" font-family="'MyriadPro-Bold'" font-size="150">2</text>
	<text transform="matrix(1 0 0 1 196.0498 416.9365)" font-family="'MyriadPro-Bold'" font-size="150">3</text>
	<g display="inline">
		<path d="M338.35,416.937v-13.8l12.6-11.399c21.3-19.049,31.649-29.998,31.949-41.398c0-7.949-4.8-14.249-16.05-14.249
			c-8.399,0-15.749,4.2-20.849,8.1l-6.45-16.35c7.351-5.55,18.749-10.049,31.949-10.049c22.049,0,34.198,12.899,34.198,30.599
			c0,16.349-11.85,29.398-25.949,41.998l-8.999,7.5v0.3h36.748v18.749H338.35z"/>
	</g>
	<g display="inline">
		<path d="M206.399,394.588c4.05,2.1,13.35,5.999,22.649,5.999c11.85,0,17.85-5.699,17.85-13.049c0-9.6-9.6-13.95-19.65-13.95
			h-9.299v-16.349h8.85c7.648-0.15,17.398-3,17.398-11.25c0-5.85-4.799-10.199-14.398-10.199c-7.95,0-16.35,3.449-20.399,5.85
			l-4.649-16.499c5.85-3.75,17.549-7.35,30.148-7.35c20.85,0,32.398,10.949,32.398,24.299c0,10.35-5.85,18.449-17.85,22.648v0.301
			c11.699,2.1,21.15,10.949,21.15,23.698c0,17.25-15.15,29.85-39.898,29.85c-12.6,0-23.25-3.301-28.949-6.9L206.399,394.588z"/>
	</g>
	<path display="inline" fill="#FFFFFF" stroke="#000000" stroke-width="6" stroke-miterlimit="10" d="M54.707,293.25h567.035
		c0,0,37.999,0.999,41.666-40.667c3.667-37.333-43-46.667-51.666-40.667c0,0-9.334-34.667-42.667-34c0,0-26.969-5.364-44,31
		c0,0-26.667-16.333-45.2,8.2"/>
	
		<line display="inline" fill="none" stroke="#000000" stroke-width="6" stroke-miterlimit="10" x1="306.358" y1="292.622" x2="306.373" y2="546.395"/>
	<g display="inline">
		<path d="M520.283,240.425c0,0,0.134-0.262,0.431-0.739c0.307-0.466,0.763-1.153,1.435-1.962c0.349-0.39,0.728-0.836,1.163-1.303
			c0.452-0.447,0.943-0.938,1.508-1.418c1.131-0.955,2.475-2.002,4.123-2.874c0.414-0.217,0.837-0.439,1.268-0.666
			c0.439-0.212,0.91-0.373,1.38-0.567c0.475-0.181,0.953-0.39,1.458-0.539c0.511-0.132,1.03-0.266,1.557-0.401
			c2.116-0.534,4.447-0.696,6.839-0.571c1.201,0.027,2.381,0.319,3.602,0.492c1.209,0.218,2.364,0.65,3.563,0.999
			c0.608,0.159,1.167,0.422,1.733,0.673l1.703,0.765l0.852,0.391l0.213,0.098l0.053,0.025l0.144,0.08l0.023,0.014l0.094,0.056
			l0.376,0.224l1.507,0.896c0.502,0.31,0.994,0.594,1.499,0.93l1.551,1.191l1.527,1.206l1.331,1.342
			c0.436,0.45,0.881,0.887,1.3,1.344c0.375,0.501,0.747,0.999,1.118,1.494c0.353,0.507,0.767,0.962,1.056,1.503
			c0.297,0.533,0.592,1.063,0.885,1.588l0.429,0.785c0.131,0.266,0.229,0.547,0.344,0.818c0.215,0.546,0.429,1.088,0.64,1.624
			c0.39,1.079,0.613,2.186,0.887,3.232c0.131,1.079,0.336,2.111,0.377,3.12c0.004,1.012,0.105,1.979-0.001,2.905
			c-0.069,0.925-0.115,1.805-0.285,2.629c-0.072,0.411-0.143,0.812-0.211,1.201c-0.094,0.383-0.186,0.755-0.273,1.115
			c-0.169,0.719-0.354,1.383-0.582,1.981c-0.196,0.604-0.414,1.146-0.625,1.628c-0.194,0.487-0.389,0.913-0.589,1.271
			c-0.192,0.36-0.336,0.669-0.491,0.906c-0.296,0.472-0.454,0.724-0.454,0.724s0.065-0.289,0.187-0.829
			c0.113-0.539,0.265-1.329,0.389-2.336c0.073-0.5,0.139-1.055,0.167-1.664c0.02-0.303,0.043-0.616,0.075-0.938
			c0.01-0.325,0.019-0.662,0.029-1.01c0.007-0.345,0.015-0.702,0.022-1.069c-0.018-0.366-0.036-0.742-0.055-1.129
			c-0.009-0.769-0.104-1.57-0.2-2.397c-0.051-0.832-0.279-1.674-0.425-2.545c-0.173-0.868-0.471-1.733-0.702-2.629
			c-0.37-0.855-0.635-1.768-1.071-2.627c-0.489-0.834-0.81-1.767-1.428-2.56c-0.275-0.413-0.553-0.828-0.831-1.247
			c-0.258-0.431-0.643-0.784-0.958-1.184c-0.329-0.39-0.66-0.781-0.992-1.175c-0.368-0.366-0.76-0.715-1.138-1.077l-1.146-1.08
			c-0.418-0.299-0.826-0.608-1.234-0.921l-1.221-0.944c-0.468-0.306-0.996-0.598-1.489-0.9l-1.495-0.916l-0.373-0.229l-0.094-0.057
			l-0.022-0.014c-0.034-0.02,0.207,0.118,0.094,0.055l-0.046-0.021l-0.184-0.086l-0.734-0.344l-1.459-0.702
			c-0.482-0.239-0.96-0.494-1.467-0.638c-0.498-0.175-0.995-0.349-1.488-0.521c-0.495-0.164-0.977-0.405-1.481-0.484
			c-0.501-0.114-0.999-0.227-1.493-0.339c-0.495-0.104-0.983-0.274-1.479-0.292c-1.971-0.259-3.911-0.358-5.743-0.134
			c-0.461,0.052-0.915,0.103-1.362,0.153c-0.446,0.066-0.872,0.196-1.305,0.279c-0.428,0.101-0.86,0.169-1.27,0.292
			c-0.407,0.133-0.808,0.264-1.199,0.392c-1.576,0.508-2.979,1.166-4.207,1.801c-0.616,0.317-1.147,0.686-1.686,0.973
			c-0.514,0.319-0.974,0.635-1.4,0.912c-0.411,0.299-0.778,0.566-1.098,0.799c-0.313,0.247-0.578,0.456-0.794,0.626
			C520.51,240.227,520.283,240.425,520.283,240.425z"/>
	</g>
	<g id="Layer_8_copy_6" display="inline">
		<path stroke="#000000" stroke-miterlimit="10" d="M487.497,262.829"/>
		<path stroke="#000000" stroke-miterlimit="10" d="M360.313,130.031l-6.844,4.563L485,265.563c0,0,2.438,1.813,5.063-0.5
			s0-5.625,0-5.625L360.313,130.031z"/>
	</g>
	<g id="Layer_7_copy_4" display="inline">
		<path stroke="#000000" stroke-width="5" stroke-miterlimit="10" d="M57,293l85-83.5l97-54.5l44,27l54.5-34.5l118,118
			c0,0,21.5,27.5,48,27.5S57,293,57,293z"/>
	</g>
	<polyline display="inline" fill="none" stroke="#000000" stroke-width="9" stroke-miterlimit="10" points="480.423,214.043 
		479.031,215.726 475.563,212.257 	"/>
	<path display="inline" fill="none" stroke="#000000" stroke-width="9" stroke-miterlimit="10" d="M557.416,295.354
		c0.52,2.792-1.407,4.731-1.407,4.731s-242.774,242.773-245.98,245.98s-7.326,0-7.326,0S59.776,303.141,56.474,299.825
		s0-7.327,0-7.327S299.018,49.955,302.455,46.518s7.328,0,7.328,0l167.085,167.091l2.496,2.496l0.169,0.168l0.559,0.56"/>
</g>
<g id="_x33_-4" display="none">
	<g id="Layer_12_copy_8" display="inline">
		<path fill="#FFFFFF" stroke="#000000" stroke-width="9" stroke-miterlimit="10" d="M556.451,293.269c0,0,2.362,3.874,0,6.306
			S310.028,546.066,310.028,546.066s-3.942,3.384-7.326,0S56.474,299.825,56.474,299.825s-3.408-3.919,0-7.327
			s245.981-245.98,245.981-245.98s3.999-3.329,7.328,0L467.251,204"/>
	</g>
	<path display="inline" fill="#E52420" d="M306.229,292.516v251.985c1.388,0.05,2.79-0.44,3.851-1.5l245.98-245.98
		c1.483-1.483,1.47-3.794,1.47-3.794S431.855,292.752,306.229,292.516z"/>
	<path display="inline" fill="#F49819" d="M306.229,294.516c-125.515-0.236-250.98-0.236-251.011,0.71
		c-0.061,1.893,1.308,3.533,1.308,3.533l0.186,0.188c0.023,0.023,0.038,0.051,0.061,0.074l245.981,245.98
		c0.964,0.964,2.214,1.454,3.476,1.5V294.516z"/>
	<text transform="matrix(1 0 0 1 332.0508 416.9365)" font-family="'MyriadPro-Bold'" font-size="150">4</text>
	<text transform="matrix(1 0 0 1 196.0498 416.9365)" font-family="'MyriadPro-Bold'" font-size="150">3</text>
	<g display="inline">
		<path d="M378.698,416.937v-23.249H335.5v-14.85l36.898-59.397h27.899v57.147h11.699v17.1h-11.699v23.249H378.698z
			 M378.698,376.588v-21.599c0-5.85,0.3-11.85,0.75-18.149h-0.6c-3.15,6.3-5.7,11.999-9,18.149l-13.05,21.299v0.3H378.698z"/>
	</g>
	<g display="inline">
		<path d="M206.399,394.588c4.05,2.1,13.35,5.999,22.649,5.999c11.85,0,17.85-5.699,17.85-13.049c0-9.6-9.6-13.95-19.65-13.95
			h-9.299v-16.349h8.85c7.648-0.15,17.398-3,17.398-11.25c0-5.85-4.799-10.199-14.398-10.199c-7.95,0-16.35,3.449-20.399,5.85
			l-4.649-16.499c5.85-3.75,17.549-7.35,30.148-7.35c20.85,0,32.398,10.949,32.398,24.299c0,10.35-5.85,18.449-17.85,22.648v0.301
			c11.699,2.1,21.15,10.949,21.15,23.698c0,17.25-15.15,29.85-39.898,29.85c-12.6,0-23.25-3.301-28.949-6.9L206.399,394.588z"/>
	</g>
	<g id="Layer_11_copy_7" display="inline">
		<path fill="#FFFFFF" stroke="#000000" stroke-width="7" stroke-miterlimit="10" d="M468.142,204.964
			c7.5-12.627,24.833-14.794,24.833-14.794c18.167-1.5,26.333,7.965,26.333,7.965c5.834-28.631,31.834-36.298,31.834-36.298
			c23.666-9.833,44.691,4.5,44.691,4.5c14.667-37.667,46.834-33.332,46.834-33.332c37.5,1.167,44.666,38.831,44.666,38.831
			c15-6.5,24.667,1,24.667,1c13.667,5.833,12.167,26.263,12.167,26.263c7-0.568,34.666,10.901,34.5,45.401
			c-2.166,46.333-44.917,48.5-44.917,48.5l-658.793,1.125"/>
	</g>
	
		<line display="inline" fill="none" stroke="#000000" stroke-width="6" stroke-miterlimit="10" x1="306.358" y1="292.622" x2="306.373" y2="546.395"/>
	<g display="inline">
		<path d="M513.283,240.425c0,0,0.134-0.262,0.431-0.739c0.307-0.466,0.763-1.153,1.435-1.962c0.349-0.39,0.728-0.836,1.163-1.303
			c0.452-0.447,0.943-0.938,1.508-1.418c1.131-0.955,2.475-2.002,4.123-2.874c0.414-0.217,0.837-0.439,1.268-0.666
			c0.439-0.212,0.91-0.373,1.38-0.567c0.475-0.181,0.953-0.39,1.458-0.539c0.511-0.132,1.03-0.266,1.557-0.401
			c2.116-0.534,4.447-0.696,6.839-0.571c1.201,0.027,2.381,0.319,3.602,0.492c1.209,0.218,2.364,0.65,3.563,0.999
			c0.608,0.159,1.167,0.422,1.733,0.673l1.703,0.765l0.852,0.391l0.213,0.098l0.053,0.025l0.144,0.08l0.023,0.014l0.094,0.056
			l0.376,0.224l1.507,0.896c0.502,0.31,0.994,0.594,1.499,0.93l1.551,1.191l1.527,1.206l1.331,1.342
			c0.436,0.45,0.881,0.887,1.3,1.344c0.375,0.501,0.747,0.999,1.118,1.494c0.353,0.507,0.767,0.962,1.056,1.503
			c0.297,0.533,0.592,1.063,0.885,1.588l0.429,0.785c0.131,0.266,0.229,0.547,0.344,0.818c0.215,0.546,0.429,1.088,0.64,1.624
			c0.39,1.079,0.613,2.186,0.887,3.232c0.131,1.079,0.336,2.111,0.377,3.12c0.004,1.012,0.105,1.979-0.001,2.905
			c-0.069,0.925-0.115,1.805-0.285,2.629c-0.072,0.411-0.143,0.812-0.211,1.201c-0.094,0.383-0.186,0.755-0.273,1.115
			c-0.169,0.719-0.354,1.383-0.582,1.981c-0.196,0.604-0.414,1.146-0.625,1.628c-0.194,0.487-0.389,0.913-0.589,1.271
			c-0.192,0.36-0.336,0.669-0.491,0.906c-0.296,0.472-0.454,0.724-0.454,0.724s0.065-0.289,0.187-0.829
			c0.113-0.539,0.265-1.329,0.389-2.336c0.073-0.5,0.139-1.055,0.167-1.664c0.02-0.303,0.043-0.616,0.075-0.938
			c0.01-0.325,0.019-0.662,0.029-1.01c0.007-0.345,0.015-0.702,0.022-1.069c-0.018-0.366-0.036-0.742-0.055-1.129
			c-0.009-0.769-0.104-1.57-0.2-2.397c-0.051-0.832-0.279-1.674-0.425-2.545c-0.173-0.868-0.471-1.733-0.702-2.629
			c-0.37-0.855-0.635-1.768-1.071-2.627c-0.489-0.834-0.81-1.767-1.428-2.56c-0.275-0.413-0.553-0.828-0.831-1.247
			c-0.258-0.431-0.643-0.784-0.958-1.184c-0.329-0.39-0.66-0.781-0.992-1.175c-0.368-0.366-0.76-0.715-1.138-1.077l-1.146-1.08
			c-0.418-0.299-0.826-0.608-1.234-0.921l-1.221-0.944c-0.468-0.306-0.996-0.598-1.489-0.9l-1.495-0.916l-0.373-0.229l-0.094-0.057
			l-0.022-0.014c-0.034-0.02,0.207,0.118,0.094,0.055l-0.046-0.021l-0.184-0.086l-0.734-0.344l-1.459-0.702
			c-0.482-0.239-0.96-0.494-1.467-0.638c-0.498-0.175-0.995-0.349-1.488-0.521c-0.495-0.164-0.977-0.405-1.481-0.484
			c-0.501-0.114-0.999-0.227-1.493-0.339c-0.495-0.104-0.983-0.274-1.479-0.292c-1.971-0.259-3.911-0.358-5.743-0.134
			c-0.461,0.052-0.915,0.103-1.362,0.153c-0.446,0.066-0.872,0.196-1.305,0.279c-0.428,0.101-0.86,0.169-1.27,0.292
			c-0.407,0.133-0.808,0.264-1.199,0.392c-1.576,0.508-2.979,1.166-4.207,1.801c-0.616,0.317-1.147,0.686-1.686,0.973
			c-0.514,0.319-0.974,0.635-1.4,0.912c-0.411,0.299-0.778,0.566-1.098,0.799c-0.313,0.247-0.578,0.456-0.794,0.626
			C513.51,240.227,513.283,240.425,513.283,240.425z"/>
	</g>
	<g display="inline">
		<path d="M554.958,210.82c0,0,0.309-0.396,0.957-1.083c0.652-0.679,1.622-1.676,2.982-2.809c1.355-1.137,3.067-2.46,5.196-3.748
			c2.119-1.298,4.633-2.61,7.552-3.659c2.906-1.063,6.212-1.926,9.804-2.212c3.582-0.316,7.437-0.169,11.303,0.636
			c3.869,0.783,7.739,2.171,11.397,4.048c0.934,0.44,1.819,0.964,2.712,1.484l1.344,0.779l1.289,0.861l1.29,0.865l0.323,0.216
			l0.209,0.151l0.149,0.112l0.597,0.449c0.801,0.62,1.585,1.152,2.4,1.846c3.301,2.703,6.215,5.639,8.7,8.986
			c2.485,3.312,4.446,6.955,5.802,10.666c1.367,3.71,2.105,7.488,2.337,11.064c0.253,3.58-0.009,6.96-0.52,10.003
			c-0.49,3.049-1.271,5.764-2.116,8.097c-0.827,2.341-1.754,4.293-2.572,5.86c-0.81,1.573-1.583,2.733-2.105,3.516
			c-0.261,0.393-0.481,0.68-0.629,0.874c-0.146,0.194-0.222,0.294-0.222,0.294s0.228-0.448,0.599-1.307
			c0.381-0.854,0.883-2.129,1.443-3.769c0.555-1.642,1.125-3.665,1.648-5.998c0.509-2.336,0.906-5.001,1.103-7.899
			c0.175-2.9,0.094-6.039-0.342-9.286c-0.45-3.248-1.39-6.574-2.751-9.829c-1.372-3.255-3.243-6.41-5.528-9.342
			c-2.276-2.907-5.04-5.661-7.926-7.993c-0.696-0.611-1.559-1.213-2.329-1.819l-0.594-0.454l-0.148-0.113l-0.074-0.057
			c0.097,0.071,0.005,0.005,0.018,0.015l-0.037-0.025l-0.297-0.201l-1.183-0.805l-1.179-0.805l-1.213-0.737
			c-0.806-0.494-1.605-0.995-2.442-1.409c-3.292-1.778-6.709-3.153-10.137-4.029c-3.427-0.868-6.85-1.285-10.114-1.233
			c-3.264,0.054-6.359,0.523-9.164,1.229c-5.617,1.44-10.053,3.703-13.016,5.479C556.507,209.527,554.958,210.82,554.958,210.82z"/>
	</g>
	<g id="Layer_8_copy_9" display="inline">
		<path stroke="#000000" stroke-miterlimit="10" d="M487.497,262.829"/>
		<path stroke="#000000" stroke-miterlimit="10" d="M360.313,130.031l-6.844,4.563L485,265.563c0,0,2.438,1.813,5.063-0.5
			s0-5.625,0-5.625L360.313,130.031z"/>
		<path stroke="#000000" stroke-miterlimit="10" d="M338.358,144.237l-6.092,4.068l117.075,116.783c0,0,2.17,1.616,4.506-0.446
			c2.337-2.062,0-5.016,0-5.016L338.358,144.237z"/>
	</g>
	<g id="Layer_12_copy_4" display="inline">
		<path fill="none" stroke="#000000" stroke-width="9" stroke-miterlimit="10" d="M556.451,293.269c0,0,2.362,3.874,0,6.306
			S310.028,546.066,310.028,546.066s-3.942,3.384-7.326,0S56.474,299.825,56.474,299.825s-3.408-3.919,0-7.327
			s245.981-245.98,245.981-245.98s3.999-3.329,7.328,0L467.251,204"/>
	</g>
	<g id="Layer_13_copy_4" display="inline">
		<polyline fill="none" stroke="#000000" stroke-width="7" stroke-miterlimit="10" points="468.708,202.875 467.792,205.958 
			465.125,203.208 		"/>
	</g>
	<path display="inline" stroke="#000000" stroke-width="3" stroke-miterlimit="10" d="M55.208,294.917l82.403-83.556L239.5,153.5
		l44.25,26.75l32.75-20l108,108.386c0,0,22,22.864,50,22.864S55.208,294.917,55.208,294.917z"/>
</g>
<g id="_x34_" display="none">
	<g id="Layer_12_copy_9" display="inline">
		<path fill="#FFFFFF" stroke="#000000" stroke-width="9" stroke-miterlimit="10" d="M556.451,293.269c0,0,2.362,3.874,0,6.306
			S310.028,546.066,310.028,546.066s-3.942,3.384-7.326,0S56.474,299.825,56.474,299.825s-3.408-3.919,0-7.327
			s245.981-245.98,245.981-245.98s3.999-3.329,7.328,0L467.251,204"/>
	</g>
	<path id="color" display="inline" fill="#E52420" d="M556.053,298.656l-245.98,247.401c-2.024,2.035-5.303,2.035-7.326,0
		L56.765,298.656c-0.023-0.023-0.038-0.051-0.061-0.075l-0.186-0.188c0,0-1.369-1.649-1.308-3.554c0.061-1.904,502.312,0,502.312,0
		S557.536,297.166,556.053,298.656z"/>
	<text id="number_1_" transform="matrix(1 0 0 1 242.541 466.002)" font-family="'MyriadPro-Bold'" font-size="230">4</text>
	<g display="inline">
		<path d="M314.069,466.002v-35.649h-66.238v-22.77l56.579-91.078h42.779v87.628h17.939v26.22h-17.939v35.649H314.069z
			 M314.069,404.133v-33.119c0-8.97,0.46-18.17,1.15-27.83h-0.92c-4.83,9.66-8.74,18.4-13.8,27.83l-20.01,32.659v0.46H314.069z"/>
	</g>
	<g id="Layer_11_copy" display="inline">
		<path fill="#FFFFFF" stroke="#000000" stroke-width="7" stroke-miterlimit="10" d="M468.142,204.964
			c7.5-12.627,24.833-14.794,24.833-14.794c18.167-1.5,26.333,7.965,26.333,7.965c5.834-28.631,31.834-36.298,31.834-36.298
			c23.666-9.833,44.691,4.5,44.691,4.5c14.667-37.667,46.834-33.332,46.834-33.332c37.5,1.167,44.666,38.831,44.666,38.831
			c15-6.5,24.667,1,24.667,1c13.667,5.833,12.167,26.263,12.167,26.263c7-0.568,34.666,10.901,34.5,45.401
			c-2.166,46.333-44.917,48.5-44.917,48.5l-658.793,1.125"/>
	</g>
	<g display="inline">
		<path d="M513.283,240.425c0,0,0.134-0.262,0.431-0.739c0.307-0.466,0.763-1.153,1.435-1.962c0.349-0.39,0.728-0.836,1.163-1.303
			c0.452-0.447,0.943-0.938,1.508-1.418c1.131-0.955,2.475-2.002,4.123-2.874c0.414-0.217,0.837-0.439,1.268-0.666
			c0.439-0.212,0.91-0.373,1.38-0.567c0.475-0.181,0.953-0.39,1.458-0.539c0.511-0.132,1.03-0.266,1.557-0.401
			c2.116-0.534,4.447-0.696,6.839-0.571c1.201,0.027,2.381,0.319,3.602,0.492c1.209,0.218,2.364,0.65,3.563,0.999
			c0.608,0.159,1.167,0.422,1.733,0.673l1.703,0.765l0.852,0.391l0.213,0.098l0.053,0.025l0.144,0.08l0.023,0.014l0.094,0.056
			l0.376,0.224l1.507,0.896c0.502,0.31,0.994,0.594,1.499,0.93l1.551,1.191l1.527,1.206l1.331,1.342
			c0.436,0.45,0.881,0.887,1.3,1.344c0.375,0.501,0.747,0.999,1.118,1.494c0.353,0.507,0.767,0.962,1.056,1.503
			c0.297,0.533,0.592,1.063,0.885,1.588l0.429,0.785c0.131,0.266,0.229,0.547,0.344,0.818c0.215,0.546,0.429,1.088,0.64,1.624
			c0.39,1.079,0.613,2.186,0.887,3.232c0.131,1.079,0.336,2.111,0.377,3.12c0.004,1.012,0.105,1.979-0.001,2.905
			c-0.069,0.925-0.115,1.805-0.285,2.629c-0.072,0.411-0.143,0.812-0.211,1.201c-0.094,0.383-0.186,0.755-0.273,1.115
			c-0.169,0.719-0.354,1.383-0.582,1.981c-0.196,0.604-0.414,1.146-0.625,1.628c-0.194,0.487-0.389,0.913-0.589,1.271
			c-0.192,0.36-0.336,0.669-0.491,0.906c-0.296,0.472-0.454,0.724-0.454,0.724s0.065-0.289,0.187-0.829
			c0.113-0.539,0.265-1.329,0.389-2.336c0.073-0.5,0.139-1.055,0.167-1.664c0.02-0.303,0.043-0.616,0.075-0.938
			c0.01-0.325,0.019-0.662,0.029-1.01c0.007-0.345,0.015-0.702,0.022-1.069c-0.018-0.366-0.036-0.742-0.055-1.129
			c-0.009-0.769-0.104-1.57-0.2-2.397c-0.051-0.832-0.279-1.674-0.425-2.545c-0.173-0.868-0.471-1.733-0.702-2.629
			c-0.37-0.855-0.635-1.768-1.071-2.627c-0.489-0.834-0.81-1.767-1.428-2.56c-0.275-0.413-0.553-0.828-0.831-1.247
			c-0.258-0.431-0.643-0.784-0.958-1.184c-0.329-0.39-0.66-0.781-0.992-1.175c-0.368-0.366-0.76-0.715-1.138-1.077l-1.146-1.08
			c-0.418-0.299-0.826-0.608-1.234-0.921l-1.221-0.944c-0.468-0.306-0.996-0.598-1.489-0.9l-1.495-0.916l-0.373-0.229l-0.094-0.057
			l-0.022-0.014c-0.034-0.02,0.207,0.118,0.094,0.055l-0.046-0.021l-0.184-0.086l-0.734-0.344l-1.459-0.702
			c-0.482-0.239-0.96-0.494-1.467-0.638c-0.498-0.175-0.995-0.349-1.488-0.521c-0.495-0.164-0.977-0.405-1.481-0.484
			c-0.501-0.114-0.999-0.227-1.493-0.339c-0.495-0.104-0.983-0.274-1.479-0.292c-1.971-0.259-3.911-0.358-5.743-0.134
			c-0.461,0.052-0.915,0.103-1.362,0.153c-0.446,0.066-0.872,0.196-1.305,0.279c-0.428,0.101-0.86,0.169-1.27,0.292
			c-0.407,0.133-0.808,0.264-1.199,0.392c-1.576,0.508-2.979,1.166-4.207,1.801c-0.616,0.317-1.147,0.686-1.686,0.973
			c-0.514,0.319-0.974,0.635-1.4,0.912c-0.411,0.299-0.778,0.566-1.098,0.799c-0.313,0.247-0.578,0.456-0.794,0.626
			C513.51,240.227,513.283,240.425,513.283,240.425z"/>
	</g>
	<g display="inline">
		<path d="M554.958,210.82c0,0,0.309-0.396,0.957-1.083c0.652-0.679,1.622-1.676,2.982-2.809c1.355-1.137,3.067-2.46,5.196-3.748
			c2.119-1.298,4.633-2.61,7.552-3.659c2.906-1.063,6.212-1.926,9.804-2.212c3.582-0.316,7.437-0.169,11.303,0.636
			c3.869,0.783,7.739,2.171,11.397,4.048c0.934,0.44,1.819,0.964,2.712,1.484l1.344,0.779l1.289,0.861l1.29,0.865l0.323,0.216
			l0.209,0.151l0.149,0.112l0.597,0.449c0.801,0.62,1.585,1.152,2.4,1.846c3.301,2.703,6.215,5.639,8.7,8.986
			c2.485,3.312,4.446,6.955,5.802,10.666c1.367,3.71,2.105,7.488,2.337,11.064c0.253,3.58-0.009,6.96-0.52,10.003
			c-0.49,3.049-1.271,5.764-2.116,8.097c-0.827,2.341-1.754,4.293-2.572,5.86c-0.81,1.573-1.583,2.733-2.105,3.516
			c-0.261,0.393-0.481,0.68-0.629,0.874c-0.146,0.194-0.222,0.294-0.222,0.294s0.228-0.448,0.599-1.307
			c0.381-0.854,0.883-2.129,1.443-3.769c0.555-1.642,1.125-3.665,1.648-5.998c0.509-2.336,0.906-5.001,1.103-7.899
			c0.175-2.9,0.094-6.039-0.342-9.286c-0.45-3.248-1.39-6.574-2.751-9.829c-1.372-3.255-3.243-6.41-5.528-9.342
			c-2.276-2.907-5.04-5.661-7.926-7.993c-0.696-0.611-1.559-1.213-2.329-1.819l-0.594-0.454l-0.148-0.113l-0.074-0.057
			c0.097,0.071,0.005,0.005,0.018,0.015l-0.037-0.025l-0.297-0.201l-1.183-0.805l-1.179-0.805l-1.213-0.737
			c-0.806-0.494-1.605-0.995-2.442-1.409c-3.292-1.778-6.709-3.153-10.137-4.029c-3.427-0.868-6.85-1.285-10.114-1.233
			c-3.264,0.054-6.359,0.523-9.164,1.229c-5.617,1.44-10.053,3.703-13.016,5.479C556.507,209.527,554.958,210.82,554.958,210.82z"/>
	</g>
	<g id="Layer_8_copy_2" display="inline">
		<path stroke="#000000" stroke-miterlimit="10" d="M487.497,262.829"/>
		<path stroke="#000000" stroke-miterlimit="10" d="M360.313,130.031l-6.844,4.563L485,265.563c0,0,2.438,1.813,5.063-0.5
			s0-5.625,0-5.625L360.313,130.031z"/>
		<path stroke="#000000" stroke-miterlimit="10" d="M338.358,144.237l-6.092,4.068l117.075,116.783c0,0,2.17,1.616,4.506-0.446
			c2.337-2.062,0-5.016,0-5.016L338.358,144.237z"/>
	</g>
	<g id="Layer_12_copy" display="inline">
		<path fill="none" stroke="#000000" stroke-width="9" stroke-miterlimit="10" d="M556.451,293.269c0,0,2.362,3.874,0,6.306
			S310.028,546.066,310.028,546.066s-3.942,3.384-7.326,0S56.474,299.825,56.474,299.825s-3.408-3.919,0-7.327
			s245.981-245.98,245.981-245.98s3.999-3.329,7.328,0L467.251,204"/>
	</g>
	<g id="Layer_13_copy" display="inline">
		<polyline fill="none" stroke="#000000" stroke-width="7" stroke-miterlimit="10" points="468.708,202.875 467.792,205.958 
			465.125,203.208 		"/>
	</g>
	<path display="inline" stroke="#000000" stroke-width="3" stroke-miterlimit="10" d="M55.208,294.917l82.403-83.556L239.5,153.5
		l44.25,26.75l32.75-20l108,108.386c0,0,22,22.864,50,22.864S55.208,294.917,55.208,294.917z"/>
</g>
<g id="_x34_-2" display="none">
	<g id="Layer_12" display="inline">
		<path fill="#FFFFFF" stroke="#000000" stroke-width="9" stroke-miterlimit="10" d="M556.451,293.269c0,0,2.362,3.874,0,6.306
			S310.028,546.066,310.028,546.066s-3.942,3.384-7.326,0S56.474,299.825,56.474,299.825s-3.408-3.919,0-7.327
			s245.981-245.98,245.981-245.98s3.999-3.329,7.328,0L467.251,204"/>
	</g>
	<path display="inline" fill="#F3E600" d="M306.229,292.516v251.985c1.388,0.05,2.79-0.44,3.851-1.5l245.98-245.98
		c1.483-1.483,1.47-3.794,1.47-3.794S431.855,292.752,306.229,292.516z"/>
	<path display="inline" fill="#E52420" d="M306.229,294.516c-125.515-0.236-250.98-0.236-251.011,0.71
		c-0.061,1.893,1.308,3.533,1.308,3.533l0.186,0.188c0.023,0.023,0.038,0.051,0.061,0.074l245.981,245.98
		c0.964,0.964,2.214,1.454,3.476,1.5V294.516z"/>
	<text transform="matrix(1 0 0 1 332.0508 416.9365)" font-family="'MyriadPro-Bold'" font-size="150">2</text>
	<text transform="matrix(1 0 0 1 196.0498 416.9365)" font-family="'MyriadPro-Bold'" font-size="150">4</text>
	<g display="inline">
		<path d="M338.35,416.937v-13.8l12.6-11.399c21.3-19.049,31.649-29.998,31.949-41.398c0-7.949-4.8-14.249-16.05-14.249
			c-8.399,0-15.749,4.2-20.849,8.1l-6.45-16.35c7.351-5.55,18.749-10.049,31.949-10.049c22.049,0,34.198,12.899,34.198,30.599
			c0,16.349-11.85,29.398-25.949,41.998l-8.999,7.5v0.3h36.748v18.749H338.35z"/>
	</g>
	<g display="inline">
		<path d="M242.697,416.937v-23.249H199.5v-14.85l36.898-59.397h27.898v57.147h11.699v17.1h-11.699v23.249H242.697z
			 M242.697,376.588v-21.599c0-5.85,0.301-11.85,0.75-18.149h-0.6c-3.15,6.3-5.699,11.999-9,18.149l-13.049,21.299v0.3H242.697z"/>
	</g>
	<g id="Layer_11_copy_5" display="inline">
		<path fill="#FFFFFF" stroke="#000000" stroke-width="7" stroke-miterlimit="10" d="M468.142,204.964
			c7.5-12.627,24.833-14.794,24.833-14.794c18.167-1.5,26.333,7.965,26.333,7.965c5.834-28.631,31.834-36.298,31.834-36.298
			c23.666-9.833,44.691,4.5,44.691,4.5c14.667-37.667,46.834-33.332,46.834-33.332c37.5,1.167,44.666,38.831,44.666,38.831
			c15-6.5,24.667,1,24.667,1c13.667,5.833,12.167,26.263,12.167,26.263c7-0.568,34.666,10.901,34.5,45.401
			c-2.166,46.333-44.917,48.5-44.917,48.5l-658.793,1.125"/>
	</g>
	
		<line display="inline" fill="none" stroke="#000000" stroke-width="6" stroke-miterlimit="10" x1="306.358" y1="292.622" x2="306.373" y2="546.395"/>
	<g display="inline">
		<path d="M513.283,240.425c0,0,0.134-0.262,0.431-0.739c0.307-0.466,0.763-1.153,1.435-1.962c0.349-0.39,0.728-0.836,1.163-1.303
			c0.452-0.447,0.943-0.938,1.508-1.418c1.131-0.955,2.475-2.002,4.123-2.874c0.414-0.217,0.837-0.439,1.268-0.666
			c0.439-0.212,0.91-0.373,1.38-0.567c0.475-0.181,0.953-0.39,1.458-0.539c0.511-0.132,1.03-0.266,1.557-0.401
			c2.116-0.534,4.447-0.696,6.839-0.571c1.201,0.027,2.381,0.319,3.602,0.492c1.209,0.218,2.364,0.65,3.563,0.999
			c0.608,0.159,1.167,0.422,1.733,0.673l1.703,0.765l0.852,0.391l0.213,0.098l0.053,0.025l0.144,0.08l0.023,0.014l0.094,0.056
			l0.376,0.224l1.507,0.896c0.502,0.31,0.994,0.594,1.499,0.93l1.551,1.191l1.527,1.206l1.331,1.342
			c0.436,0.45,0.881,0.887,1.3,1.344c0.375,0.501,0.747,0.999,1.118,1.494c0.353,0.507,0.767,0.962,1.056,1.503
			c0.297,0.533,0.592,1.063,0.885,1.588l0.429,0.785c0.131,0.266,0.229,0.547,0.344,0.818c0.215,0.546,0.429,1.088,0.64,1.624
			c0.39,1.079,0.613,2.186,0.887,3.232c0.131,1.079,0.336,2.111,0.377,3.12c0.004,1.012,0.105,1.979-0.001,2.905
			c-0.069,0.925-0.115,1.805-0.285,2.629c-0.072,0.411-0.143,0.812-0.211,1.201c-0.094,0.383-0.186,0.755-0.273,1.115
			c-0.169,0.719-0.354,1.383-0.582,1.981c-0.196,0.604-0.414,1.146-0.625,1.628c-0.194,0.487-0.389,0.913-0.589,1.271
			c-0.192,0.36-0.336,0.669-0.491,0.906c-0.296,0.472-0.454,0.724-0.454,0.724s0.065-0.289,0.187-0.829
			c0.113-0.539,0.265-1.329,0.389-2.336c0.073-0.5,0.139-1.055,0.167-1.664c0.02-0.303,0.043-0.616,0.075-0.938
			c0.01-0.325,0.019-0.662,0.029-1.01c0.007-0.345,0.015-0.702,0.022-1.069c-0.018-0.366-0.036-0.742-0.055-1.129
			c-0.009-0.769-0.104-1.57-0.2-2.397c-0.051-0.832-0.279-1.674-0.425-2.545c-0.173-0.868-0.471-1.733-0.702-2.629
			c-0.37-0.855-0.635-1.768-1.071-2.627c-0.489-0.834-0.81-1.767-1.428-2.56c-0.275-0.413-0.553-0.828-0.831-1.247
			c-0.258-0.431-0.643-0.784-0.958-1.184c-0.329-0.39-0.66-0.781-0.992-1.175c-0.368-0.366-0.76-0.715-1.138-1.077l-1.146-1.08
			c-0.418-0.299-0.826-0.608-1.234-0.921l-1.221-0.944c-0.468-0.306-0.996-0.598-1.489-0.9l-1.495-0.916l-0.373-0.229l-0.094-0.057
			l-0.022-0.014c-0.034-0.02,0.207,0.118,0.094,0.055l-0.046-0.021l-0.184-0.086l-0.734-0.344l-1.459-0.702
			c-0.482-0.239-0.96-0.494-1.467-0.638c-0.498-0.175-0.995-0.349-1.488-0.521c-0.495-0.164-0.977-0.405-1.481-0.484
			c-0.501-0.114-0.999-0.227-1.493-0.339c-0.495-0.104-0.983-0.274-1.479-0.292c-1.971-0.259-3.911-0.358-5.743-0.134
			c-0.461,0.052-0.915,0.103-1.362,0.153c-0.446,0.066-0.872,0.196-1.305,0.279c-0.428,0.101-0.86,0.169-1.27,0.292
			c-0.407,0.133-0.808,0.264-1.199,0.392c-1.576,0.508-2.979,1.166-4.207,1.801c-0.616,0.317-1.147,0.686-1.686,0.973
			c-0.514,0.319-0.974,0.635-1.4,0.912c-0.411,0.299-0.778,0.566-1.098,0.799c-0.313,0.247-0.578,0.456-0.794,0.626
			C513.51,240.227,513.283,240.425,513.283,240.425z"/>
	</g>
	<g display="inline">
		<path d="M554.958,210.82c0,0,0.309-0.396,0.957-1.083c0.652-0.679,1.622-1.676,2.982-2.809c1.355-1.137,3.067-2.46,5.196-3.748
			c2.119-1.298,4.633-2.61,7.552-3.659c2.906-1.063,6.212-1.926,9.804-2.212c3.582-0.316,7.437-0.169,11.303,0.636
			c3.869,0.783,7.739,2.171,11.397,4.048c0.934,0.44,1.819,0.964,2.712,1.484l1.344,0.779l1.289,0.861l1.29,0.865l0.323,0.216
			l0.209,0.151l0.149,0.112l0.597,0.449c0.801,0.62,1.585,1.152,2.4,1.846c3.301,2.703,6.215,5.639,8.7,8.986
			c2.485,3.312,4.446,6.955,5.802,10.666c1.367,3.71,2.105,7.488,2.337,11.064c0.253,3.58-0.009,6.96-0.52,10.003
			c-0.49,3.049-1.271,5.764-2.116,8.097c-0.827,2.341-1.754,4.293-2.572,5.86c-0.81,1.573-1.583,2.733-2.105,3.516
			c-0.261,0.393-0.481,0.68-0.629,0.874c-0.146,0.194-0.222,0.294-0.222,0.294s0.228-0.448,0.599-1.307
			c0.381-0.854,0.883-2.129,1.443-3.769c0.555-1.642,1.125-3.665,1.648-5.998c0.509-2.336,0.906-5.001,1.103-7.899
			c0.175-2.9,0.094-6.039-0.342-9.286c-0.45-3.248-1.39-6.574-2.751-9.829c-1.372-3.255-3.243-6.41-5.528-9.342
			c-2.276-2.907-5.04-5.661-7.926-7.993c-0.696-0.611-1.559-1.213-2.329-1.819l-0.594-0.454l-0.148-0.113l-0.074-0.057
			c0.097,0.071,0.005,0.005,0.018,0.015l-0.037-0.025l-0.297-0.201l-1.183-0.805l-1.179-0.805l-1.213-0.737
			c-0.806-0.494-1.605-0.995-2.442-1.409c-3.292-1.778-6.709-3.153-10.137-4.029c-3.427-0.868-6.85-1.285-10.114-1.233
			c-3.264,0.054-6.359,0.523-9.164,1.229c-5.617,1.44-10.053,3.703-13.016,5.479C556.507,209.527,554.958,210.82,554.958,210.82z"/>
	</g>
	<g id="Layer_8_copy_7" display="inline">
		<path stroke="#000000" stroke-miterlimit="10" d="M487.497,262.829"/>
		<path stroke="#000000" stroke-miterlimit="10" d="M360.313,130.031l-6.844,4.563L485,265.563c0,0,2.438,1.813,5.063-0.5
			s0-5.625,0-5.625L360.313,130.031z"/>
		<path stroke="#000000" stroke-miterlimit="10" d="M338.358,144.237l-6.092,4.068l117.075,116.783c0,0,2.17,1.616,4.506-0.446
			c2.337-2.062,0-5.016,0-5.016L338.358,144.237z"/>
	</g>
	<g id="Layer_12_copy_2" display="inline">
		<path fill="none" stroke="#000000" stroke-width="9" stroke-miterlimit="10" d="M556.451,293.269c0,0,2.362,3.874,0,6.306
			S310.028,546.066,310.028,546.066s-3.942,3.384-7.326,0S56.474,299.825,56.474,299.825s-3.408-3.919,0-7.327
			s245.981-245.98,245.981-245.98s3.999-3.329,7.328,0L467.251,204"/>
	</g>
	<g id="Layer_13_copy_2" display="inline">
		<polyline fill="none" stroke="#000000" stroke-width="7" stroke-miterlimit="10" points="468.708,202.875 467.792,205.958 
			465.125,203.208 		"/>
	</g>
	<path display="inline" stroke="#000000" stroke-width="3" stroke-miterlimit="10" d="M55.208,294.917l82.403-83.556L239.5,153.5
		l44.25,26.75l32.75-20l108,108.386c0,0,22,22.864,50,22.864S55.208,294.917,55.208,294.917z"/>
</g>
<g id="_x34_-3" display="none">
	<g id="Layer_12_copy_15" display="inline">
		<path fill="#FFFFFF" stroke="#000000" stroke-width="9" stroke-miterlimit="10" d="M556.451,293.269c0,0,2.362,3.874,0,6.306
			S310.028,546.066,310.028,546.066s-3.942,3.384-7.326,0S56.474,299.825,56.474,299.825s-3.408-3.919,0-7.327
			s245.981-245.98,245.981-245.98s3.999-3.329,7.328,0L467.251,204"/>
	</g>
	<path display="inline" fill="#F49819" d="M306.229,292.409v251.985c1.388,0.05,2.79-0.44,3.851-1.5l245.98-245.98
		c1.483-1.483,1.47-3.794,1.47-3.794S431.855,292.646,306.229,292.409z"/>
	<path display="inline" fill="#E52420" d="M306.229,294.409c-125.515-0.236-250.98-0.236-251.011,0.71
		c-0.061,1.893,1.308,3.533,1.308,3.533l0.186,0.188c0.023,0.023,0.038,0.051,0.061,0.074l245.981,245.98
		c0.964,0.964,2.214,1.454,3.476,1.5V294.409z"/>
	<text transform="matrix(1 0 0 1 332.0508 416.8301)" font-family="'MyriadPro-Bold'" font-size="150">3</text>
	<text transform="matrix(1 0 0 1 196.0498 416.8301)" font-family="'MyriadPro-Bold'" font-size="150">4</text>
	<g display="inline">
		<path d="M342.4,394.481c4.049,2.1,13.35,5.999,22.648,5.999c11.85,0,17.85-5.699,17.85-13.049c0-9.6-9.6-13.95-19.649-13.95h-9.3
			v-16.349h8.85c7.649-0.15,17.399-3,17.399-11.25c0-5.85-4.8-10.199-14.399-10.199c-7.949,0-16.35,3.449-20.398,5.85l-4.65-16.499
			c5.85-3.75,17.549-7.35,30.148-7.35c20.85,0,32.399,10.949,32.399,24.299c0,10.35-5.851,18.449-17.85,22.648v0.301
			c11.699,2.1,21.149,10.949,21.149,23.698c0,17.25-15.149,29.85-39.898,29.85c-12.6,0-23.25-3.301-28.949-6.9L342.4,394.481z"/>
	</g>
	<g display="inline">
		<path d="M242.697,416.83v-23.249H199.5v-14.85l36.898-59.397h27.898v57.147h11.699v17.1h-11.699v23.249H242.697z M242.697,376.481
			v-21.599c0-5.85,0.301-11.85,0.75-18.149h-0.6c-3.15,6.3-5.699,11.999-9,18.149l-13.049,21.299v0.3H242.697z"/>
	</g>
	<g id="Layer_11_copy_6" display="inline">
		<path fill="#FFFFFF" stroke="#000000" stroke-width="7" stroke-miterlimit="10" d="M468.142,204.964
			c7.5-12.627,24.833-14.794,24.833-14.794c18.167-1.5,26.333,7.965,26.333,7.965c5.834-28.631,31.834-36.298,31.834-36.298
			c23.666-9.833,44.691,4.5,44.691,4.5c14.667-37.667,46.834-33.332,46.834-33.332c37.5,1.167,44.666,38.831,44.666,38.831
			c15-6.5,24.667,1,24.667,1c13.667,5.833,12.167,26.263,12.167,26.263c7-0.568,34.666,10.901,34.5,45.401
			c-2.166,46.333-44.917,48.5-44.917,48.5l-658.793,1.125"/>
	</g>
	
		<line display="inline" fill="none" stroke="#000000" stroke-width="6" stroke-miterlimit="10" x1="306.358" y1="292.622" x2="306.373" y2="546.395"/>
	<g display="inline">
		<path d="M513.283,240.425c0,0,0.134-0.262,0.431-0.739c0.307-0.466,0.763-1.153,1.435-1.962c0.349-0.39,0.728-0.836,1.163-1.303
			c0.452-0.447,0.943-0.938,1.508-1.418c1.131-0.955,2.475-2.002,4.123-2.874c0.414-0.217,0.837-0.439,1.268-0.666
			c0.439-0.212,0.91-0.373,1.38-0.567c0.475-0.181,0.953-0.39,1.458-0.539c0.511-0.132,1.03-0.266,1.557-0.401
			c2.116-0.534,4.447-0.696,6.839-0.571c1.201,0.027,2.381,0.319,3.602,0.492c1.209,0.218,2.364,0.65,3.563,0.999
			c0.608,0.159,1.167,0.422,1.733,0.673l1.703,0.765l0.852,0.391l0.213,0.098l0.053,0.025l0.144,0.08l0.023,0.014l0.094,0.056
			l0.376,0.224l1.507,0.896c0.502,0.31,0.994,0.594,1.499,0.93l1.551,1.191l1.527,1.206l1.331,1.342
			c0.436,0.45,0.881,0.887,1.3,1.344c0.375,0.501,0.747,0.999,1.118,1.494c0.353,0.507,0.767,0.962,1.056,1.503
			c0.297,0.533,0.592,1.063,0.885,1.588l0.429,0.785c0.131,0.266,0.229,0.547,0.344,0.818c0.215,0.546,0.429,1.088,0.64,1.624
			c0.39,1.079,0.613,2.186,0.887,3.232c0.131,1.079,0.336,2.111,0.377,3.12c0.004,1.012,0.105,1.979-0.001,2.905
			c-0.069,0.925-0.115,1.805-0.285,2.629c-0.072,0.411-0.143,0.812-0.211,1.201c-0.094,0.383-0.186,0.755-0.273,1.115
			c-0.169,0.719-0.354,1.383-0.582,1.981c-0.196,0.604-0.414,1.146-0.625,1.628c-0.194,0.487-0.389,0.913-0.589,1.271
			c-0.192,0.36-0.336,0.669-0.491,0.906c-0.296,0.472-0.454,0.724-0.454,0.724s0.065-0.289,0.187-0.829
			c0.113-0.539,0.265-1.329,0.389-2.336c0.073-0.5,0.139-1.055,0.167-1.664c0.02-0.303,0.043-0.616,0.075-0.938
			c0.01-0.325,0.019-0.662,0.029-1.01c0.007-0.345,0.015-0.702,0.022-1.069c-0.018-0.366-0.036-0.742-0.055-1.129
			c-0.009-0.769-0.104-1.57-0.2-2.397c-0.051-0.832-0.279-1.674-0.425-2.545c-0.173-0.868-0.471-1.733-0.702-2.629
			c-0.37-0.855-0.635-1.768-1.071-2.627c-0.489-0.834-0.81-1.767-1.428-2.56c-0.275-0.413-0.553-0.828-0.831-1.247
			c-0.258-0.431-0.643-0.784-0.958-1.184c-0.329-0.39-0.66-0.781-0.992-1.175c-0.368-0.366-0.76-0.715-1.138-1.077l-1.146-1.08
			c-0.418-0.299-0.826-0.608-1.234-0.921l-1.221-0.944c-0.468-0.306-0.996-0.598-1.489-0.9l-1.495-0.916l-0.373-0.229l-0.094-0.057
			l-0.022-0.014c-0.034-0.02,0.207,0.118,0.094,0.055l-0.046-0.021l-0.184-0.086l-0.734-0.344l-1.459-0.702
			c-0.482-0.239-0.96-0.494-1.467-0.638c-0.498-0.175-0.995-0.349-1.488-0.521c-0.495-0.164-0.977-0.405-1.481-0.484
			c-0.501-0.114-0.999-0.227-1.493-0.339c-0.495-0.104-0.983-0.274-1.479-0.292c-1.971-0.259-3.911-0.358-5.743-0.134
			c-0.461,0.052-0.915,0.103-1.362,0.153c-0.446,0.066-0.872,0.196-1.305,0.279c-0.428,0.101-0.86,0.169-1.27,0.292
			c-0.407,0.133-0.808,0.264-1.199,0.392c-1.576,0.508-2.979,1.166-4.207,1.801c-0.616,0.317-1.147,0.686-1.686,0.973
			c-0.514,0.319-0.974,0.635-1.4,0.912c-0.411,0.299-0.778,0.566-1.098,0.799c-0.313,0.247-0.578,0.456-0.794,0.626
			C513.51,240.227,513.283,240.425,513.283,240.425z"/>
	</g>
	<g display="inline">
		<path d="M554.958,210.82c0,0,0.309-0.396,0.957-1.083c0.652-0.679,1.622-1.676,2.982-2.809c1.355-1.137,3.067-2.46,5.196-3.748
			c2.119-1.298,4.633-2.61,7.552-3.659c2.906-1.063,6.212-1.926,9.804-2.212c3.582-0.316,7.437-0.169,11.303,0.636
			c3.869,0.783,7.739,2.171,11.397,4.048c0.934,0.44,1.819,0.964,2.712,1.484l1.344,0.779l1.289,0.861l1.29,0.865l0.323,0.216
			l0.209,0.151l0.149,0.112l0.597,0.449c0.801,0.62,1.585,1.152,2.4,1.846c3.301,2.703,6.215,5.639,8.7,8.986
			c2.485,3.312,4.446,6.955,5.802,10.666c1.367,3.71,2.105,7.488,2.337,11.064c0.253,3.58-0.009,6.96-0.52,10.003
			c-0.49,3.049-1.271,5.764-2.116,8.097c-0.827,2.341-1.754,4.293-2.572,5.86c-0.81,1.573-1.583,2.733-2.105,3.516
			c-0.261,0.393-0.481,0.68-0.629,0.874c-0.146,0.194-0.222,0.294-0.222,0.294s0.228-0.448,0.599-1.307
			c0.381-0.854,0.883-2.129,1.443-3.769c0.555-1.642,1.125-3.665,1.648-5.998c0.509-2.336,0.906-5.001,1.103-7.899
			c0.175-2.9,0.094-6.039-0.342-9.286c-0.45-3.248-1.39-6.574-2.751-9.829c-1.372-3.255-3.243-6.41-5.528-9.342
			c-2.276-2.907-5.04-5.661-7.926-7.993c-0.696-0.611-1.559-1.213-2.329-1.819l-0.594-0.454l-0.148-0.113l-0.074-0.057
			c0.097,0.071,0.005,0.005,0.018,0.015l-0.037-0.025l-0.297-0.201l-1.183-0.805l-1.179-0.805l-1.213-0.737
			c-0.806-0.494-1.605-0.995-2.442-1.409c-3.292-1.778-6.709-3.153-10.137-4.029c-3.427-0.868-6.85-1.285-10.114-1.233
			c-3.264,0.054-6.359,0.523-9.164,1.229c-5.617,1.44-10.053,3.703-13.016,5.479C556.507,209.527,554.958,210.82,554.958,210.82z"/>
	</g>
	<g id="Layer_8_copy_8" display="inline">
		<path stroke="#000000" stroke-miterlimit="10" d="M487.497,262.829"/>
		<path stroke="#000000" stroke-miterlimit="10" d="M360.313,130.031l-6.844,4.563L485,265.563c0,0,2.438,1.813,5.063-0.5
			s0-5.625,0-5.625L360.313,130.031z"/>
		<path stroke="#000000" stroke-miterlimit="10" d="M338.358,144.237l-6.092,4.068l117.075,116.783c0,0,2.17,1.616,4.506-0.446
			c2.337-2.062,0-5.016,0-5.016L338.358,144.237z"/>
	</g>
	<g id="Layer_12_copy_3" display="inline">
		<path fill="none" stroke="#000000" stroke-width="9" stroke-miterlimit="10" d="M556.451,293.269c0,0,2.362,3.874,0,6.306
			S310.028,546.066,310.028,546.066s-3.942,3.384-7.326,0S56.474,299.825,56.474,299.825s-3.408-3.919,0-7.327
			s245.981-245.98,245.981-245.98s3.999-3.329,7.328,0L467.251,204"/>
	</g>
	<g id="Layer_13_copy_3" display="inline">
		<polyline fill="none" stroke="#000000" stroke-width="7" stroke-miterlimit="10" points="468.708,202.875 467.792,205.958 
			465.125,203.208 		"/>
	</g>
	<path display="inline" stroke="#000000" stroke-width="3" stroke-miterlimit="10" d="M55.208,294.917l82.403-83.556L239.5,153.5
		l44.25,26.75l32.75-20l108,108.386c0,0,22,22.864,50,22.864S55.208,294.917,55.208,294.917z"/>
</g>
<g id="_x35_" display="none">
	<g id="Layer_12_copy_7" display="inline">
		<path fill="#FFFFFF" stroke="#000000" stroke-width="9" stroke-miterlimit="10" d="M556.451,293.269c0,0,2.362,3.874,0,6.306
			S310.028,546.066,310.028,546.066s-3.942,3.384-7.326,0S56.474,299.825,56.474,299.825s-3.408-3.919,0-7.327
			s245.981-245.98,245.981-245.98s3.999-3.329,7.328,0L467.251,204"/>
	</g>
	<path id="color_1_" display="inline" fill="#E52420" d="M555.909,300.086l-245.98,245.98c-2.024,2.023-5.303,2.023-7.326,0
		L56.622,300.086c-0.023-0.023-0.038-0.051-0.061-0.074l-0.186-0.187c0,0-1.369-1.64-1.308-3.533s502.312,0,502.312,0
		S557.393,298.604,555.909,300.086z"/>
	
		<rect x="74.938" y="287.804" transform="matrix(-0.7071 0.7071 -0.7071 -0.7071 382.7626 459.5816)" display="inline" width="42.519" height="42.52"/>
	
		<rect x="105.004" y="257.738" transform="matrix(-0.7071 0.7071 -0.7071 -0.7071 412.8271 386.998)" display="inline" fill="#E52420" width="42.52" height="42.52"/>
	
		<rect x="105.004" y="317.871" transform="matrix(-0.7071 0.7071 -0.7071 -0.7071 455.3473 489.6507)" display="inline" fill="#E52420" width="42.52" height="42.52"/>
	
		<rect x="135.07" y="287.804" transform="matrix(-0.7071 0.7071 -0.7071 -0.7071 485.4137 417.064)" display="inline" width="42.52" height="42.52"/>
	
		<rect x="165.136" y="257.738" transform="matrix(-0.7071 0.7071 -0.7071 -0.7071 515.4788 344.4803)" display="inline" fill="#E52420" width="42.52" height="42.519"/>
	
		<rect x="135.07" y="347.937" transform="matrix(-0.7071 0.7071 -0.7071 -0.7071 527.9301 519.7218)" display="inline" width="42.52" height="42.519"/>
	
		<rect x="165.136" y="317.871" transform="matrix(-0.7071 0.7071 -0.7071 -0.7071 557.9993 447.1299)" display="inline" fill="#E52420" width="42.52" height="42.519"/>
	
		<rect x="195.202" y="287.805" transform="matrix(-0.7071 0.7071 -0.7071 -0.7071 588.0662 374.5383)" display="inline" width="42.52" height="42.52"/>
	
		<rect x="225.268" y="257.738" transform="matrix(-0.7071 0.7071 -0.7071 -0.7071 618.1309 301.955)" display="inline" fill="#E52420" width="42.519" height="42.52"/>
	
		<rect x="165.136" y="378.002" transform="matrix(-0.7071 0.7071 -0.7071 -0.7071 600.5177 549.7809)" display="inline" fill="#E52420" width="42.519" height="42.519"/>
	
		<rect x="195.201" y="347.936" transform="matrix(-0.7071 0.7071 -0.7071 -0.7071 630.5836 477.1953)" display="inline" width="42.52" height="42.519"/>
	
		<rect x="225.268" y="317.87" transform="matrix(-0.7071 0.7071 -0.7071 -0.7071 660.65 404.6086)" display="inline" fill="#E52420" width="42.519" height="42.519"/>
	
		<rect x="255.333" y="287.805" transform="matrix(-0.7071 0.7071 -0.7071 -0.7071 690.7155 332.0242)" display="inline" width="42.52" height="42.519"/>
	
		<rect x="285.399" y="257.739" transform="matrix(-0.7071 0.7071 -0.7071 -0.7071 720.7814 259.4416)" display="inline" fill="#E52420" width="42.52" height="42.518"/>
	
		<rect x="195.201" y="408.068" transform="matrix(-0.7071 0.7071 -0.7071 -0.7071 673.1027 579.848)" display="inline" width="42.52" height="42.52"/>
	
		<rect x="225.267" y="378.002" transform="matrix(-0.7071 0.7071 -0.7071 -0.7071 703.1692 507.2612)" display="inline" fill="#E52420" width="42.52" height="42.52"/>
	
		<rect x="255.334" y="347.935" transform="matrix(-0.7071 0.7071 -0.7071 -0.7071 733.2356 434.6745)" display="inline" width="42.52" height="42.52"/>
	
		<rect x="285.4" y="317.869" transform="matrix(-0.7071 0.7071 -0.7071 -0.7071 763.3015 362.089)" display="inline" fill="#E52420" width="42.519" height="42.52"/>
	
		<rect x="315.465" y="287.804" transform="matrix(-0.7071 0.7071 -0.7071 -0.7071 793.3668 289.5009)" display="inline" width="42.519" height="42.521"/>
	
		<rect x="345.531" y="257.738" transform="matrix(-0.7071 0.7071 -0.7071 -0.7071 823.4332 216.9223)" display="inline" fill="#E52420" width="42.52" height="42.52"/>
	
		<rect x="225.267" y="438.134" transform="matrix(-0.7071 0.7071 -0.7071 -0.7071 745.6895 609.9144)" display="inline" fill="#E52420" width="42.52" height="42.52"/>
	
		<rect x="255.334" y="408.068" transform="matrix(-0.7071 0.7071 -0.7071 -0.7071 775.7559 537.3276)" display="inline" width="42.52" height="42.52"/>
	
		<rect x="285.4" y="378.002" transform="matrix(-0.7071 0.7071 -0.7071 -0.7071 805.8215 464.7413)" display="inline" fill="#E52420" width="42.52" height="42.52"/>
	
		<rect x="315.466" y="347.936" transform="matrix(-0.7071 0.7071 -0.7071 -0.7071 835.887 392.1549)" display="inline" width="42.519" height="42.519"/>
	
		<rect x="345.532" y="317.87" transform="matrix(-0.7071 0.7071 -0.7071 -0.7071 865.9533 319.5702)" display="inline" fill="#E52420" width="42.519" height="42.52"/>
	
		<rect x="375.597" y="287.804" transform="matrix(-0.7071 0.7071 -0.7071 -0.7071 896.0195 246.9854)" display="inline" width="42.52" height="42.52"/>
	
		<rect x="255.333" y="468.201" transform="matrix(-0.7071 0.7071 -0.7071 -0.7071 818.2723 639.9882)" display="inline" width="42.52" height="42.519"/>
	
		<rect x="285.4" y="438.135" transform="matrix(-0.7071 0.7071 -0.7071 -0.7071 848.3414 567.3936)" display="inline" fill="#E52420" width="42.52" height="42.519"/>
	
		<rect x="315.466" y="408.068" transform="matrix(-0.7071 0.7071 -0.7071 -0.7071 878.4084 494.7992)" display="inline" width="42.52" height="42.52"/>
	
		<rect x="345.532" y="378.002" transform="matrix(-0.7071 0.7071 -0.7071 -0.7071 908.4733 422.2129)" display="inline" fill="#E52420" width="42.52" height="42.52"/>
	
		<rect x="375.598" y="347.935" transform="matrix(-0.7071 0.7071 -0.7071 -0.7071 938.5388 349.644)" display="inline" width="42.52" height="42.52"/>
	
		<rect x="405.664" y="317.87" transform="matrix(-0.7071 0.7071 -0.7071 -0.7071 968.6058 277.0593)" display="inline" fill="#E52420" width="42.52" height="42.519"/>
	
		<rect x="285.4" y="498.266" transform="matrix(-0.7071 0.7071 -0.7071 -0.7071 890.8599 670.0446)" display="inline" fill="#E52420" width="42.519" height="42.519"/>
	
		<rect x="315.465" y="468.2" transform="matrix(-0.7071 0.7071 -0.7071 -0.7071 920.9258 597.459)" display="inline" width="42.52" height="42.519"/>
	
		<rect x="345.532" y="438.134" transform="matrix(-0.7071 0.7071 -0.7071 -0.7071 950.9926 524.8731)" display="inline" fill="#E52420" width="42.519" height="42.52"/>
	
		<rect x="375.597" y="408.068" transform="matrix(-0.7071 0.7071 -0.7071 -0.7071 981.0588 452.2884)" display="inline" width="42.52" height="42.52"/>
	
		<rect x="405.663" y="378.002" transform="matrix(-0.7071 0.7071 -0.7071 -0.7071 1011.1244 379.702)" display="inline" fill="#E52420" width="42.52" height="42.52"/>
	
		<rect x="435.73" y="347.936" transform="matrix(-0.7071 0.7071 -0.7071 -0.7071 1041.1899 307.1156)" display="inline" width="42.519" height="42.519"/>
	
		<rect x="465.796" y="317.87" transform="matrix(-0.7071 0.7071 -0.7071 -0.7071 1071.2562 234.5309)" display="inline" fill="#E52420" width="42.519" height="42.52"/>
	<g id="Layer_11" display="inline">
		<path fill="#FFFFFF" stroke="#000000" stroke-width="7" stroke-miterlimit="10" d="M468.142,204.964
			c7.5-12.627,24.833-14.794,24.833-14.794c18.167-1.5,26.333,7.965,26.333,7.965c5.834-28.631,31.834-36.298,31.834-36.298
			c23.666-9.833,44.691,4.5,44.691,4.5c14.667-37.667,46.834-33.332,46.834-33.332c37.5,1.167,44.666,38.831,44.666,38.831
			c15-6.5,24.667,1,24.667,1c13.667,5.833,12.167,26.263,12.167,26.263c7-0.568,34.666,10.901,34.5,45.401
			c-2.166,46.333-44.917,48.5-44.917,48.5l-658.793,1.125"/>
	</g>
	<text transform="matrix(1 0 0 1 242.5415 462.6689)" fill="#FFFFFF" font-family="'MyriadPro-Bold'" font-size="230">5</text>
	<g display="inline">
		<path fill="#FFFFFF" d="M352.02,341.922h-57.959l-3.22,22.999c3.22-0.46,5.979-0.46,9.659-0.46c14.26,0,28.75,3.22,39.33,10.81
			C351.1,382.86,358,395.28,358,412.76c0,27.829-23.92,52.439-64.169,52.439c-18.17,0-33.35-4.141-41.629-8.51l6.21-26.22
			c6.67,3.22,20.24,7.359,33.81,7.359c14.49,0,29.898-6.899,29.898-22.77c0-15.409-12.189-24.839-42.088-24.839
			c-8.28,0-14.03,0.46-20.24,1.38l9.89-78.429h82.338V341.922z"/>
	</g>
	<g display="inline">
		<path d="M513.283,240.425c0,0,0.134-0.262,0.431-0.739c0.307-0.466,0.763-1.153,1.435-1.962c0.349-0.39,0.728-0.836,1.163-1.303
			c0.452-0.447,0.943-0.938,1.508-1.418c1.131-0.955,2.475-2.002,4.123-2.874c0.414-0.217,0.837-0.439,1.268-0.666
			c0.439-0.212,0.91-0.373,1.38-0.567c0.475-0.181,0.953-0.39,1.458-0.539c0.511-0.132,1.03-0.266,1.557-0.401
			c2.116-0.534,4.447-0.696,6.839-0.571c1.201,0.027,2.381,0.319,3.602,0.492c1.209,0.218,2.364,0.65,3.563,0.999
			c0.608,0.159,1.167,0.422,1.733,0.673l1.703,0.765l0.852,0.391l0.213,0.098l0.053,0.025l0.144,0.08l0.023,0.014l0.094,0.056
			l0.376,0.224l1.507,0.896c0.502,0.31,0.994,0.594,1.499,0.93l1.551,1.191l1.527,1.206l1.331,1.342
			c0.436,0.45,0.881,0.887,1.3,1.344c0.375,0.501,0.747,0.999,1.118,1.494c0.353,0.507,0.767,0.962,1.056,1.503
			c0.297,0.533,0.592,1.063,0.885,1.588l0.429,0.785c0.131,0.266,0.229,0.547,0.344,0.818c0.215,0.546,0.429,1.088,0.64,1.624
			c0.39,1.079,0.613,2.186,0.887,3.232c0.131,1.079,0.336,2.111,0.377,3.12c0.004,1.012,0.105,1.979-0.001,2.905
			c-0.069,0.925-0.115,1.805-0.285,2.629c-0.072,0.411-0.143,0.812-0.211,1.201c-0.094,0.383-0.186,0.755-0.273,1.115
			c-0.169,0.719-0.354,1.383-0.582,1.981c-0.196,0.604-0.414,1.146-0.625,1.628c-0.194,0.487-0.389,0.913-0.589,1.271
			c-0.192,0.36-0.336,0.669-0.491,0.906c-0.296,0.472-0.454,0.724-0.454,0.724s0.065-0.289,0.187-0.829
			c0.113-0.539,0.265-1.329,0.389-2.336c0.073-0.5,0.139-1.055,0.167-1.664c0.02-0.303,0.043-0.616,0.075-0.938
			c0.01-0.325,0.019-0.662,0.029-1.01c0.007-0.345,0.015-0.702,0.022-1.069c-0.018-0.366-0.036-0.742-0.055-1.129
			c-0.009-0.769-0.104-1.57-0.2-2.397c-0.051-0.832-0.279-1.674-0.425-2.545c-0.173-0.868-0.471-1.733-0.702-2.629
			c-0.37-0.855-0.635-1.768-1.071-2.627c-0.489-0.834-0.81-1.767-1.428-2.56c-0.275-0.413-0.553-0.828-0.831-1.247
			c-0.258-0.431-0.643-0.784-0.958-1.184c-0.329-0.39-0.66-0.781-0.992-1.175c-0.368-0.366-0.76-0.715-1.138-1.077l-1.146-1.08
			c-0.418-0.299-0.826-0.608-1.234-0.921l-1.221-0.944c-0.468-0.306-0.996-0.598-1.489-0.9l-1.495-0.916l-0.373-0.229l-0.094-0.057
			l-0.022-0.014c-0.034-0.02,0.207,0.118,0.094,0.055l-0.046-0.021l-0.184-0.086l-0.734-0.344l-1.459-0.702
			c-0.482-0.239-0.96-0.494-1.467-0.638c-0.498-0.175-0.995-0.349-1.488-0.521c-0.495-0.164-0.977-0.405-1.481-0.484
			c-0.501-0.114-0.999-0.227-1.493-0.339c-0.495-0.104-0.983-0.274-1.479-0.292c-1.971-0.259-3.911-0.358-5.743-0.134
			c-0.461,0.052-0.915,0.103-1.362,0.153c-0.446,0.066-0.872,0.196-1.305,0.279c-0.428,0.101-0.86,0.169-1.27,0.292
			c-0.407,0.133-0.808,0.264-1.199,0.392c-1.576,0.508-2.979,1.166-4.207,1.801c-0.616,0.317-1.147,0.686-1.686,0.973
			c-0.514,0.319-0.974,0.635-1.4,0.912c-0.411,0.299-0.778,0.566-1.098,0.799c-0.313,0.247-0.578,0.456-0.794,0.626
			C513.51,240.227,513.283,240.425,513.283,240.425z"/>
	</g>
	<g display="inline">
		<path d="M554.958,210.82c0,0,0.309-0.396,0.957-1.083c0.652-0.679,1.622-1.676,2.982-2.809c1.355-1.137,3.067-2.46,5.196-3.748
			c2.119-1.298,4.633-2.61,7.552-3.659c2.906-1.063,6.212-1.926,9.804-2.212c3.582-0.316,7.437-0.169,11.303,0.636
			c3.869,0.783,7.739,2.171,11.397,4.048c0.934,0.44,1.819,0.964,2.712,1.484l1.344,0.779l1.289,0.861l1.29,0.865l0.323,0.216
			l0.209,0.151l0.149,0.112l0.597,0.449c0.801,0.62,1.585,1.152,2.4,1.846c3.301,2.703,6.215,5.639,8.7,8.986
			c2.485,3.312,4.446,6.955,5.802,10.666c1.367,3.71,2.105,7.488,2.337,11.064c0.253,3.58-0.009,6.96-0.52,10.003
			c-0.49,3.049-1.271,5.764-2.116,8.097c-0.827,2.341-1.754,4.293-2.572,5.86c-0.81,1.573-1.583,2.733-2.105,3.516
			c-0.261,0.393-0.481,0.68-0.629,0.874c-0.146,0.194-0.222,0.294-0.222,0.294s0.228-0.448,0.599-1.307
			c0.381-0.854,0.883-2.129,1.443-3.769c0.555-1.642,1.125-3.665,1.648-5.998c0.509-2.336,0.906-5.001,1.103-7.899
			c0.175-2.9,0.094-6.039-0.342-9.286c-0.45-3.248-1.39-6.574-2.751-9.829c-1.372-3.255-3.243-6.41-5.528-9.342
			c-2.276-2.907-5.04-5.661-7.926-7.993c-0.696-0.611-1.559-1.213-2.329-1.819l-0.594-0.454l-0.148-0.113l-0.074-0.057
			c0.097,0.071,0.005,0.005,0.018,0.015l-0.037-0.025l-0.297-0.201l-1.183-0.805l-1.179-0.805l-1.213-0.737
			c-0.806-0.494-1.605-0.995-2.442-1.409c-3.292-1.778-6.709-3.153-10.137-4.029c-3.427-0.868-6.85-1.285-10.114-1.233
			c-3.264,0.054-6.359,0.523-9.164,1.229c-5.617,1.44-10.053,3.703-13.016,5.479C556.507,209.527,554.958,210.82,554.958,210.82z"/>
	</g>
	<g id="Layer_8_copy" display="inline">
		<path stroke="#000000" stroke-miterlimit="10" d="M487.497,262.829"/>
		<path stroke="#000000" stroke-miterlimit="10" d="M360.313,130.031l-6.844,4.563L485,265.563c0,0,2.438,1.813,5.063-0.5
			s0-5.625,0-5.625L360.313,130.031z"/>
		<path stroke="#000000" stroke-miterlimit="10" d="M338.358,144.237l-6.092,4.068l117.075,116.783c0,0,2.17,1.616,4.506-0.446
			c2.337-2.062,0-5.016,0-5.016L338.358,144.237z"/>
	</g>
	<g id="Layer_11_copy_4" display="inline">
		<polygon fill="#E52420" points="411.376,293.517 426.924,309.064 442.524,293.463 		"/>
	</g>
	<g id="Layer_11_copy_3" display="inline">
		<polygon points="442.524,293.463 426.924,309.064 456.989,339.13 487.055,309.064 471.404,293.414 		"/>
	</g>
	<g id="Layer_11_copy_2" display="inline">
		<polygon points="502.759,293.36 487.055,309.064 517.121,339.13 547.188,309.064 531.435,293.312 		"/>
	</g>
	<g id="Layer_13" display="inline">
		<polyline fill="none" stroke="#000000" stroke-width="7" stroke-miterlimit="10" points="468.708,202.875 467.792,205.958 
			465.125,203.208 		"/>
	</g>
	<path display="inline" stroke="#000000" stroke-width="3" stroke-miterlimit="10" d="M55.208,294.917l82.403-83.556L239.5,153.5
		l44.25,26.75l32.75-20l108,108.386c0,0,22,22.864,50,22.864S55.208,294.917,55.208,294.917z"/>
	<g id="Layer_12_copy_6" display="inline">
		<path fill="none" stroke="#000000" stroke-width="9" stroke-miterlimit="10" d="M556.451,293.269c0,0,2.362,3.874,0,6.306
			S310.028,546.066,310.028,546.066s-3.942,3.384-7.326,0S56.474,299.825,56.474,299.825s-3.408-3.919,0-7.327
			s245.981-245.98,245.981-245.98s3.999-3.329,7.328,0L467.251,204"/>
	</g>
</g>
</svg>
