<?xml version="1.0" encoding="utf-8"?>
<!-- Generator: Adobe Illustrator 16.0.0, SVG Export Plug-In . SVG Version: 6.00 Build 0)  -->
<!DOCTYPE svg PUBLIC "-//W3C//DTD SVG 1.1//EN" "http://www.w3.org/Graphics/SVG/1.1/DTD/svg11.dtd">
<svg version="1.1" xmlns="http://www.w3.org/2000/svg" xmlns:xlink="http://www.w3.org/1999/xlink" x="0px" y="0px"
	 width="113.39px" height="113.39px" viewBox="0 0 113.39 113.39" enable-background="new 0 0 113.39 113.39" xml:space="preserve">
<g id="Layer_1">
	<g>
		<path fill-rule="evenodd" clip-rule="evenodd" fill="#FFFFFF" d="M0.377,88.296c0-29.023,0.003-58.047-0.018-87.071
			c0-0.708,0.159-0.867,0.867-0.867c37.167,0.02,74.335,0.02,111.503,0c0.707,0,0.87,0.159,0.867,0.867
			c-0.03,7.138-0.019,14.276-0.019,21.414c-0.292,0.542-0.746,0.885-1.277,1.194c-11.549,6.709-23.093,13.425-34.639,20.14
			c-8.148,4.739-16.286,9.498-24.436,14.236c-10.649,6.192-21.296,12.39-31.947,18.579c-6.194,3.6-12.4,7.181-18.566,10.831
			c-0.433,0.256-0.888,0.471-1.318,0.734C1.051,88.564,0.697,88.66,0.377,88.296z"/>
		<path fill-rule="evenodd" clip-rule="evenodd" fill="#FFFFFF" d="M113.578,39.242c0,7.232,0,14.465,0,21.697
			c-0.767,1.22-2.117,1.646-3.264,2.314c-6.925,4.033-13.851,8.065-20.784,12.083c-9.6,5.561-19.186,11.144-28.781,16.713
			c-7.04,4.086-14.077,8.178-21.111,12.274c-4.779,2.784-9.57,5.55-14.341,8.35c-0.72,0.423-1.528,0.583-2.279,0.905
			c-7.273,0-14.547-0.007-21.819,0.014c-0.62,0.002-0.864-0.05-0.846-0.792c0.064-2.569,0.024-5.141,0.024-7.711
			c0.299-0.628,0.849-0.984,1.422-1.316c8.455-4.9,16.893-9.828,25.338-14.743c10.429-6.067,20.858-12.133,31.287-18.202
			c11.867-6.906,23.731-13.819,35.603-20.72c6.057-3.521,12.1-7.065,18.171-10.562C112.61,39.308,113.023,38.907,113.578,39.242z"/>
		<path fill-rule="evenodd" clip-rule="evenodd" fill="#808080" d="M113.578,65.467c0,15.785-0.005,31.57,0.019,47.356
			c0.001,0.646-0.127,0.773-0.773,0.772c-27.356-0.021-54.714-0.018-82.07-0.018c-0.219-0.717,0.433-0.85,0.807-1.073
			c2.022-1.207,4.068-2.375,6.106-3.557c5.218-3.026,10.429-6.062,15.646-9.087c7.363-4.27,14.718-8.555,22.084-12.821
			c5.871-3.4,11.729-6.823,17.594-10.234c6.408-3.727,12.813-7.458,19.238-11.157C112.626,65.42,113.056,64.964,113.578,65.467z"/>
		<path fill-rule="evenodd" clip-rule="evenodd" fill="#FFFFFF" d="M113.578,25.658c0,4.025,0,8.05,0,12.075
			c-0.29,0.674-0.857,1.027-1.468,1.385c-8.153,4.789-16.341,9.519-24.513,14.277c-9.664,5.628-19.329,11.256-29.001,16.872
			c-12.089,7.018-24.16,14.066-36.248,21.085c-6.873,3.991-13.742,7.989-20.603,12.002c-0.423,0.248-0.835,0.627-1.369,0.224
			c0-4.025,0-8.05,0-12.075c0.214-0.548,0.601-0.907,1.115-1.208c7.106-4.154,14.229-8.28,21.342-12.422
			c12.626-7.352,25.26-14.69,37.883-22.045c8.388-4.887,16.776-9.772,25.169-14.65c8.801-5.116,17.589-10.253,26.402-15.348
			C112.691,25.597,113.09,25.278,113.578,25.658z"/>
		<path fill-rule="evenodd" clip-rule="evenodd" fill="#010101" d="M113.578,65.467c-2.808,1.606-5.625,3.197-8.422,4.822
			C80.75,84.464,56.348,98.645,31.945,112.826c-0.406,0.236-0.796,0.501-1.192,0.752c-2.579,0-5.157,0-7.735,0
			c0.142-0.364,0.515-0.428,0.799-0.593c29.638-17.229,59.277-34.454,88.921-51.673c0.263-0.153,0.493-0.402,0.841-0.372
			C113.578,62.449,113.578,63.958,113.578,65.467z"/>
		<path fill-rule="evenodd" clip-rule="evenodd" fill="#010101" d="M113.578,25.658c-5.623,3.259-11.251,6.511-16.869,9.779
			C64.84,53.979,32.974,72.526,1.105,91.071c-0.244,0.142-0.485,0.289-0.729,0.433c0-1.069,0-2.138,0-3.207
			C0.755,88.31,1.01,88.042,1.3,87.873c37.12-21.596,74.237-43.198,111.357-64.794c0.292-0.17,0.553-0.423,0.921-0.439
			C113.578,23.646,113.578,24.652,113.578,25.658z"/>
		<path fill-rule="evenodd" clip-rule="evenodd" fill="#010101" d="M0.377,103.579c11.187-6.501,22.375-12.999,33.559-19.505
			c26.549-15.445,53.096-30.894,79.643-46.341c0,0.503,0,1.006,0,1.509c-7.839,4.574-15.675,9.155-23.519,13.721
			C60.446,70.204,30.83,87.439,1.215,104.674c-0.269,0.156-0.559,0.276-0.838,0.414C0.377,104.584,0.377,104.082,0.377,103.579z"/>
		<path fill-rule="evenodd" clip-rule="evenodd" fill="#010101" d="M27.504,32.639c2.828,0.052,4.916,1.536,6.716,3.526
			c1.369,1.515,2.644,3.115,4.03,4.612c1.638,1.768,1.783,1.721,2.765-0.453c2.619-5.806,4.798-11.799,7.473-17.582
			c2.296-4.964,4.768-9.831,8.025-14.252c1.176-1.596,2.447-3.116,3.992-4.373c0.574-0.467,1.244-1.104,2.012-0.626
			c0.668,0.416,0.427,1.227,0.344,1.915c-0.193,1.613-0.815,3.089-1.455,4.554c-3.707,8.48-7.422,16.956-10.526,25.685
			c-2.013,5.661-3.648,11.407-4.475,17.373c-0.188,1.363-0.571,2.704-1.347,3.885c-0.78,1.189-1.771,1.493-3.087,0.961
			c-0.949-0.384-1.769-0.991-2.479-1.69c-4.48-4.414-9.38-8.359-13.997-12.619c-1.039-0.958-1.97-2.032-2.626-3.307
			C21.05,36.713,23.539,32.631,27.504,32.639z"/>
	</g>
</g>
<g id="Layer_2">
</g>
<g id="Layer_2_copy">
</g>
</svg>
