<?xml version="1.0" encoding="utf-8"?>
<!-- Generator: Adobe Illustrator 16.0.0, SVG Export Plug-In . SVG Version: 6.00 Build 0)  -->
<!DOCTYPE svg PUBLIC "-//W3C//DTD SVG 1.1//EN" "http://www.w3.org/Graphics/SVG/1.1/DTD/svg11.dtd">
<svg version="1.1" xmlns="http://www.w3.org/2000/svg" xmlns:xlink="http://www.w3.org/1999/xlink" x="0px" y="0px"
	 width="113.39px" height="113.39px" viewBox="0 0 113.39 113.39" enable-background="new 0 0 113.39 113.39" xml:space="preserve">
<g id="Layer_1">
	<g>
		<path fill-rule="evenodd" clip-rule="evenodd" fill="#FFFFFF" d="M0.19,88.254c0-29.071,0.003-58.144-0.018-87.215
			c0-0.708,0.16-0.869,0.868-0.868c37.229,0.02,74.458,0.02,111.688,0c0.708,0,0.872,0.159,0.869,0.868
			c-0.03,7.149-0.019,14.299-0.019,21.449c-0.348-0.027-0.575,0.229-0.837,0.381C75.502,44.535,38.266,66.206,1.026,87.872
			C0.764,88.024,0.537,88.279,0.19,88.254z M27.794,32.507c-4.463-0.024-6.952,4.134-5.024,7.724
			c0.694,1.293,1.658,2.38,2.726,3.355c4.6,4.203,9.437,8.144,13.891,12.511c0.734,0.721,1.579,1.347,2.568,1.722
			c1.221,0.462,2.22,0.146,2.949-0.926c0.5-0.736,0.79-1.56,1.031-2.406c0.605-2.121,0.852-4.308,1.219-6.474
			c0.695-4.098,2.103-7.993,3.444-11.902c3.072-8.958,6.921-17.603,10.706-26.272c0.626-1.435,1.25-2.876,1.453-4.451
			c0.099-0.762,0.458-1.708-0.404-2.132c-0.839-0.413-1.541,0.319-2.151,0.843c-1.487,1.278-2.742,2.774-3.894,4.354
			c-3.123,4.279-5.525,8.965-7.755,13.75c-2.767,5.937-4.997,12.103-7.698,18.068c-0.939,2.074-1.093,2.128-2.643,0.462
			c-1.435-1.542-2.755-3.192-4.172-4.753C32.257,34.015,30.187,32.557,27.794,32.507z"/>
		<path fill-rule="evenodd" clip-rule="evenodd" fill="#9BCAED" d="M113.579,39.308c0,7.182,0,14.363,0,21.544
			c-0.352-0.039-0.571,0.227-0.833,0.378c-6.667,3.863-13.331,7.732-19.994,11.603c-23.048,13.391-46.095,26.783-69.134,40.19
			c-0.207,0.121-0.662,0.088-0.562,0.555c-7.348,0-14.696-0.007-22.044,0.014c-0.62,0.002-0.866-0.05-0.847-0.793
			c0.064-2.573,0.025-5.149,0.025-7.725c0.28-0.134,0.572-0.25,0.839-0.406c37.268-21.695,74.533-43.394,111.804-65.084
			C113.055,39.454,113.249,39.172,113.579,39.308z"/>
		<path fill-rule="evenodd" clip-rule="evenodd" fill="#818181" d="M113.579,65.388c0,15.812-0.005,31.623,0.018,47.435
			c0.001,0.647-0.127,0.774-0.774,0.774c-27.339-0.021-54.679-0.018-82.018-0.018c0.099-0.359,0.454-0.41,0.709-0.559
			c23.218-13.497,46.44-26.987,69.665-40.473C105.306,70.15,109.445,67.773,113.579,65.388z"/>
		<path fill-rule="evenodd" clip-rule="evenodd" fill="#9BCAED" d="M113.579,25.513c0,4.095,0,8.189,0,12.284
			c-0.399-0.18-0.606,0.183-0.867,0.335C85.331,54.051,57.956,69.982,30.578,85.908c-10.126,5.89-20.259,11.77-30.388,17.654
			c0-4.095,0-8.189,0-12.284c0.455,0.084,0.736-0.264,1.066-0.455c6.719-3.896,13.431-7.804,20.144-11.711
			c25.553-14.87,51.104-29.743,76.658-44.611C103.226,31.495,108.405,28.508,113.579,25.513z"/>
		<path fill-rule="evenodd" clip-rule="evenodd" fill="#040505" d="M113.579,65.388c-4.134,2.386-8.273,4.762-12.4,7.159
			C77.955,86.033,54.732,99.523,31.514,113.02c-0.255,0.148-0.61,0.2-0.709,0.559c-2.583,0-5.166,0-7.749,0
			c-0.1-0.467,0.355-0.435,0.562-0.555c23.039-13.407,46.086-26.799,69.134-40.19c6.663-3.871,13.327-7.74,19.994-11.603
			c0.261-0.151,0.481-0.417,0.833-0.378C113.579,62.364,113.579,63.876,113.579,65.388z"/>
		<path fill-rule="evenodd" clip-rule="evenodd" fill="#090A0A" d="M113.579,25.513c-5.174,2.996-10.354,5.982-15.521,8.988
			C72.503,49.369,46.953,64.242,21.4,79.112c-6.713,3.907-13.425,7.815-20.144,11.711c-0.33,0.191-0.611,0.54-1.066,0.455
			c0-1.008,0-2.016,0-3.024c0.347,0.024,0.574-0.23,0.836-0.383c37.24-21.666,74.476-43.337,111.716-65.002
			c0.262-0.152,0.489-0.408,0.837-0.381C113.579,23.497,113.579,24.505,113.579,25.513z"/>
		<path fill-rule="evenodd" clip-rule="evenodd" fill="#0F0F0F" d="M0.19,103.562c10.129-5.884,20.262-11.764,30.388-17.654
			c27.378-15.926,54.752-31.857,82.134-47.777c0.261-0.152,0.468-0.515,0.867-0.335c0,0.504,0,1.008,0,1.512
			c-0.331-0.136-0.524,0.146-0.746,0.275C75.563,61.274,38.297,82.973,1.029,104.668c-0.268,0.156-0.559,0.271-0.839,0.406
			C0.19,104.57,0.19,104.066,0.19,103.562z"/>
		<path fill-rule="evenodd" clip-rule="evenodd" fill="#040505" d="M27.794,32.507c2.393,0.05,4.463,1.508,6.245,3.472
			c1.417,1.562,2.737,3.211,4.172,4.753c1.55,1.666,1.704,1.612,2.643-0.462c2.701-5.965,4.931-12.131,7.698-18.068
			c2.23-4.784,4.632-9.471,7.755-13.75c1.152-1.58,2.407-3.076,3.894-4.354c0.61-0.524,1.312-1.256,2.151-0.843
			c0.862,0.424,0.503,1.37,0.404,2.132c-0.203,1.574-0.827,3.016-1.453,4.451c-3.785,8.67-7.634,17.314-10.706,26.272
			c-1.341,3.909-2.749,7.804-3.444,11.902c-0.367,2.166-0.613,4.353-1.219,6.474c-0.242,0.847-0.531,1.67-1.031,2.406
			c-0.729,1.073-1.728,1.388-2.949,0.926c-0.99-0.375-1.834-1.001-2.568-1.722c-4.454-4.368-9.291-8.309-13.891-12.511
			c-1.068-0.976-2.031-2.063-2.726-3.355C20.842,36.641,23.331,32.483,27.794,32.507z"/>
	</g>
</g>
<g id="Layer_2">
</g>
<g id="Layer_2_copy">
</g>
</svg>
