<svg xmlns="http://www.w3.org/2000/svg" width="122" height="16">
  <path fill="#839194" fill-rule="evenodd" d="M.112 12V.776h2.99v9.005h4.631V12H.112zm16.932 0H14.39c-.016-.45-.065-.884-.065-1.319h-.032c-.66 1.046-1.463 1.512-2.653 1.512-1.656 0-3.136-.82-3.136-2.637 0-2.557 2.782-2.862 4.326-2.862.466 0 .98.048 1.35.112-.016-1.142-.868-1.447-1.913-1.447-.933 0-1.865.177-2.67.627L9.55 4.024c1.029-.418 2.106-.595 3.344-.595 2.139 0 3.988.917 3.988 3.474v3.12c0 .658.032 1.318.16 1.977zm-5.837-2.653c0 .579.514.916 1.19.916 1.093 0 1.785-.997 1.785-1.977-.37-.017-.788-.049-1.223-.049-.98 0-1.752.306-1.752 1.11zM20.549 12l-2.573-8.378H21l1.351 6.03h.032l1.448-6.03h3.473l1.415 6.03h.032l1.319-6.03h2.798L30.31 12h-3.36l-1.416-6.062h-.032L23.91 12h-3.36zm13.7 0V3.622h2.895V12h-2.895zM37.144.133v2.123h-2.895V.133h2.895zM39.282 12V3.622h2.638v1.544h.032c.579-1.206 1.736-1.737 3.055-1.737 2.283 0 3.2 1.608 3.2 3.345V12h-2.895V7.948c0-1.576-.546-2.107-1.334-2.107-1.19 0-1.801.82-1.801 2.621V12h-2.895zm19.04-3.345h-5.79c.161 1.158 1.046 1.608 2.46 1.608.789 0 1.689-.177 2.557-.643v2.042c-.932.37-1.994.531-3.071.531-2.766 0-4.872-1.624-4.872-4.39 0-2.766 1.881-4.374 4.486-4.374 3.104 0 4.23 2.203 4.23 4.696v.53zM52.5 7.015h3.216c0-.965-.45-1.753-1.608-1.753-1.045 0-1.543.788-1.608 1.753zM59.833 12V3.622h2.637v1.544h.032c.579-1.206 1.737-1.737 3.055-1.737 2.284 0 3.2 1.608 3.2 3.345V12h-2.894V7.948c0-1.576-.547-2.107-1.335-2.107-1.19 0-1.8.82-1.8 2.621V12h-2.895zm10.934 0V9.395h2.702V12h-2.702zm5.097 0V3.8h1.415v1.27h.033c.402-.853 1.27-1.464 2.138-1.464.45 0 .676.048.997.113v1.35a2.237 2.237 0 0 0-.836-.144c-1.35 0-2.235 1.286-2.235 3.344V12h-1.512zm12.543-1.85v1.512c-.579.21-1.238.531-2.589.531-2.91 0-4.245-1.769-4.245-4.438 0-2.428 1.527-4.149 3.843-4.149 2.734 0 3.618 1.994 3.618 4.631h-5.853a2.683 2.683 0 0 0 2.701 2.734c.997 0 2.155-.515 2.525-.82zM83.18 7.113h4.245c0-1.255-.74-2.284-2.042-2.284-1.48 0-2.09 1.222-2.203 2.284zm7.879 8.265V3.799h1.447v1.158h.032c.402-.611 1.335-1.35 2.782-1.35 2.38 0 3.538 1.945 3.538 4.148 0 2.251-1.045 4.438-3.522 4.438-1.447 0-2.267-.563-2.733-1.319h-.032v4.503H91.06zm6.19-7.51c.033-1.479-.61-3.039-2.25-3.039-1.64 0-2.428 1.56-2.428 3.088 0 1.366.707 3.055 2.412 3.055 1.624 0 2.299-1.817 2.267-3.104zm3.088.033c0-2.493 1.673-4.294 4.181-4.294 2.492 0 4.165 1.801 4.165 4.294 0 2.347-1.705 4.293-4.165 4.293-2.476 0-4.18-1.946-4.18-4.293zm1.608 0c0 1.463.788 3.07 2.573 3.07 1.769 0 2.557-1.607 2.557-3.07 0-1.56-.949-3.072-2.557-3.072-1.624 0-2.573 1.512-2.573 3.072zm8.764 4.1V3.8h1.415v1.27h.032c.402-.853 1.27-1.464 2.139-1.464.45 0 .675.048.997.113v1.35a2.237 2.237 0 0 0-.837-.144c-1.35 0-2.235 1.286-2.235 3.344V12h-1.511zm10.613-8.2V5.02h-2.171v4.487c0 .948.579 1.463 1.27 1.463.466 0 .804-.145 1.03-.29v1.287c-.338.096-.805.225-1.287.225-1.56 0-2.525-.74-2.525-2.38V5.021h-1.849V3.8h1.85V1.902l1.51-.483V3.8h2.172z"/>
</svg>
