<svg height="71" width="55" xmlns="http://www.w3.org/2000/svg"><g fill="none" fill-rule="evenodd"><path d="m1.894036 34.039666 41.6525 34.076356 10.417198-10.417198c1.046047-1.046047 1.046412-2.74166.000815-3.787258l-15.145771-15.14577c-1.045598-1.045598-1.045233-2.74121.000814-3.787258l15.152289-15.152288c1.046047-1.046047 1.046412-2.74166.000814-3.787258l-15.14577-15.14577c-1.045598-1.045598-2.741211-1.045233-3.787258.000814l-33.14563 33.14563z" fill="#839194"/><g transform="matrix(.70710678 .70710678 -.70710678 .70710678 36.933703 -1)"><path d="m4.016652 50.898089h40.160767c12.432378-1.125101 5.624369-19.893097-4.891808-12.403858-.153578.109373-.418548.071377-.374597-.28032.740163-7.148593-8.89243-7.151123-8.213082-.049045.020862.218106-.194128.282531-.347739.124367-2.571315-2.647528-6.902127 1.591793-4.117277 4.155468.157215.14473.069945.374253-.118762.416627l-22.131147 5.058713c-.763859.174602-1.305588.854358-1.305588 1.638239 0 .739956.599595 1.339809 1.339233 1.339809z" fill="#fff"/><path d="m24.255928 41.911528c-.60248-1.503706-.166418-3.208196 1.082545-4.44928 1.139521-1.13233 2.676324-1.602885 4.090987-1.230902.490954-2.871753 2.662807-4.733869 5.401691-4.725953 2.770627.008007 4.941314 1.925116 5.376392 4.877637 4.888139-2.400217 9.57566-.206682 11.384224 4.611881 2.008046 5.350041-.774342 10.647749-7.293574 11.237724l-.120774.005454h-40.160767c-1.479828 0-2.679233-1.19992-2.679233-2.67981 0-1.408811.97374-2.63065 2.346994-2.944546z" stroke="#839194" stroke-width="2.68"/></g><path d="m34.845006 56.586718c2.63257 1.425101 1.974118 5.154963-.98768 5.594793" stroke="#839194" stroke-linecap="round" stroke-linejoin="round" stroke-width="1.34"/></g></svg>
