<svg xmlns="http://www.w3.org/2000/svg" width="130" height="17">
  <path fill="#839194" fill-rule="evenodd" d="M3.92 13L.16 1.78h3.18l2.5 8.8h.03l2.5-8.8h3.08L7.62 13h-3.7zm15.84 0h-2.65c-.02-.45-.07-.88-.07-1.32h-.03c-.66 1.05-1.46 1.51-2.65 1.51-1.66 0-3.14-.82-3.14-2.63 0-2.56 2.79-2.87 4.33-2.87.47 0 .98.05 1.35.12-.02-1.15-.87-1.45-1.91-1.45-.94 0-1.87.18-2.67.63l-.05-1.97c1.03-.41 2.1-.6 3.34-.6 2.14 0 4 .93 4 3.48v3.12c0 .66.02 1.32.15 1.98zm-5.83-2.65c0 .58.51.91 1.19.91 1.09 0 1.78-1 1.78-1.97-.37-.02-.79-.05-1.22-.05-.98 0-1.75.3-1.75 1.1zM21.79 13V.94h2.9V13h-2.9zm13.17 0H32.3c-.01-.45-.06-.88-.06-1.32h-.03a2.87 2.87 0 0 1-2.65 1.51c-1.66 0-3.14-.82-3.14-2.63 0-2.56 2.78-2.87 4.32-2.87.47 0 .99.05 1.36.12-.02-1.15-.87-1.45-1.92-1.45-.93 0-1.86.18-2.67.63l-.05-1.97a8.84 8.84 0 0 1 3.35-.6c2.14 0 3.99.93 3.99 3.48v3.12c0 .66.03 1.32.16 1.98zm-5.84-2.65c0 .58.52.91 1.2.91 1.08 0 1.78-1 1.78-1.97-.37-.02-.8-.05-1.23-.05-.98 0-1.75.3-1.75 1.1zM36.65 13V4.62h2.63v1.55h.04c.57-1.21 1.73-1.74 3.05-1.74 2.28 0 3.2 1.6 3.2 3.34V13h-2.9V8.95c0-1.58-.54-2.1-1.33-2.1-1.19 0-1.8.81-1.8 2.61V13h-2.9zm19.6-8.38v7.4c0 3.44-1.67 4.55-5.05 4.55a9.75 9.75 0 0 1-3.2-.53l.14-2.28c.89.43 1.63.69 2.83.69 1.68 0 2.58-.8 2.58-2.43v-.45h-.04A3.26 3.26 0 0 1 50.7 13c-2.3 0-3.73-1.74-3.73-4.21 0-2.5 1.17-4.36 3.78-4.36 1.24 0 2.23.67 2.84 1.7h.04v-1.5h2.62zm-6.29 4.12c0 1.3.77 2.04 1.64 2.04 1.03 0 1.85-.87 1.85-2.15 0-.94-.55-1.98-1.85-1.98-1.08 0-1.64.95-1.64 2.09zM58.11 13V.94h2.9v4.92h.03a3.3 3.3 0 0 1 2.8-1.43c2.28 0 3.2 1.6 3.2 3.34V13h-2.9V8.95c0-1.58-.54-2.1-1.33-2.1-1.2 0-1.8.81-1.8 2.61V13h-2.9zm19.04-3.34h-5.79c.16 1.15 1.05 1.6 2.46 1.6.8 0 1.7-.17 2.56-.64v2.04c-.93.37-2 .53-3.07.53-2.77 0-4.87-1.62-4.87-4.39 0-2.76 1.88-4.37 4.48-4.37 3.1 0 4.23 2.2 4.23 4.7v.53zm-5.82-1.64h3.22c0-.97-.45-1.76-1.61-1.76-1.05 0-1.54.79-1.6 1.76zM79.1 13v-1.8h1.8V13h-1.8zm4.42 0V4.8h1.41v1.27h.04a2.5 2.5 0 0 1 2.14-1.46c.45 0 .67.04 1 .1v1.36a2.24 2.24 0 0 0-.84-.15c-1.35 0-2.24 1.3-2.24 3.35V13h-1.51zm12.54-1.85v1.51c-.58.21-1.24.53-2.59.53-2.9 0-4.24-1.77-4.24-4.44 0-2.42 1.53-4.14 3.84-4.14 2.73 0 3.62 1.99 3.62 4.63h-5.85a2.68 2.68 0 0 0 2.7 2.73c1 0 2.15-.51 2.52-.82zm-5.22-3.04h4.24c0-1.25-.74-2.28-2.04-2.28-1.48 0-2.1 1.22-2.2 2.28zm7.88 8.27V4.8h1.44v1.16h.03a3.28 3.28 0 0 1 2.79-1.35c2.38 0 3.53 1.94 3.53 4.14 0 2.26-1.04 4.44-3.52 4.44-1.44 0-2.26-.56-2.73-1.32h-.03v4.5h-1.51zm6.19-7.51c.03-1.48-.62-3.04-2.26-3.04-1.64 0-2.42 1.56-2.42 3.09 0 1.36.7 3.05 2.4 3.05 1.63 0 2.3-1.82 2.28-3.1zm3.08.03c0-2.5 1.68-4.3 4.18-4.3s4.17 1.8 4.17 4.3c0 2.35-1.7 4.3-4.17 4.3A4.15 4.15 0 0 1 108 8.9zm1.61 0c0 1.46.79 3.07 2.57 3.07 1.77 0 2.56-1.6 2.56-3.07 0-1.56-.95-3.07-2.56-3.07-1.62 0-2.57 1.51-2.57 3.07zm8.76 4.1V4.8h1.42v1.27h.03a2.5 2.5 0 0 1 2.14-1.46c.45 0 .68.04 1 .1v1.36a2.24 2.24 0 0 0-.84-.15c-1.35 0-2.23 1.3-2.23 3.35V13h-1.52zm10.62-8.2v1.22h-2.17v4.49c0 .95.58 1.46 1.27 1.46.46 0 .8-.14 1.03-.29v1.29c-.34.1-.8.22-1.29.22-1.56 0-2.52-.74-2.52-2.38V6.02h-1.85V4.8h1.85V2.9l1.5-.48V4.8h2.18z"/>
</svg>
