<svg xmlns="http://www.w3.org/2000/svg" width="138" height="17">
  <path fill="#839194" fill-rule="evenodd" d="M.13 12.99L4.39 1.77h3.67l4.32 11.22H9.1l-.83-2.4H4.05L3.17 13H.13zm7.43-4.52L6.22 4.08H6.2l-1.45 4.4h2.82zM15.18 13l-3.1-8.38h3.1l1.74 5.97h.03L18.7 4.6h2.88l-3.1 8.4h-3.3zm15.6 0h-2.66c-.01-.45-.06-.88-.06-1.32h-.03a2.87 2.87 0 0 1-2.66 1.51c-1.65 0-3.13-.82-3.13-2.63 0-2.56 2.78-2.87 4.32-2.87.47 0 .99.05 1.35.12-.01-1.15-.86-1.45-1.9-1.45-.94 0-1.87.18-2.68.63L23.28 5a8.84 8.84 0 0 1 3.35-.6c2.14 0 3.99.93 3.99 3.48V11c0 .66.03 1.32.16 1.98zm-5.84-2.65c0 .58.51.91 1.19.91 1.1 0 1.78-1 1.78-1.97-.36-.02-.78-.05-1.22-.05-.98 0-1.75.3-1.75 1.1zM32.8 13V.93h2.9v12.06h-2.9zm13.17 0h-2.65c-.02-.45-.06-.88-.06-1.32h-.04c-.66 1.05-1.46 1.51-2.65 1.51-1.66 0-3.14-.82-3.14-2.63 0-2.56 2.79-2.87 4.33-2.87.47 0 .98.05 1.35.12-.02-1.15-.87-1.45-1.91-1.45-.94 0-1.87.18-2.67.63L38.48 5c1.03-.41 2.1-.6 3.34-.6 2.14 0 4 .93 4 3.48V11c0 .66.02 1.32.15 1.98zm-5.83-2.65c0 .58.51.91 1.19.91 1.09 0 1.78-1 1.78-1.97-.37-.02-.79-.05-1.22-.05-.98 0-1.75.3-1.75 1.1zM47.66 13V4.61h2.64v1.55h.03c.58-1.21 1.74-1.74 3.06-1.74 2.28 0 3.2 1.6 3.2 3.34V13h-2.9V8.94c0-1.58-.55-2.1-1.33-2.1-1.2 0-1.8.81-1.8 2.61V13h-2.9zm17.5-8.1L64.95 7a3.18 3.18 0 0 0-1.76-.47c-1.25 0-2.21.87-2.21 2.32 0 1.33 1.12 2.2 2.38 2.2.65 0 1.31-.14 1.8-.4l.06 2.15c-.72.24-1.6.37-2.36.37-2.77 0-4.88-1.6-4.88-4.37 0-2.78 2.11-4.4 4.88-4.4.87 0 1.64.15 2.3.48zm1.27 8.1V.93h2.9v4.92h.02a3.3 3.3 0 0 1 2.8-1.43c2.28 0 3.2 1.6 3.2 3.34V13h-2.9V8.94c0-1.58-.54-2.1-1.33-2.1-1.19 0-1.8.81-1.8 2.61V13h-2.9zm19.04-3.34h-5.8c.17 1.15 1.05 1.6 2.47 1.6.78 0 1.69-.17 2.55-.64v2.04c-.93.37-2 .53-3.07.53-2.76 0-4.87-1.62-4.87-4.39 0-2.76 1.88-4.37 4.49-4.37 3.1 0 4.23 2.2 4.23 4.7v.53zM79.64 8h3.22c0-.97-.45-1.76-1.6-1.76-1.05 0-1.55.79-1.62 1.76zm7.77 4.98v-1.8h1.8v1.8h-1.8zm4.42 0v-8.2h1.42v1.27h.03a2.5 2.5 0 0 1 2.14-1.46c.45 0 .67.04 1 .1v1.36a2.24 2.24 0 0 0-.84-.15c-1.35 0-2.24 1.3-2.24 3.35v3.73h-1.5zm12.55-1.85v1.51c-.58.21-1.24.53-2.6.53-2.9 0-4.24-1.77-4.24-4.44 0-2.42 1.53-4.14 3.84-4.14 2.74 0 3.62 1.99 3.62 4.63h-5.85a2.68 2.68 0 0 0 2.7 2.73c1 0 2.16-.51 2.53-.82zM99.15 8.1h4.24c0-1.25-.74-2.28-2.04-2.28-1.48 0-2.09 1.22-2.2 2.28zm7.88 8.27V4.79h1.45v1.16h.03a3.28 3.28 0 0 1 2.78-1.35c2.38 0 3.54 1.94 3.54 4.14 0 2.26-1.05 4.44-3.52 4.44-1.45 0-2.27-.56-2.74-1.32h-.03v4.5h-1.51zm6.19-7.51c.03-1.48-.61-3.04-2.25-3.04-1.64 0-2.43 1.56-2.43 3.09 0 1.36.7 3.05 2.41 3.05 1.63 0 2.3-1.82 2.27-3.1zm3.09.03c0-2.5 1.67-4.3 4.18-4.3 2.49 0 4.16 1.8 4.16 4.3 0 2.35-1.7 4.3-4.16 4.3a4.15 4.15 0 0 1-4.18-4.3zm1.6 0c0 1.46.8 3.07 2.58 3.07 1.77 0 2.55-1.6 2.55-3.07 0-1.56-.94-3.07-2.55-3.07-1.63 0-2.58 1.51-2.58 3.07zm8.77 4.1v-8.2h1.41v1.27h.04a2.5 2.5 0 0 1 2.13-1.46c.45 0 .68.04 1 .1v1.36a2.24 2.24 0 0 0-.84-.15c-1.35 0-2.23 1.3-2.23 3.35v3.73h-1.51zm10.61-8.2V6h-2.17v4.49c0 .95.58 1.46 1.27 1.46.47 0 .8-.14 1.03-.29v1.29c-.34.1-.8.22-1.29.22-1.56 0-2.52-.74-2.52-2.38V6.01h-1.85V4.8h1.85V2.9l1.51-.48V4.8h2.17z"/>
</svg>
