<svg viewBox="0 0 256.01172 256" xmlns="http://www.w3.org/2000/svg"><g fill="none"><path d="m0 0h256v256h-256z"/><g stroke="#000" stroke-linecap="round" stroke-linejoin="round" stroke-width="16"><path d="m24.07031 56.00094h16"/><path d="m120.07031 56.00094h16"/><path d="m24.07031 136.00094h24"/><path d="m112.07031 136.00094h24"/><path d="m168.07031 104.00094h72"/><path d="m168.07031 136.00094h72"/><path d="m72.07031 168.00094h168"/><path d="m72.07031 200.00094h168"/><path d="m40.07 136.001v-80l40 64 40-64v80"/><path d="m24.07031 56.00094h16"/><path d="m120.07031 56.00094h16"/><path d="m24.07031 136.00094h24"/><path d="m112.07031 136.00094h24"/><path d="m168.07031 104.00094h72"/><path d="m168.07031 136.00094h72"/><path d="m72.07031 168.00094h168"/><path d="m72.07031 200.00094h168"/><path d="m40.07 136.001v-80l40 64 40-64v80"/></g></g></svg>