<svg viewBox="0 0 256 256" xmlns="http://www.w3.org/2000/svg"><g fill="none"><path d="m0 0h256v256h-256z"/><g stroke="#000" stroke-linecap="round" stroke-linejoin="round" stroke-width="16"><circle cx="128" cy="128" r="96"/><path d="m169.172 113.03177a96.58913 96.58913 0 0 1 3.80409-15.5448"/><path d="m172.975 158.5097a96.58848 96.58848 0 0 1 -3.80352-15.54493"/><path d="m86.828 113.03177a96.58913 96.58913 0 0 0 -3.80412-15.54477"/><path d="m83.025 158.5097a96.58848 96.58848 0 0 0 3.80352-15.54493"/><path d="m186.79812 70.93634a96.59069 96.59069 0 0 1 9.20058-10.701"/><path d="m195.999 195.765a96.59178 96.59178 0 0 1 -9.20291-10.70411"/><path d="m60.0012 195.76479a96.5897 96.5897 0 0 0 9.2028-10.70395"/><path d="m69.20188 70.93634a96.59162 96.59162 0 0 0 -9.20088-10.70134"/></g></g></svg>