<svg viewBox="0 0 256 256" xmlns="http://www.w3.org/2000/svg"><g fill="none"><path d="m0 0h256v256h-256z"/><g stroke="#000" stroke-linecap="round" stroke-linejoin="round" stroke-width="16"><path d="m48 40 160 176"/><path d="m96 192v8a32 32 0 0 0 64 0v-8"/><path d="m186.18182 192h-137.19817a7.99908 7.99908 0 0 1 -6.88065-12.04359c6.60328-11.35959 14.1-32.1426 14.1-67.95641v-8a71.80594 71.80594 0 0 1 12.7427-40.9596"/><path d="m92.515 41.39547a71.33425 71.33425 0 0 1 36.0334-9.39347c39.58967.29432 71.25651 33.20133 71.25651 72.90185v7.09615c0 26.66813 4.15442 45.002 9.001 57.31684"/></g></g></svg>