<svg viewBox="0 0 256 256" xmlns="http://www.w3.org/2000/svg"><g fill="none"><path d="m0 0h256v256h-256z"/><g stroke="#000" stroke-linecap="round" stroke-linejoin="round" stroke-width="16"><path d="m56.20305 112a71.80121 71.80121 0 1 1 143.60186 0c0 35.81563 7.49325 56.59893 14.093 67.95814a7.999 7.999 0 0 1 -6.88163 12.04186h-158.03263a7.99908 7.99908 0 0 1 -6.88065-12.04359c6.60328-11.35959 14.1-32.1426 14.1-67.95641z"/><path d="m96 192v8a32 32 0 0 0 64 0v-8"/><path d="m183.43247 23.98832a104.46641 104.46641 0 0 1 37.91845 42.1156"/><path d="m34.64909 66.10391a104.46639 104.46639 0 0 1 37.91848-42.11562"/></g></g></svg>