<svg viewBox="0 0 256 256" xmlns="http://www.w3.org/2000/svg"><g fill="none"><path d="m0 0h256v256h-256z"/><g stroke="#000" stroke-linecap="round" stroke-linejoin="round" stroke-width="16"><path d="m128 48v-24"/><path d="m224 160c-14.57032 50.99614-82.21424 68.82128-94.18651 71.59963a8.00355 8.00355 0 0 1 -3.627 0c-11.97225-2.77835-79.61617-20.60349-94.18649-71.59963v-34.23393a8 8 0 0 1 5.47018-7.58946l88-29.33334a8.0001 8.0001 0 0 1 5.05964 0l88 29.33334a8 8 0 0 1 5.47018 7.58946z"/><path d="m128 168v-79.56726"/><path d="m56 112v-56a8 8 0 0 1 8-8h128a8 8 0 0 1 8 8v56"/></g></g></svg>