<svg viewBox="0 0 256 256" xmlns="http://www.w3.org/2000/svg"><g fill="none"><path d="m0 0h256v256h-256z"/><g stroke="#000" stroke-linecap="round" stroke-linejoin="round" stroke-width="16"><path d="m128 176v-96"/><path d="m88 144a40 40 0 1 1 -40 40v-6.73323"/><path d="m168 144a40 40 0 1 0 40 40v-6.7317"/><path d="m72 180h-8a48.00813 48.00813 0 0 1 -16.00076-93.26844l.00076-14.73156a40 40 0 0 1 80 0v112"/><path d="m184 180h8a48.00813 48.00813 0 0 0 16.00076-93.26844l-.00076-14.73156a40 40 0 0 0 -80 0"/><path d="m88 84v8a28 28 0 0 1 -28 28"/><path d="m168 84v8a28 28 0 0 0 28 28"/></g></g></svg>