<svg viewBox="0 0 256 256" xmlns="http://www.w3.org/2000/svg"><g fill="none"><path d="m0 0h256v256h-256z"/><path d="m42 72h172" stroke="#000" stroke-linecap="round" stroke-linejoin="round" stroke-width="16"/><path d="m42 120h172" stroke="#000" stroke-linecap="round" stroke-linejoin="round" stroke-width="16"/><path d="m214 192h-172v-128a24 24 0 0 1 24-24h124a24 24 0 0 1 24 24z" stroke="#000" stroke-linecap="round" stroke-linejoin="round" stroke-width="16"/><path d="m214 192v24a8 8 0 0 1 -8 8h-24a8 8 0 0 1 -8-8v-24" stroke="#000" stroke-linecap="round" stroke-linejoin="round" stroke-width="16"/><path d="m82 192v24a8 8 0 0 1 -8 8h-24a8 8 0 0 1 -8-8v-24" stroke="#000" stroke-linecap="round" stroke-linejoin="round" stroke-width="16"/></g><circle cx="84" cy="156" r="12"/><circle cx="172" cy="156" r="12"/></svg>