<svg viewBox="0 0 256 256" xmlns="http://www.w3.org/2000/svg"><g fill="none"><path d="m0 0h256v256h-256z"/><g stroke="#000" stroke-linecap="round" stroke-linejoin="round" stroke-width="16"><path d="m128 88v-24"/><path d="m128 64c46.22222-16 0-56 0-56s-48 40 0 56z"/><path d="m162 126a34 34 0 0 1 -68 0"/><path d="m94 126a34.0002 34.0002 0 0 1 -33.337 33.99366c-19.06107.36458-34.663-15.60066-34.663-34.66524v-13.32842a24 24 0 0 1 24-24h156a24 24 0 0 1 24 24v13.32842c0 19.06459-15.60193 35.02982-34.663 34.66524a34.0002 34.0002 0 0 1 -33.337-33.99366"/><path d="m216 153.26948v54.73052a8 8 0 0 1 -8 8h-160a8 8 0 0 1 -8-8v-54.73022"/></g></g></svg>