<svg viewBox="0 0 256 256" xmlns="http://www.w3.org/2000/svg"><g fill="none"><path d="m0 0h256v256h-256z"/><g stroke="#000" stroke-linecap="round" stroke-linejoin="round" stroke-width="16"><path d="m16 120h224"/><path d="m224 184v24a8 8 0 0 1 -8 8h-24a8 8 0 0 1 -8-8v-24"/><path d="m72 184v24a8 8 0 0 1 -8 8h-24a8 8 0 0 1 -8-8v-24"/><path d="m64 152h16"/><path d="m176 152h16"/><path d="m224 120-29.88849-67.24911a8 8 0 0 0 -7.31051-4.75089h-117.602a8 8 0 0 0 -7.31049 4.75089l-29.88851 67.24911v64h192z"/></g></g></svg>