<svg viewBox="0 0 256 256" xmlns="http://www.w3.org/2000/svg"><path d="m0 0h256v256h-256z" fill="none"/><path d="m128 192v32" fill="none" stroke="#000" stroke-linecap="round" stroke-linejoin="round" stroke-width="16"/><circle cx="84" cy="140" r="12"/><circle cx="172" cy="140" r="12"/><g fill="none" stroke="#000" stroke-linecap="round" stroke-linejoin="round" stroke-width="16"><path d="m128 48v40"/><path d="m144 176-16 16-16-16"/><path d="m96 53.00879v34.99121"/><path d="m160 53.00879v34.99121"/><path d="m32 136v-84.68629a8 8 0 0 1 13.65685-5.65686l21.94147 21.94147-.0003-.00039a102.88019 102.88019 0 0 1 120.804 0l-.00032.00037 21.94147-21.94147a8 8 0 0 1 13.65683 5.65688v84.68629c0 48.60106-42.98066 88-96 88s-96-39.39894-96-88z"/></g></svg>