<svg viewBox="0 0 256.00098 256.00098" xmlns="http://www.w3.org/2000/svg"><path d="m0 0h256v256h-256z" fill="none"/><path d="m149.67005 195.88358-14.80962 24.68269a8 8 0 0 1 -13.71989 0l-14.80963-24.68272a8 8 0 0 0 -6.85994-3.884h-59.47048a8 8 0 0 1 -8-8v-127.99955a8 8 0 0 1 8-8h176a8 8 0 0 1 8 8v128a8 8 0 0 1 -8.00006 8l-59.47038-.00041a8 8 0 0 0 -6.86 3.88399z" fill="none" stroke="#000" stroke-linecap="round" stroke-linejoin="round" stroke-width="16"/><circle cx="128" cy="120" r="12"/><circle cx="80" cy="120" r="12"/><circle cx="176" cy="120" r="12"/></svg>