<svg viewBox="0 0 256 256" xmlns="http://www.w3.org/2000/svg"><g fill="none"><path d="m0 0h256v256h-256z"/><g stroke="#000" stroke-linecap="round" stroke-linejoin="round" stroke-width="16"><path d="m96.00014 175.99219h-66.00014a6 6 0 0 1 -6-6v-66.00019a71.99985 71.99985 0 0 1 71.99986-71.99981h.00014a72 72 0 0 1 72 72v.00014a71.99986 71.99986 0 0 1 -71.99986 71.99986z"/><path d="m92.098 175.99521a72.0298 72.0298 0 0 0 67.9019 47.997h66.0001a6 6 0 0 0 6-6v-66.00021a72.00294 72.00294 0 0 0 -68.06587-71.8942"/></g></g></svg>