<svg viewBox="0 0 256 256" xmlns="http://www.w3.org/2000/svg"><g fill="none"><path d="m0 0h256v256h-256z"/><path d="m54.46089 201.53911c-9.204-9.204-3.09935-28.52745-7.78412-39.85-4.8564-11.73743-22.67677-21.18419-22.67677-33.68948 0-12.50513 17.82047-21.95163 22.67683-33.68884 4.68477-11.32253-1.41993-30.6459 7.78406-39.8499s28.52746-3.09935 39.85-7.78412c11.73743-4.8564 21.18419-22.67677 33.68948-22.67677 12.50513 0 21.95163 17.82047 33.68884 22.67683 11.32253 4.68477 30.6459-1.41993 39.8499 7.78406s3.09935 28.52746 7.78412 39.85c4.8564 11.73743 22.67677 21.18419 22.67677 33.68948 0 12.50513-17.82047 21.95163-22.67683 33.68884-4.68477 11.32253 1.41993 30.6459-7.78406 39.8499s-28.52745 3.09935-39.85 7.78412c-11.73743 4.8564-21.18419 22.67677-33.68948 22.67677-12.50513 0-21.95163-17.82047-33.68884-22.67683-11.32253-4.68477-30.6459 1.41993-39.8499-7.78406z" stroke="#000" stroke-linecap="round" stroke-linejoin="round" stroke-width="16"/></g></svg>