<svg viewBox="0 0 256 256" xmlns="http://www.w3.org/2000/svg"><g fill="none"><path d="m0 0h256v256h-256z"/><g stroke="#000" stroke-linecap="round" stroke-linejoin="round" stroke-width="16"><path d="m180 48h.00006a27.99994 27.99994 0 0 1 27.99994 27.99994v.00006a28 28 0 0 1 -28 28h-28a0 0 0 0 1 0 0v-28a28 28 0 0 1 28-28z"/><path d="m48 48h28a28 28 0 0 1 28 28v.00006a27.99994 27.99994 0 0 1 -27.99994 27.99994h-.00006a28 28 0 0 1 -28-28v-28a0 0 0 0 1 0 0z" transform="matrix(-1 0 0 -1 152 152)"/><path d="m152 152h28a28 28 0 0 1 28 28v.00006a27.99994 27.99994 0 0 1 -27.99994 27.99994h-.00006a28 28 0 0 1 -28-28v-28a0 0 0 0 1 0 0z"/><path d="m76 152h.00006a27.99994 27.99994 0 0 1 27.99994 27.99994v.00006a28 28 0 0 1 -28 28h-28a0 0 0 0 1 0 0v-28a28 28 0 0 1 28-28z" transform="matrix(-1 0 0 -1 152 360)"/><path d="m104 104h48v48h-48z"/></g></g></svg>