<svg viewBox="0 0 256 256" xmlns="http://www.w3.org/2000/svg"><path d="m0 0h256v256h-256z" fill="none"/><path d="m223.9944 127.41159a95.69791 95.69791 0 0 1 -28.17312 68.53158c-36.94566 36.88079-97.30608 37.29538-134.72958.89956a95.99643 95.99643 0 0 1 67.48515-164.8372 8.01374 8.01374 0 0 1 7.80464 9.7612 31.99345 31.99345 0 0 0 30.85987 39.031 8.02776 8.02776 0 0 1 7.96088 7.96088 31.99346 31.99346 0 0 0 39.03035 30.86 8.01158 8.01158 0 0 1 9.76181 7.79298z" fill="none" stroke="#000" stroke-linecap="round" stroke-linejoin="round" stroke-width="16"/><circle cx="156" cy="172" r="12"/><circle cx="92" cy="164" r="12"/><circle cx="84" cy="108" r="12"/><circle cx="136" cy="124" r="12"/></svg>