<svg viewBox="0 0 256 256" xmlns="http://www.w3.org/2000/svg"><g fill="none"><path d="m0 0h256v256h-256z"/><g stroke="#000" stroke-linecap="round" stroke-linejoin="round" stroke-width="16"><path d="m45.12859 196.01674a8.01266 8.01266 0 0 0 9.97356 5.86223 273.90053 273.90053 0 0 1 145.746-.0138 8.01268 8.01268 0 0 0 9.97132-5.85941l25.48872-108.3169a8 8 0 0 0 -11.03641-9.143l-50.58378 22.48168a8 8 0 0 1 -10.24237-3.42535l-29.4524-53.01433a8 8 0 0 0 -13.98652 0l-29.45237 53.01433a8 8 0 0 1 -10.24234 3.42535l-50.59146-22.48508a8 8 0 0 0 -11.03717 9.13973z"/><path d="m95.99993 161.6787a305.83767 305.83767 0 0 1 64.00009 0"/></g></g></svg>