<svg viewBox="0 0 256 256" xmlns="http://www.w3.org/2000/svg"><path d="m0 0h256v256h-256z" fill="none"/><circle cx="96" cy="144.00002" r="12"/><circle cx="160" cy="144.00002" r="12"/><g fill="none" stroke="#000" stroke-linecap="round" stroke-linejoin="round" stroke-width="16"><path d="m74.4017 80a175.32467 175.32467 0 0 1 53.5983-8 175.32507 175.32507 0 0 1 53.59754 7.99971"/><path d="m181.59717 176.00041a175.32523 175.32523 0 0 1 -53.59717 7.99959 175.32505 175.32505 0 0 1 -53.59753-7.99971"/><path d="m155.04392 182.08789 12.02517 24.05047a7.96793 7.96793 0 0 0 8.99115 4.20919c24.53876-5.99927 45.69294-16.45908 61.10024-29.85086a8.05225 8.05225 0 0 0 2.47192-8.38971l-33.97385-113.24624a8.02121 8.02121 0 0 0 -4.62655-5.10908 175.85294 175.85294 0 0 0 -29.66452-9.18289 8.01781 8.01781 0 0 0 -9.31925 5.28642l-7.97318 23.91964"/><path d="m100.95624 182.08757-12.02532 24.0508a7.96794 7.96794 0 0 1 -8.99115 4.20918c-24.53866-5.99924-45.69277-16.459-61.10006-29.85069a8.05224 8.05224 0 0 1 -2.47193-8.38972l33.9738-113.24644a8.0212 8.0212 0 0 1 4.62655-5.1091 175.85349 175.85349 0 0 1 29.66439-9.18283 8.0178 8.0178 0 0 1 9.31924 5.28642l7.97318 23.91964"/></g><circle cx="96" cy="144.00002" r="12"/><circle cx="160" cy="144.00002" r="12"/><path d="m74.4017 80a175.32467 175.32467 0 0 1 53.5983-8 175.32507 175.32507 0 0 1 53.59754 7.99971" fill="none" stroke="#000" stroke-linecap="round" stroke-linejoin="round" stroke-width="16"/><path d="m181.59717 176.00041a175.32523 175.32523 0 0 1 -53.59717 7.99959 175.32505 175.32505 0 0 1 -53.59753-7.99971" fill="none" stroke="#000" stroke-linecap="round" stroke-linejoin="round" stroke-width="16"/><path d="m155.04392 182.08789 12.02517 24.05047a7.96793 7.96793 0 0 0 8.99115 4.20919c24.53876-5.99927 45.69294-16.45908 61.10024-29.85086a8.05225 8.05225 0 0 0 2.47192-8.38971l-33.97385-113.24624a8.02121 8.02121 0 0 0 -4.62655-5.10908 175.85294 175.85294 0 0 0 -29.66452-9.18289 8.01781 8.01781 0 0 0 -9.31925 5.28642l-7.97318 23.91964" fill="none" stroke="#000" stroke-linecap="round" stroke-linejoin="round" stroke-width="16"/><path d="m100.95624 182.08757-12.02532 24.0508a7.96794 7.96794 0 0 1 -8.99115 4.20918c-24.53866-5.99924-45.69277-16.459-61.10006-29.85069a8.05224 8.05224 0 0 1 -2.47193-8.38972l33.9738-113.24644a8.0212 8.0212 0 0 1 4.62655-5.1091 175.85349 175.85349 0 0 1 29.66439-9.18283 8.0178 8.0178 0 0 1 9.31924 5.28642l7.97318 23.91964" fill="none" stroke="#000" stroke-linecap="round" stroke-linejoin="round" stroke-width="16"/></svg>