<svg viewBox="0 0 256 256" xmlns="http://www.w3.org/2000/svg"><path d="m0 0h256v256h-256z" fill="none"/><path d="m128 192v24" fill="none" stroke="#000" stroke-linecap="round" stroke-linejoin="round" stroke-width="16"/><circle cx="92" cy="140" r="12"/><circle cx="164" cy="140" r="12"/><g fill="none" stroke="#000" stroke-linecap="round" stroke-linejoin="round" stroke-width="16"><path d="m144 176-16 16-16-16"/><path d="m152 48 55.76169-13.94042a8 8 0 0 1 9.80326 6.28683l16.41859 87.56583c1.54221 8.22509-8.98332 12.99712-14.15352 6.41688z"/><path d="m104 48-55.76169-13.94042a8 8 0 0 0 -9.80331 6.28683l-16.41854 87.56583c-1.54221 8.22509 8.98332 12.99712 14.15352 6.41688z"/><path d="m104 48h48"/><path d="m208 119.27273v64.72727a32 32 0 0 1 -32 32h-96a32 32 0 0 1 -32-32v-64.72727"/></g></svg>