<svg viewBox="0 0 256 256" xmlns="http://www.w3.org/2000/svg"><g fill="none"><path d="m0 0h256v256h-256z"/><g stroke="#000" stroke-linecap="round" stroke-linejoin="round" stroke-width="16"><path d="m48 40 160 176"/><path d="m91.42886 87.7719a39.8604 39.8604 0 0 0 -3.42886 16.2281"/><path d="m86.97786 35.304a80.01863 80.01863 0 0 1 121.02214 68.696"/><path d="m161.93948 216.0039a44.00107 44.00107 0 0 1 -77.93948-28.0039c0-41.49014-36-28-36-84a79.63961 79.63961 0 0 1 15.34376-47.12167"/><path d="m163.07477 119.00866a23.8953 23.8953 0 0 0 4.92523-15.00866 40.02881 40.02881 0 0 0 -52.976-37.8483"/><path d="m166.89165 170.78091a20.01341 20.01341 0 0 1 -26.89165-18.78091 24.94024 24.94024 0 0 1 1.58781-9.05283"/></g></g></svg>