<svg viewBox="0 0 256 256" xmlns="http://www.w3.org/2000/svg"><g fill="none"><path d="m0 0h256v256h-256z"/><g stroke="#000" stroke-linecap="round" stroke-linejoin="round" stroke-width="16"><path d="m48 40.00122 160 176"/><path d="m154.9071 157.599a40.00028 40.00028 0 0 1 -53.8142-59.19562"/><path d="m73.99446 68.59479c-40.76927 20.64555-57.99446 59.40643-57.99446 59.40643s32 71.99219 112 71.99219a118.0238 118.0238 0 0 0 53.99756-12.59461"/><path d="m208.60953 169.10059c21.80179-19.52717 31.39047-41.09937 31.39047-41.09937s-32-72.00781-112-72.00781a125.31923 125.31923 0 0 0 -20.68221 1.68414"/><path d="m135.52737 88.709a40.02411 40.02411 0 0 1 32.29785 35.52874"/></g></g></svg>