<svg viewBox="0 0 256 256" xmlns="http://www.w3.org/2000/svg"><g fill="none"><path d="m0 0h256v256h-256z"/><g stroke="#000" stroke-linecap="round" stroke-linejoin="round" stroke-width="16"><path d="m179.799 115.799 4.88728 4.88728a16 16 0 0 1 0 22.62742l-7.02944 7.02944a8 8 0 0 1 -11.3137 0l-60.6863-60.6863a8 8 0 0 1 0-11.3137l7.02944-7.02944a16 16 0 0 1 22.62742 0l4.8873 4.8873 27.58813-27.58813c10.78822-10.78822 28.36591-11.4491 39.44579-.96065a28.00039 28.00039 0 0 1 .56408 40.14678z"/><path d="m158.62742 142.62742-56 56a31.98729 31.98729 0 0 1 -30.91154 8.28721l-23.40227 10.21637a8 8 0 0 1 -8.85761-1.675 5.74381 5.74381 0 0 1 -1.20256-6.35955l10.832-24.81212a31.9873 31.9873 0 0 1 8.28715-30.91177l56-56"/></g></g></svg>