<svg viewBox="0 0 256 256" xmlns="http://www.w3.org/2000/svg"><g fill="none"><path d="m0 0h256v256h-256z"/><g stroke="#000" stroke-linecap="round" stroke-linejoin="round" stroke-width="16"><path d="m216 136c0 51.50493-74.43964 69.17367-86.39 71.67832a7.80809 7.80809 0 0 1 -3.21992 0c-11.95044-2.50465-86.39008-20.17339-86.39008-71.67832v-58.39658a8 8 0 0 1 5.26606-7.51835l80-29.09091a8 8 0 0 1 5.46788 0l80 29.09091a8 8 0 0 1 5.26606 7.51835z"/><path d="m88 112h80"/><path d="m88 144h80"/><path d="m213.40982 152h10.59018a24 24 0 0 0 24-24v-24a24 24 0 0 0 -24-24h-8"/><path d="m42.59121 152h-10.59121a24 24 0 0 1 -24-24v-24a24 24 0 0 1 24-24h8"/></g></g></svg>