<svg viewBox="0 0 256 256" xmlns="http://www.w3.org/2000/svg"><g fill="none"><path d="m0 0h256v256h-256z"/><g stroke="#000" stroke-linecap="round" stroke-linejoin="round" stroke-width="16"><path d="m241.532 121.27057-89.20594-57.34667a8 8 0 0 0 -12.32606 6.72942v114.69336a8 8 0 0 0 12.32606 6.72942l89.20594-57.34667a8 8 0 0 0 0-13.45886z"/><path d="m129.532 121.27057-89.20594-57.34667a8 8 0 0 0 -12.32606 6.72942v114.69336a8 8 0 0 0 12.32606 6.72942l89.20594-57.34667a8 8 0 0 0 0-13.45886z"/></g></g></svg>