<svg viewBox="0 0 256 256" xmlns="http://www.w3.org/2000/svg"><g fill="none"><path d="m0 0h256v256h-256z"/><g stroke="#000" stroke-linecap="round" stroke-linejoin="round" stroke-width="16"><path d="m50.68905 184.92207a127.4728 127.4728 0 0 0 13.31718-56.913 63.88065 63.88065 0 0 1 23.99967-49.96275"/><path d="m128.00623 128.009a191.13407 191.13407 0 0 1 -23.97573 92.98042"/><path d="m96.00623 128.009a32 32 0 0 1 64 0 223.13818 223.13818 0 0 1 -21.27523 95.40636"/><path d="m218.56486 184.00845a289.42035 289.42035 0 0 0 5.441-56 96 96 0 0 0 -192 0 95.845 95.845 0 0 1 -5.46267 32.00025"/><path d="m92.80577 160.00843a158.95129 158.95129 0 0 1 -18.1147 47.84483"/><path d="m120.00621 64.50418a64.051 64.051 0 0 1 72 63.50485 258.52451 258.52451 0 0 1 -1.98054 31.99945"/><path d="m183.94126 192.00844q-2.2851 8.87835-5.18116 17.5"/></g></g></svg>