<svg viewBox="0 0 256 256" xmlns="http://www.w3.org/2000/svg"><g fill="none"><path d="m0 0h256v256h-256z"/><g stroke="#000" stroke-linecap="round" stroke-linejoin="round" stroke-width="16"><path d="m176.00586 128.009a239.296 239.296 0 0 1 -17.934 91.1974"/><path d="m163.78085 96.006a48.00042 48.00042 0 0 0 -83.775 32.003 143.35045 143.35045 0 0 1 -17.98008 69.73221"/><path d="m96.00524 37.47183a96.06708 96.06708 0 0 1 128.00062 90.53717 288.94587 288.94587 0 0 1 -7.13641 63.99948"/><path d="m23.30117 168.00907a95.64559 95.64559 0 0 0 8.70469-40 95.76078 95.76078 0 0 1 31.99975-71.55522"/><path d="m110.58455 208.009q-3.04225 6.62844-6.56532 12.97841"/><path d="m127.99414 128.00842a192.34737 192.34737 0 0 1 -6.0489 48.00023"/></g></g></svg>