<svg viewBox="0 0 256 256" xmlns="http://www.w3.org/2000/svg"><path d="m0 0h256v256h-256z" fill="none"/><circle cx="156" cy="76" r="12"/><g fill="none" stroke="#000" stroke-linecap="round" stroke-linejoin="round" stroke-width="16"><path d="m186.30284 167.94573q-1.14463.05406-2.30284.05427a48 48 0 0 1 -48-48 48 48 0 0 1 -48-48q0-1.16456.05488-2.31579"/><path d="m62.177 153.17849-54.177 22.78467 56 16.03684 16 56 22.8003-54.20045v.00009c138.35934-3.2851 120.00626-122.89746 114.38209-148.8602a7.98721 7.98721 0 0 0 -6.1218-6.12182c-25.96159-5.62386-145.56551-23.97549-148.88368 114.36087z"/></g></svg>