<svg viewBox="0 0 256 256" xmlns="http://www.w3.org/2000/svg"><g fill="none"><path d="m0 0h256v256h-256z"/><g stroke="#000" stroke-linecap="round" stroke-linejoin="round" stroke-width="16"><circle cx="128" cy="128" r="28"/><path d="m115.02821 103.18241c-7.32538-15.40394-15.02821-34.59441-15.02821-47.18241a28 28 0 0 1 56 0c0 12.588-7.70285 31.7785-15.02823 47.18245"/><path d="m100.02144 126.8251c-17.00289-1.358-37.47372-4.28238-48.37527-10.57639a28 28 0 0 1 28-48.49742c10.90156 6.294 23.66957 22.56011 33.34708 36.606"/><path d="m112.99323 151.64269c-9.67751 14.04594-22.44551 30.312-33.34706 36.606a28 28 0 0 1 -28-48.49742c10.90156-6.294 31.37241-9.21839 48.37532-10.5764"/><path d="m140.97179 152.81759c7.32538 15.40394 15.02821 34.59441 15.02821 47.18241a28 28 0 0 1 -56 0c0-12.588 7.70285-31.7785 15.02823-47.18245"/><path d="m155.97856 129.1749c17.00289 1.358 37.47372 4.28238 48.37527 10.57639a28 28 0 0 1 -28 48.49742c-10.90156-6.294-23.66957-22.56011-33.34708-36.606"/><path d="m143.00677 104.35731c9.67751-14.04594 22.44551-30.312 33.34706-36.606a28 28 0 0 1 28 48.49742c-10.90156 6.294-31.37241 9.21839-48.37532 10.5764"/></g></g></svg>