<svg viewBox="0 0 256 256" xmlns="http://www.w3.org/2000/svg"><g fill="none"><path d="m0 0h256v256h-256z"/><g stroke="#000" stroke-linecap="round" stroke-linejoin="round" stroke-width="16"><path d="m128 200c16 0 42.45589-.1803 72.88973-17.75129s40.28225-39.5825 43.43363-50.85144a7.95859 7.95859 0 0 0 -5.67818-9.83489c-7.38178-1.89206-20.12947-3.60238-36.52927.288"/><path d="m53.88184 121.84985c-16.39872-3.88969-29.14558-2.17944-36.527-.28747a7.95859 7.95859 0 0 0 -5.67818 9.83489c3.15138 11.26894 12.99979 33.28046 43.43363 50.85144s56.88971 17.75129 72.88971 17.75129"/><path d="m128 200s40-21.81818 40-80c0-45.58443-24.55378-68.84723-35.18644-76.78386a8.03282 8.03282 0 0 0 -9.62712 0c-10.63266 7.93663-35.18644 31.19943-35.18644 76.78386 0 58.18182 40 80 40 80z"/><path d="m128 200c11.99027-2.55021 44.33-20.78184 63.71281-54.35383s14.60877-60.37938 10.82219-72.03836a7.99178 7.99178 0 0 0 -9.27184-5.3531 77.437 77.437 0 0 0 -31.35645 15.135"/><path d="m94.09282 83.38935a77.43686 77.43686 0 0 0 -31.356-15.13464 7.99178 7.99178 0 0 0 -9.27184 5.3531c-3.78659 11.659-8.56062 38.46637 10.82218 72.03836s51.72257 51.80362 63.71284 54.35383"/></g></g></svg>