<svg viewBox="0 0 256 256" xmlns="http://www.w3.org/2000/svg"><g fill="none"><path d="m0 0h256v256h-256z"/><g stroke="#000" stroke-linecap="round" stroke-linejoin="round" stroke-width="16"><path d="m200 112v88.88889a7.11111 7.11111 0 0 1 -7.11111 7.11111h-152.88889a8 8 0 0 1 -8-8v-112a8 8 0 0 1 8-8h45.33333a8 8 0 0 1 4.8 1.6l27.73334 20.8a8 8 0 0 0 4.8 1.6h69.33333a8 8 0 0 1 8 8z"/><path d="m200 112v88.88889a7.11111 7.11111 0 0 1 -7.11111 7.11111h-152.88889a8 8 0 0 1 -8-8v-112a8 8 0 0 1 8-8h45.33333a8 8 0 0 1 4.8 1.6l27.73334 20.8a8 8 0 0 0 4.8 1.6h69.33333a8 8 0 0 1 8 8z"/><path d="m64 80v-24a8 8 0 0 1 8-8h45.33333a8 8 0 0 1 4.8 1.6l27.73334 20.8a8 8 0 0 0 4.8 1.6h69.33333a8 8 0 0 1 8 8v88.88889a7.11111 7.11111 0 0 1 -7.11111 7.11111h-24.88889"/></g></g></svg>