<svg viewBox="0 0 256 256" xmlns="http://www.w3.org/2000/svg"><g fill="none"><path d="m0 0h256v256h-256z"/><g stroke="#000" stroke-linecap="round" stroke-linejoin="round" stroke-width="16"><path d="m184.56854 184.56854c-41.52913 41.52913-99.19529 38.21906-126.92237 33.52363a24.07744 24.07744 0 0 1 -19.73834-19.73834c-4.69543-27.72708-8.0055-85.39324 33.52363-126.92237s99.19529-38.21906 126.92237-33.52363a24.07744 24.07744 0 0 1 19.73834 19.73834c4.69543 27.72708 8.0055 85.39324-33.52363 126.92237z"/><path d="m160 96-64 64"/><path d="m124.68629 102.05887 29.25484 29.25484"/><path d="m102.05887 124.68629 29.25484 29.25484"/><path d="m148.22436 36.22436 71.55151 71.55151"/><path d="m36.22399 148.22399 71.55213 71.55213"/></g></g></svg>