<svg viewBox="0 0 256 256" xmlns="http://www.w3.org/2000/svg"><g fill="none"><path d="m0 0h256v256h-256z"/><g stroke="#000" stroke-linecap="round" stroke-linejoin="round" stroke-width="16"><path d="m152 108h32"/><path d="m72 108h32"/><path d="m88 92v32"/><path d="m172.01831 55.7398-88.01385.2602a52.01509 52.01509 0 0 0 -51.21852 42.96873l.00852.00156-16.3644 84.16289a28.00192 28.00192 0 0 0 47.37526 24.66282l-.00165-.00173 43.23557-47.79427 64.97907-.2602a52 52 0 0 0 0-104z"/><path d="m223.22831 98.71009 16.351 84.42309a28.00192 28.00192 0 0 1 -47.37531 24.66282l.00166-.00173-43.20566-47.96227"/></g></g></svg>