<svg viewBox="0 0 256.00098 256.00098" xmlns="http://www.w3.org/2000/svg"><g fill="none"><path d="m0 0h256v256h-256z"/><g stroke="#000" stroke-linecap="round" stroke-linejoin="round" stroke-width="16"><circle cx="128.00098" cy="128.00195" r="48"/><path d="m197.40626 80.65057a83.91174 83.91174 0 0 1 6.28744 10.91l25.9463 14.40343a103.88962 103.88962 0 0 1 .03183 44.05764l-25.96071 14.41136a83.912 83.912 0 0 1 -6.30466 10.90011l.49943 29.67182a103.88959 103.88959 0 0 1 -38.13912 22.05638l-25.46093-15.27692a83.91075 83.91075 0 0 1 -12.5921-.01l-25.44684 15.26849a103.88979 103.88979 0 0 1 -38.171-22.00126l.49974-29.68828a83.91052 83.91052 0 0 1 -6.28743-10.91005l-25.94621-14.40339a103.88962 103.88962 0 0 1 -.03182-44.05764l25.96065-14.41136a83.9124 83.9124 0 0 1 6.30466-10.9001l-.49943-29.6718a103.88973 103.88973 0 0 1 38.13912-22.05641l25.46094 15.27693a83.91075 83.91075 0 0 1 12.5921.00995l25.44683-15.26847a103.88943 103.88943 0 0 1 38.171 22.00126z"/></g></g></svg>