<svg viewBox="0 0 256.00098 256.00098" xmlns="http://www.w3.org/2000/svg"><g fill="none"><path d="m0 0h256v256h-256z"/><g stroke="#000" stroke-linecap="round" stroke-linejoin="round" stroke-width="16"><circle cx="128" cy="128" r="48"/><path d="m183.66087 65.08649a84.52233 84.52233 0 0 1 7.2522 7.2521l27.32234 3.90156a103.36981 103.36981 0 0 1 10.16371 24.56085l-16.55447 22.0718s.20824 6.83942.00065 10.2547l16.561 22.07863a103.36931 103.36931 0 0 1 -10.18033 24.554l-27.31288 3.90133s-4.689 4.98345-7.25071 7.25163l-3.90155 27.32234a103.36971 103.36971 0 0 1 -24.56083 10.16369l-22.07039-16.55388a84.521 84.521 0 0 1 -10.25609.00006l-22.07863 16.561a103.36914 103.36914 0 0 1 -24.554-10.18033l-3.90076-27.31148a84.521 84.521 0 0 1 -7.2522-7.25211l-27.32235-3.90155a103.37009 103.37009 0 0 1 -10.16372-24.56083l16.55447-22.07178s-.20824-6.83942-.00066-10.2547l-16.561-22.07863a103.37 103.37 0 0 1 10.18033-24.55402l27.31149-3.90076a84.52233 84.52233 0 0 1 7.2521-7.2522l3.90156-27.32235a103.37019 103.37019 0 0 1 24.56085-10.1637l22.0704 16.55388a84.523 84.523 0 0 1 10.25609-.00007l22.07863-16.561a103.37014 103.37014 0 0 1 24.554 10.18033z"/></g></g></svg>