<svg viewBox="0 0 256 256" xmlns="http://www.w3.org/2000/svg"><g fill="none"><path d="m0 0h256v256h-256z"/><g stroke="#000" stroke-linecap="round" stroke-linejoin="round" stroke-width="16"><rect height="48" rx="7.99999" width="192" x="32" y="80"/><path d="m208 128v72a8 8 0 0 1 -8 8h-144a8 8 0 0 1 -8-8v-72"/><path d="m128 80v128"/><path d="m173.25483 68.68629c-11.3137 11.31371-45.25483 11.31371-45.25483 11.31371s0-33.94113 11.31371-45.25483a24 24 0 0 1 33.94112 33.94112z"/><path d="m82.74517 68.68629c11.3137 11.31371 45.25483 11.31371 45.25483 11.31371s0-33.94113-11.31371-45.25483a24 24 0 0 0 -33.94112 33.94112z"/></g></g></svg>