<svg viewBox="0 0 256 256" xmlns="http://www.w3.org/2000/svg"><g fill="none"><path d="m0 0h256v256h-256z"/><g stroke="#000" stroke-linecap="round" stroke-linejoin="round" stroke-width="16"><path d="m84 240a24 24 0 0 0 24-24v-48"/><path d="m172 240a24 24 0 0 1 -24-24v-48"/><path d="m152 168h16a24 24 0 0 1 24 24v8a24 24 0 0 0 24 24"/><path d="m104 168h-16a24 24 0 0 0 -24 24v8a24 24 0 0 1 -24 24"/><path d="m111.825 63.99934a51.9599 51.9599 0 0 0 -43.825-23.99934 51.90058 51.90058 0 0 0 -3.48841 44.7036 49.25789 49.25789 0 0 0 -8.51159 27.2964v8a48 48 0 0 0 48 48h48a48 48 0 0 0 48-48v-8a49.25769 49.25769 0 0 0 -8.5116-27.29639 51.90061 51.90061 0 0 0 -3.4884-44.70361 51.95992 51.95992 0 0 0 -43.82535 23.99983z"/></g></g></svg>