<svg viewBox="0 0 256 256" xmlns="http://www.w3.org/2000/svg"><g fill="none"><path d="m0 0h256v256h-256z"/><g stroke="#000" stroke-linecap="round" stroke-linejoin="round" stroke-width="16"><path d="m83 112h90l22.61071-60.29524a4 4 0 0 1 7.61026.37384l27.32935 102.4851a8 8 0 0 1 -3.1762 8.63883l-94.82044 65.64492a8 8 0 0 1 -9.10736 0l-94.82044-65.6449a8 8 0 0 1 -3.1762-8.63883l27.32932-102.4851a4 4 0 0 1 7.61026-.37384z"/><path d="m128.659 230.243 44.341-118.243h46.2"/><path d="m36.8 112h46.2l44.341 118.243"/></g></g></svg>