<svg viewBox="0 0 256 256" xmlns="http://www.w3.org/2000/svg"><g fill="none"><path d="m0 0h256v256h-256z"/><g stroke="#000" stroke-linecap="round" stroke-linejoin="round" stroke-width="16"><circle cx="128" cy="128" r="96"/><path d="m214.16458 170.37222-54.28632-33.38846a7.99993 7.99993 0 0 0 -3.12236-1.114l-22.81867-3.07595a8 8 0 0 0 -8.37592 4.67178l-13.69878 30.73831a8 8 0 0 0 1.433 8.68736l18.79995 20.33464a8 8 0 0 1 1.98022 6.9502l-3.8294 19.79638"/><path d="m64.95216 55.60635-8.94422 21.14972a8 8 0 0 0 -.12321 5.92293l11.49086 30.66819a8 8 0 0 0 5.81037 5.01448l21.42993 4.60592a8 8 0 0 1 5.5197 4.3358l3.80564 7.862a8 8 0 0 0 7.20075 4.51442h13.43256"/><path d="m152.45823 35.14852 9.33366 16.7184a8 8 0 0 1 -1.6191 9.83314l-26.91087 24.33754a8.00033 8.00033 0 0 1 -1.49868 1.06968l-12.24176 6.76034a8 8 0 0 1 -3.86737.9969h-21.34538a8 8 0 0 0 -7.37259 4.89437l-8.32721 19.76833"/></g></g></svg>