<svg viewBox="0 0 256 256" xmlns="http://www.w3.org/2000/svg"><g fill="none"><path d="m0 0h256v256h-256z"/><g stroke="#000" stroke-linecap="round" stroke-linejoin="round" stroke-width="16"><path d="m51.81106 121.9021a18 18 0 1 0 -31.17691 18l37 64.08588a72 72 0 0 0 124.70766-72l-17-29.44487a18 18 0 0 0 -31.17692 18"/><path d="m106.988 145.47132-38-65.81793a18 18 0 0 0 -31.17692 18l38 65.81793"/><path d="m150.16489 148.25593-42-72.74614a18 18 0 0 0 -31.17691 18"/><path d="m99.04433 67.71252-10.34354-17.91552a18 18 0 1 0 -31.17691 18l2.34312 4.05833"/><path d="m188.03672 191.515a72.02623 72.02623 0 0 0 14.0179-89.38343l-17-29.44486a18 18 0 1 0 -31.17691 18"/><path d="m156.22161 94.74648-28.3439-49.09309a18 18 0 0 0 -31.17692 18"/><path d="m176.84663 11.27112-4.14111 15.45481"/><path d="m207.06334 25.3614-9.17723 13.10644"/><path d="m230.6386 48.93666-13.10644 9.17723"/></g></g></svg>