<svg viewBox="0 0 256 256" xmlns="http://www.w3.org/2000/svg"><g fill="none"><path d="m0 0h256v256h-256z"/><g stroke="#000" stroke-linecap="round" stroke-linejoin="round" stroke-width="16"><path d="m240.71765 121.78477-24.71765 12.35882-32-61.282 24.9693-12.48465a8 8 0 0 1 10.66912 3.45246l24.59293 47.097a8 8 0 0 1 -3.5137 10.85837z"/><path d="m40 133.0718-24.71765-12.3588a8 8 0 0 1 -3.5137-10.85838l24.59293-47.097a8 8 0 0 1 10.66912-3.45251l24.9693 12.48465z"/><path d="m216 134.14359-16 18.718-36.79714 36.79711a8 8 0 0 1 -7.59714 2.10429l-57.95691-14.48923a7.99992 7.99992 0 0 1 -2.98764-1.45911l-54.66117-42.74285"/><path d="m200 152.86156-44-32-12.8 9.6a32 32 0 0 1 -38.4 0l-5.42074-4.06556a8 8 0 0 1 -.85685-12.05686l39.13444-39.13444a8 8 0 0 1 5.65686-2.34315h40.68629"/><path d="m72.57437 71.78976 51.32-14.96153a8 8 0 0 1 5.537.39169l34.56863 15.64164"/><path d="m112 212.86156-30.13944-7.53486a7.99993 7.99993 0 0 1 -3.308-1.7233l-22.55256-19.6034"/></g></g></svg>