<svg viewBox="0 0 256 256" xmlns="http://www.w3.org/2000/svg"><g fill="none"><path d="m0 0h256v256h-256z"/><g stroke="#000" stroke-linecap="round" stroke-linejoin="round" stroke-width="16"><path d="m225.45581 128h-32a16 16 0 0 0 -16 16v40a16 16 0 0 0 16 16h16a16 16 0 0 0 16-16v-56a96.0001 96.0001 0 0 0 -96.72791-95.9973 96.00009 96.00009 0 0 0 -96.7279 95.9973v56a16 16 0 0 0 16 16h16a16 16 0 0 0 16-16v-40a16 16 0 0 0 -16-16h-32"/><path d="m225.45581 184v24a32 32 0 0 1 -32 32h-57.45581"/></g></g></svg>