<svg viewBox="0 0 256 256" xmlns="http://www.w3.org/2000/svg"><g fill="none"><path d="m0 0h256v256h-256z"/><path d="m176 120a48 48 0 0 1 -48 48" stroke="#000" stroke-linecap="round" stroke-linejoin="round" stroke-width="16"/><path d="m63.99958 199.555a95.66337 95.66337 0 0 0 65.94315 24.42575c51.479-1.01726 93.33139-43.12958 94.04775-94.61366a96.00033 96.00033 0 0 0 -95.99048-97.36709h-8v32l-104 64 13.78709 19.11608a24.02393 24.02393 0 0 0 23.51449 9.61538c17.46763-2.95714 48.06093-4.71406 74.69861 11.26833l-.00019.00021-35.23415 49.32781" stroke="#000" stroke-linecap="round" stroke-linejoin="round" stroke-width="16"/></g><circle cx="124" cy="100" r="12"/></svg>