<svg viewBox="0 0 256 256" xmlns="http://www.w3.org/2000/svg"><g fill="none"><path d="m0 0h256v256h-256z"/><path d="m151.99414 207.99263v-48.001a8 8 0 0 0 -8-8h-32a8 8 0 0 0 -8 8v48.001a8 8 0 0 1 -7.999 8l-47.99414.00632a8 8 0 0 1 -8.001-8v-92.4604a8 8 0 0 1 2.61811-5.91906l79.9945-72.73477a8 8 0 0 1 10.76339-.00036l80.0055 72.73509a8 8 0 0 1 2.6185 5.91942v92.46013a8 8 0 0 1 -8.001 8l-48.00586-.00632a8 8 0 0 1 -7.999-8.00005z" stroke="#000" stroke-linecap="round" stroke-linejoin="round" stroke-width="16"/></g></svg>