<svg viewBox="0 0 256 256" xmlns="http://www.w3.org/2000/svg"><g fill="none"><path d="m0 0h256v256h-256z"/><path d="m220 176v32a8 8 0 0 1 -8 8h-24a8 8 0 0 1 -8-8v-32" stroke="#000" stroke-linecap="round" stroke-linejoin="round" stroke-width="16"/><path d="m76 176v32a8 8 0 0 1 -8 8h-24a8 8 0 0 1 -8-8v-32" stroke="#000" stroke-linecap="round" stroke-linejoin="round" stroke-width="16"/><path d="m16 96h224" stroke="#000" stroke-linecap="round" stroke-linejoin="round" stroke-width="16"/><path d="m144 128v48" stroke="#000" stroke-linecap="round" stroke-linejoin="round" stroke-width="16"/><path d="m112 128v48" stroke="#000" stroke-linecap="round" stroke-linejoin="round" stroke-width="16"/><path d="m220 176h-184v-79.99995l7.01877-49.13142a8 8 0 0 1 7.91959-6.86863h154.12328a8 8 0 0 1 7.91959 6.86863l7.01877 49.13142z" stroke="#000" stroke-linecap="round" stroke-linejoin="round" stroke-width="16"/></g><circle cx="72" cy="132" r="12"/><circle cx="184" cy="132" r="12"/></svg>