<svg viewBox="0 0 256 256" xmlns="http://www.w3.org/2000/svg"><g fill="none"><path d="m0 0h256v256h-256z"/><g stroke="#000" stroke-linecap="round" stroke-linejoin="round" stroke-width="16"><path d="m88 232h80"/><path d="m78.7037 167.0114a79.86051 79.86051 0 0 1 -30.70248-62.55993c-.23961-43.36232 34.71878-79.40841 78.06978-80.42875a80.00322 80.00322 0 0 1 51.34165 142.89737 24.288 24.288 0 0 0 -9.4124 19.05581l-.00009 6.02422a8 8 0 0 1 -8 7.99988h-64.00032a8 8 0 0 1 -8-7.99986l-.0001-6.0311a24.10047 24.10047 0 0 0 -9.29604-18.95764z"/><path d="m136.12232 56.784a47.923 47.923 0 0 1 39.20468 39.15641"/></g></g></svg>