<svg viewBox="0 0 256 256" xmlns="http://www.w3.org/2000/svg"><g fill="none"><path d="m0 0h256v256h-256z"/><g stroke="#000" stroke-linecap="round" stroke-linejoin="round" stroke-width="16"><path d="m88 232h80"/><path d="m128 200v-56"/><path d="m96 112 32 32 32-32"/><path d="m78.70372 167.0114a79.86047 79.86047 0 0 1 -30.70247-62.55993c-.23962-43.36232 34.71875-79.40841 78.06975-80.42875a80.00322 80.00322 0 0 1 51.34165 142.89737 24.288 24.288 0 0 0 -9.4124 19.05581l-.00009 6.02423a8 8 0 0 1 -8 7.99987h-64.0003a8 8 0 0 1 -8-7.99986l-.0001-6.0311a24.10047 24.10047 0 0 0 -9.29604-18.95764z"/></g></g></svg>