<svg viewBox="0 0 256 256" xmlns="http://www.w3.org/2000/svg"><g fill="none"><path d="m0 0h256v256h-256z"/><g stroke="#000" stroke-linecap="round" stroke-linejoin="round" stroke-width="16"><path d="m127.28929 95.02944a24.00012 24.00012 0 0 1 33.60985-.325c9.693 9.33217 9.46338 25.13406-.0509 34.64834l-67.01653 64.99171a8 8 0 0 0 -.08742 11.3998l28.65391 28.65391a8 8 0 0 0 11.25812.055l66.46192-65.17456c31.19168-31.19164 32.09707-81.99464 1.13748-113.41664a80.00007 80.00007 0 0 0 -113.56441-.43051l-66.103 66.91189a8 8 0 0 0 .03429 11.27921l28.65427 28.65427a8 8 0 0 0 11.37925-.0663z"/><path d="m126.77456 162.39696 39.78771 39.78771"/><path d="m53.95657 89.57897 39.78715 39.78715"/></g></g></svg>