<svg viewBox="0 0 256 256" xmlns="http://www.w3.org/2000/svg"><g fill="none"><path d="m0 0h256v256h-256z"/><g stroke="#000" stroke-linecap="round" stroke-linejoin="round" stroke-width="16"><path d="m152 80v123.71853a8 8 0 0 0 3.5624 6.6564l10.99213 7.32809a8 8 0 0 0 12.19874-4.71612l13.24673-52.9869"/><path d="m192 160a40 40 0 0 0 0-80h-40s-54.45172 0-106.85106-43.94763a7.99844 7.99844 0 0 0 -13.14894 6.11524v155.66478a7.99844 7.99844 0 0 0 13.14894 6.11524c52.39934-43.94763 106.85106-43.94763 106.85106-43.94763z"/></g></g></svg>