<svg viewBox="0 0 256 256" xmlns="http://www.w3.org/2000/svg"><g fill="none"><path d="m0 0h256v256h-256z"/><g stroke="#000" stroke-linecap="round" stroke-linejoin="round" stroke-width="16"><path d="m176.42693 181.28138a72.00558 72.00558 0 0 1 -119.98749-45.28132"/><path d="m154.90249 157.60205a39.85421 39.85421 0 0 1 -26.9024 10.39795h-.00009a40 40 0 0 1 -40-40v-43.99786"/><path d="m128 200v32"/><path d="m48 40 160 176"/><path d="m93.95906 42.98434a39.97457 39.97457 0 0 1 34.04094-18.98434h.00008a39.99991 39.99991 0 0 1 39.99992 39.99991v60.42919"/><path d="m199.56055 136.00017a71.54827 71.54827 0 0 1 -4.48193 18.2151"/></g></g></svg>