<svg viewBox="0 0 256 256" xmlns="http://www.w3.org/2000/svg"><g fill="none"><path d="m0 0h256v256h-256z"/><g stroke="#000" stroke-linecap="round" stroke-linejoin="round" stroke-width="16"><path d="m178.76923 71.66667a46.108 46.108 0 0 1 -14.87 33.70542 53.13546 53.13546 0 0 1 -71.79854 0 45.63467 45.63467 0 0 1 0-67.41085 53.13546 53.13546 0 0 1 71.79854 0 46.108 46.108 0 0 1 14.87 33.70543z"/><path d="m188 175.66667a54.49122 54.49122 0 0 1 -17.57359 39.83368 62.79644 62.79644 0 0 1 -84.85282 0 53.93188 53.93188 0 0 1 0-79.66737 62.79644 62.79644 0 0 1 84.85282 0 54.49124 54.49124 0 0 1 17.57359 39.83369z"/></g></g></svg>