<svg viewBox="0 0 256 256" xmlns="http://www.w3.org/2000/svg"><g fill="none"><path d="m0 0h256v256h-256z"/><path d="m164.45079 32h-72.90158a8 8 0 0 0 -5.65686 2.34315l-51.5492 51.5492a8 8 0 0 0 -2.34315 5.65686v72.90158a8 8 0 0 0 2.34315 5.65686l51.5492 51.5492a8 8 0 0 0 5.65686 2.34315h72.90158a8 8 0 0 0 5.65686-2.34315l51.5492-51.5492a8 8 0 0 0 2.34315-5.65686v-72.90158a8 8 0 0 0 -2.34315-5.65686l-51.5492-51.5492a8 8 0 0 0 -5.65686-2.34315z" stroke="#000" stroke-miterlimit="10" stroke-width="16"/></g></svg>