<svg viewBox="0 0 256 256" xmlns="http://www.w3.org/2000/svg"><g fill="none"><path d="m0 0h256v256h-256z"/><g stroke="#000" stroke-linecap="round" stroke-linejoin="round" stroke-width="16"><path d="m224 177.32122v-98.64244a8 8 0 0 0 -4.07791-6.9726l-88-49.5a8 8 0 0 0 -7.84418 0l-88 49.5a8 8 0 0 0 -4.07791 6.9726v98.64244a8 8 0 0 0 4.07791 6.9726l88 49.5a8 8 0 0 0 7.84418 0l88-49.5a8 8 0 0 0 4.07791-6.9726z"/><path d="m177.022 152.511v-52l-97.022-53.511"/><path d="m222.897 74.627-93.948 53.373-95.841-53.383"/><path d="m128.94915 128-.93879 106.82131"/></g></g></svg>