<svg viewBox="0 0 256 256" xmlns="http://www.w3.org/2000/svg"><g fill="none"><path d="m0 0h256v256h-256z"/><g stroke="#000" stroke-linecap="round" stroke-linejoin="round" stroke-width="16"><path d="m72 104 79.99999 79.99999"/><path d="m101.75578 183.37379-31.191 31.19099"/><path d="m73.75578 155.37379-31.191 31.19099"/><path d="m136.12716 92.20308 54.90228-61.17364a24 24 0 1 1 33.94112 33.94112l-61.17364 54.90228a8 8 0 0 0 -.31342 11.61065l9.20279 9.2028a16 16 0 0 1 0 22.62742l-76.68629 76.68629-80-80 76.68629-76.68629a16 16 0 0 1 22.62742 0l9.2028 9.2028a8 8 0 0 0 11.61065-.31343z"/></g></g></svg>