<svg viewBox="0 0 256 256" xmlns="http://www.w3.org/2000/svg"><path d="m0 0h256v256h-256z" fill="none"/><path d="m221.61367 149.35463a96.28545 96.28545 0 0 0 2.38287-22.17837c-.44383-52.82934-44.1551-95.70346-96.98364-95.17129a96.01642 96.01642 0 0 0 -30.989 186.54089 24.002 24.002 0 0 0 31.9761-22.6435v-3.90236a24 24 0 0 1 24-24h46.20931a23.99131 23.99131 0 0 0 23.40436-18.64537z" fill="none" stroke="#000" stroke-linecap="round" stroke-linejoin="round" stroke-width="16"/><circle cx="128" cy="76" r="12"/><circle cx="82.96668" cy="102" r="12"/><circle cx="82.96668" cy="154" r="12"/><circle cx="173.03332" cy="102" r="12"/></svg>