<svg viewBox="0 0 256 256" xmlns="http://www.w3.org/2000/svg"><g fill="none"><path d="m0 0h256v256h-256z"/><g stroke="#000" stroke-linecap="round" stroke-linejoin="round" stroke-width="16"><circle cx="127.88745" cy="44" r="28"/><path d="m153.91044 134.715 34.74656 27.02512a12 12 0 1 0 16.97056-16.97057l-39.598-50.91169a19.93738 19.93738 0 0 0 -14.1421-5.85786h-48a19.93739 19.93739 0 0 0 -14.14213 5.85786l-39.598 50.91169a12 12 0 1 0 16.97057 16.97057l34.74656-27.02512-27.73358 87.5939a12 12 0 0 0 21.75139 10.14284l32.0052-50.37108 32.0052 50.37108a12 12 0 0 0 21.75133-10.14284z"/></g></g></svg>