<svg viewBox="0 0 256 256" xmlns="http://www.w3.org/2000/svg"><g fill="none"><path d="m0 0h256v256h-256z"/><g stroke="#000" stroke-linecap="round" stroke-linejoin="round" stroke-width="16"><path d="m155.371 101.25063a84.3478 84.3478 0 0 0 -55.10429.12547 7.92755 7.92755 0 0 0 -5.1169 5.95455l-5.89824 29.5076a8 8 0 0 1 -4.87369 5.85972l-47.31256 18.92503a7.97345 7.97345 0 0 1 -9.2595-2.47378 48.00881 48.00881 0 0 1 4.02766-63.31573 136 136 0 0 1 192.333 0 48.00881 48.00881 0 0 1 4.02766 63.31573 7.97345 7.97345 0 0 1 -9.2595 2.47378l-47.35377-18.94151a8 8 0 0 1 -4.85991-5.79231l-6.21072-29.73818a7.9287 7.9287 0 0 0 -5.13924-5.90037z"/><path d="m40 200h176"/></g></g></svg>