<svg viewBox="0 0 256 256" xmlns="http://www.w3.org/2000/svg"><g fill="none"><path d="m0 0h256v256h-256z"/><g stroke="#000" stroke-linecap="round" stroke-linejoin="round" stroke-width="16"><path d="m92.47629 124.81528a84.34782 84.34782 0 0 0 39.05334 38.8759 7.92754 7.92754 0 0 0 7.8287-.59231l25.03567-16.69434a8 8 0 0 1 7.58966-.69723l46.837 20.073a7.97345 7.97345 0 0 1 4.79834 8.2967 48.00882 48.00882 0 0 1 -47.619 41.923 136 136 0 0 1 -136-136 48.00882 48.00882 0 0 1 41.923-47.619 7.97345 7.97345 0 0 1 8.29668 4.79823l20.09051 46.87787a8 8 0 0 1 -.65931 7.53226l-16.63639 25.41973a7.9287 7.9287 0 0 0 -.5382 7.80619z"/><path d="m160 56v40h40"/><path d="m160 96 48-48"/></g></g></svg>