<svg viewBox="0 0 256 256" xmlns="http://www.w3.org/2000/svg"><g fill="none"><path d="m0 0h256v256h-256z"/><g stroke="#000" stroke-linecap="round" stroke-linejoin="round" stroke-width="16"><path d="m88 168-40 40"/><path d="m48 40 160 176"/><path d="m93.71428 90.28572-1.71428 1.71428s-27.744-13.872-57.39875 10.05044a8.01406 8.01406 0 0 0 -.64838 11.90243l107.89646 107.89646a7.99324 7.99324 0 0 0 12.04036-.83167c7.60268-10.10523 19.13532-29.87219 12.71834-50.549"/><path d="m184.9386 143.0614 41.40455-41.40455a8 8 0 0 0 0-11.3137l-60.6863-60.6863a8 8 0 0 0 -11.3137 0l-37.976 37.976"/></g></g></svg>