<svg viewBox="0 0 256 256" xmlns="http://www.w3.org/2000/svg"><g fill="none"><path d="m0 0h256v256h-256z"/><g stroke="#000" stroke-linecap="round" stroke-linejoin="round" stroke-width="16"><path d="m152 200c-13.25483 0-24-11.14314-24-24.88889s10.74517-24.88889 24-24.88889a23.18816 23.18816 0 0 1 8.81117 1.73087l-.00141-.0003a40.00363 40.00363 0 1 1 39.19024 48.04721z"/><path d="m16 176v-16a96.00006 96.00006 0 0 1 162.92582-68.82547"/><path d="m48 176v-16a64.00543 64.00543 0 0 1 101.86674-51.60093"/><path d="m80 176v-16a32.02814 32.02814 0 0 1 39.42145-31.135"/></g></g></svg>