<svg viewBox="0 0 256 256" xmlns="http://www.w3.org/2000/svg"><g fill="none"><path d="m0 0h256v256h-256z"/><g stroke="#000" stroke-linecap="round" stroke-linejoin="round" stroke-width="16"><path d="m152 232-24-24.008 24-23.992"/><path d="m194.627 75.192-8.791 32.789-32.778-8.789"/><path d="m78.956 140.769-8.792-32.788-32.778 8.788"/><path d="m128 207.99231h87.97627a16 16 0 0 0 13.84759-24.01531l-23.95094-41.37884"/><path d="m70.1643 107.98084-43.98814 75.99616a16.00005 16.00005 0 0 0 13.84762 24.01535h47.97614"/><path d="m185.83571 107.98085-43.98814-75.99613a16 16 0 0 0 -27.69514 0l-23.95004 41.37728"/></g></g></svg>