<svg viewBox="0 0 256 256" xmlns="http://www.w3.org/2000/svg"><g fill="none"><path d="m0 0h256v256h-256z"/><circle cx="188" cy="32.00002" r="16" stroke="#000" stroke-linecap="round" stroke-linejoin="round" stroke-width="16"/><path d="m161.026 176.00058a72.17425 72.17425 0 0 1 -66.05159.0002" stroke="#000" stroke-linecap="round" stroke-linejoin="round" stroke-width="16"/><path d="m128 72 8-48 36.185 5.567" stroke="#000" stroke-linecap="round" stroke-linejoin="round" stroke-width="16"/><path d="m59.408 89.87843c18.30854-11.13013 42.31194-17.87843 68.592-17.87843s50.28346 6.7483 68.592 17.87843l-.00129.00213a24.002 24.002 0 1 1 31.61564 34.788l.002-.00083a51.61606 51.61606 0 0 1 3.79165 19.33227c0 39.7645-46.56239 72-104 72s-104-32.2355-104-72a51.61624 51.61624 0 0 1 3.79162-19.3323l.00206.00082a24.00228 24.00228 0 1 1 31.61564-34.788z" stroke="#000" stroke-linecap="round" stroke-linejoin="round" stroke-width="16"/></g><circle cx="88" cy="132" r="16"/><circle cx="168" cy="132" r="16"/></svg>