<svg viewBox="0 0 256 256" xmlns="http://www.w3.org/2000/svg"><g fill="none"><path d="m0 0h256v256h-256z"/><path d="m144 224h-32" stroke="#000" stroke-linecap="round" stroke-linejoin="round" stroke-width="16"/><path d="m122.97053 19.76275c-18.99239 15.21411-82.51624 76.00912-26.97053 172.23725h64c54.39078-96.16-8.20388-156.9371-26.9971-172.20489a7.98387 7.98387 0 0 0 -10.03237-.03236z" stroke="#000" stroke-linecap="round" stroke-linejoin="round" stroke-width="16"/><path d="m73.86661 111.36007-31.35017 37.62021a8 8 0 0 0 -1.66373 6.85692l12.36292 55.63314a8 8 0 0 0 12.80706 4.51151l29.97731-23.98185" stroke="#000" stroke-linecap="round" stroke-linejoin="round" stroke-width="16"/><path d="m181.53142 110.63771 31.95214 38.34257a8 8 0 0 1 1.66373 6.85692l-12.36292 55.63314a8 8 0 0 1 -12.80706 4.51151l-29.97731-23.98185" stroke="#000" stroke-linecap="round" stroke-linejoin="round" stroke-width="16"/></g><circle cx="128" cy="96" r="12"/></svg>