<svg viewBox="0 0 256 256" xmlns="http://www.w3.org/2000/svg"><g fill="none"><path d="m0 0h256v256h-256z" opacity=".1"/><g stroke="#000" stroke-linecap="round" stroke-linejoin="round" stroke-width="16"><path d="m56 216h-8a8 8 0 0 1 -8-8v-8.00037"/><path d="m112 88h-24"/><path d="m112 216h-16"/><path d="m168 167.99963v-24"/><path d="m40 159.99963v-16"/><path d="m152 216h8a8 8 0 0 0 8-8v-8.00037"/><path d="m152 88h8a8 8 0 0 1 8 8v7.99963"/><path d="m56 88h-8a8 8 0 0 0 -8 8v7.99963"/><path d="m168 167.99414h39.999a8 8 0 0 0 8-8v-112a8 8 0 0 0 -8-8h-112a8 8 0 0 0 -8 8v40.00586"/></g></g></svg>