<svg viewBox="0 0 256 256" xmlns="http://www.w3.org/2000/svg"><g fill="none"><path d="m0 0h256v256h-256z"/><g stroke="#000" stroke-linecap="round" stroke-linejoin="round" stroke-width="16"><path d="m32 72h51.88306a8 8 0 0 1 6.50986 3.35009l75.21416 105.29982a8 8 0 0 0 6.50986 3.35009h59.88306"/><path d="m208 48 24 24-24 24"/><path d="m208 160 24 24-24 24"/><path d="m147.66242 100.47261 17.94466-25.12252a8 8 0 0 1 6.50986-3.35009h59.88306"/><path d="m32 184h51.88306a8 8 0 0 0 6.50986-3.35009l17.94466-25.12252"/></g></g></svg>