<svg viewBox="0 0 256 256" xmlns="http://www.w3.org/2000/svg"><g fill="none"><path d="m0 0h256v256h-256z"/><g stroke="#000" stroke-linecap="round" stroke-linejoin="round" stroke-width="16"><path d="m32 72h23.06445a64 64 0 0 1 52.079 26.80076l41.7132 58.39848a64 64 0 0 0 52.0789 26.80076h31.06445"/><path d="m208 48 24 24-24 24"/><path d="m208 160 24 24-24 24"/><path d="m147.66275 100.47214 1.19385-1.67138a64 64 0 0 1 52.07895-26.80076h31.06445"/><path d="m32 184h23.06445a64 64 0 0 0 52.079-26.80076l1.19384-1.67138"/></g></g></svg>