<svg viewBox="0 0 256.00004 256.00004" xmlns="http://www.w3.org/2000/svg"><g fill="none"><path d="m0 0h256v256h-256z"/><g stroke="#000" stroke-linecap="round" stroke-linejoin="round" stroke-width="16"><path d="m80 56.00005h24a0 0 0 0 1 0 0v72a24 24 0 0 1 -24 24 24 24 0 0 1 -24-24v-48.00005a24 24 0 0 1 24-24z" transform="matrix(0 1 -1 0 184.00005 24.00003)"/><path d="m128 80h-24a24 24 0 0 1 -24-24 24 24 0 0 1 24-24 24 24 0 0 1 24 24z"/><path d="m152 32.00007h24a0 0 0 0 1 0 0v72a24 24 0 0 1 -24 24 24 24 0 0 1 -24-24v-48.00007a24 24 0 0 1 24-24z" transform="matrix(-1 0 0 -1 304 160.00011)"/><path d="m176 128v-24a24 24 0 0 1 24-24 24 24 0 0 1 24 24 24 24 0 0 1 -24 24z"/><path d="m176 104.00005h24a0 0 0 0 1 0 0v72a24 24 0 0 1 -24 24 24 24 0 0 1 -24-24v-48.00005a24 24 0 0 1 24-24z" transform="matrix(0 -1 1 0 23.99995 328.00003)"/><path d="m128 176h24a24 24 0 0 1 24 24 24 24 0 0 1 -24 24 24 24 0 0 1 -24-24z"/><path d="m104 128h24a0 0 0 0 1 0 0v72a24 24 0 0 1 -24 24 24 24 0 0 1 -24-24v-48a24 24 0 0 1 24-24z"/><path d="m80 128v24a24 24 0 0 1 -24 24 24 24 0 0 1 -24-24 24 24 0 0 1 24-24z"/></g></g></svg>