<svg viewBox="0 0 256 256" xmlns="http://www.w3.org/2000/svg"><g fill="none"><path d="m0 0h256v256h-256z"/><g stroke="#000" stroke-linecap="round" stroke-linejoin="round" stroke-width="16"><circle cx="128" cy="128" r="96"/><path d="m128 86-39.944 29.021 15.257 46.958h49.374l15.257-46.958z"/><path d="m128 64v22"/><path d="m163.016 38.587-35.016 25.413-35.016-25.413"/><path d="m67.13238 108.22291 20.92325 6.79838"/><path d="m53.784 67.067 13.348 41.156-34.989 25.449"/><path d="m90.38174 179.77709 12.93128-17.79838"/><path d="m47.116 179.754 43.266.023 13.391 41.141"/><path d="m165.61826 179.77709-12.93128-17.79838"/><path d="m152.227 220.919 13.391-41.142 43.266-.023"/><path d="m188.86762 108.22291-20.92325 6.79838"/><path d="m223.857 133.673-34.989-25.45 13.348-41.155"/></g></g></svg>