<svg viewBox="0 0 256 256" xmlns="http://www.w3.org/2000/svg"><g fill="none"><path d="m0 0h256v256h-256z"/><g stroke="#000" stroke-linecap="round" stroke-linejoin="round" stroke-width="16"><path d="m138.72355 175.46465-19.21681 52.1599a8 8 0 0 1 -15.01348 0l-19.21681-52.1599a8 8 0 0 0 -4.7411-4.7411l-52.1599-19.21681a8 8 0 0 1 0-15.01348l52.1599-19.21681a8 8 0 0 0 4.7411-4.7411l19.21681-52.1599a8 8 0 0 1 15.01348 0l19.21681 52.1599a8 8 0 0 0 4.7411 4.7411l52.1599 19.21681a8 8 0 0 1 0 15.01348l-52.1599 19.21681a8 8 0 0 0 -4.7411 4.7411z"/><path d="m176 16v48"/><path d="m200 40h-48"/><path d="m224 72v32"/><path d="m240 88h-32"/></g></g></svg>