<svg viewBox="0 0 256 256" xmlns="http://www.w3.org/2000/svg"><g fill="none"><path d="m0 0h256v256h-256z"/><path d="m158.72416 163.50856-23.20581 63.816a8 8 0 0 1 -15.0367 0l-23.20581-63.816a8 8 0 0 0 -4.7844-4.7844l-63.816-23.20581a8 8 0 0 1 0-15.0367l63.816-23.20581a8 8 0 0 0 4.7844-4.7844l23.20581-63.816a8 8 0 0 1 15.0367 0l23.20581 63.816a8 8 0 0 0 4.7844 4.7844l63.816 23.20581a8 8 0 0 1 0 15.0367l-63.816 23.20581a8 8 0 0 0 -4.7844 4.7844z" stroke="#000" stroke-linecap="round" stroke-linejoin="round" stroke-width="16"/></g></svg>