<svg viewBox="0 0 256 256" xmlns="http://www.w3.org/2000/svg"><g fill="none"><path d="m0 0h256v256h-256z"/><g stroke="#000" stroke-linecap="round" stroke-linejoin="round" stroke-width="16"><path d="m128 24.00002v165.44777"/><path d="m220.16021 116.58462 8.71741-7.25565c5.94268-4.9462 2.87542-14.80876-4.75965-15.30428l-11.54749-.74944"/><path d="m184.12661 168.88422-3.31385-13.03591a8.75742 8.75742 0 0 1 2.83756-8.87589l10.032-8.34985"/><path d="m178.19035 91.044-13.13626-.85254a8.41836 8.41836 0 0 1 -7.24792-5.3506l-5.09907-12.8408-16.92927-42.63228a8.31887 8.31887 0 0 0 -15.55566 0l-22.02834 55.47305a8.41836 8.41836 0 0 1 -7.24792 5.3506l-59.06391 3.83326c-7.63507.49552-10.70233 10.35808-4.75965 15.30428l45.2273 37.64345a8.75742 8.75742 0 0 1 2.83756 8.87589l-13.51381 53.16015c-2.29566 9.03056 7.30952 16.32036 15.04583 11.41895l46.86971-29.69475a8.21431 8.21431 0 0 1 8.82212 0l11.51649 7.29638"/><path d="m173.021 216.46145 9.82554 6.22506c6.44693 4.08451 14.45124-1.99032 12.53819-9.51579l-2.774-10.91217"/></g></g></svg>