<svg viewBox="0 0 256 256" xmlns="http://www.w3.org/2000/svg"><g fill="none"><path d="m0 0h256v256h-256z"/><g stroke="#000" stroke-linecap="round" stroke-linejoin="round" stroke-width="16"><path d="m48 139.58816v68.41184a8 8 0 0 0 8 8h144a8 8 0 0 0 8-8v-68.41028"/><path d="m54.03441 40h147.93118a8 8 0 0 1 7.69219 5.80223l14.34222 50.19777h-192l14.34222-50.19777a8 8 0 0 1 7.69219-5.80223z"/><path d="m96 96v16a32 32 0 0 1 -64 0v-16"/><path d="m160 96v16a32 32 0 0 1 -64 0v-16"/><path d="m224 96v16a32 32 0 0 1 -64 0v-16"/></g></g></svg>