<svg viewBox="0 0 256 256" xmlns="http://www.w3.org/2000/svg"><g fill="none"><path d="m0 0h256v256h-256z"/><path d="m36.67036 173.04838 24.18727-137.1728a8 8 0 0 1 9.26764-6.48928l55.14924 9.7243a8 8 0 0 1 6.48927 9.26765l-24.31078 137.87308a36.00022 36.00022 0 0 1 -41.01188 29.317c-19.94272-3.12443-33.27603-22.64058-29.77076-42.51995z" stroke="#000" stroke-linecap="round" stroke-linejoin="round" stroke-width="16"/><path d="m118.28071 124.84457 72.96329-26.55647a8 8 0 0 1 10.2537 4.78138l19.15313 52.62278a8 8 0 0 1 -4.78138 10.25371l-131.557 47.88282" stroke="#000" stroke-linecap="round" stroke-linejoin="round" stroke-width="16"/><path d="m219.99977 162.53273v45.467a8 8 0 0 1 -8 8h-140" stroke="#000" stroke-linecap="round" stroke-linejoin="round" stroke-width="16"/></g><circle cx="72" cy="180" r="12"/></svg>