<svg viewBox="0 0 256 256" xmlns="http://www.w3.org/2000/svg"><g fill="none"><path d="m0 0h256v256h-256z"/><g stroke="#000" stroke-linecap="round" stroke-linejoin="round" stroke-width="16"><path d="m76.201 132.201 76-92 63.799-.201-.201 63.799-92 76"/><path d="m100 156 60-60"/><path d="m82.14214 197.45584-29.94114 29.94116a8 8 0 0 1 -11.31371 0l-12.28429-12.28432a8 8 0 0 1 0-11.31371l29.94113-29.94112a8 8 0 0 0 0-11.31371l-20.88728-20.88729a8 8 0 0 1 0-11.3137l12.6863-12.6863a8 8 0 0 1 11.3137 0l76.6863 76.6863a8 8 0 0 1 0 11.3137l-12.6863 12.6863a8 8 0 0 1 -11.3137 0l-20.88731-20.88731a8 8 0 0 0 -11.3137 0z"/></g></g></svg>