<svg viewBox="0 0 256 256" xmlns="http://www.w3.org/2000/svg"><g fill="none"><path d="m0 0h256v256h-256z"/><g stroke="#000" stroke-linecap="round" stroke-linejoin="round" stroke-width="16"><path d="m192 120h27.05573a8 8 0 0 0 7.15542-4.42229l18.40439-36.80878a8 8 0 0 0 -3.18631-10.52366l-49.42923-28.24527"/><path d="m64 120h-27.05573a8 8 0 0 1 -7.15542-4.42229l-18.40439-36.80878a8 8 0 0 1 3.18631-10.52366l49.42923-28.24527"/><path d="m160 40a32 32 0 0 1 -64 0h-32v168a8 8 0 0 0 8 8h112a8 8 0 0 0 8-8v-168z"/></g></g></svg>