<svg viewBox="0 0 256 256" xmlns="http://www.w3.org/2000/svg"><g fill="none"><path d="m0 0h256v256h-256z"/><g stroke="#000" stroke-linecap="round" stroke-linejoin="round" stroke-width="16"><circle cx="120" cy="188" r="20"/><path d="m120 168v-120"/><path d="m240.28427 80a20 20 0 0 1 -28.28427 0 20 20 0 0 0 -28.28427 0"/><path d="m240.28427 120a20 20 0 0 1 -28.28427 0 20 20 0 0 0 -28.28427 0"/><path d="m88 147.02548v-99.02548a32 32 0 0 1 64 0v99.02548l.00787-.01006a52 52 0 1 1 -64.01574 0z"/></g></g></svg>