<svg viewBox="0 0 256 256" xmlns="http://www.w3.org/2000/svg"><g fill="none"><path d="m0 0h256v256h-256z"/><g stroke="#000" stroke-linecap="round" stroke-linejoin="round" stroke-width="16"><path d="m96 56v144"/><path d="m24 167.19024a7.98836 7.98836 0 0 1 6.39917-7.83019 32.00785 32.00785 0 0 0 0-62.7201 7.98836 7.98836 0 0 1 -6.39917-7.83019v-24.80976a8 8 0 0 1 8-8h192a8 8 0 0 1 8 8v24.80976a7.98836 7.98836 0 0 1 -6.39917 7.83024 32.00785 32.00785 0 0 0 0 62.7201 7.98836 7.98836 0 0 1 6.39917 7.83014v24.80976a8 8 0 0 1 -8 8h-192a8 8 0 0 1 -8-8z"/></g></g></svg>