<svg viewBox="0 0 256 256" xmlns="http://www.w3.org/2000/svg"><g fill="none"><path d="m0 0h256v256h-256z"/><g stroke="#000" stroke-linecap="round" stroke-linejoin="round" stroke-width="16"><path d="m70.11037 32h115.77926a8 8 0 0 1 7.71811 5.89506l22.39226 82.10494-22.39226 82.10494a8 8 0 0 1 -7.71811 5.89506h-115.77926a8 8 0 0 1 -7.71811-5.89506l-22.39226-82.10494 22.39226-82.10494a8 8 0 0 1 7.71811-5.89506z"/><path d="m128 208v-72"/><path d="m40 120 88 16 88-16"/><path d="m96 88h64"/><path d="m96 208-24 32"/><path d="m160 208 24 32"/></g></g></svg>