<svg viewBox="0 0 256 256" xmlns="http://www.w3.org/2000/svg"><g fill="none"><path d="m0 0h256v256h-256z"/><g stroke="#000" stroke-linecap="round" stroke-linejoin="round" stroke-width="16"><path d="m128 232v-144"/><path d="m128 152-48-24"/><path d="m128 128 48-24"/><path d="m132.476 181.2265a63.99546 63.99546 0 1 0 62.27163-111.367 7.98712 7.98712 0 0 1 -4.02333-4.1665 68.02876 68.02876 0 0 0 -125.44861 0 7.98711 7.98711 0 0 1 -4.02328 4.16655 63.99621 63.99621 0 1 0 62.27159 111.367 8.03193 8.03193 0 0 1 8.952-.00005z"/></g></g></svg>