<svg viewBox="0 0 256 256" xmlns="http://www.w3.org/2000/svg"><g fill="none"><path d="m0 0h256v256h-256z"/><g stroke="#000" stroke-width="16"><path d="m240 120h-64v-40h42.58374a8 8 0 0 1 7.42781 5.02887z" stroke-linecap="round" stroke-linejoin="round"/><path d="m16 144h160" stroke-linecap="round" stroke-linejoin="round"/><circle cx="188" cy="192" r="24" stroke-miterlimit="10"/><circle cx="68" cy="192" r="24" stroke-miterlimit="10"/><path d="m164 192h-72" stroke-linecap="round" stroke-linejoin="round"/><path d="m44 192h-20a8 8 0 0 1 -8-8v-112a8 8 0 0 1 8-8h152v107.21508" stroke-linecap="round" stroke-linejoin="round"/><path d="m176 171.21508v-51.21508h64v64a8 8 0 0 1 -8 8h-20" stroke-linecap="round" stroke-linejoin="round"/></g></g></svg>