<svg viewBox="0 0 256 256" xmlns="http://www.w3.org/2000/svg"><g fill="none"><path d="m0 0h256v256h-256z"/><g stroke="#000" stroke-width="16"><circle cx="128" cy="120" r="40" stroke-miterlimit="10"/><path d="m63.79905 199.37405a72.02812 72.02812 0 0 1 128.40177-.00026" stroke-linecap="round" stroke-linejoin="round"/><circle cx="200" cy="56" r="16" stroke-linecap="round" stroke-linejoin="round"/><path d="m200 40v-12" stroke-linecap="round" stroke-linejoin="round"/><path d="m186.14359 48-10.3923-6" stroke-linecap="round" stroke-linejoin="round"/><path d="m186.14359 64-10.3923 6" stroke-linecap="round" stroke-linejoin="round"/><path d="m200 72v12" stroke-linecap="round" stroke-linejoin="round"/><path d="m213.85641 64 10.3923 6" stroke-linecap="round" stroke-linejoin="round"/><path d="m213.85641 48 10.3923-6" stroke-linecap="round" stroke-linejoin="round"/><path d="m223.31831 116.5001a96.987 96.987 0 0 1 .68169 11.4999 96 96 0 1 1 -96-96q4.50554 0 8.90843.40785" stroke-linecap="round" stroke-linejoin="round"/></g></g></svg>