<svg viewBox="0 0 256 256" xmlns="http://www.w3.org/2000/svg"><g fill="none"><path d="m0 0h256v256h-256z"/><g stroke="#000" stroke-linecap="round" stroke-linejoin="round" stroke-width="16"><path d="m45.429 176.99811a95.95978 95.95978 0 1 1 33.57377 33.57359l.00023-.001-33.15657 9.4733a8 8 0 0 1 -9.89-9.89l9.47331-33.15657z"/><path d="m152.11369 183.99992a80 80 0 0 1 -80.11361-80.11361 27.97622 27.97622 0 0 1 27.99992-27.88631 6.89265 6.89265 0 0 1 5.98451 3.47295l11.69105 20.45931a8 8 0 0 1 -.086 8.08508l-9.38907 15.64844a48.18239 48.18239 0 0 0 24.13373 24.13373l15.64841-9.389a8 8 0 0 1 8.08508-.086l20.45931 11.691a6.89265 6.89265 0 0 1 3.47298 5.98449 28.081 28.081 0 0 1 -27.88631 27.99992z"/></g></g></svg>