<svg viewBox="0 0 256 256" xmlns="http://www.w3.org/2000/svg"><g fill="none"><path d="m0 0h256v256h-256z"/><path d="m48 40 160 176" stroke="#000" stroke-linecap="round" stroke-linejoin="round" stroke-width="16"/><path d="m107.12984 57.47077a148.358 148.358 0 0 1 20.86235-1.46787 145.90176 145.90176 0 0 1 102.9284 42.17662" stroke="#000" stroke-linecap="round" stroke-linejoin="round" stroke-width="16"/><path d="m25.06379 98.17952a145.88673 145.88673 0 0 1 47.36158-31.31242" stroke="#000" stroke-linecap="round" stroke-linejoin="round" stroke-width="16"/><path d="m152.11967 106.95874a97.88568 97.88568 0 0 1 44.88614 25.1619" stroke="#000" stroke-linecap="round" stroke-linejoin="round" stroke-width="16"/><path d="m58.97857 132.12064a97.89874 97.89874 0 0 1 49.03639-26.105" stroke="#000" stroke-linecap="round" stroke-linejoin="round" stroke-width="16"/><path d="m92.91969 166.06177a50.81565 50.81565 0 0 1 67.576-2.317" stroke="#000" stroke-linecap="round" stroke-linejoin="round" stroke-width="16"/></g><circle cx="128" cy="200" r="12"/></svg>