<svg viewBox="0 0 256 256" xmlns="http://www.w3.org/2000/svg"><g fill="none"><path d="m0 0h256v256h-256z"/><g stroke="#000" stroke-linecap="round" stroke-linejoin="round" stroke-width="16"><path d="m160 128-48-32v64z"/><path d="m24 128c0 29.75546 3.07414 47.21382 5.41108 56.18664a15.91682 15.91682 0 0 0 9.63282 10.89441c33.47693 12.8647 88.9561 12.51145 88.9561 12.51145s55.47857.35324 88.9558-12.51137a15.91684 15.91684 0 0 0 9.6329-10.89432c2.33702-8.97281 5.4113-26.43127 5.4113-56.18681s-3.07415-47.21382-5.41108-56.18664a15.91682 15.91682 0 0 0 -9.63282-10.89436c-33.47693-12.86475-88.9561-12.5115-88.9561-12.5115s-55.47857-.35324-88.9558 12.51137a15.91684 15.91684 0 0 0 -9.6329 10.89432c-2.33703 8.97281-5.4113 26.43127-5.4113 56.18681z"/></g></g></svg>