<svg xmlns="http://www.w3.org/2000/svg" width="400" height="400" fill-rule="evenodd"><path fill="#6282a1" d="M302.4 87.637c-.77.196-2.66.533-4.2.75-7.41 1.043-7.716 1.904-3.583 10.061.816 1.61 1.888 4.746 4.441 12.994.526 1.699.546 2.203.117 3-.283.527-.653 1.588-.822 2.358s-.66 2.84-1.091 4.6-.903 4.19-1.05 5.4a114 114 0 0 1-.84 5.344c-.314 1.729-.572 3.92-.572 4.867 0 2.454-.298 3.071-1.24 2.568-.418-.224-.76-.643-.76-.93s-.435-1.316-.966-2.286-3.519-6.798-6.639-12.951-6.171-11.914-6.782-12.8-1.927-2.873-2.927-4.414c-3.501-5.397-7.637-8.948-9.793-8.407-1.854.465-18.361 8.736-21.493 10.768-1.76 1.143-4.035 2.508-5.056 3.035-2.962 1.529-3.344 3.945-.983 6.212.461.443 1.316 1.433 1.898 2.2s1.393 1.756 1.8 2.198 1.457 1.702 2.333 2.8 1.775 2.193 2 2.434 1.128 1.312 2.008 2.38 2.427 2.852 3.437 3.963 2.428 3.023 3.151 4.249c1.254 2.127 3.832 3.985 5.512 3.973.275-.001.5.143.5.321 0 1.777 6.256 1.337 8.228-.577 1.803-1.751 1.81-1.746 4.503 3.653 4.842 9.708 4.598 8.947 5.657 17.6.915 7.476.587 7.098 6.472 7.449 9.03.539 13.782 2.212 19.711 6.941 4.177 3.331 4.885 3.143 7.529-1.994a108 108 0 0 1 2.887-5.2c.795-1.318 1.541-2.846 1.659-3.396s.672-2.8 1.231-5l1.321-5.4c.424-1.953 1.401-4.067 1.729-3.74.405.405.332 15.516-.078 15.96-.437.474-2.863 7.188-3.138 8.685-.112.608-.362 1.203-.557 1.324s-.354.509-.354.865-.708 2.099-1.573 3.876c-1.79 3.673-1.786 4.58.023 6.668 3.266 3.766 5.932 16.574 4.199 20.163a93 93 0 0 0-1.324 2.893c-1.748 4.027-5.202 9.622-7.623 12.347l-2.382 2.741c-.704.826-3.314 3.665-5.8 6.31s-4.579 4.963-4.651 5.151-1.871 1.826-4 3.641l-4.869 4.183c-.911.805-12.611 10.741-17.46 14.827l-3.008 2.6a98 98 0 0 1-2.956 2.506l-3.367 2.832-2.765 2.4-1.8 1.581c-1.575 1.465-17.486 15.006-18.544 15.783-1.917 1.407-1.682 2.081 2.721 7.804l9.465 12.4 5.716 7.4c.138.11 2.025 2.54 4.193 5.4l4.202 5.4c1.015.777.63 1.648-1.52 3.441-1.253 1.044-2.457 2.092-2.677 2.329s-2.11 1.865-4.2 3.618-4.52 3.856-5.4 4.673c-4.297 3.988-3.781 4.086-8.051-1.519l-8.128-10.602-3-3.826c-.516-.596-.598-.701-3.811-4.916-3.399-4.46-8.73-11.176-9.413-11.858-1.003-1.003-1.173-.915-5.583 2.86l-2.993 2.6c-.362.33-1.729 1.49-3.039 2.579s-2.672 2.258-3.027 2.6-1.512 1.341-2.572 2.221l-3.754 3.178-2.572 2.2-5.208 4.422-6.42 5.4-9.229 7.747c-.66.59-2.28 1.968-3.6 3.063s-2.49 2.1-2.6 2.233c-.247.301-3.205 2.819-5.822 4.957-1.667 1.361-2.939 2.446-5.626 4.8-.251.22-2.935 2.47-5.964 5l-7.767 6.6-4.041 3.462-2.78 2.335-2.966 2.538-2.41 2.065c-.593.535-4.928 4.211-6.4 5.428a138 138 0 0 0-2.8 2.409l-2.624 2.26c-3.614 2.977-7.821 6.666-7.933 6.958-.317.819.621.175 3.289-2.261 1.035-.944 6.624-5.72 8.421-7.194 1.072-.88 2.236-1.884 2.586-2.231s1.792-1.58 3.204-2.739l3.041-2.569c.261-.253 1.344-1.181 2.408-2.061l8.389-7.136c.262-.255 1.351-1.184 2.42-2.064l6.159-5.209 9.216-7.759 5.4-4.6c.22-.248.902-.838 1.516-1.312s2.145-1.757 3.4-2.852l5.684-4.886 3.6-3.148c.11-.14 1.01-.877 2-1.637 1.696-1.303 8.475-6.977 11.638-9.741a193 193 0 0 1 3.2-2.718l2.762-2.338c.55-.482 1.792-1.534 2.759-2.338l2.2-1.862a283 283 0 0 1 3.027-2.6l3.231-2.8a41 41 0 0 1 1.628-1.4l3.26-2.724c2.6-2.195 2.3-2.282 5.294 1.524.866 1.1 1.67 2.09 1.788 2.2s2.185 2.81 4.593 6l4.623 6c.135.11 1.753 2.18 3.597 4.6l3.608 4.6c.14.11 1.838 2.315 3.773 4.9 4.242 5.669 4.208 5.661 8.245 2.016l3.72-3.3c5.883-4.856 11.454-9.853 11.454-10.273 0-.474-8.15-11.55-9.471-12.871-.291-.291-.529-.653-.529-.805s-.412-.723-.916-1.271-2.342-2.886-4.085-5.196l-3.474-4.6c-.169-.22-.85-1.025-1.516-1.789S246 301.709 246 301.572s-.382-.682-.849-1.211-2.117-2.647-3.667-4.707l-2.817-3.746 1.767-1.656c.971-.911 2.617-2.338 3.656-3.173s2.12-1.738 2.4-2.01 2.31-2.001 4.51-3.844 5.003-4.267 6.23-5.387 3.109-2.758 4.182-3.638c2.169-1.777 13.473-11.436 13.788-11.781.11-.12 1.098-.939 2.195-1.819s2.277-1.87 2.62-2.2 1.606-1.437 2.805-2.46l8.377-7.145c11.311-9.644 23.461-23.428 26.967-30.595 2.808-5.74 3.036-6.527 3.036-10.484 0-5.864-2.165-13.345-4.643-16.043-1.67-1.818-1.721-3.015-.237-5.555.616-1.055 1.509-3.088 1.986-4.518s1.518-4.4 2.316-6.6c1.915-5.284 2.113-6.816 1.867-14.505-.272-8.533-1.508-9.929-2.849-3.218-.493 2.47-1.294 5.592-1.673 6.523-.179.44-.523 1.813-.764 3.051-.44 2.253-.705 2.865-3.188 7.349l-2.271 4.158c-1.851 3.453-2.376 3.577-5.2 1.221-2.305-1.923-8.216-5.579-9.02-5.579a1.6 1.6 0 0 1-.944-.352c-.741-.687-6.841-1.79-11.153-2.017l-4.372-.231-.328-1.2c-.18-.66-.6-3.18-.932-5.6-.962-7.006-1.212-8.35-1.712-9.2-.259-.44-1.57-3.136-2.914-5.99-3.784-8.039-4.428-8.615-6.715-6.01-1.487 1.693-4.494 1.966-7.142.647a119 119 0 0 0-3.155-1.5c-1.225-.557-1.969-1.308-2.922-2.947-.703-1.21-2.124-3.112-3.157-4.226a100 100 0 0 1-3.478-3.99c-.88-1.081-2.155-2.6-2.834-3.375s-2.094-2.489-3.145-3.809-2.701-3.237-3.666-4.26c-2.611-2.766-2.321-4.39 1.115-6.241 2.461-1.325 2.997-1.65 4.538-2.748.656-.468 2.092-1.332 3.192-1.922l2.6-1.416c.33-.189 2.31-1.155 4.4-2.146l7.215-3.434c4.991-2.386 5.225-2.337 9.34 1.988 1.895 1.991 3.445 3.78 3.445 3.976s.954 1.761 2.12 3.479 3.371 5.644 4.9 8.724 2.901 5.692 3.048 5.804.392.697.544 1.3.435 1.096.631 1.096.357.268.357.595.768 1.992 1.706 3.7 2.423 4.587 3.3 6.398c2.106 4.352 3.776 4.928 3.785 1.307.002-.77.267-2.93.588-4.8l1.233-7.6c.357-2.31.905-5.076 1.218-6.146s.57-2.175.57-2.454.269-1.024.598-1.654c.707-1.357.772-3.258.163-4.82-.467-1.198-1.335-4.113-1.995-6.695-.352-1.379-2.917-7.454-4.055-9.604-1.958-3.702.242-5.827 6.035-5.827.488 0 2.275-.287 3.971-.638 2.578-.533 3.673-.563 6.683-.186 1.98.248 6.66.631 10.4.851 8.134.478 17.102 1.342 17.687 1.703.231.143 1.566.441 2.967.663 2.279.36 4.801.841 10.295 1.961 2.822.575 3.16 1.905 3.519 13.819.271 9.026.38 8.109-1.845 15.594-.453 1.522-.823 3.087-.823 3.477s-.18.82-.4.956-.4.648-.4 1.137c0 1.29-1.404 5.088-2.867 7.756l-2.593 4.707-1.603 3c-.152.33-1.055 1.892-2.007 3.472-2.311 3.836-2.23 4.673.343 3.575l3.127-1.29c4.426-1.779 9.47-6.657 15.881-15.357l10.199-14.044c.366-.574.909-1.294 1.207-1.6.844-.865 4.356-7.094 6.779-12.025 1.092-2.221 2.91-3.367 4.483-2.826a25 25 0 0 0 2.546.693c.713.145 1.399.43 1.524.633s.644.369 1.153.369c.865 0 5.503 1.789 7.89 3.042 1.165.612 2.338.735 2.338.245 0-.172-.855-.558-1.9-.858s-2.081-.685-2.303-.856c-.439-.338-3.282-1.42-5.197-1.977-.66-.192-2.263-.72-3.562-1.173-4.5-1.568-5.783-.89-8.661 4.577-3.784 7.189-4.478 8.348-7.267 12.145l-9.209 12.558c-3.775 5.152-7.13 9.298-8.372 10.347l-3.967 3.35c-1.86 1.572-6.938 3.758-7.477 3.218-.149-.148.063-.843.47-1.544 4.951-8.525 8.795-16.047 9.34-18.274a176 176 0 0 1 1.072-4.1l2.302-8.5c.705-2.704.08-21.101-.778-22.904-.767-1.612-1.13-1.743-8.491-3.06-2.09-.374-4.88-.937-6.2-1.252-3.027-.721-12.372-1.78-15.8-1.791-1.43-.005-5.03-.272-8-.593-5.957-.644-11.445-.71-13.6-.163m-.082 8.756c-4.117.518-4.118.52-2.486 6.21 2.951 10.291 3.007 11.29 1.003 17.997-.46 1.54-.919 3.52-1.019 4.4s-.374 2.77-.607 4.2l-.802 5.4-1.907 13c-.475 2.847-1.718 2.728-2.912-.279-.924-2.327-11.082-22.917-12.788-25.921l-2.307-4.2c-2.615-4.863-4.636-8.196-6.03-9.946-1.932-2.423-2.832-2.23-12.678 2.729-14.44 7.274-15.874 8.377-14.433 11.097.648 1.223 4.76 6.418 9.259 11.698.666.782 1.858 2.233 2.647 3.225 1.39 1.744 4.099 3.448 5.742 3.61 2.948.291 3.775.002 5.83-2.042 1.122-1.117 2.26-1.945 2.53-1.842.888.341 5.255 8.17 7.962 14.272 2.01 4.531 2.396 5.682 2.816 8.399l.465 3 2.198.287 4.199.49c4.558.463 6.143.758 8.923 1.658 3.035.983 6.841 2.919 10.272 5.224 4.082 2.744 5.539.75 8.075-11.059.118-.55.639-2.44 1.157-4.2 1.396-4.739 1.778-7.934 1.411-11.8-.289-3.044-.084-4.66.473-3.735 5.735 9.525 7.829 24.343 4.664 32.989-2.412 6.588-2.755 7.77-2.765 9.508-.007 1.237.268 2.131.923 3 5.338 7.078 9.12 23.908 6.508 28.959-.353.682-.641 1.477-.641 1.768 0 1.429-3.779 10.078-6.422 14.696-2.087 3.649-2.798 4.361-13.189 13.215l-6.97 6c-1.38 1.21-3.733 3.19-5.229 4.4l-3.159 2.6c-1.235 1.124-3.867 3.378-5.606 4.8-1.549 1.266-10.924 9.194-17.432 14.742L266.4 278l-3.593 3.072-2.007 1.736-4.161 3.529-9.139 7.943c-1.718 1.543-2.574.139 10.075 16.52l7.534 9.882c5.79 7.666 5.302 7.571 11.485 2.242l5.406-4.632 4-3.447 3.757-3.228 2.649-2.217 5.214-4.4 6.79-5.8 8.19-7 6.76-5.825c1.122-1.004 2.601-2.264 3.287-2.8s2.685-2.235 4.443-3.775l6.31-5.4 6.157-5.225 4.209-3.6L346.8 263l2.834-2.404 6.812-5.8 6.6-5.619 4.154-3.522 6.542-5.577 6.834-5.878 11.789-10.033c.53-.422 1.994-1.694 3.253-2.827s2.759-2.369 3.335-2.746l1.047-.686V117.735l-.9-.459c-.752-.383-7.059-2.915-12.7-5.099-.77-.298-2.249-.55-3.287-.559-2.166-.021-1.39-.883-9.519 10.582-12.828 18.092-17.614 23.84-22.794 27.377-2.406 1.642-4.99 3.09-14.8 8.288-3.401 1.803-2.918.07 2.498-8.961 4.73-7.887 7.924-13.426 8.251-14.304.081-.22.387-.94.679-1.6 1.019-2.302 2.519-6.995 3.352-10.485l1.229-4.961c.426-1.575.533-13.584.135-15.07-.287-1.072-2.416-2.084-4.381-2.084-1.359 0-6.568-.95-8.763-1.599-1.673-.494-6.251-1.084-12.6-1.624l-7.2-.617c-4.32-.376-14.425-.477-16.882-.167M234.657 129c-.33.33-.861.6-1.179.6s-.804.27-1.078.6-.665.6-.87.6c-.883 0-7.147 4.504-9.53 6.852-2.279 2.246-3.86 4.227-9.853 12.348l-1.638 2.2c-3.283 4.247-6.509 10.349-6.509 12.315 0 2.579.41 2.939 3.684 3.237 2.949.268 5.199.833 8.116 2.037 3.233 1.335 3.888 1.7 8.102 4.511 1.402.935 2.729 1.7 2.949 1.7.943 0 7.428 7.112 8.754 9.6.762 1.43 1.61 2.96 1.884 3.4s.612 1.115.751 1.5.412.7.607.7.353.193.353.428.51 1.18 1.134 2.1 1.413 2.212 1.753 2.872c3.873 7.516 3.78 7.438 6.212 5.248.825-.744 2.181-1.689 3.011-2.1l4.4-2.191c2.74-1.368 4.544-1.983 8.009-2.729 2.241-.483 2.533-1.16 2.823-6.556.624-11.6.341-16.603-1.342-23.778-.22-.938-.4-2.215-.4-2.838 0-2.8-2.049-3.051-5.596-.687l-2.595 1.73-2.405-1.814c-3.113-2.349-3.784-3.198-3.795-4.802-.017-2.539-1.245-7.3-2.267-8.792-.562-.82-1.184-1.851-1.381-2.291a12 12 0 0 0-.753-1.4c-.217-.33-1.942-3.21-3.833-6.4-5.499-9.275-5.951-9.767-7.518-8.2m8.268 10.6c.156.33.64 1.14 1.075 1.8s.911 1.47 1.056 1.8.485.87.753 1.2c1.542 1.898 2.77 4.954 3.455 8.6l.938 4.848c.103.466 1.225 1.624 2.493 2.573s2.395 1.848 2.505 1.998c.602.822 1.928.718 3.22-.252.759-.57 1.74-1.2 2.18-1.401a11 11 0 0 0 1.477-.848c1.102-.789 2.184.532 2.458 3.001.127 1.144.517 3.431.866 5.081 1.987 9.388.775 26.4-1.881 26.4-1.221 0-6.067 1.274-6.72 1.767-.33.249-1.86 1.068-3.4 1.821s-3.679 2.053-4.752 2.89c-2.63 2.05-2.646 2.043-4.828-2.178-1.052-2.035-2.432-4.474-3.067-5.42s-1.153-1.798-1.153-1.894-.523-1.032-1.162-2.08a114 114 0 0 1-2.3-3.996c-2.454-4.506-12.341-13.31-14.947-13.31-.215 0-.391-.156-.391-.346 0-.371-4.648-2.549-7.359-3.448-.902-.299-2.901-.667-4.441-.817-4.066-.396-6.138-2.738-4.254-4.809.19-.209 1.011-1.61 1.825-3.113s2.233-3.774 3.154-5.045l2.275-3.197c.33-.487.824-1.187 1.098-1.555l3.125-4.27c5.297-7.256 9.9-11.236 17.542-15.167l2.764-1.422 3.057 5.095zm-8.863-.597c-2.305 1.073-9.055 7.462-10.983 10.397a82 82 0 0 1-2.24 3.2c-7.617 10.26-8.761 13.8-4.458 13.8.824 0 11.211 6.435 14.129 8.754 4.843 3.848 6.911 6.538 11.229 14.599 2.028 3.786 3.101 4.011 7.461 1.564 2.549-1.43 10.081-4.517 11.023-4.517.509 0 1.412-.185 2.007-.412l1.083-.411-.212-8.289c-.312-12.189-1.015-13.969-4.797-12.138-2.486 1.203-3.007 1.094-5.704-1.191-4.63-3.925-5.765-5.159-5.963-6.482l-.658-4.477c-.423-2.893-.806-3.908-2.779-7.352l-2.34-4.155c-2.401-4.287-3.131-4.597-6.798-2.89m-68.76 30.591-1.298.792-.102 38.107-.102 38.107-3.189.118c-3.198.119-4.611.707-4.611 1.92 0 .451 5.021 10.982 5.989 12.562.203.33.939 1.77 1.637 3.2l2.243 4.6c4.025 8.254 3.808 8.4 12.067-8.152 7.013-14.056 7-13.899 1.254-14.129l-2.99-.119-.2-37.935-.2-37.934-1.122-.966c-1.535-1.319-7.319-1.425-9.376-.171m9.4 38.577c.118 43.865-.415 39.334 4.646 39.514 3.14.111 3.256.149 3.354 1.115.143 1.405-11.502 24.55-12.443 24.732-1.201.231-1.634-.477-7.367-12.046-7.443-15.018-7.241-13.886-2.478-13.886 4.886 0 4.386 4.439 4.386-38.949l.492-38.183c.345-.345 1.813-.459 4.9-.38l4.408.112zm34.589-22.568c-.649.881-1.816 3.266-2.594 5.3-1.313 3.429-1.72 4.733-3.34 10.697l-1.177 4.146c-1.017 3.412-.822 22.149.266 25.616 2.534 8.072 5.824 11.588 12.954 13.846a105 105 0 0 1 3.108 1.049c.975.351 3.33.543 6.656.543 7.565 0 8.881-.746 15.166-8.6 2.112-2.64 5.238-6.24 6.947-8 3.974-4.095 3.97-3.405.083-12.514-.308-.722-.56-1.505-.56-1.739s-.261-.993-.579-1.687-.936-2.34-1.371-3.66c-1.306-3.958-2.38-5.643-6.358-9.98-2.273-2.478-10.333-8.62-11.312-8.62-.209 0-.38-.148-.38-.329 0-.404-2.889-1.833-11.2-5.543-1.21-.54-2.678-1.24-3.262-1.555-1.524-.823-1.738-.75-3.047 1.03m3.683-.037a161 161 0 0 0 3.626 1.635c1.1.479 3.094 1.394 4.432 2.035s2.642 1.164 2.9 1.164.468.18.468.4.212.4.471.4c.52 0 4.85 2.823 5.062 3.3a.57.57 0 0 0 .48.3c1.433 0 7.938 5.927 10.755 9.8 1.623 2.23 2.077 3.166 3.274 6.736.454 1.355 1.058 3.004 1.343 3.664a55 55 0 0 1 1.2 3.2c.375 1.1.92 2.54 1.212 3.2 2.26 5.121 2.377 4.485-1.597 8.688-1.54 1.629-3.16 3.401-3.601 3.937l-4.798 5.963c-4.136 5.239-7.167 6.607-13.713 6.191-10.882-.692-17.095-4.129-19.97-11.046-2.397-5.768-2.518-6.579-2.518-16.933 0-9.737-.016-9.593 1.786-15.8l1.219-4.4c1.478-5.521 3.201-9.898 4.764-12.1.929-1.308 1.1-1.325 3.205-.334m3.098 5.747c-1.098 1.323-3.109 7.017-5.111 14.466-.864 3.219-.961 4.387-.961 11.626 0 15.229 1.325 17.891 10.152 20.4 3.632 1.033 11.048.123 11.048-1.354 0-.181.315-.701.7-1.155l3.3-3.961c1.43-1.724 3.32-3.868 4.2-4.764 5.707-5.809 5.72-5.872 2.847-13.434-2.088-5.495-5.18-10.017-8.75-12.796-.934-.726-1.787-1.415-1.897-1.531s-1.19-.863-2.4-1.661c-8.173-5.391-12.062-7.12-13.128-5.836m181.569 32.199-14.6 12.421-15.98 13.6-3.6 3.092c-.379.349-8.925 7.662-13.661 11.691l-2.609 2.252c-.775.678-2.301 1.952-3.39 2.832s-2.885 2.421-3.991 3.425-2.526 2.216-3.157 2.695-1.998 1.637-3.038 2.575-2.769 2.425-3.843 3.305-2.588 2.156-3.363 2.836l-2.581 2.2c-.644.53-2.534 2.145-4.2 3.589l-4.194 3.6a346 346 0 0 0-6.629 5.727c-.768.686-2.208 1.907-3.2 2.713s-2.345 1.947-3.005 2.537-1.999 1.731-2.975 2.535-2.064 1.733-2.418 2.063-1.715 1.496-3.025 2.59l-3.582 3.055c-.993.881-13.666 11.708-16.4 14.011l-4 3.42-4.362 3.735-4 3.418L238 359.749l-3.587 3.051-4 3.467a55 55 0 0 1-2.613 2.191c-.66.508-1.38 1.121-1.6 1.363s-1.48 1.326-2.8 2.409-2.58 2.164-2.8 2.402-2.11 1.857-4.2 3.6l-4 3.388c-.11.121-2 1.738-4.2 3.594l-4.2 3.601c-.11.125-1.37 1.189-2.8 2.363s-2.69 2.246-2.8 2.379-1.278 1.143-2.597 2.243l-3.1 2.589c-.386.324-.703.843-.703 1.155 0 .322.825-.189 1.92-1.189 1.056-.965 2.451-2.188 3.1-2.718a108 108 0 0 0 2.794-2.4 139 139 0 0 1 3.569-3.037c1.901-1.556 4.501-3.783 5.837-5 .68-.619 3.382-2.919 6.18-5.26l1.8-1.539c.11-.111 1.91-1.631 4-3.378l4.437-3.8c.35-.343 1.512-1.343 2.581-2.223 2.306-1.898 5.299-4.465 5.979-5.127.266-.26 1.362-1.193 2.435-2.073 1.795-1.473 4.549-3.837 5.593-4.8.238-.22 1.312-1.12 2.387-2s2.681-2.247 3.571-3.037l2.617-2.265 4.2-3.574 4.366-3.735 6.629-5.741c.768-.686 2.208-1.907 3.2-2.713s2.282-1.885 2.865-2.4 1.923-1.655 2.978-2.535 2.205-1.87 2.556-2.2 1.441-1.257 2.422-2.059 2.38-1.999 3.108-2.658a121 121 0 0 1 3.185-2.74c2.797-2.318 13.462-11.439 13.691-11.708.11-.129 1.033-.904 2.051-1.722 2.866-2.301 3.942-3.214 5.322-4.513.701-.66 2.164-1.914 3.251-2.786s2.066-1.698 2.176-1.833 2-1.747 4.2-3.581l4.2-3.578c.11-.134 1.907-1.678 3.993-3.432l5.2-4.457a56 56 0 0 1 2.607-2.196 52 52 0 0 0 2.4-2.002c1.616-1.447 2.545-2.244 4.818-4.135a232 232 0 0 0 4.19-3.6l7.981-6.861c.765-.627 1.679-1.409 2.032-1.739s1.079-.96 1.612-1.4l9.367-7.898 8.6-7.352 4-3.428 4.176-3.55a138 138 0 0 0 2.8-2.409l2.624-2.26c2.071-1.706 7.719-6.565 8.261-7.107.311-.311 1.369-1.143 2.352-1.848 1.636-1.175 2.243-1.966 1.487-1.936-.165.006-1.092.681-2.059 1.5m.755 89.003c-.548.503-3.269 2.825-6.047 5.16L379 329l-3.4 2.859-1.845 1.538c-1.68 1.52-5.666 4.94-6.53 5.603-.916.703-2.367 1.933-3.778 3.202-.246.221-2.247 1.922-4.447 3.78l-4.2 3.598c-.11.121-1.91 1.65-4 3.399l-4.4 3.712c-.33.293-1.05.905-1.6 1.359l-5.368 4.55c-.48.44-1.74 1.52-2.8 2.4l-2.818 2.4c-.491.44-1.329 1.16-1.862 1.6l-3.552 3-3.557 3c-1.017.835-3.637 3.066-7.043 6l-3.4 2.855c-.77.623-1.49 1.23-1.6 1.349s-1.64 1.448-3.4 2.954l-5.561 4.79c-1.298 1.128-2.751 2.322-3.228 2.652s-1.305 1.024-1.839 1.542-1.377 1.214-1.872 1.546-.9.763-.9.958c0 .688.858.34 1.923-.778.96-1.009 8.553-7.523 12.416-10.651 1.568-1.27 3.055-2.528 6.49-5.489l9.737-8.339 3.034-2.589 6.367-5.345 3.041-2.594c.261-.253 1.349-1.181 2.419-2.061l4.759-4.028 3.976-3.4 4.1-3.472 5.876-5 4.1-3.489 4.362-3.735 4.2-3.583 6.219-5.293c.242-.22 1.312-1.12 2.378-2l9.371-7.955 8.332-6.946c.876-.575 1.208-1.299.596-1.299-.167 0-.752.412-1.3.915m-179.005 7.573c-.875.708-3.931 3.281-6.791 5.718l-24.2 20.564-7.4 6.276-9.4 7.948-4 3.399c-.26.282-8.645 7.557-10.176 8.83-.647.537-1.907 1.624-2.8 2.414L152 377.502c-7.987 6.617-25.6 21.855-25.6 22.148 0 .197 13.107.35 30 .35l30-.31c0-.17 1.379-1.475 3.065-2.9l6.514-5.59 5.601-4.8 2.586-2.2c.239-.22 1.604-1.389 3.034-2.598l2.8-2.421c.248-.278 7.927-6.809 10.56-8.981l2.789-2.342 2.803-2.4 2.4-2.083c.247-.234 3.148-2.734 6.448-5.555l7.886-6.75c2.645-2.271 2.805-1.808-3.352-9.703L230.688 330l-3.584-4.6c-.181-.22-1.423-1.795-2.761-3.5-2.775-3.537-2.806-3.549-4.952-1.812m173.743 15.439-6.8 5.844c-1.32 1.089-5.628 4.75-6.153 5.229-.242.22-1.309 1.12-2.372 2l-3.371 2.853-8.434 7.2L338 382.537c-.55.486-2.08 1.779-3.4 2.873s-2.58 2.191-2.8 2.436-2.689 2.348-5.488 4.673l-6.196 5.253c-.609.566-1.225 1.028-1.369 1.028s-.365.27-.492.6c-.203.531 4.489.6 40.758.6H400v-34.8l-.5-34.773c-.275.014-3.14 2.309-6.366 5.1m-167.461 3.994c1.03 1.274 1.93 2.52 2 2.767.119.423-3.212 3.619-9.5 9.112l-9.973 8.781-6.229 5.462c-14.096 12.155-13.437 11.185-10.071 14.795 3.28 3.518 3.577 3.202-4.5 4.797l-6.2 1.243c-.99.205-2.52.472-3.4.593s-1.788.37-2.018.555-.771.333-1.2.329-1.547.117-2.482.271c-1.279.21-1.7.149-1.7-.246 0-.594 1.871-6.239 2.393-7.222.188-.354.997-2.604 1.798-5s1.621-4.718 1.822-5.158.706-1.692 1.122-2.782c1-2.62 1.138-2.614 3.467.159 2.686 3.197 3.156 3.165 7.229-.483l11.169-9.846 8.6-7.651c.11-.123.69-.601 1.289-1.06s2.4-2.003 4-3.429c10.987-9.789 9.782-9.207 12.384-5.987"/><path fill="#0a090a" d="M303.2 88.217c-1.21.278-2.727.523-3.371.544-6.298.208-8.319 2.084-6.318 5.866 1.138 2.15 3.703 8.225 4.055 9.604.66 2.582 1.528 5.497 1.995 6.695.609 1.562.544 3.463-.163 4.82-.329.63-.598 1.374-.598 1.654s-.256 1.384-.57 2.454-.861 3.836-1.218 6.146l-1.233 7.6c-.321 1.87-.586 4.03-.588 4.8-.009 3.621-1.679 3.045-3.785-1.307-.877-1.811-2.362-4.69-3.3-6.398s-1.706-3.373-1.706-3.7-.16-.595-.357-.595-.48-.493-.631-1.096-.396-1.188-.544-1.3-1.519-2.724-3.048-5.804-3.734-7.006-4.9-8.724-2.12-3.284-2.12-3.479-1.55-1.985-3.445-3.976c-4.115-4.325-4.349-4.374-9.34-1.988l-7.215 3.434-4.4 2.146c-.33.189-1.5.826-2.6 1.416s-2.536 1.454-3.192 1.922c-1.541 1.098-2.077 1.423-4.538 2.748-3.436 1.851-3.726 3.475-1.115 6.241.965 1.023 2.615 2.94 3.666 4.26s2.466 3.034 3.145 3.809 1.954 2.294 2.834 3.375a100 100 0 0 0 3.478 3.99c1.033 1.114 2.454 3.016 3.157 4.226.953 1.639 1.697 2.39 2.922 2.947a119 119 0 0 1 3.155 1.5c2.648 1.319 5.655 1.046 7.142-.647 2.287-2.605 2.931-2.029 6.715 6.01l2.914 5.99c.5.85.75 2.194 1.712 9.2.332 2.42.752 4.94.932 5.6l.328 1.2 4.372.231c4.312.227 10.412 1.33 11.153 2.017a1.6 1.6 0 0 0 .944.352c.804 0 6.715 3.656 9.02 5.579 2.824 2.356 3.349 2.232 5.2-1.221l2.271-4.158c2.483-4.484 2.748-5.096 3.188-7.349.241-1.238.585-2.611.764-3.051.379-.931 1.18-4.053 1.673-6.523 1.341-6.711 2.577-5.315 2.849 3.218.246 7.689.048 9.221-1.867 14.505l-2.316 6.6c-.477 1.43-1.37 3.463-1.986 4.518-1.484 2.54-1.433 3.737.237 5.555 2.478 2.698 4.643 10.179 4.643 16.043 0 3.957-.228 4.744-3.036 10.484-3.506 7.167-15.656 20.951-26.967 30.595l-8.377 7.145-2.805 2.46c-.343.33-1.522 1.32-2.62 2.2s-2.085 1.699-2.195 1.819c-.315.345-11.619 10.004-13.788 11.781-1.073.88-2.956 2.517-4.182 3.638s-4.03 3.545-6.23 5.387l-4.51 3.844c-.28.272-1.36 1.176-2.4 2.01s-2.685 2.262-3.656 3.173l-1.767 1.656 2.817 3.746c1.55 2.06 3.2 4.179 3.667 4.707s.849 1.074.849 1.211.544.875 1.209 1.639l1.516 1.789 3.474 4.6c1.743 2.31 3.581 4.648 4.085 5.196s.916 1.12.916 1.271.238.514.529.805c1.321 1.321 9.471 12.397 9.471 12.871 0 .42-5.571 5.417-11.454 10.273-.41.339-2.084 1.824-3.72 3.3-4.037 3.645-4.003 3.653-8.245-2.016l-3.773-4.9c-.141-.11-1.764-2.18-3.608-4.6l-3.597-4.6c-.134-.11-2.214-2.81-4.623-6l-4.593-6c-.118-.11-.922-1.1-1.788-2.2-2.994-3.806-2.694-3.719-5.294-1.524l-3.26 2.724a41 41 0 0 0-1.628 1.4c-.354.33-1.809 1.59-3.231 2.8l-3.027 2.6c-.242.22-1.232 1.058-2.2 1.862L200.4 325.2c-.55.482-1.793 1.534-2.762 2.338l-3.2 2.718c-3.163 2.764-9.942 8.438-11.638 9.741-.99.76-1.89 1.497-2 1.637s-1.73 1.557-3.6 3.148l-5.684 4.886c-1.255 1.095-2.785 2.378-3.4 2.852s-1.296 1.064-1.516 1.312-2.65 2.318-5.4 4.6l-9.216 7.759-6.159 5.209c-1.069.88-2.158 1.809-2.42 2.064-.545.532-5.524 4.767-8.389 7.136-1.064.88-2.147 1.808-2.408 2.061s-1.629 1.41-3.041 2.569-2.854 2.392-3.204 2.739-1.514 1.351-2.586 2.231c-2.422 1.988-7.574 6.418-9.177 7.893-.66.607-1.335 1.104-1.5 1.105s-.3.182-.3.402c0 .251 2.533.4 6.8.4 3.74 0 6.8-.158 6.8-.35 0-.293 17.613-15.531 25.6-22.148.55-.456 1.731-1.475 2.624-2.265l2.8-2.414c1.531-1.273 9.916-8.548 10.176-8.83.11-.119 1.91-1.649 4-3.399l9.4-7.948 7.4-6.276 24.2-20.564c9.847-8.391 8.56-7.963 11.743-3.906l2.761 3.5c.181.22 1.793 2.29 3.584 4.6l8.846 11.367c6.157 7.895 5.997 7.432 3.352 9.703L235 357.82l-6.448 5.555c-.246.234-1.326 1.171-2.4 2.083l-2.803 2.4c-.468.408-1.723 1.462-2.789 2.342-2.633 2.172-10.312 8.703-10.56 8.981-.11.123-1.37 1.213-2.8 2.421l-3.034 2.598c-.238.22-1.402 1.21-2.586 2.2l-5.601 4.8-6.514 5.59c-3.741 3.162-3.745 3.21-.265 3.21 2.006 0 2.8-.145 2.8-.511 0-.281.317-.776.703-1.1l3.1-2.589c1.319-1.1 2.487-2.109 2.597-2.243s1.37-1.204 2.8-2.379l2.8-2.363c.11-.124 2-1.745 4.2-3.601l4.2-3.594c.11-.121 1.91-1.646 4-3.388l4.2-3.6c.22-.238 1.48-1.318 2.8-2.402s2.58-2.167 2.8-2.409.94-.855 1.6-1.363a55 55 0 0 0 2.613-2.191c.777-.697 2.577-2.257 4-3.467l3.587-3.051 23.838-20.32 4-3.418 4.362-3.735 4-3.42 16.4-14.011c.66-.586 2.272-1.96 3.582-3.055l3.025-2.59c.354-.33 1.442-1.258 2.418-2.063s2.315-1.945 2.975-2.535 2.012-1.732 3.005-2.537 2.432-2.027 3.2-2.713a346 346 0 0 1 6.629-5.727l4.194-3.6 4.2-3.589a135 135 0 0 0 2.581-2.2c.775-.68 2.288-1.956 3.363-2.836s2.804-2.367 3.843-3.305 2.407-2.097 3.038-2.575 2.052-1.691 3.157-2.695 2.901-2.545 3.991-3.425 2.615-2.154 3.39-2.832l2.609-2.252 13.661-11.691c.254-.234 1.874-1.625 3.6-3.092l15.969-13.6 16.617-13.866c.194-.074.353-1.025.353-2.114 0-2.396-.182-2.346-4.08 1.129l-3.561 3.085c-1.326 1.061-7.351 6.191-11.783 10.033l-6.834 5.878-6.542 5.577-4.154 3.522-6.6 5.619-6.812 5.8L346.8 263l-3.034 2.575-4.209 3.6-6.157 5.225-6.31 5.4-4.443 3.775c-.686.536-2.165 1.796-3.287 2.8s-4.164 3.625-6.76 5.825l-8.19 7-6.79 5.8-5.214 4.4-2.649 2.217c-.416.34-2.107 1.792-3.757 3.228l-4 3.447-5.406 4.632c-6.183 5.329-5.695 5.424-11.485-2.242l-7.534-9.882c-12.649-16.381-11.793-14.977-10.075-16.52a419 419 0 0 1 9.139-7.943l4.161-3.529 2.007-1.736L266.4 278l3.593-3.058 17.432-14.742c1.739-1.422 4.371-3.676 5.606-4.8.241-.22 1.663-1.39 3.159-2.6s3.849-3.19 5.229-4.4l6.97-6c10.391-8.854 11.102-9.566 13.189-13.215 2.643-4.618 6.422-13.267 6.422-14.696 0-.291.288-1.086.641-1.768 2.612-5.051-1.17-21.881-6.508-28.959-.655-.869-.93-1.763-.923-3 .01-1.738.353-2.92 2.765-9.508 2.751-7.512 1.289-21.941-3.041-30.024-2.315-4.322-2.563-4.23-2.093.77.363 3.866-.02 7.068-1.414 11.8-.518 1.76-1.039 3.65-1.157 4.2-2.536 11.809-3.993 13.803-8.075 11.059-3.431-2.305-7.237-4.241-10.272-5.224-2.78-.9-4.365-1.195-8.923-1.658-1.1-.112-2.989-.333-4.199-.49l-2.198-.287-.465-3c-.42-2.717-.806-3.868-2.816-8.399-2.707-6.102-7.074-13.931-7.962-14.272-.27-.103-1.408.725-2.53 1.842-3.38 3.361-8.161 2.714-11.572-1.568a152 152 0 0 0-2.647-3.225c-11.575-13.585-11.645-13.858-4.573-17.792 6.037-3.358 17.981-9.059 19.383-9.251 2.251-.308 3.779 1.623 9.072 11.465l2.307 4.2c1.706 3.004 11.864 23.594 12.788 25.921 1.194 3.007 2.437 3.126 2.912.279.369-2.212 1.397-9.222 1.907-13l.802-5.4c.233-1.43.506-3.32.607-4.2s.559-2.86 1.019-4.4c2.005-6.711 1.945-7.769-1.012-18-1.289-4.458-1.227-5.428.377-5.9 1.505-.443 14.184-.595 18.2-.219l8 .7c6.056.506 10.981 1.139 12.6 1.619 2.184.647 7.401 1.6 8.763 1.6 1.965 0 4.094 1.012 4.381 2.084.398 1.486.291 13.495-.135 15.07-.215.795-.768 3.028-1.229 4.961-.833 3.49-2.333 8.183-3.352 10.485-.292.66-.598 1.38-.679 1.6-.327.878-3.521 6.417-8.251 14.304-5.416 9.031-5.899 10.764-2.498 8.961 9.81-5.198 12.394-6.646 14.8-8.288 5.18-3.537 9.966-9.285 22.794-27.377 8.129-11.465 7.353-10.603 9.519-10.582 1.038.009 2.517.261 3.287.559l12.495 5.024c.382.219.787.399.9.399s.205-1.98.205-4.4c0-3.762-.093-4.4-.638-4.4-.351 0-1.116-.251-1.7-.558-2.387-1.253-7.025-3.042-7.89-3.042-.509 0-1.027-.166-1.153-.369s-.811-.488-1.524-.633a25 25 0 0 1-2.546-.693c-1.573-.541-3.391.605-4.483 2.826-2.423 4.931-5.935 11.16-6.779 12.025-.298.306-.841 1.026-1.207 1.6-.757 1.189-2.87 4.099-10.199 14.044-6.411 8.7-11.455 13.578-15.881 15.357l-3.127 1.29c-2.573 1.098-2.654.261-.343-3.575.952-1.58 1.855-3.142 2.007-3.472s.873-1.68 1.603-3l2.593-4.707c1.463-2.668 2.867-6.466 2.867-7.756 0-.489.18-1.001.4-1.137s.4-.566.4-.956.37-1.955.823-3.477c2.225-7.485 2.116-6.568 1.845-15.594-.359-11.914-.697-13.244-3.519-13.819l-10.295-1.961c-1.401-.222-2.736-.52-2.967-.663-.6-.37-9.646-1.233-18.087-1.725-3.96-.231-8.404-.596-9.877-.812-3.211-.471-4.243-.439-7.123.224m-69.435 42.016c-7.642 3.931-12.245 7.911-17.542 15.167l-3.125 4.27c-.274.368-.768 1.068-1.098 1.555s-1.354 1.925-2.275 3.197-2.341 3.542-3.154 5.045-1.635 2.904-1.825 3.113c-1.884 2.071.188 4.413 4.254 4.809 1.54.15 3.539.518 4.441.817 2.711.899 7.359 3.077 7.359 3.448 0 .19.176.346.391.346 2.606 0 12.493 8.804 14.947 13.31a114 114 0 0 0 2.3 3.996c.639 1.048 1.162 1.984 1.162 2.08s.519.948 1.153 1.894 2.015 3.385 3.067 5.42c2.182 4.221 2.198 4.228 4.828 2.178 1.073-.837 3.212-2.138 4.752-2.89s3.07-1.572 3.4-1.821c.653-.493 5.499-1.767 6.72-1.767 2.656 0 3.868-17.012 1.881-26.4-.349-1.65-.739-3.937-.866-5.081-.274-2.469-1.356-3.79-2.458-3.001a11 11 0 0 1-1.477.848c-.44.201-1.421.831-2.18 1.401-1.292.97-2.618 1.074-3.22.252-.11-.15-1.237-1.049-2.505-1.998s-2.39-2.107-2.493-2.573-.525-2.648-.938-4.848c-.685-3.646-1.913-6.702-3.455-8.6-.268-.33-.607-.87-.753-1.2s-.621-1.14-1.056-1.8-.919-1.47-1.075-1.8-1.659-2.892-3.339-5.694l-3.057-5.095zm4.621 8.16c.403.215 1.517 1.79 2.474 3.5l2.34 4.155c1.973 3.444 2.356 4.459 2.779 7.352l.658 4.477c.198 1.323 1.333 2.557 5.963 6.482 2.697 2.285 3.218 2.394 5.704 1.191 3.782-1.831 4.485-.051 4.797 12.138l.212 8.289-1.083.411c-.595.227-1.498.412-2.007.412-.942 0-8.474 3.087-11.023 4.517-4.36 2.447-5.433 2.222-7.461-1.564-4.318-8.061-6.386-10.751-11.229-14.599-2.918-2.319-13.305-8.754-14.129-8.754-4.303 0-3.159-3.54 4.458-13.8a82 82 0 0 0 2.24-3.2c4.169-6.345 12.639-12.435 15.307-11.007m-73.094 32.075c-.382.382-.492 8.881-.492 38.183 0 43.388.5 38.949-4.386 38.949-4.763 0-4.965-1.132 2.478 13.886 5.733 11.569 6.166 12.277 7.367 12.046.941-.182 12.586-23.327 12.443-24.732-.098-.966-.214-1.004-3.354-1.115-5.061-.18-4.528 4.351-4.646-39.514L174.6 170.2l-4.408-.112c-3.087-.079-4.555.035-4.9.38m8.002.704c.162.016.342 17.109.4 37.986.123 44.214-.401 39.792 4.692 39.58 3.551-.149 3.865.247 2.238 2.825-.563.891-1.024 1.743-1.024 1.893 0 .321-2.907 6.254-3.206 6.544-.248.24-2.794 5.501-2.794 5.774 0 .105-.509 1.055-1.132 2.111s-1.251 2.393-1.396 2.97c-.314 1.252-1.813 1.825-2.132.814-.116-.368-2.63-5.515-5.587-11.438-6.017-12.052-5.947-11.523-1.545-11.587 4.638-.067 4.192 4.11 4.192-39.24l.38-38.024c.291-.292 4.63-.422 6.914-.208m36.475 14.728c-1.563 2.202-3.286 6.579-4.764 12.1l-1.219 4.4c-1.802 6.207-1.786 6.063-1.786 15.8 0 10.354.121 11.165 2.518 16.933 2.875 6.917 9.088 10.354 19.97 11.046 6.546.416 9.577-.952 13.713-6.191l4.798-5.963c.441-.536 2.061-2.308 3.601-3.937 3.974-4.203 3.857-3.567 1.597-8.688-.292-.66-.837-2.1-1.212-3.2a55 55 0 0 0-1.2-3.2c-.285-.66-.889-2.309-1.343-3.664-1.197-3.57-1.651-4.506-3.274-6.736-2.817-3.873-9.322-9.8-10.755-9.8a.57.57 0 0 1-.48-.3c-.212-.477-4.542-3.3-5.062-3.3-.259 0-.471-.18-.471-.4s-.211-.4-.468-.4-1.563-.524-2.9-1.164-3.332-1.556-4.432-2.035l-3.626-1.635c-2.105-.991-2.276-.974-3.205.334m10.244 5.905c1.313.553 3.423 1.655 4.687 2.449 3.021 1.896 6.648 4.292 6.9 4.556.11.116.963.805 1.897 1.531 3.57 2.779 6.662 7.301 8.75 12.796 2.873 7.562 2.86 7.625-2.847 13.434-.88.896-2.77 3.04-4.2 4.764l-3.3 3.961c-.385.454-.7.974-.7 1.155 0 1.477-7.416 2.387-11.048 1.354-8.827-2.509-10.152-5.171-10.152-20.4 0-8.624.134-9.472 2.921-18.405 2.629-8.428 3.078-8.884 7.092-7.195m178.541 121.49c-.635.493-4.317 3.598-8.184 6.9l-8.971 7.605-2.38 2c-.437.399-4.321 3.704-6.219 5.293l-4.2 3.583-4.362 3.735-4.1 3.489-5.876 5-4.1 3.472-3.976 3.4-4.759 4.028c-1.07.88-2.158 1.808-2.419 2.061s-1.629 1.421-3.041 2.594L329.6 371.8l-3.034 2.589-9.737 8.339-6.49 5.489c-6.185 5.009-13.123 11.076-13.132 11.483-.017.724 20.583.336 21.239-.4.729-.817 1.301-1.31 7.954-6.847l5.4-4.607c.22-.245 1.48-1.341 2.8-2.436l3.4-2.873c1.083-.957 16.739-14.309 28.004-23.884l8.434-7.2a208 208 0 0 1 3.371-2.853l2.372-2c.489-.446 4.667-3.998 6.219-5.287l6.882-5.872c3.236-2.772 6.071-5.041 6.3-5.041.278 0 .418-3.013.418-9 0-4.95-.066-9-.146-9s-.665.403-1.3.895M219.4 340.074l-6.111 5.434c-1.6 1.426-3.4 2.969-4 3.429s-1.179.937-1.289 1.06c-.169.191-6.037 5.411-8.6 7.651l-11.169 9.846c-4.073 3.648-4.543 3.68-7.229.483-2.329-2.773-2.467-2.779-3.467-.159-.416 1.09-.921 2.342-1.122 2.782s-1.021 2.761-1.822 5.158-1.61 4.646-1.798 5c-.522.983-2.393 6.628-2.393 7.222 0 .395.421.456 1.7.246.935-.154 2.052-.276 2.482-.271s.969-.144 1.2-.329 1.138-.435 2.018-.555 2.41-.388 3.4-.593l6.2-1.243c8.077-1.595 7.78-1.279 4.5-4.797-3.366-3.61-4.025-2.64 10.071-14.795l6.229-5.462 9.973-8.781c6.288-5.493 9.619-8.689 9.5-9.112-.272-.965-3.906-5.084-4.473-5.07-.33.009-2.04 1.294-3.8 2.856"/><path fill="#91bfe6" d="M306.1 87.076c.385.1 1.015.1 1.4 0s.07-.183-.7-.183-1.085.082-.7.183m-6.7.735c-2.117.698-.589.702 2.2.006 1.886-.471 2-.548.8-.541-.77.004-2.12.245-3 .535m17-.016 6.2.52c2.433-.05-2.289-.643-7-.88l-3.8-.192zm-23.513 1.409c-1.698 1.035-1.951 1.775-1.139 3.331.611 1.171.604.5-.012-1.146-.307-.822.923-1.837 2.872-2.371 1.648-.452 1.785-.552.792-.581-.66-.019-1.791.326-2.513.767m35.146-.655c.092.081 1.697.257 3.567.391 2.161.153 3.108.109 2.6-.121-.75-.34-6.529-.593-6.167-.27m7.872.934c.497.096 1.217.092 1.6-.008s-.025-.179-.905-.174-1.193.086-.695.182m3.895.693c.88.31 2.14.556 2.8.547q1.988-.025-3-.871c-1.385-.235-1.383-.232.2.324m4.233.771c.092.081.887.267 1.767.415 1.146.192 1.43.152 1-.141-.54-.368-3.168-.628-2.767-.274M351.2 92.4c1.436.46 2.084.46 1.8 0-.136-.22-.822-.382-1.524-.36-1.219.038-1.231.054-.276.36m-58.772 1.8c0 .22.258.85.572 1.4s.572.82.572.6-.258-.85-.572-1.4-.572-.82-.572-.6m62.196.4c.188.44.461 2.6.606 4.8l.265 4-.048-4.281c-.034-3.102-.201-4.424-.606-4.8-.47-.436-.504-.392-.217.281m-61.019 2.403c.003.218.548 1.477 1.21 2.797s1.087 1.95.943 1.4c-.305-1.166-2.16-4.783-2.153-4.197m-30.056 1.262c-.491.595-.464.622.251.255.44-.227 1.07-.512 1.4-.634.412-.153.333-.233-.251-.254-.468-.018-1.098.267-1.4.633m4.302-.159 1.8 1.059.949.565-1-1.058c-.55-.582-1.36-1.059-1.8-1.059-.772-.001-.77.016.051.493m-6.702 1.359c-.502.609-.464.622.451.146 1.341-.697 1.442-.811.716-.811-.34 0-.865.299-1.167.665m-3.681 1.601c-1.063.552-1.856 1.079-1.763 1.172s1.232-.37 2.532-1.029 2.093-1.187 1.763-1.172-1.469.478-2.532 1.029m14.502.634 2.391 2.7c.447.55.818.808.826.573.015-.48-4.057-4.973-4.506-4.973-.159 0 .421.765 1.289 1.7m-18.421 1.365c-.502.609-.464.622.451.146 1.341-.697 1.442-.811.716-.811-.34 0-.865.299-1.167.665m42.483-.411c-.017.25.231 1.06.552 1.8s.584 1.076.582.746c-.003-.739-1.088-3.177-1.134-2.546m84.846 1.065c-.703.726-1.278 1.428-1.278 1.56s.635-.394 1.411-1.17c1.449-1.449 2.904-1.638 5.589-.726q.81.277-.2-.341c-1.798-1.103-4.066-.825-5.522.677m-129.729.546c-.502.609-.464.622.451.146 1.341-.697 1.442-.811.716-.811-.34 0-.865.299-1.167.665M388.8 104.2c.55.314 1.27.572 1.6.572.347 0 .178-.242-.4-.572-.55-.314-1.27-.572-1.6-.572-.347 0-.178.242.4.572m-140 1.2c-.634.763-.039.756.976-.013.622-.47.652-.587.149-.587-.345 0-.851.27-1.125.6m143.6 0c1.315.752 1.964.76.976.013-.427-.323-1.046-.587-1.376-.586-.348.001-.18.241.4.573m-115.731 2.608c1.264 2.122 2.131 3.205 2.131 2.661 0-.261-3.24-5.069-3.416-5.069-.082 0 .496 1.084 1.285 2.408m20.561-1.554c-.016.36.233 1.26.554 2 .733 1.687.746.641.016-1.254-.297-.77-.553-1.106-.57-.746m98.194.133c.427.323.956.588 1.176.588s.051-.265-.376-.588-.957-.587-1.177-.587-.051.264.377.587m-152.494 2.326c-1.358.924-2.409 1.741-2.335 1.816.149.149 1.571-.719 3.965-2.42 2.485-1.766 1.096-1.252-1.63.604m134.949-.539c-.975 1.651-.826 2.077.178.509.463-.724.766-1.393.672-1.487s-.477.346-.85.978M398 107.6a2.9 2.9 0 0 0 1.4.366l.8-.022-.8-.344c-1.196-.514-2.195-.514-1.4 0m-99.579 3.42c-.012.451.185 1.026.437 1.278.343.343.33.765-.054 1.693-.281.679-.422 1.325-.312 1.435.695.695 1.159-2.309.574-3.719-.424-1.024-.631-1.244-.645-.687M355.6 114c0 1.393.119 2.415.264 2.27.291-.292.227-4.312-.074-4.613-.105-.105-.19.95-.19 2.343m-119.475.65c-.284.742.746 2.658 1.543 2.87q.537.144.092-.19c-.758-.569-1.368-2.045-1.116-2.701.133-.346.127-.629-.014-.629s-.367.293-.505.65m45.531 1.895c.283.63.586.928.675.661s-.142-.782-.513-1.145c-.632-.619-.642-.588-.162.484m16.376.531c-.018.482-.212.988-.432 1.124s-.391.732-.381 1.324c.016.9.118.794.624-.651.333-.95.519-1.94.413-2.2s-.207-.079-.224.403m75.09.024c-1.2 1.394-4.023 5.41-3.635 5.17.419-.259 4.595-5.87 4.369-5.87-.073 0-.403.315-.734.7m-18.017.781c-.106.616-.327 1.434-.491 1.819-.173.405-.128.7.108.7.419 0 1.109-3.102.766-3.445-.106-.106-.278.311-.383.926M239.162 119.5c2.634 3.213 3.078 3.7 3.373 3.7.168 0-.252-.585-.934-1.3s-1.536-1.789-1.899-2.387-.909-1.184-1.215-1.301-.001.462.675 1.288m43.694-.555c.283.63.586.928.675.661s-.142-.782-.513-1.145c-.632-.619-.642-.588-.162.484m13.634 3.472c-.269.864-.469 2.248-.444 3.077s.118 1.146.204.706l.59-2.931c.519-2.563.329-3.026-.35-.852m57.24.646c-.259.841-.409 1.592-.333 1.667.299.3 1.046-1.619.928-2.384-.09-.588-.255-.39-.595.717m-67.796 1.898c.586 1.191 1.142 2.091 1.235 1.999.215-.21-1.499-3.67-1.958-3.953-.189-.117.137.763.723 1.954m81.402-.061c-1.906 2.566-3.262 4.731-2.444 3.9.804-.815 4.425-6 4.191-6-.103 0-.889.945-1.747 2.1m-122.209 1.738c.684.902 1.565 1.889 1.958 2.194.86.667-.175-.66-2.043-2.618-1.139-1.194-1.138-1.187.085.424m107.595-.038-.489 2.2c-.164.68-.041.569.384-.349.344-.743.564-1.733.489-2.2-.11-.69-.183-.624-.384.349m-64.658 2.639c.436.901.864 1.567.951 1.479.229-.228-1.126-3.118-1.462-3.118-.154 0 .076.737.511 1.639m7.419-.239c-.648 3.664-.701 5.75-.072 2.8.329-1.54.542-3.16.476-3.6-.07-.456-.243-.111-.404.8m-58.813-.6c.973 1.509 2.13 2.871 2.13 2.508 0-.22-.566-1.009-1.259-1.754s-1.084-1.084-.871-.754m-5.07 1.8c-.278.335-.321.6-.098.6s.624-.27.898-.6.321-.6.098-.6-.624.27-.898.6m16.37-.1c.221.275 1.443 1.647 2.716 3.049s2.779 3.344 3.348 4.314 1.262 1.983 1.542 2.251c1.273 1.216-2.323-4.135-3.973-5.914-1.021-1.1-2.18-2.495-2.575-3.1s-.886-1.1-1.09-1.1-.195.217.032.5m114.883.9c-.454.77-.763 1.4-.687 1.4s.62-.63 1.207-1.4.896-1.4.687-1.4-.753.63-1.207 1.4m-11.199-.167c-.029.569-.172 1.152-.316 1.296-.482.482-1.718 3.506-1.337 3.27.657-.406 2.038-3.942 1.87-4.787-.127-.635-.174-.587-.217.221M228.4 132.052c-2.26 1.541-3.481 2.725-1.6 1.552l2.7-1.678c.715-.443 1.3-.877 1.3-.966 0-.381-.717-.055-2.4 1.092m60.803-.815c-.002.13.441 1.03.984 2l1.605 3.124c.34.749.7 1.28.8 1.18.26-.259-1.094-3.141-1.475-3.141-.175 0-.318-.225-.32-.5s-.36-1.04-.797-1.7-.796-1.093-.797-.963m-48.108 4.144c.592.98 1.142 1.715 1.223 1.635.214-.214-1.666-3.409-2.008-3.413-.16-.002.194.798.785 1.778m-18.502 1.261c-2.281 2.136-2.297 2.165-.352.612 1.906-1.522 3.26-2.854 2.901-2.854-.086 0-1.233 1.009-2.549 2.242m71.867.409c-.067 1.393-1.034 2.552-1.39 1.666-.149-.372-.216-.38-.238-.031-.018.267.324.676.758.909.924.494 1.399-.647 1.101-2.647l-.171-1.148zm54.439-.26c-.687 1.099-.625 1.392.133.634.348-.348.572-.812.499-1.033s-.358-.041-.632.399m8.749 1.392c-.906 1.2-1.648 2.305-1.648 2.454s.327-.158.727-.683l2.769-3.954c-.11 0-.942.982-1.848 2.183m-10.574 1.996c-.56 1.002-.895 1.82-.746 1.818.337-.004 2.136-3.267 1.92-3.482-.086-.086-.614.663-1.174 1.664m-103.134-.095 1.508 2.692c.631 1.265 1.352 1.948 1.352 1.281 0-.215-.135-.45-.3-.524s-.75-1.001-1.3-2.062-1.262-2.141-1.583-2.4-.175.197.323 1.013m-24.984.156-2.074 2.8c-2.061 2.75-1.228 2.065 1.263-1.04 1.235-1.54 2.093-2.8 1.907-2.8s-.68.468-1.096 1.04m50.032 1.546c-1.505 1.461-3.472 2.08-5.219 1.642-.672-.169-.946-.114-.779.156.75 1.213 4.109.448 6.075-1.384 1.064-.99 1.802-1.8 1.641-1.8s-.933.623-1.718 1.386m-11.212-.373c.428.323.957.587 1.177.587s.051-.264-.377-.587-.956-.588-1.176-.588-.051.265.376.588m96.624.633-3.361 2.887-3.4 2.764c-.571.384-.85.699-.619.7.388.003 4.749-3.504 7.58-6.095 1.397-1.279 1.261-1.453-.2-.256m-9.144 1.409c-.48 1.072-.47 1.103.162.484.371-.363.602-.879.513-1.145s-.392.031-.675.661m-98.456 1.504c0 .519 2.065 3.51 2.276 3.298.121-.12-.072-.51-.428-.867s-.648-.882-.648-1.17-.27-.746-.6-1.02-.6-.382-.6-.241m96.483 2.02c-1.462 2.446-1.574 3.024-.583 3.015.561-.005.589-.077.141-.36-.454-.288-.318-.745.723-2.438.705-1.146 1.219-2.146 1.143-2.223s-.718.826-1.424 2.006m-129.38-.064-2.539 3.585c-.792 1.045-1.288 1.899-1.102 1.897s.641-.496 1.011-1.1 1.506-2.222 2.524-3.597 1.704-2.493 1.527-2.485-.818.773-1.421 1.7m59.697-.668c0 .22.264.749.587 1.177s.588.596.588.376-.265-.749-.588-1.176-.587-.597-.587-.377m1.2 2.637c0 .34.299.865.665 1.167.609.502.622.464.146-.451-.697-1.341-.811-1.442-.811-.716m69.424.129c-.983.743-.677.744 1.03.003.932-.405 1.1-.586.546-.588-.44-.001-1.149.262-1.576.585M249.241 149c.039 1.561 1.095 5.075 1.125 3.746a7.9 7.9 0 0 0-.55-2.8c-.322-.74-.58-1.166-.575-.946M276 151.405c0 .113.171.518.381.9.831 1.517 1.586 3.555 1.738 4.695l.161 1.2.06-1.25c.055-1.144-1.655-5.75-2.135-5.75a.205.205 0 0 0-.205.205m44.655 2.819c-.4.968-.635 1.988-.523 2.268s.224.155.249-.292c.177-3.19 1.196-2.075 1.32 1.445l.133 3.755.083-4.276c.093-4.798-.199-5.469-1.262-2.9m-113.283 2.001c-1.24 1.884-2.169 3.512-2.062 3.618s.695-.67 1.308-1.725l1.989-3.118c1.126-1.544 1.492-2.2 1.23-2.2-.115 0-1.224 1.541-2.465 3.425m43.091.375c-.057 1.01.851 2.102 3.137 3.77 1.274.929 1.449.999.6.239l-2.273-2.05c-.591-.537-1.151-1.378-1.246-1.868-.15-.776-.178-.788-.218-.091m68.818 2.488c-.685 2.287-.56 3.046.162.985.333-.95.541-1.921.462-2.158s-.36.291-.624 1.173m-57.981-.023c-.275.111-.5.403-.5.648 0 .311.146.301.48-.033 1.353-1.353 3.501.071 3.548 2.351.05 2.421.712 3.246.744.927.042-3.043-1.928-4.839-4.272-3.893m17.175.935c-.01.77.136 1.76.325 2.2.457 1.064.457-.603 0-2.4l-.305-1.2zm-74.223 1.746c-.918 1.936-.779 5.854.209 5.854.207 0 .187-.337-.047-.774-.602-1.124-.503-3.646.196-4.986.332-.637.535-1.229.45-1.314s-.449.464-.808 1.22m53.748-.369c-1.093.727-1.532.832-2 .477-.516-.39-.526-.36-.075.218.528.674 2.799-.178 3.5-1.312.311-.503.164-.439-1.425.617M318.3 163l-.512 2.2q-.233 1.002.407-.385c.351-.762.581-1.752.512-2.2-.099-.634-.189-.548-.407.385m-38.991 2.2c0 .99.078 1.395.173.9s.096-1.305 0-1.8-.173-.09-.173.9m42.351 1.876c-.033.702-.24 1.388-.46 1.524s-.399.552-.398.924c.002.418.238.226.619-.506.339-.65.545-1.64.458-2.2-.135-.866-.168-.828-.219.258m-4.804 1.179c-.48 1.072-.47 1.103.162.484.371-.363.602-.879.513-1.145s-.392.031-.675.661m-110.956-.373c.495.096 1.305.096 1.8 0s.09-.173-.9-.173-1.395.078-.9.173m3.9.492c.44.178 1.61.437 2.6.575l1.8.25-1.8-.593c-.99-.327-2.16-.585-2.6-.575l-.8.02zm56.438 1.026c.332 1.984.564 2.304.556.767-.003-.642-.19-1.437-.415-1.767-.293-.43-.333-.146-.141 1m13.378-.962c-.021.84 1.395 2.101 2.061 1.835q.517-.21-.164-.241c-.378-.018-.956-.527-1.284-1.132-.367-.675-.603-.854-.613-.462m-114.785.998-1.231 1.035V246.4h-3.13c-3.225 0-4.87.811-4.87 2.399 0 .702 1.553 3.925 2.035 4.222.563.348.448.005-.63-1.88-1.877-3.283-1.09-4.248 3.606-4.423l3.189-.118.102-38.107.102-38.107 1.298-.792c2.907-1.772 9.384-.924 10.301 1.349.323.8.348.804.372.07.087-2.697-8.388-3.897-11.144-1.577m50.145.342c.428.342 1.058.608 1.4.59.539-.027.542-.061.024-.254-.33-.122-.96-.388-1.4-.59-.787-.362-.788-.358-.024.254m100.16 1.544c-1.304 2.104-2.014 3.478-1.797 3.478.24 0 3.115-4.88 2.964-5.031-.07-.069-.595.63-1.167 1.553M288.8 170.8c.33.213 1.05.373 1.6.354l1-.034-1-.32c-1.542-.494-2.364-.494-1.6 0m31.007 1.476c-.373 1.058-.842 2.237-1.042 2.619-.399.759-.5 1.773-.141 1.415.326-.327 2.156-5.663 1.996-5.823-.074-.075-.44.73-.813 1.789M219.709 172c.56.44 1.214.8 1.454.8s.438.135.44.3c.002.346 2.433 1.797 2.649 1.582.175-.176-2.999-2.282-3.439-2.282-.173 0-.539-.27-.813-.6s-.68-.6-.903-.6.053.36.612.8m73.491-.409c.77.164 1.907.504 2.526.754s1.339.445 1.6.433c1.041-.049-3.208-1.532-4.326-1.51-1.173.023-1.169.031.2.323m-26.238 6.609c0 3.52.062 4.906.136 3.081a92 92 0 0 0-.001-6.4c-.075-1.695-.136-.201-.135 3.319m34.778-3.098c.141.23.921.809 1.733 1.288s1.276.632 1.032.34c-.574-.687-3.104-2.176-2.765-1.628m10.462 1.614c-.419.816-1.024 1.799-1.344 2.184-.353.425-.409.7-.141.7.42 0 2.646-3.97 2.377-4.24-.071-.07-.472.539-.892 1.356M226.8 176.6c.274.33.678.6.898.6s.18-.265-.098-.6c-.274-.33-.678-.6-.898-.6s-.18.265.098.6m3.048 2.356c.854.965 1.822 1.875 2.152 2.022s-.293-.644-1.385-1.756c-2.443-2.488-2.859-2.633-.767-.266m75.565-1.299c.234.574 2.164 2.119 2.352 1.882.061-.076-.493-.653-1.231-1.282s-1.242-.898-1.121-.6m12.224.654c-.284.687-.423 1.482-.309 1.769.118.294.223.164.24-.3.018-.451.232-1.02.477-1.265s.369-.672.277-.949-.401.058-.685.745m-1.152 3.302c-.267.427-.484 1.004-.483 1.282s.275-.017.608-.655c.693-1.329.601-1.79-.125-.627m-83.514.616c.346.345.629.795.629 1s.184.371.409.371.115-.45-.246-1-.827-1-1.038-1-.099.283.246.629m-23.239 2.271c-1.096 1.222-2.132 2.799-2.132 3.245 0 .202.463-.333 1.028-1.189s1.395-1.871 1.844-2.256.648-.7.442-.7-.738.405-1.182.9m105.095.262c-1.257 1.766-1.065 3.25.686 5.282.832.966 1.739 2.274 2.015 2.908s.588 1.065.694.959c.275-.274-.663-1.972-2.04-3.695-1.676-2.096-1.918-3.309-1.024-5.116.89-1.8.786-1.906-.331-.338m-102.603-.175c.427.323 1.046.592 1.376.598s.084-.259-.546-.587c-1.459-.761-1.829-.766-.83-.011m23.377 1.551c-.001.422 1.167 2.545 2.099 3.816.385.525.7.772.7.549s-.27-.629-.6-.903-.6-.652-.6-.839-.359-.931-.799-1.651-.799-1.158-.8-.972m30.88 3.687c-.066 2.62-.234 3.388-.897 4.1-.448.481-.656.875-.462.875 1.206 0 1.71-1.552 1.576-4.85l-.135-3.35zm-47.081-1.99c1.677.88 3.8 1.755 3.8 1.566 0-.253-4.017-2.201-4.533-2.199-.257.002.073.286.733.633m-12.688 1.851c-1.091 2.42-1.621 3.938-1.44 4.12.099.098.654-1.027 1.233-2.501 1.096-2.789 1.24-3.909.207-1.619m32.497 2.99c-.005.262.182.595.416.739s.601.65.817 1.124c.623 1.368 1.426 2.689 1.939 3.195.649.638-1.418-3.291-2.385-4.534-.428-.55-.782-.786-.787-.524m-9.609.671c0 .081.765.632 1.7 1.225l1.7 1.079-1.4-1.215c-1.26-1.093-2-1.496-2-1.089m-25.123 2.791c-.262.726-.468 1.576-.458 1.89s.293-.21.628-1.167.541-1.806.458-1.89-.366.442-.628 1.167m56.923-.724c-.958.439-1.035.554-.38.568.451.01.991-.147 1.2-.348s.83-.447 1.38-.546l1-.179-1-.022c-.55-.012-1.54.225-2.2.527m57.03-.16c-.016.36.233 1.26.554 2 .733 1.687.746.641.016-1.254-.297-.77-.553-1.106-.57-.746m-84.233 1.268c2.718 1.993 7.949 8.008 9.373 10.777.31.605.627 1.037.704.96.171-.171-.545-1.522-1.937-3.659-1.405-2.157-8.113-9.006-8.794-8.978-.298.012-.004.417.654.9M257 196.8c-1.552 1.028-1.022 1.028.896 0 .82-.44 1.225-.799.898-.797s-1.134.36-1.794.797m-53.704 3.509c-.273.578-.487 1.42-.477 1.871.011.458.288.054.628-.919.689-1.966.598-2.539-.151-.952m47.304-.234c-1.094.616-3.881 3.125-3.471 3.125.182 0 .768-.467 1.301-1.038s1.6-1.373 2.37-1.783 1.22-.746 1-.749-.76.197-1.2.445m69.087.525A12 12 0 0 0 320 203l.305 1.2.008-1.4c.004-.77-.137-1.85-.313-2.4-.311-.97-.32-.965-.313.2m-75.687.422c0 .655 1.208 2.178 1.723 2.172q.48-.005.054-.3c-.233-.162-.728-.739-1.1-1.283s-.677-.809-.677-.589m-41.568 2.854c-.018.482-.212.988-.432 1.124s-.391.732-.381 1.324c.016.9.118.794.624-.651.333-.95.519-1.94.413-2.2s-.207-.079-.224.403m118.045 3c-.042 1.472-.257 2.788-.477 2.924a.94.94 0 0 0-.4.713c0 .256.279.067.619-.419.445-.635.579-1.589.477-3.389l-.142-2.505zM201.373 217.8c0 5.5.057 7.805.126 5.123a242 242 0 0 0 0-10c-.069-2.818-.125-.623-.126 4.877m117.697-5.99a34 34 0 0 1-.512 1.39c-.132.33.061.19.43-.31s.6-1.126.512-1.39-.278-.133-.43.31m-73.468.844c-.001.25.267.97.596 1.6s.598.942.6.692-.267-.97-.596-1.6-.598-.942-.6-.692m72.03 2.485c-.653 1.221-.518 1.561.209.524.352-.503.547-1.009.432-1.123s-.403.155-.641.599m-70.815.861c.014.717 1.148 2.8 1.169 2.146.008-.25-.255-.97-.584-1.6s-.592-.876-.585-.546m67.79 4.226c-.598.785-.999 1.515-.891 1.623.174.174 1.227-1.141 2.042-2.549.581-1.004-.091-.463-1.151.926m-66.576-.815c.064.822 2.309 5.154 2.338 4.513.017-.372-.129-.776-.325-.897s-.476-.701-.624-1.291c-.271-1.08-1.446-3.047-1.389-2.325m64.541 3.889c-.425.495-1.471 1.8-2.324 2.9l-1.551 2 1.681-1.8c1.71-1.831 3.403-4 3.121-4-.085 0-.502.405-.927.9m85.228.945c-1.1.831-2.09 1.63-2.2 1.777-.183.244-5.624 4.924-8 6.881-.55.453-1.731 1.47-2.624 2.26l-2.8 2.409-4.176 3.55-4 3.428-8.6 7.352-9.367 7.898c-.533.44-1.259 1.07-1.612 1.4s-1.267 1.112-2.032 1.739c-1.72 1.41-4.994 4.224-7.981 6.861l-4.19 3.6c-2.273 1.891-3.202 2.688-4.818 4.135a52 52 0 0 1-2.4 2.002c-.66.511-1.833 1.498-2.607 2.196s-3.113 2.702-5.2 4.457l-3.993 3.432c-.11.133-2 1.744-4.2 3.578l-4.2 3.581c-.11.135-1.089.96-2.176 1.833s-2.55 2.126-3.251 2.786c-1.38 1.299-2.456 2.212-5.322 4.513-1.018.818-1.941 1.593-2.051 1.722-.229.269-10.894 9.39-13.691 11.708a121 121 0 0 0-3.185 2.74c-.728.659-2.127 1.855-3.108 2.658s-2.071 1.729-2.422 2.059-1.501 1.32-2.556 2.2l-2.978 2.535c-.583.515-1.872 1.595-2.865 2.4s-2.432 2.027-3.2 2.713a418 418 0 0 1-6.629 5.741L255 346.124l-4.2 3.574c-.55.456-1.728 1.475-2.617 2.265s-2.496 2.157-3.571 3.037l-2.387 2c-1.044.963-3.798 3.327-5.593 4.8-1.073.88-2.169 1.813-2.435 2.073-.68.662-3.673 3.229-5.979 5.127-1.069.88-2.231 1.88-2.581 2.223s-2.347 2.052-4.437 3.8l-4 3.378c-.11.11-.92.803-1.8 1.539l-6.18 5.26c-1.336 1.217-3.936 3.444-5.837 5a139 139 0 0 0-3.569 3.037c-.888.79-2.146 1.87-2.797 2.4s-2 1.724-3 2.654l-1.817 1.69 51.7.01 52.429-.691c1.404-1.348 3.443-3.105 4.292-3.7.472-.33 1.92-1.524 3.218-2.652l5.561-4.79 3.4-2.954c.11-.119.83-.726 1.6-1.349a182 182 0 0 0 3.4-2.855l7.043-6 3.557-3 3.552-3c.533-.44 1.371-1.16 1.862-1.6s1.759-1.52 2.818-2.4 2.32-1.96 2.8-2.4c.802-.735 2.862-2.48 5.368-4.55l1.6-1.359c.33-.294 2.31-1.964 4.4-3.712l4-3.399c.176-.193 6.531-5.599 9.147-7.78.528-.44 1.235-1.07 1.572-1.4s1.093-.96 1.68-1.4c.877-.657 4.706-3.929 6.556-5.603a71 71 0 0 1 1.845-1.538A192 192 0 0 0 379 329l13.349-11.323 5.571-4.751c.285-.28.871-.755 1.301-1.056.77-.539.781-1.28.681-44.841l-.102-44.294zm-150.01 5.365c-1.301 1.315-2.255 2.39-2.121 2.39.335 0 4.787-4.477 4.62-4.645-.074-.074-1.199.941-2.499 2.255m58.882.603c-1.975 2.31-1.685 2.302.485-.013.928-.99 1.542-1.794 1.365-1.787s-1.01.817-1.85 1.8m-105.054-.359c-.01.47.251 1.37.58 2 .756 1.451.763.827.014-1.254-.373-1.035-.583-1.298-.594-.746m40.746 5.846c-1.45 1.815-2.768 3.57-2.93 3.9s-.003.24.352-.2l1.331-1.6c.376-.44 1.404-1.7 2.284-2.8s1.779-2.132 1.999-2.294q.4-.294 0-.3c-.22-.003-1.586 1.479-3.036 3.294m-39.557-2.192c-.044 3.082 8.038 12.18 9.511 10.707.113-.112-.465-.484-1.284-.826-2.574-1.076-5.017-3.702-6.687-7.189-.843-1.76-1.536-2.971-1.54-2.692m97.722 3.317-3.361 3.5c-.567.591-1.989 1.885-3.159 2.875-2.539 2.148-3.209 2.788-3.209 3.064 0 .114 1.305-.911 2.9-2.278 2.726-2.335 9.807-9.586 9.363-9.586-.113 0-1.253 1.091-2.534 2.425m-65.129 7.034c-1.1 1.011-1.46 1.474-.8 1.029 1.131-.763 3.337-2.901 2.97-2.877-.094.006-1.07.838-2.17 1.848m-18.054 2.343c.63.329 1.44.591 1.8.582s.048-.278-.692-.6c-1.76-.764-2.582-.75-1.108.018m14.254-.002c-.58.332-.748.572-.4.573.33.001.949-.263 1.376-.586.988-.747.339-.739-.976.013m-55.34.3c.103.165 1.499.3 3.102.3 3.384 0 4.499.724 4.125 2.678-.197 1.034-.174 1.056.351.338 1.475-2.017-.199-3.314-4.501-3.486-1.795-.071-3.179.005-3.077.17m111.54 1.953c-1.32 1.125-2.474 2.248-2.564 2.496s.54-.183 1.4-.957 1.935-1.674 2.388-2c.741-.532 1.613-1.597 1.3-1.588-.068.002-1.204.924-2.524 2.049m-61.5-1.364c.715.089 1.885.089 2.6 0s.13-.161-1.3-.161-2.015.073-1.3.161m-43.829 4.546c-.29.464-.45.92-.356 1.014.278.277 1.173-.985 1.022-1.439-.077-.23-.377-.039-.666.425M283 252.648c-.88.788-1.24 1.251-.8 1.029.748-.377 2.942-2.486 2.57-2.469-.094.004-.89.652-1.77 1.44m-101.729 1.387c-.29.464-.45.92-.356 1.014.278.277 1.173-.985 1.022-1.439-.077-.23-.377-.039-.666.425m-23.251-.25c-.028.531 3.274 7.054 3.471 6.857.088-.087-.653-1.753-1.646-3.701s-1.814-3.368-1.825-3.156m122.349 1.128c-1.729 1.336-3.253 2.736-3.119 2.865.082.08 1.05-.643 2.15-1.608 1.844-1.616 2.446-2.398.969-1.257m-100.298 1.522c-.29.464-.45.92-.356 1.014.278.277 1.173-.985 1.022-1.439-.077-.23-.377-.039-.666.425m-1.214 2.422c-.282.452-.425.909-.317 1.016s.404-.195.66-.673c.605-1.13.324-1.41-.343-.343m96.559.14c-.652.532-1.089 1.064-.971 1.181s.729-.324 1.359-.982c1.378-1.438 1.224-1.517-.388-.199m-97.759 2.26c-.282.452-.425.909-.317 1.016s.404-.195.66-.673c.605-1.13.324-1.41-.343-.343m93.931 1.047c-2.82 2.417-4.357 3.908-3.588 3.479.33-.183 1.14-.827 1.8-1.43l2.8-2.515c.88-.781 1.51-1.422 1.4-1.425s-1.195.848-2.412 1.891m-109.988-.79c0 .267.166.486.368.486s.487.54.632 1.2.425 1.2.623 1.2c.425 0-.341-1.944-1.097-2.786-.358-.398-.526-.43-.526-.1m14.857 2.143c-.282.452-.425.909-.317 1.016s.404-.195.66-.673c.605-1.13.324-1.41-.343-.343M163.62 265.2c-.009.714.656 1.857.926 1.588.103-.104-.06-.639-.365-1.189-.32-.579-.556-.747-.561-.399m11.679.791c-.687 1.099-.625 1.392.133.634.348-.348.572-.812.499-1.033s-.358-.041-.632.399M164.82 267.6c-.009.714.656 1.857.926 1.588.103-.104-.06-.639-.365-1.189-.32-.579-.556-.747-.561-.399m96.78 3.265c-2.09 1.794-3.588 3.188-3.329 3.098s1.519-1.081 2.8-2.204l3.529-3.087c.66-.576 1.11-1.052 1-1.057s-1.91 1.457-4 3.25m-88.601-.149c-2.574 4.989-4.026 4.875-6.571-.516-.308-.653-.382-.676-.403-.129-.014.37.221.918.522 1.219s.664.915.807 1.365.709 1.24 1.258 1.756l.998.938 1.095-.811c.998-.74 3.534-4.832 3.201-5.166-.078-.077-.486.527-.907 1.344m81.941 5.811c-1.354 1.14-2.58 2.343-2.725 2.673s.332.051 1.06-.62 2.091-1.887 3.026-2.7 1.566-1.468 1.4-1.453-1.408.96-2.761 2.1m-5.34 4.73-2.766 2.287c-2.684 2.214-4.242 3.656-3.949 3.656.232 0 5.926-4.738 7.501-6.241.888-.848.347-.643-.786.298m-8 6.675c0 .183-.81.914-1.8 1.625-1.955 1.404-2.351 2.728-1.1 3.675.596.45.625.446.2-.031-.97-1.089-.56-2.223 1.285-3.547 1.911-1.373 2.521-2.054 1.839-2.054-.233 0-.424.149-.424.332m-2.18 6.506c.504.824.811 1.211 2.186 2.762 1.113 1.255 1.09 1.183-.219-.699-1.321-1.898-2.844-3.495-1.967-2.063m6.067 7.962c1.484 1.98 2.836 3.6 3.005 3.6s-.971-1.62-2.535-3.6-2.916-3.6-3.005-3.6 1.052 1.62 2.535 3.6m3.313 4.195c0 .237 1.004 1.492 2.532 3.165.622.682.376.205-.548-1.06-1.568-2.147-1.984-2.588-1.984-2.105m-32.585 3.885c-1.051.946-2.159 1.864-2.463 2.04s-.552.498-.552.716.675-.226 1.5-.987c3.21-2.962 4.533-3.655 5.037-2.639.112.226.157.181.102-.1-.224-1.124-1.751-.715-3.624.97m4.538.198c.248.482.63.988.849 1.123.685.424.435-.196-.451-1.118l-.85-.883zm32.903 2.34c.718 1 1.574 2.035 1.903 2.3s-.18-.553-1.129-1.818c-2.043-2.722-2.658-3.105-.774-.482m-29.428 2.182c1.244 1.54 2.36 2.8 2.479 2.8s-.046-.315-.368-.7-1.287-1.645-2.144-2.8-1.71-2.1-1.894-2.1.683 1.26 1.927 2.8M209 316.607c-1.1.982-2.116 1.787-2.257 1.789s-.362.276-.489.608c-.269.7 4.369-2.955 4.7-3.704.312-.706.27-.678-1.954 1.307m47.637.393c.36.55.813 1 1.006 1s-.04-.45-.518-1-.931-1-1.006-1 .157.45.518 1m-28.862 2.732c.616.807 1.201 1.468 1.3 1.468.278 0-1.454-2.34-1.966-2.656-.25-.155.05.38.666 1.188m30.249-1.132c-.003.22.62 1.095 1.385 1.944s1.391 1.704 1.391 1.9.192.356.427.356c.43 0-.33-1.178-2.192-3.4-.554-.66-1.009-1.02-1.011-.8m-56.224 4.146c-1.54 1.284-3.16 2.764-3.6 3.288-.727.867-.244.489 3.619-2.834.64-.55 1.697-1.405 2.35-1.9s1.016-.897.809-.894-1.638 1.057-3.178 2.34m28.687.552c1.631 2.09 2.313 2.831 2.313 2.514 0-.45-2.592-3.768-3.113-3.984-.282-.117.078.544.8 1.47m33.112 2.602c.523.715 1.014 1.3 1.09 1.3.304 0-.688-1.5-1.344-2.033-.432-.351-.335-.071.254.733m-30.037 1.4c2.184 2.599 2.819 3.234 2.597 2.6-.135-.385-.36-.701-.502-.703s-.685-.631-1.209-1.4-1.107-1.397-1.297-1.397-.005.405.411.9m-40.419 2.809-3.2 2.824c-.959.843-1.383 1.345-.943 1.115.847-.442 6.141-5.207 5.8-5.221-.11-.005-.856.572-1.657 1.282m72.057.751c-.77.675-1.038 1.045-.596.821.731-.37 2.543-2.103 2.158-2.065-.089.009-.792.569-1.562 1.244m-28.04.94c2.942 4.01 3.762 5.012 3.946 4.827.209-.208-2.068-3.173-3.859-5.027l-.967-1zm23.189 3.109a214 214 0 0 1-6.164 5.291c-1.063.88-2.216 1.87-2.561 2.2s-1.224 1.14-1.954 1.8l-1.327 1.2-1.768-2c-.972-1.1-1.769-2.115-1.771-2.256s-.648-.951-1.436-1.8-.136.211 1.449 2.356c3.556 4.815 2.906 4.85 8.783-.476.99-.897 3.181-2.754 4.868-4.128s3.167-2.721 3.287-2.996c.304-.691.237-.652-1.406.809m-73.389.406c-.242.267-1.129 1.025-1.971 1.685-1.805 1.415-2.589 2.169-2.589 2.491 0 .128.315-.038.7-.368l4.1-3.475c.55-.452.82-.821.6-.819s-.598.22-.84.486m-8.46 7.116c-1.815 1.555-3.3 2.917-3.3 3.026 0 .244 5.794-4.527 6.435-5.299.896-1.08.132-.526-3.135 2.273m-7.722 6.634-1.378 1.465 1.7-1.332c.935-.732 1.7-1.392 1.7-1.465 0-.478-.838.074-2.022 1.332m-4.043 3.435c-.541.495-1.872 1.617-2.959 2.493s-2.667 2.227-3.511 3-1.789 1.551-2.1 1.727-.562.536-.559.8c.004.301.116.331.3.08.354-.482 2.791-2.615 5.485-4.8 2.672-2.168 4.862-4.176 4.567-4.189-.132-.006-.683.394-1.223.889m-11.34 9.604c-.882.713-2.052 1.69-2.6 2.172-2.084 1.834-2.976 2.569-4.642 3.826-.946.714-1.825 1.558-1.953 1.876-.196.482-.116.477.483-.027l10.103-8.61c1.107-1.023.212-.532-1.391.763m-11.836 10.007c-1.013.929-2.947 2.589-4.298 3.689s-2.457 2.148-2.458 2.329.235.09.526-.2 1.413-1.249 2.493-2.129c2.292-1.868 6.068-5.384 5.778-5.38-.11.001-1.029.763-2.041 1.691m-8.543 7.286c-.652.532-1.102 1.043-1 1.135s.724-.35 1.384-.982c1.457-1.395 1.241-1.481-.384-.153m-2.616 2.251c-3.096 2.542-6.441 5.552-6.17 5.552.224 0 3.829-3.004 6.359-5.298 1.409-1.278 1.276-1.457-.189-.254m-8.812 7.452c-2.689 2.297-3.588 3.166-3.588 3.468 0 .152.793-.467 1.761-1.375s2.354-2.088 3.078-2.622 1.134-.971.911-.971-1.196.675-2.162 1.5m-7.22 6.213c-1.891 1.459-4.768 4.077-4.768 4.338 0 .166.765-.385 1.7-1.226l2.9-2.564c1.212-1.046 1.336-1.449.168-.548"/><path fill="#fbfbfb" d="M0 185.473 1.252 378c.192 0 .348.996.348 2.213 0 1.597.167 2.276.6 2.442.446.171.6.881.6 2.759 0 1.715.193 2.722.6 3.129.377.376.6 1.36.6 2.641 0 1.445.175 2.108.6 2.271.444.171.6.874.6 2.699C5.2 400.425-.747 400 58.955 400h52.146l1.75-1.652c.962-.909 2.379-2.12 3.149-2.693s1.796-1.448 2.281-1.947.972-.908 1.083-.908.975-.741 1.919-1.646 2.347-2.12 3.117-2.7c1.181-.889 2.802-2.284 4.956-4.262.244-.225 1.337-1.125 2.428-2s2.276-1.862 2.634-2.192c1.415-1.304 5.611-4.907 6.666-5.723 1.04-.804 3.427-2.892 4.891-4.277.349-.33 1.527-1.32 2.618-2.2 2.565-2.069 3.67-2.999 4.84-4.074.524-.48 1.624-1.38 2.446-2s1.784-1.396 2.137-1.726a111 111 0 0 1 5.768-5.007l2.65-2.193c3.139-2.825 5.751-5.027 6.121-5.161.245-.088.805-.538 1.246-1 .773-.81 4.817-4.325 8.787-7.639l2.631-2.2c2.055-1.728 2.405-2 2.572-2 .1 0 .781-.585 1.513-1.3 1.243-1.214 4.195-3.726 5.994-5.1.432-.33 1.815-1.539 3.075-2.687a98 98 0 0 1 4.458-3.793c1.193-.939 2.641-2.16 3.217-2.714 1.196-1.148 2.134-1.947 4.936-4.207 1.091-.879 2.269-1.869 2.619-2.199 2.594-2.448 4.573-4 5.097-4 .687 0 3.3 2.519 3.3 3.18 0 .231.143.42.318.42s1.823 2.025 3.664 4.5 3.546 4.68 3.789 4.9c.68.616 3.029 3.685 3.029 3.958 0 .133.315.571.7.973 1.092 1.141 2.237 2.572 2.972 3.713.37.574.914 1.294 1.209 1.6 1.063 1.104 3.519 4.244 3.519 4.501 0 .144.437.755.972 1.358 2.069 2.336 2.628 3.028 2.632 3.258.002.132.799 1.139 1.771 2.239l1.768 2 1.327-1.2 1.954-1.8c.345-.33 1.501-1.32 2.569-2.2l2.827-2.4c.487-.44 1.756-1.52 2.819-2.4s2.255-1.915 2.648-2.3.793-.7.891-.7c1.097 0 3.117-2.832 2.504-3.509-.375-.415-.682-.965-.682-1.222s-.142-.469-.315-.469-1.019-.945-1.88-2.1c-1.924-2.581-1.891-2.539-3.595-4.5-.765-.88-1.396-1.81-1.401-2.067s-.176-.526-.379-.6-1.599-1.769-3.1-3.768c-4.311-5.742-5.11-6.756-5.43-6.898-.165-.074-.3-.389-.3-.7s-.145-.567-.323-.567-1.212-1.213-2.3-2.696-2.787-3.715-3.777-4.96-2.07-2.664-2.4-3.151a48 48 0 0 0-1.3-1.802c-1.136-1.488-.868-2.42 1.1-3.834.99-.711 1.8-1.442 1.8-1.625s.174-.332.387-.332.988-.585 1.724-1.3c1.406-1.367 2.041-1.906 5.289-4.496 1.1-.877 2.368-1.956 2.817-2.399s1.98-1.79 3.4-2.995L258 274c.177-.195 4.617-4.003 7.741-6.637.628-.53 1.198-.963 1.267-.963s.876-.72 1.792-1.6a67 67 0 0 1 3.516-3.1c1.018-.825 2.143-1.77 2.5-2.1 1.108-1.025 4.877-4.172 5.683-4.746.422-.3 1.266-1.02 1.875-1.6 1.698-1.616 6.019-5.358 7.221-6.254.59-.44 1.346-1.07 1.68-1.4s1.563-1.41 2.733-2.4 2.559-2.25 3.088-2.8c9.096-9.458 10.341-10.811 13.097-14.226.877-1.086 2.002-2.422 2.5-2.97s.907-1.152.907-1.342.495-1.003 1.1-1.806c1.694-2.247 2.646-3.999 4.266-7.856.37-.88.844-1.913 1.053-2.295.775-1.413.185-8.412-1.043-12.359-.317-1.019-.576-2.106-.576-2.415 0-.921-1.379-3.346-2.939-5.168-1.757-2.052-1.883-3.534-.461-5.399.55-.721 1-1.557 1-1.857s.194-.741.431-.978.581-1.038.765-1.78c.375-1.517.918-3.104 2.785-8.149l1.222-3.2c1-2.405.784-15.33-.232-13.88-.278.398-.695 1.613-.926 2.701-.4 1.89-1.072 4.667-2.076 8.579-.255.99-.623 2.07-.818 2.4a15 15 0 0 0-.628 1.2c-.149.33-.917 1.68-1.706 3s-1.932 3.435-2.538 4.7l-1.104 2.3h-1.911c-1.55 0-2.135-.213-3.088-1.124-1.372-1.31-4.844-3.676-5.396-3.676-.209 0-.38-.141-.38-.312 0-.319-1.346-.956-4.2-1.987-2.723-.984-7.426-1.795-11.461-1.978-4.756-.215-4.932-.372-5.512-4.923l-.85-6.6c-.23-1.76-.691-3.83-1.025-4.6l-1.025-2.4a16 16 0 0 0-.776-1.6c-.196-.33-.465-.87-.598-1.2-.752-1.869-3.987-8.372-4.171-8.385-.119-.008-.99.705-1.933 1.585-1.776 1.656-4.132 2.154-5.954 1.259a64 64 0 0 0-2.201-.989c-4.636-1.995-4.783-2.112-6.694-5.302-.55-.918-1.99-2.763-3.2-4.1-3.093-3.419-5.241-5.958-6.364-7.524-.53-.739-1.115-1.344-1.3-1.344s-.336-.27-.336-.6-.135-.601-.3-.603-1.2-1.097-2.3-2.435l-3.1-3.669c-1.294-1.455-1.306-1.557-.417-3.572.423-.959 1.031-1.635 1.6-1.778.504-.126.917-.39.917-.586s.243-.357.54-.357 1.296-.547 2.219-1.216a36 36 0 0 1 3.16-2.028c.815-.446 2.021-1.156 2.681-1.579s1.47-.873 1.8-1.001a9 9 0 0 0 1.2-.607 8 8 0 0 1 1.2-.6c.33-.125.87-.395 1.2-.6s.87-.48 1.2-.61 1.638-.759 2.906-1.398 2.551-1.161 2.851-1.161.769-.27 1.043-.6.814-.6 1.2-.6.926-.27 1.2-.6c.333-.402 1.233-.6 2.722-.6h2.225l3.326 3.441c1.83 1.892 3.327 3.59 3.327 3.772s.764 1.468 1.697 2.859c2.052 3.055 2.55 3.867 3.061 4.989.216.474.584.979.817 1.124s.425.59.425.99.27.951.6 1.225.6.814.6 1.2.27.926.6 1.2a1.86 1.86 0 0 1 .6 1.249c0 .413.166.751.368.751s.487.538.631 1.195.41 1.287.59 1.398c.477.295 2.011 3.335 2.011 3.986 0 .305.142.614.316.688s1.024 1.573 1.89 3.333 1.687 3.29 1.825 3.4c.316.252 1.417 2.694 1.778 3.945.523 1.81 1.369.062 1.625-3.357.131-1.753.403-3.734.604-4.401s.537-2.647.745-4.4c.388-3.276 1.226-7.278 1.671-7.987.139-.22.374-1.03.524-1.8s.467-1.905.705-2.522c.317-.822.31-1.245-.025-1.58-.252-.252-.458-.868-.458-1.37s-.244-1.59-.542-2.42-.872-2.588-1.275-3.908a51 51 0 0 0-1.799-4.8c-2.741-6.165-3.662-8.62-3.445-9.184.4-1.044 2.77-2.213 4.488-2.215.895 0 2.605-.296 3.8-.656 2.477-.746 16.466-.845 19.373-.137.88.214 4.21.487 7.4.605s6.7.382 7.8.584l9.8 1.879 5.8 1.081c5.644 1.006 5.524.741 5.896 13.043l.333 10.2c.089.984-.951 5.4-1.272 5.4-.196 0-.357.686-.357 1.524s-.264 1.872-.587 2.3-.593 1.277-.6 1.889-.283 1.759-.613 2.549-.6 1.751-.6 2.136c0 .876-1.488 4.286-2.011 4.609-.214.132-.389.59-.389 1.017s-.135.776-.3.777-.826 1.08-1.47 2.4-1.318 2.399-1.5 2.399-.33.338-.33.751a1.86 1.86 0 0 1-.6 1.249c-.33.274-.6.653-.6.843s-.561 1.257-1.247 2.371c-1.413 2.296-1.254 2.888.505 1.878.664-.38 1.525-.692 1.914-.692.782 0 2.873-1.476 5.628-3.972.99-.897 2.384-2.035 3.097-2.529s1.299-1.042 1.3-1.217c.003-.28 3.221-4.78 4.452-6.225.255-.299 1.057-1.426 1.783-2.505s1.602-2.243 1.947-2.588.831-1.009 1.081-1.477 2.283-3.299 4.516-6.292 4.394-6.151 4.801-7.019.85-1.666.982-1.776.961-1.64 1.841-3.4 1.735-3.26 1.9-3.333.3-.353.3-.622c0-2.044 4.322-3.757 6.517-2.582.475.254 1.408.598 2.074.764 1.928.483 4.495 1.439 7.909 2.947.715.316 1.885.691 2.6.832l1.3.258V0H0zm238.8-54.419c0 .3.177.546.392.546s.506.45.644 1 .37 1 .516 1 .711.855 1.256 1.9 1.127 1.96 1.292 2.033.3.283.3.465.63 1.289 1.4 2.458 1.4 2.355 1.4 2.635.159.509.353.509.469.315.61.7c.357.972 1.507 3.058 1.819 3.3.637.492 1.564 4.045 1.723 6.61.21 3.371.491 3.856 3.613 6.243l2.423 1.853 2.029-1.239c1.117-.681 2.268-1.47 2.559-1.753 2.062-2.006 4.271.337 4.591 4.868.132 1.867.474 3.805.76 4.306.399.701.504 3.678.449 12.848-.08 13.403-.046 13.249-3.005 13.723-.848.135-1.638.402-1.756.594s-.759.347-1.423.347c-1.065 0-7.021 2.517-7.545 3.189-.11.141-.829.511-1.597.822s-2.064 1.169-2.88 1.906c-2.306 2.084-3.711 1.649-4.905-1.517-.125-.33-.582-1.14-1.016-1.8s-.975-1.56-1.202-2-.767-1.34-1.2-2-.953-1.56-1.154-2-.797-1.43-1.324-2.2-1.363-2.21-1.86-3.2c-1.595-3.185-1.856-3.548-5.038-7.03-2.228-2.437-3.45-3.393-5.124-4.007-.385-.141-.7-.397-.7-.569s-.765-.711-1.7-1.197-1.79-1-1.9-1.141c-.442-.566-2.16-1.464-6.6-3.45-1.334-.597-6.259-1.675-8.933-1.957-5.366-.564-2.395-7.722 9.633-23.207a73 73 0 0 0 1.9-2.6c2.359-3.402 8.639-8.928 12.334-10.854.918-.479 1.77-1.032 1.892-1.229s.549-.359.949-.359a1.8 1.8 0 0 0 1.205-.576c1.234-1.487 4.82.023 4.82 2.03m-63.864 38.257 1.06.911.102 37.989.102 37.989 3.245.115c4.173.149 5.574 1.212 4.477 3.399-.355.707-.751 1.556-.881 1.886s-.404.87-.61 1.2-.475.87-.6 1.2-.407.915-.628 1.3c-1.238 2.152-5.203 10.115-5.203 10.448 0 .157-.19.503-.422.769s-1.178 2.002-2.1 3.859-2.171 3.735-2.773 4.174l-1.095.799-.998-.938c-.549-.516-1.115-1.306-1.258-1.756s-.506-1.064-.807-1.365a2.15 2.15 0 0 1-.547-1.319c0-.424-.177-.771-.392-.771s-.517-.493-.668-1.096-.515-1.336-.807-1.629-.533-.879-.533-1.304-.16-.771-.357-.771-.48-.493-.631-1.096-.396-1.188-.544-1.3c-.233-.178-3.542-6.752-4.229-8.404-.137-.33-.697-1.393-1.244-2.363-1.939-3.435-.816-4.837 3.875-4.837h3.13v-75.929l1.231-1.035c1.766-1.487 8.425-1.569 10.105-.125M212.6 184.4c.88.425 1.825.779 2.1.786s.5.194.5.414.198.4.44.4 1.096.284 1.9.632c2.429 1.052 6.622 3.02 7.26 3.408.33.201.87.484 1.2.629s1.256.774 2.058 1.397 1.585 1.134 1.742 1.134.967.54 1.8 1.2 1.734 1.2 2.001 1.2c1.915 0 11.136 11.604 11.185 14.076.008.372.194.788.414.924s.401.552.402.924.255 1.159.563 1.749a11 11 0 0 1 .828 2.295c.148.673.435 1.326.638 1.451s.369.595.369 1.043.26 1.292.578 1.876c2.88 5.287 2.772 6.679-.793 10.262-1.532 1.54-3.505 3.7-4.385 4.8-2.265 2.834-3.1 3.833-3.9 4.669-.385.402-.7.837-.7.967 0 .572-3.194 3.589-5.2 4.913L231.4 247l-6.465-.106c-4.761-.078-6.765-.261-7.6-.697-.624-.326-1.452-.593-1.84-.595s-1.018-.171-1.4-.376-1.736-.86-3.008-1.454c-3.605-1.681-8.276-7.465-8.289-10.264-.002-.279-.312-1.048-.69-1.708-.875-1.527-1.079-25.629-.226-26.658.266-.32.609-1.372.764-2.338s.521-2.217.815-2.78.535-1.378.537-1.811.249-1.512.551-2.4l1.051-3.213c1.191-3.798 4.184-9.035 5.136-8.986.145.007.984.361 1.864.786"/><path fill="#f83e04" d="M166.38 171.38c-.235.234-.38 14.803-.38 38.024 0 43.35.446 39.173-4.192 39.24-4.402.064-4.472-.465 1.545 11.587l5.587 11.438c.319 1.011 1.818.438 2.132-.814.145-.577.773-1.914 1.396-2.97s1.132-2.006 1.132-2.111c0-.273 2.546-5.534 2.794-5.774.299-.29 3.206-6.223 3.206-6.544 0-.15.461-1.002 1.024-1.893 1.627-2.578 1.313-2.974-2.238-2.825-5.093.212-4.569 4.634-4.692-39.58l-.4-37.986c-2.284-.214-6.623-.084-6.914.208"/></svg>