<svg xmlns="http://www.w3.org/2000/svg" xml:space="preserve" width="113.39" height="113.39"><g fill-rule="evenodd" clip-rule="evenodd"><path fill="#FFF" d="M.19 88.254C.19 59.183.193 30.11.172 1.039c0-.708.16-.869.868-.868q55.843.03 111.688 0c.708 0 .872.159.869.868-.03 7.149-.019 14.299-.019 21.449-.348-.027-.575.229-.837.381C75.502 44.535 38.266 66.206 1.026 87.872c-.262.152-.489.407-.836.382m27.604-55.747c-4.463-.024-6.952 4.134-5.024 7.724.694 1.293 1.658 2.38 2.726 3.355 4.6 4.203 9.437 8.144 13.891 12.511.734.721 1.579 1.347 2.568 1.722 1.221.462 2.22.146 2.949-.926.5-.736.79-1.56 1.031-2.406.605-2.121.852-4.308 1.219-6.474.695-4.098 2.103-7.993 3.444-11.902 3.072-8.958 6.921-17.603 10.706-26.272.626-1.435 1.25-2.876 1.453-4.451.099-.762.458-1.708-.404-2.132-.839-.413-1.541.319-2.151.843-1.487 1.278-2.742 2.774-3.894 4.354-3.123 4.279-5.525 8.965-7.755 13.75-2.767 5.937-4.997 12.103-7.698 18.068-.939 2.074-1.093 2.128-2.643.462-1.435-1.542-2.755-3.192-4.172-4.753-1.783-1.965-3.853-3.423-6.246-3.473"/><path fill="#9BCAED" d="M113.579 39.308v21.544c-.352-.039-.571.227-.833.378q-10 5.795-19.994 11.603a116126 116126 0 0 0-69.134 40.19c-.207.121-.662.088-.562.555-7.348 0-14.696-.007-22.044.014-.62.002-.866-.05-.847-.793.064-2.573.025-5.149.025-7.725.28-.134.572-.25.839-.406 37.268-21.695 74.533-43.394 111.804-65.084.222-.13.416-.412.746-.276"/><path fill="#818181" d="M113.579 65.388c0 15.812-.005 31.623.018 47.435.001.647-.127.774-.774.774-27.339-.021-54.679-.018-82.018-.018.099-.359.454-.41.709-.559q34.827-20.245 69.665-40.473c4.127-2.397 8.266-4.774 12.4-7.159"/><path fill="#9BCAED" d="M113.579 25.513v12.284c-.399-.18-.606.183-.867.335-27.381 15.919-54.756 31.85-82.134 47.776-10.126 5.89-20.259 11.77-30.388 17.654V91.278c.455.084.736-.264 1.066-.455 6.719-3.896 13.431-7.804 20.144-11.711q38.328-22.307 76.658-44.611c5.168-3.006 10.347-5.993 15.521-8.988"/><path fill="#040505" d="M113.579 65.388c-4.134 2.386-8.273 4.762-12.4 7.159a172750 172750 0 0 0-69.665 40.473c-.255.148-.61.2-.709.559h-7.749c-.1-.467.355-.435.562-.555a116126 116126 0 0 1 69.134-40.19q9.994-5.807 19.994-11.603c.261-.151.481-.417.833-.378z"/><path fill="#090A0A" d="M113.579 25.513c-5.174 2.996-10.354 5.982-15.521 8.988C72.503 49.369 46.953 64.242 21.4 79.112c-6.713 3.907-13.425 7.815-20.144 11.711-.33.191-.611.54-1.066.455v-3.024c.347.024.574-.23.836-.383 37.24-21.666 74.476-43.337 111.716-65.002.262-.152.489-.408.837-.381z"/><path fill="#0F0F0F" d="M.19 103.562c10.129-5.884 20.262-11.764 30.388-17.654 27.378-15.926 54.752-31.857 82.134-47.777.261-.152.468-.515.867-.335v1.512c-.331-.136-.524.146-.746.275-37.27 21.691-74.536 43.39-111.804 65.085-.268.156-.559.271-.839.406z"/><path fill="#040505" d="M27.794 32.507c2.393.05 4.463 1.508 6.245 3.472 1.417 1.562 2.737 3.211 4.172 4.753 1.55 1.666 1.704 1.612 2.643-.462 2.701-5.965 4.931-12.131 7.698-18.068 2.23-4.784 4.632-9.471 7.755-13.75 1.152-1.58 2.407-3.076 3.894-4.354.61-.524 1.312-1.256 2.151-.843.862.424.503 1.37.404 2.132-.203 1.574-.827 3.016-1.453 4.451-3.785 8.67-7.634 17.314-10.706 26.272-1.341 3.909-2.749 7.804-3.444 11.902-.367 2.166-.613 4.353-1.219 6.474-.242.847-.531 1.67-1.031 2.406-.729 1.073-1.728 1.388-2.949.926-.99-.375-1.834-1.001-2.568-1.722-4.454-4.368-9.291-8.309-13.891-12.511-1.068-.976-2.031-2.063-2.726-3.355-1.927-3.589.562-7.747 5.025-7.723"/></g></svg>