<svg xmlns="http://www.w3.org/2000/svg" width="400" height="400" fill-rule="evenodd"><path fill="#6382a2" d="m398.2 166.425-1.8 1.041c-.33.152-1.32.733-2.2 1.292l-3 1.799-3 1.707-2.4 1.289c-.44.202-1.43.79-2.2 1.307a30 30 0 0 1-2.593 1.54c-.656.33-2.092 1.185-3.191 1.9s-2.165 1.3-2.369 1.3-.961.45-1.683 1-1.494 1-1.717 1-1.181.521-2.127 1.157l-3.442 2.1-2.4 1.348-3.476 2-3.6 2.079-1.402.778c-.33.161-2.785 1.608-5.457 3.216l-5.085 2.922c-.183 0-4.932 2.752-8.258 4.785l-4.991 2.891-6.2 3.619-2.409 1.375c-.33.154-2.347 1.327-4.482 2.605l-4.078 2.325c-.109 0-2.437 1.35-5.175 3l-5.203 3c-.124 0-2.317 1.263-4.874 2.807l-6.118 3.604-2.07 1.171-7.2 4.152c-.33.151-1.14.631-1.8 1.066l-1.8 1.071c-.33.154-1.883 1.056-3.451 2.005s-3.053 1.724-3.3 1.724-.449.168-.449.373-.385.495-.856.645-2.875 1.491-5.344 2.982l-5.344 2.982c-.471.15-.856.44-.856.645s-.193.373-.428.373-1.762.81-3.393 1.8l-3.152 1.8c-.103 0-.987.54-1.965 1.2s-1.884 1.2-2.013 1.2-1.436.735-2.903 1.633l-3.507 2.005c-.88.39-1.073.502-7.897 4.603l-4.48 2.559c-.122 0-1.022.54-2 1.2s-1.879 1.2-2.002 1.2-2.31 1.26-4.86 2.8l-4.846 2.8c-.185 0-5.363 2.992-6.954 4.018a12 12 0 0 1-1.199.665c-.636.296-8.189 4.672-9.201 5.331-.33.215-.87.514-1.2.665s-2.633 1.5-5.118 2.998-4.59 2.723-4.679 2.723c-.372 0-5.215 2.966-5.336 3.269-.074.182-.321.331-.55.331s-1.75.81-3.381 1.8-3.052 1.8-3.158 1.8-.955.482-1.886 1.071-3.402 1.962-5.492 3.05-4.552 2.496-5.472 3.129-1.933 1.15-2.251 1.15-.803.27-1.077.6-.647.6-.829.6-1.105.515-2.051 1.145-2.62 1.638-3.72 2.24-3.014 1.707-4.252 2.455-2.454 1.36-2.7 1.36-.448.168-.448.373-.389.496-.864.647-2.41 1.21-4.3 2.354-6.226 3.67-9.636 5.614l-10.4 6-4.8 2.744c-.33.152-1.14.625-1.8 1.05a42 42 0 0 1-2.2 1.316c-.55.299-2.8 1.596-5 2.882l-13.2 7.641c-1.1.61-3.772 2.16-5.937 3.444S84.233 348 84.121 348s-1.005.54-1.983 1.2-1.844 1.2-1.925 1.2c-.156 0-7.991 4.525-9.013 5.206a10.5 10.5 0 0 1-1.2.672c-.33.151-1.883 1.049-3.451 1.998S63.595 360 63.467 360s-2.264 1.225-4.749 2.723l-5.118 3.005c-.33.154-1.14.637-1.8 1.072s-1.47.91-1.8 1.055-1.875 1.048-3.434 2.005-2.944 1.74-3.08 1.74-1.046.54-2.024 1.2-1.87 1.2-1.983 1.2-2.023 1.08-4.246 2.4-4.122 2.4-4.22 2.4-2.263 1.26-4.813 2.8-4.716 2.8-4.813 2.8c-.154 0-7.306 4.124-8.987 5.181-.33.208-1.269.741-2.087 1.185s-2.258 1.298-3.2 1.897c-2.463 1.565-5.599 3.325-6.413 3.596-.525.176-.7.674-.7 1.988V400h36.967l37.112-.437c.141-.423 1.961-1.546 6.121-3.778 1.1-.59 2.573-1.503 3.273-2.029s1.556-.956 1.9-.956.627-.146.627-.325 1.35-1.028 3-1.888 3-1.704 3-1.876.188-.311.418-.311 2.217-1.08 4.414-2.4 4.071-2.4 4.162-2.4.966-.54 1.944-1.2 1.878-1.2 2-1.2 1.022-.54 2-1.2 1.884-1.2 2.013-1.2 1.438-.736 2.908-1.636c2.653-1.624 8.693-5.151 12.131-7.084 1.903-1.07 8.604-5.035 9.61-5.687.33-.214 1.356-.765 2.28-1.225s1.89-1.091 2.149-1.402.648-.566.866-.566 2.184-1.08 4.369-2.4 4.047-2.4 4.137-2.4.846-.468 1.681-1.04 1.878-1.205 2.318-1.406 1.34-.721 2-1.156 1.47-.91 1.8-1.057 2.327-1.319 4.437-2.604 3.967-2.337 4.127-2.337.879-.45 1.6-1 1.448-1 1.615-1 2.696-1.44 5.621-3.2 5.408-3.2 5.519-3.2 1.164-.65 2.341-1.445 2.5-1.604 2.94-1.799 1.07-.522 1.4-.728c1.795-1.118 10.689-6.329 11.2-6.561.33-.151 1.23-.651 2-1.112l6.659-3.997c2.893-1.737 5.38-3.158 5.527-3.158s.84-.429 1.541-.954 1.678-1.076 2.173-1.227.9-.441.9-.646.202-.373.449-.373 1.784-.81 3.415-1.8 3.039-1.8 3.13-1.8.966-.54 1.944-1.2 1.878-1.2 2-1.2 1.022-.54 2-1.2 1.881-1.2 2.006-1.2 1.809-.957 3.742-2.127 4.774-2.811 6.314-3.648 3.07-1.742 3.4-2.012a7 7 0 0 1 1.2-.768 19 19 0 0 0 1.416-.761l6-3.531L263 288.576l7-4.075a44 44 0 0 0 2.2-1.317c.66-.425 1.56-.937 2-1.138s1.483-.834 2.318-1.406 1.593-1.04 1.686-1.04 1.502-.81 3.132-1.8 3.145-1.8 3.366-1.8.61-.253.867-.563 1.108-.867 1.89-1.238 4.384-2.458 8.004-4.637l6.733-3.962c.153 0 13.889-8.061 15.004-8.805.33-.22.87-.525 1.2-.677.566-.26 11.91-6.911 13.2-7.738.33-.212.87-.509 1.2-.66.587-.269 11.213-6.548 12.4-7.328.33-.217.96-.576 1.4-.799a26 26 0 0 0 2-1.195c.66-.434 1.47-.915 1.8-1.068s1.86-1.019 3.4-1.924 3.07-1.774 3.4-1.93 1.14-.641 1.8-1.076 1.47-.918 1.8-1.074 3.236-1.867 6.458-3.804 6.057-3.522 6.3-3.522.442-.159.442-.353.315-.459.7-.589.97-.408 1.3-.621 3.03-1.818 6-3.57l6.8-4.022c.77-.461 1.67-.964 2-1.118s2.334-1.326 4.454-2.604 4.055-2.323 4.3-2.323c.322 0 .446-5.988.446-21.6l-.3-21.571c-.165.016-.84.374-1.5.796m.314 48.421c-.517.517-1.883 1.328-3.306 1.962-.545.243-1.085.566-1.2.717s-1.063.693-2.108 1.203-1.9 1.095-1.9 1.3-.349.372-.776.372-.895.191-1.039.425-.65.596-1.124.806-1.401.736-2.061 1.169-1.56.973-2 1.2-1.34.757-2 1.179c-1.221.78-2.886 1.727-5.4 3.072-.77.412-1.49.85-1.6.973-.437.49-5.133 3.176-5.552 3.176-.247 0-.448.168-.448.373s-.405.496-.9.646-1.473.703-2.173 1.227-1.453.954-1.672.954-.636.227-.926.505-.979.729-1.529 1.003c-.959.479-3.253 1.805-5.8 3.353-.66.401-1.646.923-2.192 1.159s-1.085.554-1.2.705c-.278.368-1.606 1.189-2.669 1.651-.474.206-.979.566-1.124.799a1.05 1.05 0 0 1-.81.425c-.302 0-1.636.723-2.966 1.606s-2.828 1.791-3.328 2.017c-1.184.535-2.238 1.169-3.767 2.267-.682.49-1.668 1.077-2.192 1.306s-1.492.771-2.152 1.206-1.47.916-1.8 1.071-3.052 1.758-6.049 3.561-5.833 3.401-6.3 3.55-.851.438-.851.643-.184.373-.408.373-1.169.485-2.1 1.077-2.502 1.519-3.492 2.059c-2.998 1.635-4.886 2.747-7.415 4.367-.432.276-1.055.623-1.385.77s-1.32.728-2.2 1.29c-2.155 1.375-2.67 1.681-4.678 2.78-.947.518-2.496 1.463-3.442 2.1s-1.798 1.157-1.893 1.157-1.301.687-2.68 1.526-2.867 1.67-3.307 1.847c-.544.218-.633.382-.277.515.288.107.842-.094 1.232-.447s.906-.641 1.148-.641.685-.225.985-.5c.727-.666 1.917-1.417 2.973-1.876.474-.206.979-.566 1.124-.799s.617-.425 1.051-.425.893-.27 1.019-.6.549-.6.939-.6.932-.27 1.206-.6.727-.6 1.006-.6.612-.27.739-.6.585-.6 1.019-.6.907-.191 1.051-.425.65-.593 1.124-.799c.885-.384 1.232-.59 4.181-2.476.946-.605 1.795-1.1 1.886-1.1s1.747-.956 3.68-2.124 3.784-2.251 4.114-2.405 1.14-.637 1.8-1.074 1.695-.993 2.3-1.235 1.1-.583 1.1-.758.45-.43 1-.568 1-.428 1-.644.257-.392.571-.392.818-.246 1.119-.547.944-.673 1.429-.827.881-.448.881-.653.261-.373.58-.373 1.354-.495 2.3-1.1c2.777-1.776 3.277-2.08 4.12-2.507.44-.223 1.34-.76 2-1.193s1.56-.953 2-1.154 1.483-.834 2.318-1.406 1.78-1.04 2.1-1.04.582-.139.582-.308.852-.755 1.893-1.3 2.134-1.217 2.428-1.492.722-.5.95-.5 1.213-.54 2.191-1.2 1.85-1.2 1.937-1.2 2.698-1.53 5.801-3.4 5.799-3.4 5.992-3.4.596-.225.896-.5c.83-.76 1.993-1.465 3.212-1.945.605-.238 1.1-.576 1.1-.751s.45-.43 1-.568 1-.428 1-.644.262-.392.582-.392 1.265-.468 2.1-1.04 1.878-1.205 2.318-1.406 1.34-.721 2-1.156 1.47-.911 1.8-1.061 1.352-.781 2.272-1.404 1.756-1.133 1.86-1.133 2.468-1.35 5.255-3 5.235-3 5.44-3 .373-.18.373-.4.257-.4.571-.4.81-.226 1.1-.503 1.292-.861 2.224-1.3c1.677-.788 2.193-1.397 1.185-1.397-.286 0-.721.201-.966.446m-116.107 68.25c-.326.128-.834.474-1.128.768s-.793.536-1.108.536-.571.16-.571.357-.45.469-1 .607-1 .428-1 .644-.202.392-.449.392c-.373 0-4.944 2.564-7.151 4.012a10 10 0 0 1-1.2.661c-.33.148-1.32.728-2.2 1.29-2.357 1.504-3.132 1.973-3.8 2.298-.33.161-2.633 1.518-5.118 3.016l-4.665 2.723c-.081 0-1.104.63-2.273 1.4s-2.355 1.4-2.635 1.4-.509.165-.509.367-.495.547-1.1.768c-.969.354-.995.406-.224.433.482.018.995-.159 1.139-.393s.65-.596 1.124-.806 1.401-.736 2.061-1.169 1.56-.97 2-1.193c.843-.427 1.343-.731 4.12-2.507.946-.605 1.864-1.1 2.041-1.1s1.554-.81 3.061-1.8 2.974-1.8 3.259-1.8.519-.162.519-.361.495-.559 1.1-.8c1.554-.621 4.674-2.492 4.833-2.899.074-.187.321-.34.55-.34s1.75-.81 3.381-1.8 3.039-1.8 3.13-1.8.966-.54 1.944-1.2 1.966-1.2 2.196-1.2.53-.18.666-.4q.402-.651-.993-.104m115.522 7.426c-.291.288-.799.65-1.129.805s-1.14.637-1.8 1.071-1.588.962-2.061 1.171-.979.573-1.124.806-.534.425-.865.425-1.177.438-1.878.973-1.725 1.167-2.274 1.405-1.538.789-2.198 1.224-1.47.916-1.8 1.07-2.633 1.507-5.118 3.005-4.677 2.723-4.872 2.723-.594.225-.889.5-1.387.946-2.428 1.492-1.893 1.13-1.893 1.3-.351.308-.78.308-.924.225-1.1.5-1.13.915-2.12 1.422-2.34 1.269-3 1.694-1.56.957-2 1.184-1.34.767-2 1.2-1.56.953-2 1.154-1.483.834-2.318 1.406-1.769 1.04-2.076 1.04-.677.191-.821.425-.65.596-1.124.806-1.401.736-2.061 1.169-1.56.97-2 1.193-1.07.581-1.4.797c-2.257 1.474-6.779 4.01-7.151 4.01-.247 0-.449.138-.449.306s-.9.732-2 1.255-2 1.104-2 1.294-.201.345-.448.345c-.554 0-5.302 2.838-5.485 3.279-.074.177-.468.321-.877.321s-.861.191-1.005.425-.65.596-1.124.806-1.401.736-2.061 1.169-1.588.96-2.061 1.169-.979.573-1.124.806-.617.425-1.051.425-.893.27-1.019.6-.493.6-.814.6-1.158.438-1.859.973-1.725 1.167-2.274 1.405-1.538.789-2.198 1.222-1.56.973-2 1.2-1.34.759-2 1.184-2.01 1.184-3 1.686-2.357 1.323-3.038 1.822-1.418.908-1.639.908-.816.36-1.323.8-1.165.8-1.461.8-.539.18-.539.4-.202.4-.449.4c-.372 0-4.894 2.536-7.151 4.01-.33.216-.96.574-1.4.797s-1.34.762-2 1.198a15.7 15.7 0 0 1-2.3 1.233c-.605.242-1.1.603-1.1.801s-.199.361-.442.361-1.242.54-2.22 1.2-2.028 1.2-2.334 1.2-.675.191-.819.425-.65.593-1.124.799c-.885.384-1.232.59-4.181 2.476-.946.605-1.869 1.1-2.051 1.1s-.555.27-.829.6-.747.6-1.052.6-1.3.54-2.211 1.2-1.9 1.2-2.197 1.2-.54.162-.54.361-.495.556-1.1.794c-1.157.456-2.562 1.275-2.9 1.691-.11.135-.605.373-1.1.527s-.9.449-.9.654-.202.373-.449.373c-.375 0-5.039 2.619-7.151 4.015-.33.218-1.095.592-1.7.83s-1.1.575-1.1.747-.315.424-.7.557-1.24.602-1.9 1.042-1.38.875-1.6.966l-1 .409c-.33.134-1.14.598-1.8 1.032s-1.56.975-2 1.202-1.34.757-2 1.179-1.92 1.158-2.8 1.636a50 50 0 0 0-3.32 2.028c-.946.636-1.962 1.157-2.257 1.157s-.641.27-.768.6-.574.6-.993.6-.988.27-1.262.6-.746.6-1.049.6-.551.141-.551.312-.495.529-1.1.794c-3.463 1.515-6.255 3.694-4.733 3.694.348 0 .633-.139.633-.308s.81-.751 1.8-1.292 1.8-1.122 1.8-1.292.262-.308.582-.308 1.265-.468 2.1-1.04 1.878-1.205 2.318-1.406 1.34-.721 2-1.154 1.56-.973 2-1.199 1.43-.79 2.2-1.254 2.21-1.284 3.2-1.823 2.34-1.33 3-1.757 1.515-.885 1.9-1.018.7-.401.7-.596.225-.356.5-.361 1.4-.582 2.5-1.284c2.374-1.515 4.817-2.938 6.2-3.612.55-.267 1.238-.714 1.529-.991s.687-.505.881-.505 2.387-1.225 4.872-2.723l5.118-3.005c.33-.154 1.14-.636 1.8-1.07s1.56-.975 2-1.201 1.43-.794 2.2-1.262 2.12-1.241 3-1.718 2.32-1.32 3.2-1.873 1.87-1.13 2.2-1.281c.619-.283 1.14-.589 6.656-3.908 1.79-1.077 3.455-1.959 3.7-1.959s.444-.168.444-.373.405-.501.9-.658 1.457-.708 2.138-1.227 1.375-.942 1.543-.942 2.491-1.315 5.162-2.922l5.457-3.205c.33-.155 1.14-.637 1.8-1.071s1.646-.984 2.192-1.221 1.085-.558 1.2-.714.658-.505 1.208-.777 1.9-1.031 3-1.688 2.36-1.38 2.8-1.605 1.34-.764 2-1.199 1.47-.914 1.8-1.067 2.641-1.505 5.135-3.005 4.631-2.726 4.748-2.726c.388 0 5.115-2.952 5.25-3.279.074-.177.321-.321.55-.321.349 0 5.088-2.673 7.117-4.015.33-.218 1.095-.592 1.7-.83s1.1-.596 1.1-.794.202-.361.449-.361c.372 0 4.894-2.536 7.151-4.01.33-.216.96-.574 1.4-.797s1.34-.76 2-1.193 1.588-.96 2.061-1.169.979-.573 1.124-.806.523-.425.842-.425 1.325-.54 2.236-1.2 1.9-1.2 2.197-1.2.54-.162.54-.361.495-.56 1.1-.803 2.54-1.332 4.3-2.42 3.56-2.162 4-2.386 1.7-.95 2.8-1.614 2.45-1.429 3-1.703 1.09-.609 1.2-.745c.25-.311 3.51-2.229 4.639-2.73.461-.204 1.991-1.073 3.4-1.931s2.831-1.684 3.161-1.837 1.14-.634 1.8-1.068 1.56-.955 2-1.156 1.483-.834 2.318-1.406 1.674-1.04 1.865-1.04 1.304-.63 2.473-1.4c1.584-1.043 1.906-1.4 1.263-1.4-.474 0-1.1.235-1.39.522M244.2 305.6c-.136.22.023.4.353.4s.711-.18.847-.4-.023-.4-.353-.4-.711.18-.847.4m-2.271 1.305c-.291.277-.979.724-1.529.991-1.521.741-5.432 3.028-8.215 4.805a23 23 0 0 1-1.585.906c-.44.223-1.34.76-2 1.193s-1.649.983-2.198 1.222-1.572.871-2.274 1.405-1.37.973-1.487.973-1.547.81-3.177 1.8-3.168 1.8-3.415 1.8-.449.177-.449.392-.45.506-1 .644-1 .369-1 .513-.9.689-2 1.212-2 1.104-2 1.294-.199.345-.442.345-2.359 1.151-4.7 2.559l-7.858 4.642c-.44.226-1.34.768-2 1.204a15.7 15.7 0 0 1-2.3 1.233c-.605.242-1.1.582-1.1.754s-.397.419-.883.545-.771.343-.634.479c.227.228 3.451-1.301 3.916-1.856.327-.391 3.709-2.322 4.901-2.799.605-.241 1.1-.602 1.1-.8s.248-.361.551-.361.775-.27 1.049-.6.817-.6 1.206-.6.812-.27.939-.6.601-.6 1.055-.6.929-.27 1.055-.6.473-.6.77-.6 1.222-.468 2.057-1.04 1.923-1.198 2.418-1.39.9-.535.9-.76.349-.41.776-.41.895-.191 1.039-.425.65-.596 1.124-.806 1.401-.736 2.061-1.169 1.56-.974 2-1.201 1.7-.956 2.8-1.619 2.45-1.422 3-1.685 1.09-.581 1.2-.707c.398-.454 4.265-2.691 5.122-2.963.483-.154.878-.447.878-.652s.257-.373.571-.373.81-.236 1.1-.525 1.384-.95 2.429-1.47 1.9-1.095 1.9-1.276.257-.329.571-.329.81-.225 1.1-.5 1.384-.918 2.429-1.428 1.9-1.005 1.9-1.1c0-.376-1.174-.142-1.671.333M187.51 338.9c-.3.275-1.123.815-1.828 1.2l-2.564 1.4c-.705.385-1.528.925-1.828 1.2s-.731.5-.955.5-.866.36-1.426.8c-.718.565-.831.8-.387.8.347 0 .731-.161.852-.359s.988-.756 1.924-1.242 2.476-1.405 3.422-2.042 1.797-1.157 1.89-1.157.76-.359 1.48-.799c.813-.495 1.055-.799.639-.8-.37 0-.918.224-1.219.499m-11.31 6.725c-.66.421-1.47.894-1.8 1.05-2.121 1.002-10.88 6.524-10.349 6.524.358.001.86-.251 1.116-.56s.908-.672 1.449-.807.984-.424.984-.64.248-.392.551-.392.775-.27 1.049-.6.817-.6 1.206-.6.812-.27.939-.6a.99.99 0 0 1 .846-.6c.339 0 1.361-.54 2.272-1.2s1.881-1.2 2.154-1.2.601-.27.728-.6.191-.587.142-.571-.627.374-1.287.796m-15 8.779c-.77.417-1.58.904-1.8 1.082s-.85.535-1.4.792c-.895.419-.914.471-.18.495.451.015 1.021-.174 1.266-.419.499-.499 1.855-1.312 3.214-1.927.871-.394 1.212-.851.6-.804-.165.013-.93.364-1.7.781m-5.4 3.196c-.136.22.023.4.353.4s.711-.18.847-.4-.023-.4-.353-.4-.711.18-.847.4m-2.343 1.4c-.33.33-.726.6-.881.6-.499 0-3.025 1.685-2.825 1.884.106.107 1.421-.543 2.921-1.443s2.426-1.638 2.057-1.639-.942.268-1.272.598m-5.257 3.03c-.44.209-1.34.735-2 1.169s-1.56.974-2 1.201-1.34.767-2 1.2-1.56.973-2 1.2-1.34.767-2 1.202-1.47.916-1.8 1.07-2.334 1.327-4.454 2.605-4.04 2.323-4.267 2.323-.472.135-.546.3-.998.75-2.056 1.3c-1.212.63-1.681 1.05-1.27 1.135.359.074.954-.123 1.323-.439s.94-.694 1.27-.84 1.14-.62 1.8-1.054 1.56-.975 2-1.202 1.34-.767 2-1.2 1.56-.953 2-1.154 1.483-.834 2.318-1.406 1.765-1.04 2.066-1.04.609-.144.683-.321c.175-.421 4.918-3.279 5.443-3.279.222 0 .508-.27.635-.6s.491-.6.81-.6c.723 0 3.039-1.294 3.042-1.7.003-.353.028-.356-.997.13m-26.6 15.77c-.274.33-.675.6-.892.6s-2.58 1.315-5.251 2.922L110 384.527c-.33.155-1.14.637-1.8 1.071s-1.56.975-2 1.202-1.34.767-2 1.202-1.47.913-1.8 1.064-1.32.739-2.2 1.305-1.87 1.151-2.2 1.301c-.5.226-.487.276.076.3.372.015.777-.133.898-.331s.898-.715 1.724-1.151c3.635-1.918 4.315-2.308 4.534-2.604.306-.413 3.472-2.192 4.868-2.736.605-.236 1.1-.591 1.1-.789s.243-.361.54-.361 1.254-.518 2.128-1.15 1.98-1.275 2.46-1.427.872-.445.872-.65.257-.373.571-.373.81-.225 1.1-.5 1.384-.918 2.429-1.428 1.9-1.005 1.9-1.1c0-.422-1.15-.114-1.6.428m-25.824 15.18c-.749.56-.744.572.13.352.499-.126 1.004-.387 1.124-.58.338-.548-.394-.414-1.254.228m-1.876.896c-.385.1-.7.337-.7.526s-.405.471-.9.626c-1.359.426-2.986 1.772-2.141 1.772a1.03 1.03 0 0 0 .896-.6c.127-.33.549-.6.939-.6s.932-.27 1.206-.6.746-.6 1.049-.6.551-.18.551-.4-.045-.379-.1-.354-.415.129-.8.23m-5.9 3.616c-.33.125-.69.34-.8.476s-.695.466-1.3.732-1.097.712-1.094.991c.004.356.095.374.3.063.162-.245.654-.563 1.094-.707s1.25-.613 1.8-1.045c1.031-.809 1.031-.903 0-.51"/><path fill="#94cbfa" d="M309 208c-1.564 1.036-1.008 1.037.69.001.721-.439 1.13-.797.91-.797s-.94.359-1.6.796m88.814 7.937c-.652.364-1.43.888-1.728 1.163s-.8.5-1.115.5-.571.18-.571.4-.168.4-.373.4-2.653 1.35-5.44 3l-5.255 3c-.104 0-.94.51-1.86 1.133l-2.272 1.404c-.33.15-1.14.627-1.8 1.061s-1.56.955-2 1.156-1.483.834-2.318 1.406-1.78 1.04-2.1 1.04-.582.177-.582.392-.45.506-1 .644-1 .394-1 .568-.495.513-1.1.751c-1.219.48-2.382 1.185-3.212 1.945-.3.275-.703.5-.896.5s-2.889 1.53-5.992 3.4l-5.801 3.4c-.087 0-.959.54-1.937 1.2s-1.964 1.2-2.191 1.2-.655.225-.95.5-1.387.946-2.428 1.492-1.893 1.13-1.893 1.3-.261.308-.58.308-1.354.495-2.3 1.1l-4.12 2.507c-.44.223-1.34.76-2 1.193s-1.56.953-2 1.154-1.483.834-2.318 1.406-1.78 1.04-2.1 1.04-.582.177-.582.392-.45.506-1 .644-1 .399-1 .58-.397.456-.881.61-1.128.526-1.429.827-.804.547-1.119.547-.571.162-.571.361-.495.559-1.1.801-1.64.798-2.3 1.235l-1.8 1.074c-.33.154-2.181 1.236-4.114 2.405l-3.68 2.124c-.091 0-.94.495-1.886 1.1l-4.181 2.476c-.474.206-.979.566-1.124.799s-.617.425-1.051.425-.893.27-1.019.6-.459.6-.739.6-.732.27-1.006.6-.817.6-1.206.6-.812.27-.939.6-.585.6-1.019.6-.907.191-1.051.425-.65.593-1.124.799c-1.056.459-2.246 1.21-2.973 1.876-.3.275-.78.5-1.068.5s-.746.27-1.02.6a1.86 1.86 0 0 1-1.249.6c-.413 0-.751.184-.751.41s-.405.567-.9.76-1.583.818-2.418 1.39l-1.686 1.04c-.092 0-1.502.81-3.132 1.8s-3.153 1.8-3.381 1.8-.476.153-.55.34c-.159.407-3.279 2.278-4.833 2.899-.605.241-1.1.602-1.1.8s-.233.361-.519.361-1.752.81-3.259 1.8l-3.061 1.8c-.177 0-1.095.495-2.041 1.1l-4.12 2.507c-.44.223-1.34.76-2 1.193s-1.588.96-2.061 1.169-.979.573-1.124.806-.592.425-.996.425-.837.27-.964.6-.596.6-1.042.6-.813.167-.813.372-.855.79-1.9 1.3-2.138 1.153-2.429 1.428-.785.5-1.1.5-.571.148-.571.329-.855.755-1.9 1.276-2.138 1.182-2.429 1.47-.785.525-1.1.525-.571.168-.571.373-.395.498-.878.652c-.857.272-4.724 2.509-5.122 2.963-.11.126-.65.444-1.2.707s-1.9 1.021-3 1.685l-2.8 1.619c-.44.227-1.34.768-2 1.201s-1.588.96-2.061 1.169-.979.573-1.124.806-.612.425-1.039.425-.776.184-.776.41-.405.567-.9.76-1.583.818-2.418 1.39-1.76 1.04-2.057 1.04-.643.27-.77.6-.601.6-1.055.6-.929.27-1.055.6-.549.6-.939.6-.932.27-1.206.6-.746.6-1.049.6-.551.162-.551.361-.495.559-1.1.8c-1.193.477-4.576 2.409-4.9 2.799-.11.132-1.1.69-2.2 1.24s-2.09 1.112-2.2 1.25-.83.593-1.6 1.013l-3.113 1.863-3.302 1.928c-.874.456-1.689.99-1.811 1.187s-.576.359-1.01.359-.893.27-1.019.6-.454.6-.728.6-1.242.54-2.154 1.2-1.933 1.2-2.272 1.2a.99.99 0 0 0-.846.6c-.127.33-.549.6-.939.6s-.932.27-1.206.6-.746.6-1.049.6-.551.177-.551.392-.443.504-.984.64-1.193.499-1.449.807-.803.561-1.216.561-.751.184-.751.41-.405.593-.9.817c-1.359.615-2.715 1.428-3.214 1.927-.245.245-.751.446-1.123.446a1.04 1.04 0 0 0-.908.6c-.126.33-.581.6-1.009.6s-.839.144-.913.321c-.183.441-4.931 3.279-5.485 3.279-.247 0-.449.135-.451.3-.003.406-2.319 1.7-3.042 1.7-.319 0-.684.27-.81.6s-.413.6-.635.6c-.525 0-5.268 2.858-5.443 3.279-.074.177-.381.321-.683.321s-1.231.468-2.066 1.04-1.878 1.205-2.318 1.406-1.34.721-2 1.154l-2 1.2c-.44.227-1.34.767-2 1.2s-1.588.96-2.061 1.169-.979.573-1.124.806-.612.425-1.039.425-.776.167-.776.372-.855.79-1.9 1.3-2.138 1.153-2.429 1.428-.785.5-1.1.5-.571.168-.571.373-.393.498-.872.65-1.587.794-2.46 1.427-1.831 1.15-2.128 1.15-.54.162-.54.361-.495.553-1.1.789c-1.396.544-4.562 2.323-4.868 2.736-.219.296-.899.686-4.534 2.604-.826.436-1.602.954-1.724 1.151s-.571.359-.998.359-.776.189-.776.421-.54.609-1.2.839-1.2.581-1.2.779-.248.361-.551.361-.775.27-1.049.6-.817.6-1.206.6-.812.27-.939.6a.99.99 0 0 1-.846.6c-.339 0-1.361.54-2.272 1.2s-1.9 1.2-2.197 1.2-.54.18-.54.4c0 .588 126.283.551 126.479-.037.151-.453 3.295-2.414 5.221-3.257.605-.265 1.1-.622 1.1-.794s.248-.312.551-.312.775-.27 1.049-.6.842-.6 1.262-.6.867-.27.993-.6.472-.6.768-.6 1.311-.521 2.257-1.157a50 50 0 0 1 3.32-2.028c.88-.478 2.14-1.215 2.8-1.636s1.56-.952 2-1.179 1.34-.767 2-1.202 1.38-.864 1.6-.955l1-.409c.33-.134 1.14-.603 1.8-1.043s1.515-.909 1.9-1.042.7-.384.7-.557.495-.509 1.1-.747 1.37-.612 1.7-.83c2.112-1.396 6.776-4.015 7.151-4.015.247 0 .449-.168.449-.373s.405-.499.9-.654.99-.392 1.1-.527c.338-.416 1.743-1.235 2.9-1.691.605-.238 1.1-.596 1.1-.794s.243-.361.54-.361 1.285-.54 2.197-1.2 1.906-1.2 2.211-1.2.778-.27 1.052-.6.647-.6.829-.6 1.105-.495 2.051-1.1c2.949-1.886 3.296-2.092 4.181-2.476.474-.206.979-.566 1.124-.799s.513-.425.819-.425 1.356-.54 2.334-1.2 1.977-1.2 2.22-1.2.442-.162.442-.361.495-.559 1.1-.801a15.7 15.7 0 0 0 2.3-1.233c.66-.436 1.56-.975 2-1.198s1.07-.581 1.4-.797c2.257-1.474 6.779-4.01 7.151-4.01.247 0 .449-.18.449-.4s.242-.4.539-.4.954-.36 1.461-.8 1.103-.8 1.323-.8.958-.409 1.639-.908 2.048-1.319 3.038-1.822 2.34-1.261 3-1.686 1.56-.957 2-1.184 1.34-.767 2-1.2 1.649-.983 2.198-1.222 1.572-.871 2.274-1.405 1.537-.973 1.859-.973.687-.27.814-.6.585-.6 1.019-.6.907-.191 1.051-.425.65-.596 1.124-.806 1.401-.736 2.061-1.169 1.588-.96 2.061-1.169.979-.573 1.124-.806.597-.425 1.005-.425.803-.144.877-.321c.183-.441 4.931-3.279 5.485-3.279.247 0 .448-.155.448-.345s.9-.772 2-1.294 2-1.087 2-1.255.202-.306.449-.306c.372 0 4.894-2.536 7.151-4.01.33-.216.96-.574 1.4-.797s1.34-.76 2-1.193 1.588-.96 2.061-1.169.979-.573 1.124-.806.514-.425.821-.425 1.241-.468 2.076-1.04 1.878-1.205 2.318-1.406 1.34-.721 2-1.154 1.56-.973 2-1.2 1.34-.759 2-1.184 2.01-1.187 3-1.694 1.944-1.146 2.12-1.422.671-.5 1.1-.5.78-.139.78-.308.852-.755 1.893-1.3 2.134-1.217 2.428-1.492.695-.5.889-.5 2.387-1.225 4.872-2.723l5.118-3.005c.33-.154 1.14-.636 1.8-1.07s1.649-.985 2.198-1.224 1.572-.871 2.274-1.405 1.546-.973 1.878-.973.721-.191.865-.425.65-.596 1.124-.806 1.401-.736 2.061-1.171 1.47-.916 1.8-1.071.838-.517 1.129-.805a2.13 2.13 0 0 1 1.3-.522c.756 0 .771-.728.771-37.4l-.5-37.363c-.275.02-1.034.335-1.686.7"/><path fill="#848484" d="m398.2 156.825-1.8 1.046c-.33.154-1.883 1.056-3.451 2.005s-3.053 1.724-3.3 1.724-.449.168-.449.373-.385.495-.855.644-2.609 1.332-4.754 2.627l-4.345 2.356c-.245 0-.446.18-.446.4s-.202.4-.449.4c-.372 0-4.894 2.536-7.151 4.01-.33.216-.96.574-1.4.797s-1.34.76-2 1.193-1.646.982-2.192 1.219-1.085.555-1.2.706-1.018.69-2.008 1.197l-3 1.694-2 1.185-2.8 1.624-3.2 1.806a29 29 0 0 0-2.4 1.377l-1.8 1.063c-.33.154-1.883 1.056-3.451 2.005s-3.053 1.724-3.3 1.724-.449.148-.449.329-.855.754-1.9 1.272l-4.3 2.397-3 1.732c-.33.154-1.14.631-1.8 1.062a29 29 0 0 1-2.4 1.377c-.66.327-2.1 1.14-3.2 1.806l-2.8 1.624c-.44.227-1.34.758-2 1.18-1.221.78-2.886 1.727-5.4 3.072-.77.412-1.49.861-1.6.998s-1.1.733-2.2 1.327l-8.056 4.665c-1.79 1.077-3.455 1.959-3.7 1.959s-.444.18-.444.4-.202.4-.449.4c-.372 0-4.894 2.536-7.151 4.01-.33.216-.977.557-1.439.758-.75.327-5.421 3.042-6.961 4.046a12 12 0 0 1-1.19.666c-.325.151-2.812 1.59-5.528 3.197l-5.091 2.923c-.085 0-2.241 1.26-4.791 2.8l-4.86 2.8c-.124 0-2.141 1.151-4.482 2.559l-7.658 4.512c-.33.152-1.86 1.018-3.4 1.923l-3.4 1.942c-.33.162-.96.516-1.4.785l-3.598 2.084-3.6 2.079-1.402.776c-.33.16-2.135 1.219-4.01 2.353l-5.2 3.068-3.78 2.126-5.436 3.209-4.31 2.364c-.475.151-.864.442-.864.647s-.202.373-.449.373-1.784.81-3.415 1.8l-3.158 1.8c-.107 0-.955.485-1.886 1.077L195 274.221l-6.231 3.631c-.348.301-.75.548-.893.548s-1.438.72-2.876 1.6l-2.855 1.6c-.281 0-5.05 2.84-5.345 3.184-.11.128-.65.448-1.2.711s-1.9 1.023-3 1.689-2.495 1.41-3.1 1.653-1.1.604-1.1.802-.257.361-.571.361-.81.227-1.1.505-.979.721-1.529.986-1.9 1.025-3 1.689l-2.8 1.62-2.8 1.625-3.2 1.806c-.66.327-1.74.936-2.4 1.354l-5.382 3.066c-.76.412-1.583.929-1.829 1.149s-1.155.76-2.018 1.2L140 306.008c-.11.115-.65.426-1.2.692-1.349.652-3.836 2.093-5.892 3.413-.931.598-1.863 1.087-2.071 1.087s-.618.227-.908.505-.979.721-1.529.986-1.9 1.025-3 1.689l-2.8 1.619c-.44.227-1.34.768-2 1.203l-1.8 1.074c-.703.333-6.324 3.562-7.2 4.136a11 11 0 0 1-1.2.666c-.33.151-1.883 1.049-3.451 1.998s-3.053 1.724-3.3 1.724-.449.148-.449.329-.855.754-1.9 1.274c-1.644.817-7.929 4.451-9.7 5.607-.33.216-.977.557-1.439.758s-1.991 1.067-3.4 1.925-2.831 1.684-3.161 1.837-1.14.634-1.8 1.068a30 30 0 0 1-2 1.213 41 41 0 0 0-1.602.906c-.442.266-2.062 1.201-3.6 2.078L71 345.879a21 21 0 0 1-1.4.781c-.33.16-1.883 1.067-3.451 2.016s-3.053 1.724-3.3 1.724-.449.168-.449.373-.389.496-.864.647-2.41 1.209-4.3 2.351L53.2 356.14c-.33.16-.961.509-1.402.776s-2.062 1.202-3.6 2.079l-3.598 2.083c-.44.268-1.16.678-1.6.911s-1.34.778-2 1.211-1.577.956-2.039 1.161-1.991 1.074-3.4 1.932-2.831 1.684-3.161 1.837-1.14.635-1.8 1.07-1.47.917-1.8 1.071-1.883 1.056-3.451 2.005S22.395 374 22.267 374c-.2 0-8.595 4.913-10.267 6.009-.33.216-.977.558-1.439.759s-1.991 1.067-3.4 1.925S4.33 384.377 4 384.53s-1.14.635-1.8 1.07-1.425.902-1.7 1.038c-.582.288-.672.962-.129.962.205 0 .641-.269.97-.598s1.017-.782 1.529-1.006 1.47-.763 2.13-1.198 1.47-.915 1.8-1.069 2.13-1.203 4-2.331 4.255-2.476 5.3-2.995 1.9-1.093 1.9-1.274.202-.329.449-.329c.372 0 4.894-2.536 7.151-4.01.33-.216.977-.557 1.439-.758.745-.325 5.38-3.018 6.961-4.044.33-.215.96-.573 1.4-.796s1.7-.951 2.8-1.617 2.54-1.479 3.2-1.806a29 29 0 0 0 2.4-1.377c.66-.431 1.47-.91 1.8-1.064s2.633-1.507 5.118-3.005 4.62-2.723 4.745-2.723 1.691-.882 3.481-1.959c5.558-3.345 6.033-3.621 6.875-3.995.45-.2 2.481-1.373 4.514-2.605s3.776-2.241 3.874-2.241 1.38-.735 2.847-1.633 3.046-1.801 3.507-2.006 1.379-.718 2.039-1.14 1.869-1.133 2.687-1.581 2.258-1.31 3.2-1.917c1.82-1.171 1.892-1.213 5.913-3.395 1.43-.777 3.78-2.135 5.223-3.018s3.018-1.733 3.5-1.886.877-.426.877-.608.45-.442 1-.58 1-.428 1-.644.257-.392.571-.392.81-.225 1.1-.5 1.339-.915 2.329-1.422 2.34-1.269 3-1.694 1.56-.937 2-1.138 1.43-.789 2.2-1.306 2.21-1.354 3.2-1.861c1.987-1.016 3.055-1.631 7.856-4.52 1.79-1.077 3.455-1.959 3.7-1.959s.444-.18.444-.4.257-.4.571-.4.841-.269 1.17-.598 1.017-.774 1.529-.989 1.83-.932 2.93-1.595 2.36-1.39 2.8-1.617 1.34-.768 2-1.201 1.646-.982 2.192-1.219 1.086-.555 1.2-.706.838-.612 1.608-1.024c2.514-1.345 4.179-2.292 5.4-3.072.66-.422 1.579-.936 2.043-1.141s1.854-1.022 3.09-1.813 2.658-1.618 3.158-1.837 1.449-.745 2.109-1.167c1.222-.78 2.89-1.729 5.4-3.072.77-.412 1.46-.884 1.533-1.049s.319-.3.546-.3 2.2-1.08 4.385-2.4 4.046-2.4 4.135-2.4.961-.54 1.939-1.2 1.964-1.2 2.191-1.2.652-.225.942-.5 1.339-.915 2.329-1.422 2.34-1.269 3-1.694 1.56-.957 2-1.184 1.34-.757 2-1.179c1.233-.787 3.335-1.992 5.8-3.323.77-.416 1.94-1.101 2.6-1.523s1.469-.894 1.799-1.051 2.356-1.329 4.504-2.605 4.084-2.319 4.302-2.319a.4.4 0 0 0 .395-.4c0-.22.202-.4.449-.4s1.732-.776 3.3-1.724 3.121-1.851 3.451-2.005 1.14-.632 1.8-1.063a29 29 0 0 1 2.4-1.377c.66-.327 2.1-1.14 3.2-1.806s2.36-1.398 2.8-1.625 1.7-.959 2.8-1.625 2.54-1.484 3.2-1.817c1.377-.695 2.133-1.144 4.492-2.666.931-.601 1.769-1.092 1.863-1.092s1.989-1.08 4.212-2.4 4.22-2.4 4.438-2.4a.4.4 0 0 0 .395-.4c0-.22.201-.4.446-.4s2.2-1.06 4.345-2.356 4.284-2.477 4.754-2.627.855-.439.855-.644.202-.373.449-.373 1.732-.776 3.3-1.724 3.121-1.856 3.451-2.016a21 21 0 0 0 1.4-.776c.44-.266 1.88-1.102 3.2-1.858s2.49-1.475 2.6-1.6 1.01-.641 2-1.148 2.34-1.269 3-1.694 1.56-.957 2-1.183 1.43-.793 2.2-1.259 2.39-1.384 3.6-2.038 4.116-2.339 6.458-3.746 4.456-2.558 4.7-2.558.442-.159.442-.353.315-.469.7-.61c.92-.337 3.046-1.496 3.3-1.799.11-.131.83-.572 1.6-.979 3.174-1.681 5.836-3.189 6.4-3.627.33-.256 1.41-.873 2.4-1.371s2.34-1.252 3-1.677 1.56-.957 2-1.184 1.34-.757 2-1.179c1.233-.787 3.335-1.992 5.8-3.323.77-.416 1.94-1.101 2.6-1.523s1.47-.893 1.8-1.047 2.334-1.327 4.454-2.605 4.055-2.323 4.3-2.323.446-.16.446-.357.45-.469 1-.607 1-.428 1-.644.202-.392.449-.392 1.732-.776 3.3-1.724 3.121-1.849 3.451-2.001 1.68-.909 3-1.681 2.76-1.585 3.2-1.805 1.34-.756 2-1.189 1.56-.974 2-1.201 1.7-.956 2.8-1.619 2.45-1.422 3-1.685 1.094-.606 1.208-.762.655-.476 1.2-.713c1.014-.439 1.396-.659 7.048-4.061 1.79-1.077 3.455-1.959 3.7-1.959s.444-.16.444-.357.45-.469 1-.607 1-.428 1-.644.202-.392.449-.392c.373 0 4.944-2.564 7.151-4.012.33-.216.87-.511 1.2-.655s1.902-1.042 3.493-1.997 3.166-1.736 3.5-1.736.607-.27.607-.6c0-.763-.315-.724-1.8.225M283.144 282.423c-.894.779-.898.8-.066.397.482-.233.988-.603 1.123-.822.394-.636-.038-.463-1.057.425M249.9 301.829c-.825.541-1.5 1.085-1.5 1.209 0 .228 2.67-1.275 3.38-1.902.805-.712-.43-.256-1.88.693m145.151 6.973-4.879 2.798c-.071 0-2.344 1.318-5.051 2.93l-10.721 6.263-11.4 6.625-7.2 4.184c-.88.491-4.433 2.581-7.895 4.645L341.423 340c-.17 0-8.8 5.074-10.223 6.01-.33.217-.87.516-1.2.664s-2.94 1.643-5.8 3.324l-9.4 5.496-5.6 3.27c-.77.456-1.67.955-2 1.109s-2.633 1.506-5.118 3.004-4.593 2.723-4.683 2.723-3.343 1.89-7.227 4.2l-7.192 4.2c-.132 0-9.896 5.701-10.98 6.412-.33.216-.869.518-1.197.671s-3.27 1.861-6.538 3.797l-6.085 3.52c-.079 0-2.177 1.219-4.662 2.71l-9.418 5.5c-2.694 1.534-4.899 2.925-4.9 3.09s36.18.3 80.4.3H400v-47l-.1-46.998c-.055 0-2.237 1.26-4.849 2.8M188.8 337.8c-.278.335-.321.6-.098.6s.624-.27.898-.6c.278-.335.321-.6.098-.6s-.624.27-.898.6m-10.9 6.429c-.825.541-1.5 1.064-1.5 1.163 0 .265 2.763-1.409 3.025-1.832.311-.503.173-.443-1.525.669m-48.4 28.4c-.825.541-1.5 1.085-1.5 1.209 0 .228 2.67-1.275 3.38-1.902.805-.712-.43-.256-1.88.693M98.4 391c-.278.335-.321.6-.098.6s.624-.27.898-.6.321-.6.098-.6-.624.27-.898.6m-8.9 5.229c-.825.541-1.5 1.08-1.5 1.199 0 .303 2.371-1.12 2.88-1.728.578-.691.351-.604-1.38.529"/><path fill="#070707" d="m396 158.866-3.4 1.976a12 12 0 0 0-1.4.748c-2.257 1.474-6.779 4.01-7.151 4.01-.247 0-.449.177-.449.392s-.45.506-1 .644-1 .411-1 .607-.2.357-.444.357-1.91.882-3.7 1.959l-7.048 4.061c-.545.237-1.085.557-1.2.713s-.658.499-1.208.762-1.9 1.021-3 1.685l-2.8 1.619c-.44.227-1.34.768-2 1.201l-2 1.189-3.2 1.805-3 1.681c-.33.152-1.883 1.052-3.451 2.001s-3.053 1.724-3.3 1.724-.449.177-.449.392-.45.506-1 .644-1 .411-1 .607-.201.357-.446.357-2.18 1.045-4.3 2.323l-4.454 2.605c-.33.154-1.14.626-1.8 1.047l-2.6 1.523-5.8 3.323-2 1.179c-.44.227-1.34.759-2 1.184s-2.01 1.18-3 1.677-2.07 1.115-2.4 1.371c-.564.438-3.226 1.946-6.4 3.627-.77.407-1.49.848-1.6.979-.254.303-2.38 1.462-3.3 1.799-.385.141-.7.415-.7.61s-.199.353-.442.353-2.359 1.151-4.7 2.558l-6.458 3.746-3.6 2.038-2.2 1.259c-.44.226-1.34.758-2 1.183s-2.01 1.187-3 1.694l-2 1.148c-.11.125-1.28.845-2.6 1.6l-3.2 1.858-1.4.776c-.33.16-1.883 1.067-3.451 2.016s-3.053 1.724-3.3 1.724-.449.168-.449.373-.385.495-.855.644-2.609 1.332-4.754 2.627l-4.345 2.356c-.245 0-.446.18-.446.4a.4.4 0 0 1-.395.4c-.218 0-2.214 1.08-4.438 2.4l-4.212 2.4c-.094 0-.932.491-1.863 1.092l-4.492 2.666-3.2 1.817-2.8 1.625-2.8 1.625-3.2 1.806a29 29 0 0 0-2.4 1.377l-1.8 1.063c-.33.154-1.883 1.056-3.451 2.005s-3.053 1.724-3.3 1.724-.449.18-.449.4a.4.4 0 0 1-.395.4c-.218 0-2.153 1.044-4.302 2.319l-4.504 2.605c-.33.157-1.139.63-1.799 1.051l-2.6 1.523-5.8 3.323-2 1.179c-.44.227-1.34.759-2 1.184s-2.01 1.187-3 1.694-2.038 1.147-2.329 1.422-.714.5-.942.5-1.213.54-2.191 1.2l-1.939 1.2c-.089 0-1.95 1.08-4.135 2.4l-4.385 2.4c-.227 0-.472.135-.546.3s-.763.637-1.533 1.049l-5.4 3.072c-.66.422-1.609.947-2.109 1.167s-1.921 1.046-3.158 1.837l-3.09 1.813c-.464.205-1.383.719-2.043 1.141-1.221.78-2.886 1.727-5.4 3.072-.77.412-1.493.873-1.608 1.024s-.655.469-1.2.706-1.532.786-2.192 1.219l-2 1.201-2.8 1.617-2.93 1.595c-.512.215-1.2.659-1.529.989s-.855.598-1.17.598-.571.18-.571.4-.2.4-.444.4-1.91.882-3.7 1.959l-7.856 4.52c-.99.507-2.43 1.344-3.2 1.861s-1.76 1.105-2.2 1.306-1.34.713-2 1.138-2.01 1.187-3 1.694-2.038 1.147-2.329 1.422-.785.5-1.1.5-.571.177-.571.392-.45.506-1 .644-1 .399-1 .58-.395.455-.877.608-2.057 1.002-3.5 1.886l-5.223 3.018-5.913 3.395-3.2 1.917-2.687 1.581c-.66.422-1.577.935-2.039 1.14s-2.039 1.108-3.507 2.006l-2.847 1.633c-.098 0-1.842 1.008-3.874 2.241l-4.514 2.605c-.842.374-1.317.65-6.875 3.995l-3.481 1.959c-.125 0-2.26 1.225-4.745 2.723l-5.118 3.005c-.33.154-1.14.633-1.8 1.064a29 29 0 0 1-2.4 1.377c-.66.327-2.1 1.14-3.2 1.806l-2.8 1.617-1.4.796-6.961 4.044c-.462.201-1.109.542-1.439.758-2.257 1.474-6.779 4.01-7.151 4.01-.247 0-.449.148-.449.329s-.855.754-1.9 1.274-3.43 1.867-5.3 2.995l-4 2.331c-.33.154-1.14.637-1.8 1.074s-1.695.993-2.3 1.235-1.1.591-1.1.774-.36.448-.8.588c-.736.234-.8.605-.8 4.627 0 4.924.025 4.953 2.662 3.173.978-.66 1.949-1.2 2.158-1.2s.38-.177.38-.392.45-.506 1-.644 1-.411 1-.607.202-.357.449-.357 1.749-.789 3.337-1.753 3.276-1.876 3.751-2.027.863-.422.863-.604.45-.442 1-.58 1-.428 1-.644.243-.392.54-.392 1.285-.54 2.197-1.2 1.917-1.2 2.236-1.2.698-.191.842-.425.65-.593 1.124-.799 1.214-.6 1.646-.875l5.615-3.312c1.453-.739 3.538-1.962 5.615-3.292a14 14 0 0 1 1.385-.775c.33-.151 1.883-1.049 3.451-1.998s3.053-1.724 3.3-1.724.449-.168.449-.373.385-.495.856-.645 2.909-1.511 5.418-3.027l4.758-2.755c.107 0 1.983-1.08 4.168-2.4l4.229-2.4c.14 0 1.055-.54 2.033-1.2s1.961-1.2 2.185-1.2.98-.438 1.681-.973 1.725-1.167 2.274-1.405 1.538-.789 2.198-1.224l1.8-1.07c.33-.155 2.334-1.327 4.454-2.605l4.127-2.323c.15 0 .862-.45 1.583-1s1.452-1 1.623-1c.265 0 5.148-2.792 7.013-4.01.33-.216.977-.557 1.439-.758s1.991-1.067 3.4-1.925l3.161-1.837c.33-.154 1.14-.624 1.8-1.046 1.038-.664 2.947-1.742 6.006-3.39.443-.239 1.343-.807 2-1.264s2.004-1.24 2.994-1.741 1.944-1.164 2.12-1.471.55-.558.832-.558c.645 0 6.632-3.343 7.482-4.177.348-.343.84-.623 1.093-.623.381 0 4.197-2.13 6.473-3.614a10 10 0 0 1 1.2-.655c.33-.145 2.31-1.28 4.4-2.522l4.4-2.538c.33-.154 1.14-.635 1.8-1.069s1.56-.955 2-1.156 1.483-.834 2.318-1.406 1.696-1.04 1.914-1.04c.43 0 2.439-1.205 2.776-1.666.115-.156.655-.483 1.2-.726 1.423-.634 2.789-1.445 3.306-1.962.245-.245.708-.446 1.028-.446s1.139-.424 1.82-.942 2.048-1.353 3.038-1.854 1.894-1.056 2.008-1.233.655-.507 1.2-.735 1.892-.956 2.992-1.62l3-1.703c.55-.273 1.09-.59 1.2-.705s1.055-.654 2.1-1.2 1.9-1.13 1.9-1.3.261-.308.58-.308 1.38-.54 2.358-1.2 1.89-1.2 2.028-1.2 1.011-.485 1.942-1.077l3.292-1.944 3-1.718 2.2-1.262c.44-.226 1.34-.758 2-1.183s2.01-1.187 3-1.694 1.86-1.057 1.933-1.222.361-.3.639-.3.921-.36 1.428-.8 1.069-.8 1.247-.8 1.906-.957 3.839-2.126l5.414-3.071c1.045-.52 1.9-1.093 1.9-1.274s.202-.329.449-.329c.365 0 4.154-2.117 7.151-3.994.33-.207 1.41-.782 2.4-1.279s2.456-1.404 3.258-2.015 1.736-1.112 2.076-1.112.737-.191.881-.425.65-.593 1.124-.799c.885-.384 1.232-.59 4.181-2.476.946-.605 1.981-1.1 2.3-1.1s.58-.168.58-.373.405-.499.9-.654.99-.399 1.1-.544 2.81-1.752 6-3.573l6.4-3.655 7.6-4.413c.33-.216.87-.511 1.2-.655s1.902-1.042 3.493-1.997l3.169-1.736c.151 0 .559-.247.907-.549.578-.503 2.859-1.818 6.431-3.71.77-.407 1.49-.856 1.6-.996s1.46-.943 3-1.784 3.038-1.761 3.329-2.045.692-.516.893-.516c.307 0 4.352-2.292 6.378-3.614.33-.216 1.05-.611 1.6-.88s2.581-1.437 4.514-2.597l3.742-2.109c.125 0 1.028-.54 2.006-1.2s1.922-1.2 2.098-1.2 1.025-.495 1.888-1.1a30 30 0 0 1 3.16-1.899c.875-.44 1.83-1.025 2.121-1.3s.714-.501.942-.501 1.213-.54 2.191-1.2 1.922-1.2 2.098-1.2 1.065-.54 1.977-1.2 1.857-1.2 2.102-1.2 1.245-.54 2.223-1.2l1.951-1.2c.095 0 1.301-.68 2.68-1.511l3.507-2.003c1.434-.707 4.564-2.562 4.8-2.846.11-.132.83-.577 1.6-.989l5.4-3.072c.66-.422 1.577-.935 2.039-1.14.756-.336 5.465-3.078 6.961-4.053a11 11 0 0 1 1.2-.663c.33-.149 1.92-1.048 3.533-1.997l3.127-1.726c.106 0 .783-.45 1.504-1s1.479-1 1.683-1 1.328-.63 2.497-1.4 2.321-1.4 2.559-1.4.718-.252 1.066-.559 1.711-1.139 3.031-1.847 2.49-1.419 2.6-1.581.92-.631 1.8-1.041 2.23-1.175 3-1.699 1.76-1.118 2.2-1.32 1.61-.839 2.6-1.417l3-1.711 5.215-3.114a34 34 0 0 1 2.085-1.146l1.3-.656v-4.155c0-4.93-.039-4.955-4-2.488m-.6 52.174-4.4 2.59c-.44.209-1.43.757-2.2 1.217l-6.8 4.02-6 3.57c-.33.213-.915.492-1.3.621s-.7.394-.7.589-.199.353-.442.353-3.078 1.585-6.3 3.522l-6.458 3.804c-.33.156-1.14.639-1.8 1.074l-1.8 1.076c-.694.329-6.31 3.554-7.2 4.134-.33.216-.96.574-1.4.797a26 26 0 0 0-2 1.195l-1.8 1.071c-.33.155-3.03 1.742-6 3.527l-6 3.52c-.33.151-.87.448-1.2.66l-6.8 4.007-6.8 4.02c-.33.219-.87.523-1.2.676s-3.717 2.132-7.526 4.398l-7.078 4.119c-.083 0-3.113 1.783-6.733 3.962l-8.004 4.637c-.782.371-1.633.928-1.89 1.238s-.647.563-.867.563-1.735.81-3.366 1.8l-3.132 1.8c-.093 0-.851.468-1.686 1.04s-1.878 1.205-2.318 1.406-1.34.713-2 1.138l-2.2 1.317-7 4.075-11.184 6.577-6 3.531a19 19 0 0 1-1.416.761 7 7 0 0 0-1.2.768c-.33.27-1.86 1.175-3.4 2.012s-4.381 2.478-6.314 3.648-3.617 2.127-3.742 2.127-1.028.54-2.006 1.2-1.878 1.2-2 1.2-1.022.54-2 1.2-1.853 1.2-1.944 1.2-1.5.81-3.13 1.8-3.168 1.8-3.415 1.8-.449.168-.449.373-.405.496-.9.646-1.473.703-2.173 1.227-1.394.954-1.541.954-2.634 1.421-5.527 3.158L198 326.755l-2 1.112c-.511.232-9.405 5.443-11.2 6.561-.33.206-.96.533-1.4.728s-1.763 1.005-2.94 1.799-2.231 1.445-2.341 1.445-2.594 1.44-5.519 3.2-5.455 3.2-5.621 3.2-.893.45-1.615 1-1.441 1-1.6 1-2.017 1.051-4.127 2.337-4.107 2.457-4.437 2.604-1.14.623-1.8 1.057-1.56.955-2 1.156-1.483.834-2.318 1.406-1.591 1.04-1.681 1.04-1.952 1.08-4.137 2.4-4.151 2.4-4.369 2.4-.608.254-.866.566-1.226.942-2.149 1.402-1.95 1.011-2.28 1.225c-1.006.652-7.707 4.617-9.61 5.687-3.438 1.933-9.478 5.46-12.131 7.084-1.47.9-2.779 1.636-2.908 1.636s-1.035.54-2.013 1.2-1.878 1.2-2 1.2-1.022.54-2 1.2-1.853 1.2-1.944 1.2-1.964 1.08-4.162 2.4-4.184 2.4-4.414 2.4-.418.14-.418.311-1.35 1.015-3 1.876-3 1.71-3 1.888-.282.325-.627.325-1.199.43-1.9.956-2.173 1.439-3.273 2.029c-4.16 2.232-5.98 3.355-6.121 3.778-.273.819 9.772.572 10.692-.263 1.438-1.305 1.994-1.7 2.392-1.7.218 0 1.171-.516 2.117-1.146 1.747-1.164 4.668-2.908 6.12-3.655.44-.226 1.34-.766 2-1.199s1.588-.96 2.061-1.169.979-.573 1.124-.806.597-.425 1.005-.425.803-.145.877-.323c.149-.362 6.884-4.477 7.327-4.477.155 0 .85-.405 1.544-.899 1.279-.911 1.988-1.326 5.248-3.072.998-.534 1.814-1.119 1.814-1.3s.301-.329.669-.329.952-.241 1.3-.536c.683-.58 6.753-4.264 7.025-4.264.091 0 .94-.495 1.886-1.1 2.949-1.886 3.296-2.092 4.181-2.476.474-.206.979-.566 1.124-.799s.597-.425 1.005-.425.803-.144.877-.321c.139-.336 4.868-3.279 5.268-3.279.126 0 .912-.468 1.747-1.04s1.878-1.205 2.318-1.406 1.34-.713 2-1.138 1.965-1.174 2.9-1.665 1.7-1.041 1.7-1.222.202-.329.449-.329c.372 0 4.894-2.536 7.151-4.01.33-.216 1.019-.572 1.53-.793s1.2-.669 1.529-.999.855-.598 1.17-.598.571-.18.571-.4.248-.4.551-.4.775-.27 1.049-.6a1.86 1.86 0 0 1 1.249-.6c.413 0 .751-.161.751-.358s.72-.737 1.6-1.2l3.2-1.684c.88-.463 1.6-1.003 1.6-1.2s.261-.358.58-.358 1.354-.495 2.3-1.1c2.909-1.86 3.293-2.09 4.12-2.461.44-.197 1.483-.827 2.318-1.399s1.618-1.04 1.742-1.04 1.024-.54 2.002-1.2 1.853-1.2 1.944-1.2 1.5-.81 3.13-1.8 3.168-1.8 3.415-1.8.449-.148.449-.329.765-.728 1.7-1.215 1.97-1.047 2.3-1.243c3.827-2.272 6.86-4.013 6.994-4.013.091 0 .94-.516 1.886-1.146 1.747-1.164 4.668-2.908 6.12-3.655.44-.226 1.34-.766 2-1.199s1.588-.96 2.061-1.169.979-.573 1.124-.806.597-.425 1.005-.425.803-.144.877-.321c.183-.441 4.931-3.279 5.485-3.279.247 0 .448-.177.448-.392s.45-.506 1-.644 1-.379 1-.536.855-.705 1.9-1.217 2.674-1.444 3.62-2.071 1.795-1.14 1.886-1.14 1.747-.956 3.68-2.124L246 304.26c.667-.324 1.438-.79 3.8-2.297.88-.562 1.87-1.145 2.2-1.297s1.14-.631 1.8-1.066 1.47-.915 1.8-1.066 1.892-1.052 3.472-2.004 2.966-1.73 3.08-1.73.982-.521 1.928-1.157 2.44-1.546 3.32-2.021 1.87-1.031 2.2-1.235c1.929-1.194 9.897-5.879 10.4-6.115.33-.154 1.14-.642 1.8-1.084s1.695-1.019 2.3-1.283 1.1-.621 1.1-.793.248-.312.551-.312.775-.27 1.049-.6.737-.6 1.029-.6 1.305-.521 2.251-1.157 2.495-1.582 3.442-2.1c2.008-1.099 2.523-1.405 4.678-2.78.88-.562 1.87-1.145 2.2-1.296.619-.283 1.14-.589 6.656-3.908 1.79-1.077 3.44-1.959 3.666-1.959a.62.62 0 0 0 .545-.349c.073-.192 1.033-.827 2.133-1.411s2.54-1.415 3.2-1.846 1.47-.911 1.8-1.065 2.181-1.236 4.114-2.405 3.589-2.124 3.68-2.124.966-.54 1.944-1.2 1.878-1.2 2-1.2 1.022-.54 2-1.2 1.872-1.2 1.987-1.2 2.039-1.08 4.275-2.4 4.231-2.4 4.433-2.4a.37.37 0 0 0 .367-.373c0-.205.379-.493.841-.64s1.498-.717 2.3-1.267 1.819-1.162 2.259-1.359a12 12 0 0 0 1.4-.757c1.644-1.09 6.867-4.004 7.178-4.004.196 0 .415-.153.489-.339s.943-.791 1.933-1.344c3.871-2.159 5.173-2.911 10-5.773l5.6-3.337c.33-.205 1.86-1.102 3.4-1.994l3.4-2.014a198 198 0 0 1 7.2-4.141 20 20 0 0 0 1.4-.776c4.675-2.84 8.634-5.082 8.978-5.082.256 0 .422-1.102.422-2.8 0-3.42.049-3.414-4.6-.56m2.286 80.573c-.943.653-1.9 1.187-2.127 1.187s-.986.438-1.687.973-1.725 1.167-2.274 1.405-1.538.789-2.198 1.224-1.47.913-1.8 1.064-1.32.733-2.2 1.291c-1.521.966-2.438 1.504-6.6 3.871l-3.4 1.99c-.88.531-1.87 1.094-2.2 1.251s-2.58 1.475-5 2.931l-5 2.928c-.33.154-1.14.636-1.8 1.07s-1.649.985-2.198 1.224-1.572.871-2.274 1.405-1.459.973-1.684.973-1.091.468-1.926 1.04-1.878 1.205-2.318 1.406-1.34.721-2 1.156-1.47.915-1.8 1.069-1.883 1.056-3.451 2.005-3.053 1.724-3.3 1.724-.449.162-.449.361-.495.559-1.1.8-2.72 1.419-4.7 2.615-3.81 2.187-4.067 2.2-.526.168-.6.345c-.135.327-4.862 3.279-5.25 3.279-.117 0-2.253 1.227-4.748 2.726l-5.135 3.005c-.33.153-1.14.633-1.8 1.067s-1.56.974-2 1.199-1.7.947-2.8 1.605-2.45 1.417-3 1.688-1.09.609-1.2.75-1.1.742-2.2 1.336c-2.488 1.341-3.712 2.053-9.058 5.265-2.341 1.408-4.394 2.559-4.562 2.559s-.861.424-1.542.942-1.643 1.071-2.138 1.227-.9.453-.9.658-.2.373-.444.373-1.91.882-3.7 1.959l-6.656 3.908c-.33.151-1.32.727-2.2 1.281s-2.32 1.396-3.2 1.873-2.23 1.25-3 1.718-1.76 1.036-2.2 1.262-1.34.766-2 1.201-1.47.916-1.8 1.07-2.6 1.487-5.044 2.96-4.829 2.801-5.3 2.95-.856.44-.856.645-.199.373-.442.373-2.385 1.17-4.758 2.6-4.514 2.6-4.758 2.6-.442.159-.442.353-.315.463-.7.596-1.24.591-1.9 1.018-2.01 1.218-3 1.757-2.43 1.359-3.2 1.823-1.76 1.028-2.2 1.254-1.34.766-2 1.199-1.56.953-2 1.154-1.483.834-2.318 1.406-1.78 1.04-2.1 1.04-.582.139-.582.308-.81.751-1.8 1.292-1.8 1.122-1.8 1.292c0 .431 26.303.388 26.467-.044.073-.194 3.126-2.072 6.783-4.174l9.307-5.448c1.462-.894 2.727-1.626 2.812-1.626.158 0 11.943-6.877 13.031-7.604.33-.221.87-.524 1.2-.673s2.816-1.589 5.525-3.198L282.98 374c.072 0 3.308-1.89 7.192-4.2l7.227-4.2c.09 0 2.198-1.225 4.683-2.723l5.118-3.004c.33-.154 1.23-.653 2-1.109l5.6-3.27 15.6-9.11a11 11 0 0 1 1.2-.663c.33-.151 2.633-1.5 5.118-2.998S341.32 340 341.423 340s3.019-1.689 6.482-3.753l7.895-4.645c.88-.491 4.12-2.373 7.2-4.184l11.4-6.626 10-5.821 5.68-3.311c.813-.453 3.378-1.931 5.7-3.285l4.22-2.462v-7.757c0-4.266-.135-7.75-.3-7.743s-1.071.547-2.014 1.2"/><path fill="#fbfbfb" d="m0 193.2.208 193.2c.114 0 .921-.45 1.792-1s1.746-1 1.943-1 .583-.27.857-.6a1.86 1.86 0 0 1 1.249-.6c.413 0 .751-.164.751-.364s.855-.773 1.9-1.273 1.994-1.044 2.108-1.21.655-.497 1.2-.734 1.532-.776 2.192-1.198l5.382-3.072c.76-.412 1.628-.974 1.928-1.249s.706-.5.9-.5 2.387-1.225 4.872-2.723l5.118-3.005c.33-.154 1.14-.633 1.8-1.064a29 29 0 0 1 2.4-1.377c.66-.327 2.1-1.14 3.2-1.806s2.388-1.383 2.861-1.594.979-.573 1.124-.806.612-.425 1.039-.425.776-.167.776-.372.855-.789 1.9-1.3 1.994-1.051 2.108-1.203.655-.469 1.2-.706 1.532-.776 2.192-1.198l5.382-3.072c.76-.412 1.628-.974 1.928-1.249s.804-.5 1.119-.5.571-.18.571-.4a.4.4 0 0 1 .395-.4c.218 0 2.153-1.044 4.302-2.319l4.504-2.605c.33-.157 1.139-.637 1.799-1.068a29 29 0 0 1 2.4-1.377c.66-.327 2.1-1.14 3.2-1.806s2.36-1.397 2.8-1.624 1.34-.76 2-1.185 2.01-1.187 3-1.694 1.894-1.045 2.008-1.197.655-.469 1.2-.706 1.532-.776 2.192-1.198c1.221-.78 2.886-1.727 5.4-3.072.77-.412 1.49-.853 1.6-.981s1.055-.655 2.1-1.171 1.9-1.087 1.9-1.268.202-.329.449-.329 1.732-.776 3.3-1.724 3.121-1.851 3.451-2.005 1.14-.632 1.8-1.063a29 29 0 0 1 2.4-1.377c.66-.327 2.1-1.14 3.2-1.806s2.36-1.397 2.8-1.624 1.34-.768 2-1.201 1.588-.96 2.061-1.169.979-.573 1.124-.806.612-.425 1.039-.425.776-.162.776-.361.495-.559 1.1-.801 1.64-.791 2.3-1.22a47 47 0 0 1 4.868-2.818l2.132-1.229s1.01-.667 2-1.201 1.86-1.105 1.933-1.27.319-.3.546-.3 2.167-1.06 4.312-2.356 4.284-2.477 4.754-2.627.855-.439.855-.644.175-.373.388-.373 1.699-.774 3.3-1.72l3.512-2.004c.33-.157 1.14-.64 1.8-1.074s1.588-.962 2.061-1.171.979-.573 1.124-.806.592-.425.996-.425.837-.27.964-.6.56-.6.962-.6.934-.201 1.179-.446c.491-.491 1.841-1.304 3.175-1.912.474-.216.979-.584 1.124-.817s.592-.425.996-.425.837-.27.964-.6.596-.6 1.042-.6.813-.139.813-.308.852-.755 1.893-1.3 2.134-1.217 2.428-1.492.695-.5.889-.5 2.141-1.08 4.326-2.4 4.173-2.4 4.418-2.4.446-.159.446-.353.315-.469.7-.61c.92-.337 3.046-1.496 3.3-1.799.11-.131.83-.575 1.6-.987l5.4-3.077c.66-.424 1.695-.97 2.3-1.212s1.102-.558 1.104-.701.812-.616 1.8-1.051 1.796-.911 1.796-1.061.495-.469 1.1-.711a15.7 15.7 0 0 0 2.3-1.233c.66-.436 1.588-.965 2.061-1.174s.979-.573 1.124-.806.612-.425 1.039-.425.776-.177.776-.392.45-.506 1-.644 1-.394 1-.568.495-.513 1.1-.751 1.37-.612 1.7-.83c2.112-1.396 6.776-4.015 7.151-4.015.247 0 .449-.148.449-.329s.855-.754 1.9-1.272 2.98-1.597 4.3-2.397 2.67-1.579 3-1.732 1.14-.634 1.8-1.068 1.646-.984 2.192-1.221 1.085-.567 1.2-.734 1.018-.707 2.008-1.201 2.34-1.244 3-1.666 1.56-.959 2-1.191c1.7-.899 2.685-1.514 3.114-1.943.245-.245.77-.446 1.166-.446s.72-.177.72-.392.45-.506 1-.644 1-.394 1-.568.495-.516 1.1-.758 1.64-.79 2.3-1.217 2.01-1.192 3-1.699 1.993-1.102 2.229-1.322 1.134-.76 1.994-1.2 1.805-1.025 2.099-1.3.792-.5 1.107-.5.571-.141.571-.312.495-.523 1.1-.781c1.158-.493 3.616-1.877 5.3-2.985 1.289-.847 5.056-2.99 6.6-3.754.66-.326 1.74-.945 2.4-1.375a29 29 0 0 1 2-1.193c.44-.227 1.34-.767 2-1.2s1.588-.96 2.061-1.169.979-.573 1.124-.806.612-.425 1.039-.425.776-.177.776-.392.45-.506 1-.644 1-.394 1-.568.495-.521 1.1-.769c1.408-.578 2.845-1.412 3.414-1.981a1.84 1.84 0 0 1 1.133-.446c.377 0 .746-.144.82-.321.183-.441 4.931-3.279 5.485-3.279.247 0 .448-.145.448-.323s.75-.654 1.666-1.058a27 27 0 0 0 3.3-1.823c1.954-1.301 4.575-2.826 7.034-4.092 1.625-.837 3.645-2.02 5.815-3.405.432-.275 1.173-.669 1.646-.875s.979-.566 1.124-.799.612-.425 1.039-.425.776-.164.776-.364.855-.776 1.9-1.28 2.138-1.149 2.429-1.435.785-.521 1.1-.521.571-.162.571-.361.495-.556 1.1-.794 1.37-.612 1.7-.83c1.472-.974 6.724-4.015 6.933-4.015.127 0 2.264-1.225 4.749-2.723l5.118-3.005c.33-.154 1.14-.633 1.8-1.064a29 29 0 0 1 2.4-1.377c.66-.327 2.1-1.14 3.2-1.806s2.388-1.383 2.861-1.594.979-.573 1.124-.806.597-.425 1.005-.425.803-.142.877-.316c.144-.342 3.922-2.714 5.291-3.322.463-.206 1.382-.729 2.042-1.162s1.56-.953 2-1.154 1.483-.834 2.318-1.406 1.78-1.04 2.1-1.04.582-.168.582-.373.385-.495.856-.645 2.909-1.511 5.418-3.027 4.689-2.761 4.844-2.768.687-.351 1.182-.764l.9-.751V0H0z"/></svg>