<svg xmlns="http://www.w3.org/2000/svg" xml:space="preserve" width="814.333" height="595.28"><path fill="#FFF" stroke="#000" stroke-miterlimit="10" stroke-width="9" d="M556.451 293.269s2.362 3.874 0 6.306-246.423 246.491-246.423 246.491-3.942 3.384-7.326 0L56.474 299.825s-3.408-3.919 0-7.327l245.981-245.98s3.999-3.329 7.328 0L467.251 204"/><path d="m286.93 415.863-.23-5.98c-.69-11.729 3.22-23.689 13.57-36.109 7.359-8.739 13.339-16.1 13.339-23.92 0-8.049-5.289-13.34-16.789-13.799-7.59 0-16.79 2.76-22.77 6.899l-7.82-25.069c8.28-4.83 22.08-9.43 38.409-9.43 30.359 0 44.159 16.789 44.159 35.879 0 17.48-10.81 28.979-19.549 38.64-8.511 9.43-11.96 18.399-11.73 28.749v4.141H286.93zm-5.98 31.74c0-12.19 8.51-20.93 20.47-20.93 12.42 0 20.47 8.739 20.7 20.93 0 11.96-8.28 20.93-20.7 20.93-12.19-.001-20.47-8.97-20.47-20.93"/><path fill="none" stroke="#000" stroke-miterlimit="10" stroke-width="9" d="m523.962 260.696 31.801 31.802c.024.023.04.053.063.076l.184.185a5.18 5.18 0 0 1-.001 7.327l-245.98 245.98a5.18 5.18 0 0 1-7.326 0L56.721 300.086c-.023-.023-.038-.051-.061-.074l-.186-.187a5.18 5.18 0 0 1 0-7.327l245.981-245.98a5.18 5.18 0 0 1 7.328 0l114.778 114.793z"/><path stroke="#000" stroke-miterlimit="10" stroke-width="6" d="M522.522 261.947c-4.986 2.951-10.975 4.462-17.171 4.462-9.656 0-18.356-4.114-24.495-10.693L360.567 134.582l-77.171 48.086-44.222-27-101.402 57.236-79.856 80.907h496.611z"/></svg>