<svg xmlns="http://www.w3.org/2000/svg" viewBox="0 0 258.15 105.15"><defs><style>.cls-1{fill:#ffd300;stroke:#ffd300;}.cls-1,.cls-2{stroke-miterlimit:10.43;stroke-width:0.01px;}.cls-2{fill:#f59d21;stroke:#f59d21;}.cls-3{fill:#010000;}</style></defs><g id="Capa_2" data-name="Capa 2"><g id="Capa_1-2" data-name="Capa 1"><path class="cls-1" d="M0,0H67.6V18.1A59.69,59.69,0,0,0,57.35,19a50.65,50.65,0,0,0-10.92,3.19,27.91,27.91,0,0,0-11.35,8.27A17.32,17.32,0,0,0,33.57,33,21.94,21.94,0,0,1,31,36.53,32,32,0,0,1,18.77,44,50.72,50.72,0,0,1,9.7,46.27a36.35,36.35,0,0,1-4,.48c-1.44.26-2.91.12-4.35.3-.45,0-.9,0-1.34,0Z"/><path class="cls-2" d="M60.55,22c1-.17,2-.1,3-.29,1.34-.07,2.7-.05,4-.08q0,23.19,0,46.4H0V50.51a32.32,32.32,0,0,0,4.51-.13A51.69,51.69,0,0,0,21.91,46.2a29.44,29.44,0,0,0,9.58-6.62c.61-.6,1-1.37,1.57-2,.69-.91,1.1-2,1.73-2.93a22.51,22.51,0,0,1,7.82-7A47.92,47.92,0,0,1,60.55,22Z"/><path class="cls-3" d="M78.24,29H83V50.86h-4.8Z"/><path class="cls-3" d="M101.82,36.37a4.72,4.72,0,0,0-4.77-3.82c-4.31,0-5.93,3.67-5.93,7.49,0,3.64,1.62,7.3,5.93,7.3,2.93,0,4.58-2,5-4.89h4.65c-.49,5.44-4.25,8.93-9.6,8.93-6.76,0-10.73-5-10.73-11.34,0-6.48,4-11.53,10.73-11.53,4.8,0,8.83,2.81,9.41,7.86Z"/><path class="cls-3" d="M125.69,48.38a7.39,7.39,0,0,1-6,3C113,51.38,109,46.34,109,40c0-6.48,4-11.53,10.73-11.53,4.47,0,8.69,2.75,9.2,7.71h-4.58a4.47,4.47,0,0,0-4.62-3.67c-4.31,0-5.93,3.67-5.93,7.49,0,3.64,1.62,7.3,5.93,7.3,3.12,0,4.92-1.68,5.2-4.7h-4.83V39.06h9.17v11.8h-3.06Z"/><path class="cls-3" d="M147.68,36.37a4.72,4.72,0,0,0-4.77-3.82c-4.31,0-5.93,3.67-5.93,7.49,0,3.64,1.62,7.3,5.93,7.3,2.93,0,4.58-2,5-4.89h4.65c-.49,5.44-4.25,8.93-9.6,8.93-6.76,0-10.73-5-10.73-11.34,0-6.48,4-11.53,10.73-11.53,4.8,0,8.83,2.81,9.41,7.86Z"/><path class="cls-3" d="M77.5,55.32h1.2V68H77.5Z"/><path class="cls-3" d="M81.11,58.82h1.11v1.57h0a3.1,3.1,0,0,1,2.92-1.83c2.57,0,3.34,1.34,3.34,3.51V68H87.4v-5.7c0-1.57-.51-2.76-2.32-2.76a2.88,2.88,0,0,0-2.86,3.13V68H81.11Z"/><path class="cls-3" d="M96.08,61.49a2.09,2.09,0,0,0-2.38-2c-1,0-2.16.39-2.16,1.58,0,1,1.13,1.34,1.89,1.53l1.49.34c1.27.2,2.6.94,2.6,2.53,0,2-2,2.74-3.67,2.74-2.12,0-3.57-1-3.74-3.22h1.11a2.4,2.4,0,0,0,2.69,2.28c1,0,2.49-.46,2.49-1.73,0-1.06-1-1.41-2-1.66L93,63.56c-1.45-.39-2.55-.88-2.55-2.44,0-1.86,1.83-2.56,3.43-2.56,1.83,0,3.28.95,3.35,2.93Z"/><path class="cls-3" d="M100.89,58.82h1.86v.94h-1.86v6.15c0,.73.11,1.15.91,1.2a7.66,7.66,0,0,0,1,0v1c-.34,0-.65,0-1,0-1.49,0-2-.49-2-2V59.76H98.19v-.94h1.59V56.08h1.11Z"/><path class="cls-3" d="M104.38,55.32h1.11V57.1h-1.11Zm0,3.5h1.11V68h-1.11Z"/><path class="cls-3" d="M109.4,58.82h1.86v.94H109.4v6.15c0,.73.11,1.15.9,1.2a7.72,7.72,0,0,0,1,0v1c-.34,0-.66,0-1,0-1.49,0-2-.49-2-2V59.76h-1.6v-.94h1.6V56.08h1.11Z"/><path class="cls-3" d="M120.26,68h-1V66.3h0a3.41,3.41,0,0,1-3.15,1.91c-2.3,0-3.2-1.34-3.2-3.47V58.82H114v5.94c.05,1.65.67,2.51,2.44,2.51s2.74-1.8,2.74-3.66V58.82h1.12Z"/><path class="cls-3" d="M124.13,58.82H126v.94h-1.86v6.15c0,.73.11,1.15.9,1.2a7.72,7.72,0,0,0,1,0v1c-.34,0-.66,0-1,0-1.49,0-2-.49-2-2V59.76h-1.6v-.94H123V56.08h1.11Z"/><path class="cls-3" d="M85.61,76.79a2.68,2.68,0,0,0-2.71-2.17c-2.45,0-3.37,2.08-3.37,4.26S80.45,83,82.9,83a2.79,2.79,0,0,0,2.81-2.78h2.65a5.25,5.25,0,0,1-5.46,5.08c-3.84,0-6.1-2.87-6.1-6.45s2.26-6.56,6.1-6.56a5,5,0,0,1,5.35,4.47Z"/><path class="cls-3" d="M89.85,78.81c.14-2.32,2.21-3,4.23-3,1.79,0,3.94.4,3.94,2.55V83a4.51,4.51,0,0,0,.32,2H95.83a4.19,4.19,0,0,1-.17-.87,4.11,4.11,0,0,1-3,1.11c-1.7,0-3.06-.85-3.06-2.69,0-2,1.53-2.52,3.06-2.73s2.92-.17,2.92-1.18-.73-1.22-1.59-1.22-1.55.38-1.64,1.36Zm5.7,1.82a4.8,4.8,0,0,1-2,.52c-.76.16-1.46.42-1.46,1.32s.72,1.15,1.51,1.15a1.84,1.84,0,0,0,2-2.07Z"/><path class="cls-3" d="M99.94,76h2.34v1.67h0a3.18,3.18,0,0,1,2.87-1.91,1.55,1.55,0,0,1,.53.09v2.29a4.58,4.58,0,0,0-.88-.09c-1.81,0-2.44,1.31-2.44,2.89v4H99.94Z"/><path class="cls-3" d="M109.83,76h1.81v1.65h-1.81v4.45c0,.84.21,1,1,1a4.08,4.08,0,0,0,.77-.07v1.93a9.53,9.53,0,0,1-1.45.08c-1.51,0-2.83-.34-2.83-2.13V77.69h-1.5V76h1.5V73.35h2.47Z"/><path class="cls-3" d="M117.18,75.8a4.74,4.74,0,1,1-4.64,4.75A4.42,4.42,0,0,1,117.18,75.8Zm0,7.61c1.69,0,2.19-1.44,2.19-2.86s-.5-2.89-2.19-2.89S115,79.1,115,80.55,115.51,83.41,117.18,83.41Z"/><path class="cls-3" d="M132.08,84.46c0,1.47-.52,4-4.66,4-1.77,0-3.84-.84-4-2.89h2.45a1.67,1.67,0,0,0,1.84,1.24c1.37,0,2-.94,2-2.23V83.38h0a3,3,0,0,1-2.7,1.39c-2.69,0-3.84-2-3.84-4.52S124.5,75.8,127,75.8a2.81,2.81,0,0,1,2.68,1.44h0V76h2.35Zm-2.35-4c0-1.46-.5-2.76-2.1-2.76-1.39,0-2,1.22-2,2.55s.49,2.7,2,2.7A2.21,2.21,0,0,0,129.73,80.42Z"/><path class="cls-3" d="M134.06,76h2.35v1.67h0a3.18,3.18,0,0,1,2.87-1.91,1.65,1.65,0,0,1,.54.09v2.29a4.69,4.69,0,0,0-.89-.09c-1.8,0-2.43,1.31-2.43,2.89v4h-2.47Z"/><path class="cls-3" d="M140.72,78.81c.14-2.32,2.21-3,4.22-3,1.79,0,3.95.4,3.95,2.55V83a4.68,4.68,0,0,0,.31,2h-2.5a3.2,3.2,0,0,1-.17-.87,4.12,4.12,0,0,1-3,1.11c-1.7,0-3.06-.85-3.06-2.69,0-2,1.53-2.52,3.06-2.73s2.92-.17,2.92-1.18-.73-1.22-1.6-1.22-1.55.38-1.63,1.36Zm1.08-6.35h2.73l1.67,2.47h-1.73Zm4.62,8.17a4.84,4.84,0,0,1-2,.52c-.77.16-1.46.42-1.46,1.32s.71,1.15,1.51,1.15a1.84,1.84,0,0,0,2-2.07Z"/><path class="cls-3" d="M151.34,77.69h-1.48V76h1.48v-.69c0-1.59,1-2.73,3-2.73.43,0,.88,0,1.3.07v1.84a8.72,8.72,0,0,0-.9,0c-.66,0-.94.28-.94,1V76h1.7v1.65h-1.7V85h-2.47Zm8.14-3H157v-2h2.47ZM157,76h2.47v9H157Z"/><path class="cls-3" d="M167.54,79.21a1.68,1.68,0,0,0-1.82-1.55c-1.58,0-2.1,1.6-2.1,2.92s.5,2.83,2,2.83a1.9,1.9,0,0,0,2-1.82H170a4,4,0,0,1-4.33,3.68,4.35,4.35,0,0,1-4.53-4.6c0-2.8,1.67-4.87,4.59-4.87,2.12,0,4.06,1.11,4.22,3.41Z"/><path class="cls-3" d="M178.77,74.65h-2.46v-2h2.46ZM176.31,76h2.46v9h-2.46Z"/><path class="cls-3" d="M194.79,83.62a4.2,4.2,0,0,1-3.41,1.71c-3.84,0-6.1-2.87-6.1-6.45s2.26-6.56,6.1-6.56a5,5,0,0,1,5.23,4.38H194a2.54,2.54,0,0,0-2.62-2.08c-2.45,0-3.37,2.08-3.37,4.26s.92,4.15,3.37,4.15a2.68,2.68,0,0,0,3-2.68h-2.74v-2h5.21V85h-1.74Z"/><path class="cls-3" d="M200.78,81.14c.07,1.56.84,2.27,2.21,2.27a2,2,0,0,0,1.95-1.16h2.17a4,4,0,0,1-4.21,3,4.39,4.39,0,0,1-4.59-4.72,4.51,4.51,0,0,1,4.59-4.75c3.06,0,4.54,2.57,4.37,5.34Zm4-1.57c-.23-1.25-.77-1.91-2-1.91a2,2,0,0,0-2.06,1.91Z"/><path class="cls-3" d="M213.09,75.8a4.74,4.74,0,1,1-4.64,4.75A4.41,4.41,0,0,1,213.09,75.8Zm0,7.61c1.69,0,2.19-1.44,2.19-2.86s-.5-2.89-2.19-2.89-2.17,1.44-2.17,2.89S211.42,83.41,213.09,83.41Z"/><path class="cls-3" d="M219.42,72.62h2.47V85h-2.47Z"/><path class="cls-3" d="M228.2,75.8a4.74,4.74,0,1,1-4.64,4.75A4.42,4.42,0,0,1,228.2,75.8Zm-3.08-3.34h2.73l1.67,2.47H227.8Zm3.08,11c1.69,0,2.19-1.44,2.19-2.86s-.5-2.89-2.19-2.89S226,79.1,226,80.55,226.53,83.41,228.2,83.41Z"/><path class="cls-3" d="M243.1,84.46c0,1.47-.52,4-4.66,4-1.77,0-3.84-.84-4-2.89h2.46a1.67,1.67,0,0,0,1.84,1.24c1.37,0,2-.94,2-2.23V83.38h0a3,3,0,0,1-2.7,1.39c-2.69,0-3.84-2-3.84-4.52s1.34-4.45,3.86-4.45a2.81,2.81,0,0,1,2.68,1.44h0V76h2.35Zm-2.35-4c0-1.46-.5-2.76-2.1-2.76-1.39,0-2,1.22-2,2.55s.48,2.7,2,2.7A2.22,2.22,0,0,0,240.75,80.42Z"/><path class="cls-3" d="M247.62,74.65h-2.47v-2h2.47ZM245.15,76h2.47v9h-2.47Z"/><path class="cls-3" d="M255.68,79.21a1.68,1.68,0,0,0-1.82-1.55c-1.58,0-2.11,1.6-2.11,2.92s.51,2.83,2.06,2.83a1.9,1.9,0,0,0,2-1.82h2.38a4,4,0,0,1-4.33,3.68,4.35,4.35,0,0,1-4.53-4.6c0-2.8,1.66-4.87,4.59-4.87,2.12,0,4.06,1.11,4.22,3.41Z"/><path class="cls-3" d="M84.3,102.12h-.92v-1.56h0a3.25,3.25,0,0,1-2.92,1.79c-2.5,0-3.69-2-3.69-4.33s1.19-4.34,3.69-4.34a2.92,2.92,0,0,1,2.84,1.8h0V90.77h1Zm-3.87-.61c2.12,0,2.87-1.79,2.87-3.49s-.75-3.5-2.87-3.5c-1.91,0-2.69,1.8-2.69,3.5S78.52,101.51,80.43,101.51Z"/><path class="cls-3" d="M86.8,98.29c0,1.46.77,3.22,2.7,3.22a2.5,2.5,0,0,0,2.57-2.1h1a3.35,3.35,0,0,1-3.57,2.94c-2.61,0-3.71-2-3.71-4.33,0-2.16,1.1-4.34,3.71-4.34s3.68,2.3,3.6,4.61Zm5.3-.85a2.75,2.75,0,0,0-2.6-2.92c-1.64,0-2.55,1.43-2.7,2.92Z"/><path class="cls-3" d="M107.35,94.2a3.44,3.44,0,0,0-3.48-2.74c-3,0-4.27,2.51-4.27,5s1.27,5,4.27,5a3.71,3.71,0,0,0,3.64-3.64h1.08c-.3,2.78-2.06,4.56-4.72,4.56-3.57,0-5.35-2.81-5.35-5.91s1.78-5.91,5.35-5.91a4.34,4.34,0,0,1,4.56,3.67Z"/><path class="cls-3" d="M110,96.43c.09-1.92,1.44-2.75,3.32-2.75,1.44,0,3,.44,3,2.64v4.35a.53.53,0,0,0,.58.6,1,1,0,0,0,.32-.06v.84a2.59,2.59,0,0,1-.65.07c-1,0-1.18-.58-1.18-1.43h0a3.12,3.12,0,0,1-3,1.66c-1.51,0-2.75-.74-2.75-2.4,0-2.3,2.24-2.38,4.4-2.63.82-.1,1.29-.21,1.29-1.11,0-1.35-1-1.69-2.15-1.69s-2.16.57-2.19,1.91Zm5.34,1.21h0c-.12.23-.57.31-.84.36-1.7.3-3.81.29-3.81,1.89a1.71,1.71,0,0,0,1.83,1.62,2.64,2.64,0,0,0,2.86-2.57Z"/><path class="cls-3" d="M119.89,93.92h1.66v.84h-1.66v5.53c0,.65.09,1,.81,1.08a8.08,8.08,0,0,0,.85-.05v.86c-.3,0-.58,0-.88,0-1.34,0-1.8-.44-1.78-1.84V94.76h-1.43v-.84h1.43V91.46h1Z"/><path class="cls-3" d="M122.9,96.43c.1-1.92,1.45-2.75,3.32-2.75,1.45,0,3,.44,3,2.64v4.35a.53.53,0,0,0,.59.6,1,1,0,0,0,.32-.06v.84a2.59,2.59,0,0,1-.65.07c-1,0-1.18-.58-1.18-1.43h0a3.13,3.13,0,0,1-3,1.66c-1.51,0-2.75-.74-2.75-2.4,0-2.3,2.25-2.38,4.41-2.63.82-.1,1.28-.21,1.28-1.11,0-1.35-1-1.69-2.14-1.69s-2.16.57-2.19,1.91Zm5.34,1.21h0c-.13.23-.57.31-.84.36-1.7.3-3.81.29-3.81,1.89a1.71,1.71,0,0,0,1.82,1.62,2.63,2.63,0,0,0,2.86-2.57Z"/><path class="cls-3" d="M131.26,90.77h1v11.35h-1Z"/><path class="cls-3" d="M140.82,102.12h-.92v-1.48h0a3,3,0,0,1-2.83,1.71c-2.06,0-2.87-1.2-2.87-3.11V93.92h1v5.34c.05,1.47.6,2.25,2.19,2.25s2.46-1.62,2.46-3.29v-4.3h1Z"/><path class="cls-3" d="M142.7,93.92h1v1.41h0a2.79,2.79,0,0,1,2.62-1.65c2.3,0,3,1.21,3,3.16v5.28h-1V97c0-1.41-.46-2.48-2.08-2.48a2.58,2.58,0,0,0-2.57,2.81v4.79h-1Z"/><path class="cls-3" d="M150.32,93.92h1.07l2.7,7,2.52-7h1l-3.55,9.45c-.58,1.38-.91,1.78-2.16,1.78a3,3,0,0,1-.77-.08v-.84a3.32,3.32,0,0,0,.69.08c.89,0,1.09-.53,1.43-1.29l.35-.94Z"/><path class="cls-3" d="M158.5,96.43c.1-1.92,1.45-2.75,3.32-2.75,1.45,0,3,.44,3,2.64v4.35a.53.53,0,0,0,.59.6,1,1,0,0,0,.32-.06v.84a2.59,2.59,0,0,1-.65.07c-1,0-1.18-.58-1.18-1.43h0a3.13,3.13,0,0,1-3,1.66c-1.51,0-2.74-.74-2.74-2.4,0-2.3,2.23-2.38,4.39-2.63.83-.1,1.29-.21,1.29-1.11,0-1.35-1-1.69-2.14-1.69s-2.16.57-2.19,1.91Zm5.34,1.21h0c-.13.23-.57.31-.84.36-1.7.3-3.81.29-3.81,1.89a1.71,1.71,0,0,0,1.82,1.62,2.63,2.63,0,0,0,2.86-2.57Z"/></g></g></svg>