<svg xmlns="http://www.w3.org/2000/svg" id="Ebene_1" data-name="Ebene 1" viewBox="0 0 380.86 1140"><defs><style>.cls-1{letter-spacing:-.07em}.cls-2{fill:none;stroke:#000;stroke-miterlimit:10}.cls-3{stroke-width:0}.cls-4,.cls-5{font-family:Arial-BoldMT,Arial;font-weight:700}.cls-5,.cls-6,.cls-7{font-size:12px}.cls-6,.cls-8{font-family:ArialMT,Arial}.cls-9{letter-spacing:-.04em}</style></defs><rect width="179.5" height="40" x="22.86" y="22" class="cls-2" rx="7.91" ry="7.91"/><rect width="179.5" height="59.46" x="22.45" y="160.04" class="cls-2" rx="7.91" ry="7.91"/><rect width="179.5" height="59.46" x="22.45" y="261.83" class="cls-2" rx="7.91" ry="7.91"/><rect width="179.5" height="59.46" x="23.11" y="363.43" class="cls-2" rx="7.91" ry="7.91"/><path d="M194.7 525.43H31.01c-4.37 0-7.91-3.54-7.91-7.91v-43.65c0-4.37 3.54-7.91 7.91-7.91h163.68c4.37 0 7.91 3.54 7.91 7.91v43.65c0 4.37-3.54 7.91-7.91 7.91ZM193.7 627.43H30.01c-4.37 0-7.91-3.54-7.91-7.91v-43.65c0-4.37 3.54-7.91 7.91-7.91h163.68c4.37 0 7.91 3.54 7.91 7.91v43.65c0 4.37-3.54 7.91-7.91 7.91Z" class="cls-2"/><rect width="179.5" height="59.46" x="23.11" y="729.03" class="cls-2" rx="7.91" ry="7.91"/><rect width="179.5" height="59.46" x="22.11" y="913.23" class="cls-2" rx="7.91" ry="7.91"/><rect width="86" height="115.04" x="244.36" y="333.46" class="cls-2" rx="7.91" ry="7.91"/><circle cx="340.36" cy="40.5" r="40" class="cls-2"/><ellipse cx="111.86" cy="851.5" class="cls-2" rx="39.5" ry="40"/><path d="m112.37 84.502 25.003 25.004-25.004 25.003-25.003-25.003zM251.373 16.504l25.003 25.004-24.763 24.763-25.003-25.004zM112.104 657.819l25.003 25.003-24.713 24.713-25.004-25.003zM287.11 570.808l25.003 25.003-25.498 25.499-25.003-25.004zM112.36 525.5v34.94" class="cls-2"/><path d="m112.36 567.5-4.06-9.95 4.06 2.36 4.07-2.36z" class="cls-3"/><path d="M112.11 626.95v22.94" class="cls-2"/><path d="m112.11 656.95-4.06-9.95 4.06 2.36 4.07-2.36z" class="cls-3"/><path d="m112.36 707.5.11 13.94" class="cls-2"/><path d="m112.52 728.5-4.14-9.92 4.08 2.33 4.05-2.39z" class="cls-3"/><path d="m112.36 788.5-.14 15.7" class="cls-2"/><path d="m112.15 811.26-3.97-9.99 4.04 2.4 4.09-2.33z" class="cls-3"/><path d="m112.36 892 .11 13.94" class="cls-2"/><path d="m112.52 913-4.14-9.92 4.08 2.33 4.05-2.39z" class="cls-3"/><path d="m111.46 972.85-.13 14.24" class="cls-2"/><path d="m111.26 994.15-3.97-9.99 4.04 2.4 4.09-2.32z" class="cls-3"/><path d="M112.36 422.75v35.44" class="cls-2"/><path d="m112.36 465.25-4.06-9.95 4.06 2.36 4.07-2.36z" class="cls-3"/><path d="M111.92 321.45v34.44" class="cls-2"/><path d="m111.92 362.95-4.06-9.95 4.06 2.36 4.07-2.36z" class="cls-3"/><path d="M111.92 219.55v34.84" class="cls-2"/><path d="m111.92 261.45-4.06-9.95 4.06 2.36 4.07-2.36z" class="cls-3"/><path d="m112.36 134.5-.31 18.04" class="cls-2"/><path d="m111.92 159.6-3.89-10.02 4.02 2.43 4.11-2.29z" class="cls-3"/><path d="m112.59 62.37-.17 14.44" class="cls-2"/><path d="m112.33 83.87-3.94-9.99 4.04 2.41 4.09-2.32z" class="cls-3"/><path d="M202.65 41.3h16.18" class="cls-2"/><path d="m225.89 41.3-9.94 4.07 2.36-4.07-2.36-4.06z" class="cls-3"/><path d="M275.81 41.5h16.94" class="cls-2"/><path d="m299.81 41.5-9.95 4.07 2.36-4.07-2.36-4.06z" class="cls-3"/><path d="m111.268 994.593 24.502 24.502-24.403 24.402-24.5-24.501z" class="cls-2"/><circle cx="111.36" cy="1099.5" r="40" class="cls-2"/><path d="M111.36 1043.03v8.88" class="cls-2"/><path d="m111.36 1058.97-4.06-9.94 4.06 2.36 4.07-2.36z" class="cls-3"/><path d="m355.357 916.92 24.501 24.501-24.402 24.403-24.501-24.502zM202.32 941.3H323.3" class="cls-2"/><path d="m330.36 941.3-9.95 4.07 2.37-4.07-2.37-4.06z" class="cls-3"/><path d="m201.73 596.5 52.57-.18" class="cls-2"/><path d="m261.36 596.3-9.93 4.1 2.35-4.07-2.38-4.06z" class="cls-3"/><path d="M208.17 189.5h147.19" class="cls-2"/><path d="m201.11 189.5 9.95 4.07-2.36-4.07 2.36-4.06z" class="cls-3"/><path d="M355.36 189.5v727.43M287.09 571l-.24-114.94" class="cls-2"/><path d="m286.83 449 4.09 9.94-4.07-2.36-4.06 2.37z" class="cls-3"/><text class="cls-5" transform="translate(48.67 37.59)"><tspan x="0" y="0" class="cls-9">A</tspan><tspan x="8.22" y="0">valanche problem(s)</tspan><tspan x="37.12" y="14.4">present?</tspan></text><text class="cls-7" transform="translate(79.86 183.35)"><tspan class="cls-4"><tspan x="0" y="0">Locations?</tspan></tspan><tspan class="cls-8"><tspan x="-48.38" y="14.4">E.g. elevations and/or aspects</tspan></tspan></text><text class="cls-7" transform="translate(58.13 287.65)"><tspan class="cls-4"><tspan x="0" y="0">Snowpack stability</tspan></tspan><tspan class="cls-8"><tspan x="4.32" y="14.4">in these locations?</tspan></tspan></text><text class="cls-7" transform="translate(44.31 381.47)"><tspan class="cls-4"><tspan x="0" y="0">Frequency of snowpack</tspan></tspan><tspan class="cls-4"><tspan x="45.68" y="14.4">stability</tspan></tspan><tspan class="cls-8"><tspan x="18.65" y="28.8">in these locations?</tspan></tspan></text><text class="cls-7" transform="translate(69.86 484.46)"><tspan class="cls-4"><tspan x="0" y="0" class="cls-9">A</tspan><tspan x="8.22" y="0">valanche size</tspan></tspan><tspan class="cls-8"><tspan x="-41.58" y="14.4">How large are avalanches likely</tspan></tspan><tspan class="cls-8"><tspan x="11.45" y="28.8">to become?</tspan></tspan></text><text class="cls-7" transform="translate(52.09 593.65)"><tspan class="cls-4"><tspan x="0" y="0">Substantial variation</tspan></tspan><tspan class="cls-8"><tspan x="-19.25" y="14.4">in stabilit</tspan><tspan x="27.44" y="14.4" class="cls-1">y</tspan><tspan x="32.55" y="14.4">, frequency or size?</tspan></tspan></text><text class="cls-6" transform="translate(102.86 687.59)"><tspan x="0" y="0">NO</tspan></text><text class="cls-6" transform="translate(241.82 45.04)"><tspan x="0" y="0">NO</tspan></text><text class="cls-6" transform="translate(99.82 114.06)"><tspan x="0" y="0">YES</tspan></text><text class="cls-6" transform="translate(273.81 599.49)"><tspan x="0" y="0">YES</tspan></text><text class="cls-6" transform="translate(343.54 945)"><tspan x="0" y="0">YES</tspan></text><text class="cls-6" transform="translate(102.06 1023.07)"><tspan x="0" y="0">NO</tspan></text><text class="cls-7" transform="translate(250.01 364.98)"><tspan class="cls-4"><tspan x="0" y="0">Reassess for</tspan></tspan><tspan class="cls-4"><tspan x="8.69" y="14.4">sub-units.</tspan></tspan><tspan class="cls-8"><tspan x="2.68" y="28.8">Lower limit is</tspan></tspan><tspan class="cls-8"><tspan x="-1.33" y="43.2">your reference</tspan></tspan><tspan class="cls-8"><tspan x="26.02" y="57.6">unit!</tspan></tspan></text><text class="cls-7" transform="translate(89.31 747.26)"><tspan class="cls-4"><tspan x="0" y="0">M</tspan><tspan x="10" y="0" class="cls-1">A</tspan><tspan x="17.77" y="0">TRIX</tspan></tspan><tspan class="cls-8"><tspan x="-62.49" y="14.4">Frequency of snowpack stability</tspan></tspan><tspan class="cls-8"><tspan x="-30.48" y="28.8">and avalanche sitze</tspan></tspan></text><text class="cls-5" transform="translate(38.48 939.1)"><tspan x="0" y="0">Other relevant avalanche </tspan><tspan x="40.7" y="14.4">problems?</tspan></text><text class="cls-5" transform="translate(89.38 1089.51)"><tspan x="0" y="0">Highest </tspan><tspan x="1.33" y="14.4">Danger </tspan><tspan x="6.66" y="28.8">Level</tspan></text><text class="cls-5" transform="translate(112 833.59)"><tspan x="0" y="0"> </tspan><tspan x="-20.67" y="14.4">Danger </tspan><tspan x="-15.34" y="28.8">Level</tspan></text><text class="cls-5" transform="translate(319.95 32.3)"><tspan x="0" y="0">Danger </tspan><tspan x="3.33" y="14.4">Level:</tspan><tspan x="3.34" y="28.8">1-Low</tspan></text><path d="M286.36 189.5v144" class="cls-2"/></svg>