<svg xmlns="http://www.w3.org/2000/svg" xmlns:xlink="http://www.w3.org/1999/xlink" width="822" height="754" viewBox="-66 148 822 754"><defs><linearGradient id="a"><stop offset="0" style="stop-color:#2e3436;stop-opacity:1"/><stop offset="1" style="stop-color:#babdb6;stop-opacity:1"/></linearGradient><linearGradient id="c"><stop offset="0" style="stop-color:#eeeeec;stop-opacity:1"/><stop offset=".599" style="stop-color:#eeeeec;stop-opacity:1"/><stop offset=".828" style="stop-color:#fff;stop-opacity:1"/><stop offset="1" style="stop-color:#d3d7cf;stop-opacity:1"/></linearGradient><linearGradient id="k"><stop offset="0" style="stop-color:#fff;stop-opacity:1"/><stop offset="1" style="stop-color:#fff;stop-opacity:0"/></linearGradient><linearGradient xlink:href="#k" id="T" x1="32.133" x2="37.949" y1="48.969" y2="48.969" gradientTransform="matrix(17.05225 0 0 -14.35322 633.836 1031.922)" gradientUnits="userSpaceOnUse"/><linearGradient xlink:href="#a" id="S" x1="35.997" x2="33.665" y1="40.458" y2="37.771" gradientTransform="matrix(14.74095 0 0 -16.60373 724.667 964.953)" gradientUnits="userSpaceOnUse"/><linearGradient xlink:href="#c" id="R" x1="22.308" x2="35.785" y1="18.992" y2="39.498" gradientTransform="matrix(18.06145 0 0 -17.37452 609.452 1005.47)" gradientUnits="userSpaceOnUse"/></defs><path d="M583.509 205.841h768.777v768.777H583.509z" style="fill:none;stroke:none" transform="translate(-710.039 -111.733)scale(1.10565)"/><path d="M790.217 891.916h505.277c5.343 0 9.645-4.445 9.645-9.967V404.813c0-43.494-116.431-145.826-156.847-145.826H790.217c-5.343 0-9.645 4.445-9.645 9.966V881.95c0 5.522 4.302 9.967 9.645 9.967z" style="fill:url(#R);fill-opacity:1;fill-rule:evenodd;stroke:#888a85;stroke-width:17.24025917;stroke-linecap:butt;stroke-linejoin:miter;stroke-miterlimit:4;stroke-opacity:1;stroke-dashoffset:0" transform="translate(-710.039 -111.733)scale(1.10565)"/><path d="M824.544 493.229h371.887v35.418H824.544zM824.544 561.141h354.041v35.418H824.544zM825.031 632.095h318.348v35.418H825.031zM825.401 705.737h371.887v35.418H825.401z" style="opacity:.1704545;fill:#000;fill-opacity:1;fill-rule:evenodd;stroke:none;stroke-width:1;marker:none;visibility:visible;display:inline;overflow:visible" transform="translate(-710.039 -111.733)scale(1.10565)"/><path d="M1167.767 259.235c29.93-5.477 141.348 75.214 136.86 141.096-23.043-40.232-70.144-21.365-130.711-24.005 0 0 5.828-108.789-6.15-117.09z" style="fill:url(#S);fill-opacity:1;fill-rule:evenodd;stroke:#888a85;stroke-width:15.64464569;stroke-linecap:butt;stroke-linejoin:miter;stroke-miterlimit:4;stroke-opacity:1;stroke-dasharray:none;stroke-dashoffset:0;marker:none;visibility:visible;display:inline;overflow:visible" transform="translate(-710.039 -111.733)scale(1.10565)"/><path d="M1189.148 295.622c20.192 11.354 65.276 35.64 84.43 66.871-23.528-11.291-43.453-3.478-84.057-3.161 0 0 2.392-50.842-.373-63.71z" style="opacity:.36931817;fill:none;stroke:url(#T);stroke-width:15.64463806;stroke-linecap:butt;stroke-linejoin:miter;stroke-miterlimit:4;stroke-opacity:1;stroke-dasharray:none;stroke-dashoffset:0;marker:none;visibility:visible;display:inline;overflow:visible" transform="translate(-710.039 -111.733)scale(1.10565)"/><path d="M604.957 393.991h532.348v320.21H604.957z" style="fill:#ce5c00;fill-opacity:1;fill-rule:nonzero;stroke:#ce5c00;stroke-width:16.97865677;stroke-linecap:round;stroke-linejoin:round;stroke-miterlimit:4;stroke-opacity:1;stroke-dasharray:none" transform="translate(-710.039 -111.733)scale(1.10565)"/><path d="m619.712 698.716 501.702.121-.293-289.638-501.616.293.207 289.224z" style="fill:#f57900;stroke:#fcaf3e;stroke-width:14.8563242;stroke-linecap:butt;stroke-linejoin:round;stroke-miterlimit:4;stroke-opacity:1;stroke-dasharray:none" transform="translate(-710.039 -111.733)scale(1.10565)"/><g style="font-size:144px;font-style:normal;font-weight:400;line-height:125%;letter-spacing:0;word-spacing:0;fill:#fff;fill-opacity:1;stroke:#fff;stroke-width:7.67611074;stroke-miterlimit:4;stroke-opacity:1;stroke-dasharray:none;font-family:Sans"><path d="M-1113.805 306.774h15.258l26.086 39.023 26.227-39.023h15.257l-33.75 50.414 36 54.563h-15.257l-29.532-44.649-29.742 44.649h-15.328l37.477-56.04-32.696-48.937M-1010.023 306.774h21.164l26.789 71.438 26.93-71.438h21.163v104.977h-13.851v-92.18l-27.07 72h-14.274l-27.07-72v92.18h-13.781V306.774M-885.71 306.774h14.202v93.024h51.117v11.953h-65.32V306.774" style="fill:#fff;fill-opacity:1;stroke:#fff;stroke-width:7.67611074;stroke-miterlimit:4;stroke-opacity:1;stroke-dasharray:none" transform="matrix(1.67082 0 0 1.99087 1875.904 -213.292)"/></g></svg>