<svg width="22" height="42" viewBox="0 0 22 42" xmlns="http://www.w3.org/2000/svg"><g fill="#000" fill-rule="evenodd"><path d="M15.5 4.5v1.414l-3.998-3.997V10.5h-1V1.911L6.5 5.914V4.5L11 0l4.5 4.5z"/><path d="M11 31a.5.5 0 1 1 0 1 .5.5 0 0 1 0-1zm2.224-.25a.5.5 0 1 1 .225.974.5.5 0 0 1-.225-.974zm-4.537-.013l.089.013a.5.5 0 1 1-.225.974.5.5 0 0 1 .225-.974zm6.65-.726a.5.5 0 1 1 .438.899.5.5 0 0 1-.438-.9zm-9.342.23a.5.5 0 1 1 .899.438.5.5 0 0 1-.9-.438zm11.237-1.42a.5.5 0 1 1 .63.777.5.5 0 0 1-.63-.777zm-13.167.074a.5.5 0 1 1 .777.629.5.5 0 0 1-.777-.63zm14.756-1.663a.5.5 0 1 1 .777.63.5.5 0 0 1-.777-.63zm-16.345-.074a.5.5 0 1 1 .63.777.5.5 0 0 1-.63-.777zm17.535-1.821a.5.5 0 1 1 .899.438.5.5 0 0 1-.9-.438zm-18.69-.23a.5.5 0 1 1 .438.898.5.5 0 0 1-.438-.899zm19.939-2.27l.09.012a.5.5 0 1 1-.226.975.5.5 0 0 1 .225-.975zm-20.61.012a.5.5 0 1 1 .226.975.5.5 0 0 1-.225-.975zM21.5 20.5a.5.5 0 1 1 0 1 .5.5 0 0 1 0-1zm-21 0a.5.5 0 1 1 0 1 .5.5 0 0 1 0-1zm20.624-2.324a.5.5 0 1 1 .225.975.5.5 0 0 1-.225-.975zM.786 18.164l.09.012a.5.5 0 1 1-.225.975.5.5 0 0 1 .225-.975zm19.455-2.17a.5.5 0 1 1 .438.9.5.5 0 0 1-.438-.9zm-19.15.231a.5.5 0 1 1 .898.438.5.5 0 0 1-.899-.438zm17.804-2.16a.5.5 0 1 1 .629.777.5.5 0 0 1-.63-.777zm-16.493.074a.5.5 0 1 1 .777.629.5.5 0 0 1-.777-.63zm14.756-1.663a.5.5 0 1 1 .777.63.5.5 0 0 1-.777-.63zm-13.02-.074a.5.5 0 1 1 .63.777.5.5 0 0 1-.63-.777zm10.968-1.081a.5.5 0 1 1 .9.438.5.5 0 0 1-.9-.438zm-8.881-.23a.5.5 0 1 1 .438.898.5.5 0 0 1-.438-.899zm7.135-.827l.089.012a.5.5 0 1 1-.225.974.5.5 0 0 1 .225-.974zm-4.809.012a.5.5 0 1 1 .225.974.5.5 0 0 1-.225-.974zM11 10a.5.5 0 1 1 0 1 .5.5 0 0 1 0-1z"/></g></svg>