<svg xmlns="http://www.w3.org/2000/svg" xml:space="preserve" width="1666" height="1624"><path fill-rule="evenodd" d="M1626.326 820.561c.21 6.303-1.822 12.122-6.425 16.963-2.067 2.173-4.221 4.263-6.342 6.385l-748.813 748.813c-1.414 1.414-2.813 2.843-4.243 4.241-12.305 12.025-26.163 12.104-38.794.2-1.939-1.828-3.777-3.764-5.663-5.649Q442.699 1218.169 69.356 844.82c-2.592-2.593-5.348-5.054-7.688-7.859-8.421-10.1-8.103-23.99.643-33.758 1.332-1.487 2.809-2.846 4.223-4.26C317.07 548.404 567.613 297.873 818.107 47.294c6.795-6.797 13.769-13.015 24.184-11.492 4.447.65 9.069 2.031 12.924 4.267 3.942 2.286 7.201 5.865 10.486 9.15 249.158 249.108 498.286 498.246 747.432 747.367 6.652 6.652 13.343 13.217 13.193 23.975m-1530.708.261-1.564 1.774c2.746 3.079 5.345 6.304 8.256 9.216a8285207 8285207 0 0 0 726.118 726.146c2.119 2.118 4.174 4.366 6.575 6.118 3.918 2.856 8.103 2.867 11.951-.253 2.063-1.672 3.886-3.646 5.772-5.526 31.629-31.537 63.285-63.048 94.87-94.629 210.021-210 420.025-420.014 630.034-630.024 2.121-2.121 4.403-4.112 6.292-6.425 1.321-1.617 2.101-3.677 3.593-6.396zm676.639-359.228 235.982-150.754c5.021 4.423 9.942 8.304 14.347 12.704 105.624 105.532 211.191 211.121 316.775 316.695 2.355 2.355 4.612 4.847 7.188 6.939 10.399 8.449 25.203 7.871 34.694-1.21 9.827-9.403 10.83-24.588 2.139-35.376-2.497-3.1-5.487-5.81-8.313-8.636-161.66-161.672-323.327-323.337-484.992-485.003-13.432-13.432-26.781-26.947-40.327-40.262-6.72-6.604-11.031-6.442-18.011-.014-1.225 1.128-2.364 2.348-3.543 3.525-141.165 141.166-282.33 282.329-423.482 423.505-2.235 2.235-4.316 4.625-6.47 6.943l1.126 1.546 236.636-134.21c45.742 28.07 90.846 55.746 136.251 83.608" clip-rule="evenodd"/><path fill="#FFF" fill-rule="evenodd" d="M95.618 820.822h1491.898c-1.492 2.72-2.271 4.779-3.593 6.396-1.889 2.313-4.171 4.304-6.292 6.425-210.009 210.011-420.014 420.024-630.034 630.024-31.585 31.581-63.241 63.092-94.87 94.629-1.887 1.881-3.71 3.854-5.772 5.526-3.849 3.12-8.033 3.109-11.951.253-2.401-1.752-4.456-4-6.575-6.118a8017947 8017947 0 0 1-726.118-726.146c-2.911-2.912-5.511-6.137-8.256-9.216zM772.257 461.594l-136.251-83.607-236.636 134.21-1.126-1.546c2.153-2.318 4.234-4.708 6.47-6.943 141.152-141.177 282.317-282.34 423.481-423.504 1.179-1.178 2.318-2.397 3.543-3.525 6.979-6.429 11.291-6.591 18.011.014 13.546 13.314 26.896 26.83 40.327 40.262 161.665 161.666 323.332 323.331 484.992 485.003 2.826 2.826 5.816 5.536 8.313 8.636 8.691 10.788 7.688 25.973-2.139 35.376-9.491 9.081-24.295 9.659-34.694 1.21-2.575-2.093-4.832-4.584-7.188-6.939-105.584-105.574-211.151-211.163-316.775-316.695-4.404-4.4-9.326-8.281-14.347-12.704z" clip-rule="evenodd"/></svg>