<?xml version="1.0" encoding="UTF-8" standalone="no"?>
<svg xmlns="http://www.w3.org/2000/svg"
     xmlns:svg="http://www.w3.org/2000/svg"
     version="1.1"
     width="21.8017mm" height="15.4094mm"
     viewBox="0 0 1030 728">
  <path id="path1"
        fill="white" stroke="black" stroke-width="20"
        d="M 281.00,35.11
           C 281.00,35.11 336.00,35.11 336.00,35.11
             336.00,35.11 441.00,35.11 441.00,35.11
             441.00,35.11 759.00,35.11 759.00,35.11
             809.11,35.08 851.92,79.16 852.00,129.00
             852.00,129.00 852.00,596.00 852.00,596.00
             851.92,645.69 808.99,689.92 759.00,690.00
             759.00,690.00 289.00,690.00 289.00,690.00
             241.20,689.93 197.08,647.11 197.00,599.00
             197.00,599.00 197.00,293.00 197.00,293.00
             197.00,293.00 197.00,124.00 197.00,124.00
             197.14,111.95 201.40,98.70 206.75,88.00
             222.22,57.06 247.51,40.91 281.00,35.11 Z">
        <title>border</title>
  </path>
  <path id="path1"
        fill="black" stroke="black" stroke-width="1"
        d="M 223.00,327.00
           C 227.48,320.74 287.00,262.00 287.00,262.00
             287.00,262.00 365.00,184.63 365.00,184.63
             365.00,184.63 438.35,145.38 438.35,145.38
             438.35,145.38 489.57,178.13 489.57,178.13
             489.57,178.13 590.82,115.69 590.82,115.69
             590.82,115.69 736.67,262.21 736.67,262.21
             736.67,262.21 751.90,252.43 751.90,252.43
             751.90,252.43 809.00,309.00 809.00,309.00
             814.29,314.29 826.00,327.00 826.00,327.00
             826.00,327.00 223.00,327.00 223.00,327.00 Z
           M 576.52,363.99
           C 621.30,364.17 622.90,399.92 622.93,408.96
             622.96,420.02 622.34,456.06 577.03,455.97
             529.50,455.99 529.01,415.99 529.03,410.19
             529.09,404.03 531.46,364.08 576.52,363.99 Z
           M 424.00,455.00
           C 424.00,455.00 424.04,365.00 424.04,365.00
             424.04,365.00 450.04,365.06 450.04,365.06
             450.04,365.06 484.00,414.00 484.00,414.00
             484.00,414.00 484.00,365.00 484.00,365.00
             484.00,365.00 510.00,365.00 510.00,365.00
             510.00,365.00 510.00,455.00 510.00,455.00
             510.00,455.00 484.09,454.98 484.09,454.98
             484.09,454.98 450.00,406.00 450.00,406.00
             450.00,406.00 450.00,455.00 450.00,455.00
             450.00,455.00 424.00,455.00 424.00,455.00 Z
           M 575.87,384.91
           C 557.20,385.06 557.00,405.08 557.02,409.98
             557.00,416.00 557.80,436.15 576.43,436.01
             595.51,435.35 595.03,416.03 595.03,410.41
             594.98,402.97 595.72,385.04 575.87,384.91 Z
           M 308.00,602.00
           C 308.00,602.00 326.00,601.09 326.00,601.09
             327.99,600.96 333.98,601.16 333.98,601.16
             334.43,603.72 335.19,607.42 340.05,611.78
             344.21,615.51 349.71,616.93 355.00,614.85
             360.47,612.71 364.40,607.61 360.34,602.11
             356.59,597.03 346.86,595.58 341.00,594.11
             326.25,590.39 310.01,583.05 311.68,565.00
             312.05,560.95 313.26,557.49 315.35,554.00
             322.85,541.51 339.13,540.98 352.00,541.00
             369.58,541.03 384.36,547.48 386.00,567.00
             386.00,567.00 360.00,569.00 360.00,569.00
             358.51,561.69 352.93,556.12 345.00,557.38
             340.78,558.05 335.37,562.20 338.62,566.78
             341.23,570.46 350.61,572.02 355.00,573.13
             370.33,576.98 388.52,581.81 388.99,601.00
             389.08,604.88 388.95,608.25 387.78,612.00
             386.38,616.48 384.27,619.65 380.96,622.96
             370.06,633.85 357.13,633.16 343.00,633.00
             335.45,632.91 326.18,630.89 320.01,626.37
             312.19,620.61 309.24,611.18 308.00,602.00 Z
           M 550.00,541.44
           C 564.79,539.54 582.66,541.44 593.91,552.18
             611.40,568.90 610.43,609.43 591.00,624.47
             579.70,633.22 568.41,633.15 555.00,633.00
             543.17,632.86 531.02,628.21 523.40,619.00
             510.12,603.18 510.31,570.82 523.40,555.01
             530.55,546.51 539.52,543.37 550.00,541.44 Z
           M 408.00,542.00
           C 408.00,542.00 433.84,542.05 433.84,542.05
             433.84,542.05 468.00,591.00 468.00,591.00
             468.00,591.00 468.00,542.00 468.00,542.00
             468.00,542.00 494.00,542.00 494.00,542.00
             494.00,542.00 494.00,632.00 494.00,632.00
             494.00,632.00 467.88,631.89 467.88,631.89
             467.88,631.89 434.00,583.00 434.00,583.00
             434.00,583.00 434.00,632.00 434.00,632.00
             434.00,632.00 408.00,632.00 408.00,632.00
             408.00,632.00 408.00,542.00 408.00,542.00 Z
           M 615.00,542.00
           C 615.00,542.00 641.00,542.00 641.00,542.00
             641.00,542.00 645.58,568.00 645.58,568.00
             645.58,568.00 651.00,591.00 651.00,591.00
             651.00,591.00 664.00,542.00 664.00,542.00
             664.00,542.00 690.10,542.08 690.10,542.08
             690.10,542.08 694.86,559.00 694.86,559.00
             694.86,559.00 703.84,591.19 703.84,591.19
             703.84,591.19 714.03,542.07 714.03,542.07
             714.03,542.07 740.00,542.00 740.00,542.00
             740.00,542.00 720.00,632.00 720.00,632.00
             720.00,632.00 693.18,631.94 693.18,631.94
             693.18,631.94 688.71,617.00 688.71,617.00
             688.71,617.00 677.00,576.00 677.00,576.00
             677.00,576.00 660.96,631.97 660.96,631.97
             660.96,631.97 634.00,632.00 634.00,632.00
             634.00,632.00 619.58,565.00 619.58,565.00
             619.58,565.00 615.00,542.00 615.00,542.00 Z
           M 554.00,562.39
           C 550.17,563.63 548.14,564.72 545.64,568.04
             537.08,579.39 537.44,619.00 565.00,612.32
             581.17,608.39 583.00,578.03 573.47,567.19
             568.46,561.49 560.96,561.44 554.00,562.39 Z">
        <title>symbol</title>
  </path>
</svg>
